<svg width="355" height="52" viewBox="0 0 355 52" fill="none" xmlns="http://www.w3.org/2000/svg">
<path d="M26.296 51.504C21.592 51.504 17.272 50.4 13.336 48.192C9.4 45.984 6.28 42.936 3.976 39.048C1.672 35.112 0.52 30.672 0.52 25.728C0.52 20.832 1.672 16.44 3.976 12.552C6.28 8.616 9.4 5.544 13.336 3.336C17.272 1.128 21.592 0.0239997 26.296 0.0239997C31.048 0.0239997 35.368 1.128 39.256 3.336C43.192 5.544 46.288 8.616 48.544 12.552C50.848 16.44 52 20.832 52 25.728C52 30.672 50.848 35.112 48.544 39.048C46.288 42.936 43.192 45.984 39.256 48.192C35.32 50.4 31 51.504 26.296 51.504ZM26.296 42.504C29.32 42.504 31.984 41.832 34.288 40.488C36.592 39.096 38.392 37.128 39.688 34.584C40.984 32.04 41.632 29.088 41.632 25.728C41.632 22.368 40.984 19.44 39.688 16.944C38.392 14.4 36.592 12.456 34.288 11.112C31.984 9.768 29.32 9.096 26.296 9.096C23.272 9.096 20.584 9.768 18.232 11.112C15.928 12.456 14.128 14.4 12.832 16.944C11.536 19.44 10.888 22.368 10.888 25.728C10.888 29.088 11.536 32.04 12.832 34.584C14.128 37.128 15.928 39.096 18.232 40.488C20.584 41.832 23.272 42.504 26.296 42.504ZM97.1553 11.112V51H87.0033V45.96C85.7073 47.688 84.0033 49.056 81.8913 50.064C79.8273 51.024 77.5713 51.504 75.1233 51.504C72.0033 51.504 69.2433 50.856 66.8433 49.56C64.4433 48.216 62.5473 46.272 61.1553 43.728C59.8113 41.136 59.1393 38.064 59.1393 34.512V11.112H69.2193V33.072C69.2193 36.24 70.0113 38.688 71.5953 40.416C73.1793 42.096 75.3393 42.936 78.0753 42.936C80.8593 42.936 83.0433 42.096 84.6273 40.416C86.2113 38.688 87.0033 36.24 87.0033 33.072V11.112H97.1553ZM117.181 17.304C118.477 15.192 120.157 13.536 122.221 12.336C124.333 11.136 126.733 10.536 129.421 10.536V21.12H126.757C123.589 21.12 121.189 21.864 119.557 23.352C117.973 24.84 117.181 27.432 117.181 31.128V51H107.101V11.112H117.181V17.304ZM187.566 0.743999V8.88H174.174V51H164.094V8.88H150.702V0.743999H187.566ZM232.001 30.192C232.001 31.632 231.905 32.928 231.713 34.08H202.553C202.793 36.96 203.801 39.216 205.577 40.848C207.353 42.48 209.537 43.296 212.129 43.296C215.873 43.296 218.537 41.688 220.121 38.472H230.993C229.841 42.312 227.633 45.48 224.369 47.976C221.105 50.424 217.097 51.648 212.345 51.648C208.505 51.648 205.049 50.808 201.977 49.128C198.953 47.4 196.577 44.976 194.849 41.856C193.169 38.736 192.329 35.136 192.329 31.056C192.329 26.928 193.169 23.304 194.849 20.184C196.529 17.064 198.881 14.664 201.905 12.984C204.929 11.304 208.409 10.464 212.345 10.464C216.137 10.464 219.521 11.28 222.497 12.912C225.521 14.544 227.849 16.872 229.481 19.896C231.161 22.872 232.001 26.304 232.001 30.192ZM221.561 27.312C221.513 24.72 220.577 22.656 218.753 21.12C216.929 19.536 214.697 18.744 212.057 18.744C209.561 18.744 207.449 19.512 205.721 21.048C204.041 22.536 203.009 24.624 202.625 27.312H221.561ZM236.767 30.912C236.767 26.88 237.559 23.304 239.143 20.184C240.775 17.064 242.959 14.664 245.695 12.984C248.479 11.304 251.575 10.464 254.983 10.464C257.959 10.464 260.551 11.064 262.759 12.264C265.015 13.464 266.815 14.976 268.159 16.8V11.112H278.311V51H268.159V45.168C266.863 47.04 265.063 48.6 262.759 49.848C260.503 51.048 257.887 51.648 254.911 51.648C251.551 51.648 248.479 50.784 245.695 49.056C242.959 47.328 240.775 44.904 239.143 41.784C237.559 38.616 236.767 34.992 236.767 30.912ZM268.159 31.056C268.159 28.608 267.679 26.52 266.719 24.792C265.759 23.016 264.463 21.672 262.831 20.76C261.199 19.8 259.447 19.32 257.575 19.32C255.703 19.32 253.975 19.776 252.391 20.688C250.807 21.6 249.511 22.944 248.503 24.72C247.543 26.448 247.063 28.512 247.063 30.912C247.063 33.312 247.543 35.424 248.503 37.248C249.511 39.024 250.807 40.392 252.391 41.352C254.023 42.312 255.751 42.792 257.575 42.792C259.447 42.792 261.199 42.336 262.831 41.424C264.463 40.464 265.759 39.12 266.719 37.392C267.679 35.616 268.159 33.504 268.159 31.056ZM337.692 10.536C342.588 10.536 346.524 12.048 349.5 15.072C352.524 18.048 354.036 22.224 354.036 27.6V51H343.956V28.968C343.956 25.848 343.164 23.472 341.58 21.84C339.996 20.16 337.836 19.32 335.1 19.32C332.364 19.32 330.18 20.16 328.548 21.84C326.964 23.472 326.172 25.848 326.172 28.968V51H316.092V28.968C316.092 25.848 315.3 23.472 313.716 21.84C312.132 20.16 309.972 19.32 307.236 19.32C304.452 19.32 302.244 20.16 300.612 21.84C299.028 23.472 298.236 25.848 298.236 28.968V51H288.156V11.112H298.236V15.936C299.532 14.256 301.188 12.936 303.204 11.976C305.268 11.016 307.524 10.536 309.972 10.536C313.092 10.536 315.876 11.208 318.324 12.552C320.772 13.848 322.668 15.72 324.012 18.168C325.308 15.864 327.18 14.016 329.628 12.624C332.124 11.232 334.812 10.536 337.692 10.536Z" fill="white"/>
</svg>
