<svg xmlns="http://www.w3.org/2000/svg" width="250" height="318" viewBox="0 0 250 318" fill="none">
<g style="mix-blend-mode:color">
<path d="M316.939 173.524L315.402 188.495C313.644 201.606 309.612 214.31 303.484 226.039C292.457 250.755 274.766 271.933 252.38 287.218C243.065 293.673 233.202 299.304 222.903 304.049C206.911 311.141 189.875 315.618 172.45 317.307C169.295 317.335 166.146 317.011 163.062 316.343L133.726 313.332C114.71 310.953 96.4385 304.479 80.1783 294.36C53.0378 279.198 31.2326 256.078 17.7257 228.141C7.8796 208.229 2.04408 186.588 0.549368 164.443C-0.883934 137.396 5.07694 110.474 17.7959 86.5501C30.5279 61.7846 49.8047 40.9592 73.5464 26.321C107.664 3.98473 149.148 -4.29623 189.282 3.21768C207.269 6.71239 224.494 13.3632 240.152 22.8603C272.965 41.6384 297.723 71.7732 309.722 107.539C317.909 128.522 320.399 151.283 316.939 173.524Z" fill="#7E18FF"/>
</g>
</svg>