<svg width="576" height="606" viewBox="0 0 576 606" fill="none" xmlns="http://www.w3.org/2000/svg">
<g clip-path="url(#clip0_2018_5118)">
<path d="M287.816 30.1484C348.819 30.1484 408.242 49.5392 457.504 85.52L406.598 155.216C372.115 130.029 330.518 116.456 287.816 116.456V30.1484Z" fill="#D582E3"/>
<path d="M457.504 85.52C506.765 121.501 543.314 172.209 561.872 230.32L479.655 256.576C466.665 215.898 441.081 180.403 406.598 155.216L457.504 85.52Z" fill="#EE77A2"/>
<path d="M561.872 230.32C572.205 262.676 576.727 296.607 575.227 330.54L489.004 326.73C490.053 302.977 486.888 279.225 479.655 256.576L561.872 230.32Z" fill="#EF8F8F"/>
<path d="M575.227 330.54C574.693 342.631 573.396 354.677 571.345 366.605L486.286 351.975C487.722 343.626 488.63 335.194 489.004 326.73L575.227 330.54Z" fill="#FFAA64"/>
<path d="M571.345 366.605C561.004 426.725 531.822 482.001 488.011 524.451L427.953 462.468C458.62 432.753 479.048 394.059 486.286 351.975L571.345 366.605Z" fill="#FFD65C"/>
<path d="M488.011 524.451C470.61 541.312 451.148 555.908 430.087 567.89L387.406 492.875C402.148 484.487 415.772 474.271 427.953 462.468L488.011 524.451Z" fill="#F5FF6D"/>
<path d="M430.087 567.89C366.226 604.225 290.883 614.749 219.51 597.304L240.002 513.465C289.963 525.677 342.703 518.31 387.406 492.875L430.087 567.89Z" fill="#9AE4A7"/>
<path d="M219.51 597.304C160.251 582.821 107.131 549.875 67.8213 503.227L133.82 447.611C161.337 480.265 198.521 503.326 240.002 513.465L219.51 597.304Z" fill="#80CBC3"/>
<path d="M67.8213 503.227C32.4987 461.311 9.8863 410.175 2.64581 355.841L88.197 344.44C93.2653 382.475 109.094 418.269 133.82 447.611L67.8213 503.227Z" fill="#5E9EFB"/>
<path d="M2.64581 355.841C-2.97064 313.693 0.825284 270.825 13.7604 230.32C26.6956 189.815 48.4483 152.682 77.4534 121.591L140.562 180.465C120.259 202.229 105.032 228.223 95.9772 256.576C86.9226 284.929 84.2655 314.937 88.197 344.44L2.64581 355.841Z" fill="#9875FF"/>
<path d="M77.4534 121.591C106.459 90.4995 141.995 66.2243 181.505 50.5118L213.399 130.71C185.741 141.709 160.866 158.702 140.562 180.465L77.4534 121.591Z" fill="#9E58F6"/>
<path d="M181.505 50.5118C215.335 37.0585 251.41 30.1484 287.816 30.1484V116.456C262.332 116.456 237.079 121.293 213.399 130.71L181.505 50.5118Z" fill="#CD59F6"/>
</g>
<g clip-path="url(#clip1_2018_5118)">
<path d="M285.536 497.459C278.758 497.582 272.059 495.981 266.067 492.806L162.826 433.104C160.388 432.246 158.275 430.652 156.781 428.54C155.287 426.428 154.484 423.903 154.484 421.315C154.484 418.727 155.287 416.202 156.781 414.091C158.275 411.979 160.388 410.384 162.826 409.526L266.067 349.824C272.107 346.78 278.774 345.195 285.536 345.195C292.297 345.195 298.964 346.78 305.004 349.824L408.245 409.526C410.684 410.384 412.796 411.979 414.29 414.091C415.784 416.202 416.587 418.727 416.587 421.315C416.587 423.903 415.784 426.428 414.29 428.54C412.796 430.652 410.684 432.246 408.245 433.104L305.004 492.806C299.012 495.981 292.314 497.582 285.536 497.459ZM285.536 346.948C279.083 346.836 272.708 348.365 267.007 351.392L163.713 411.095C161.57 411.808 159.705 413.179 158.383 415.013C157.061 416.848 156.35 419.053 156.35 421.315C156.35 423.577 157.061 425.782 158.383 427.617C159.705 429.451 161.57 430.823 163.713 431.536L267.007 491.238C272.759 494.151 279.115 495.669 285.562 495.669C292.008 495.669 298.364 494.151 304.117 491.238L407.358 431.536C409.502 430.823 411.367 429.451 412.688 427.617C414.01 425.782 414.721 423.577 414.721 421.315C414.721 419.053 414.01 416.848 412.688 415.013C411.367 413.179 409.502 411.808 407.358 411.095L304.117 351.392C298.396 348.365 292.004 346.837 285.536 346.948Z" fill="#42E8E0"/>
<path opacity="0.4" d="M419.779 398.421V363.028L413.307 359.421C411.48 370.451 398.483 377.77 387.627 379.286L313.615 422.626L281.358 434.493L178.274 381.221L180.675 379.862C171.854 375.732 167.104 366.321 162.354 357.695L155.412 361.825L151.289 363.028V398.996C151.622 401.714 152.659 404.298 154.298 406.49C155.937 408.682 158.121 410.406 160.632 411.49L263.612 471.088C270.405 474.541 277.916 476.341 285.534 476.341C293.152 476.341 300.663 474.541 307.456 471.088L410.697 411.386C413.152 410.27 415.278 408.539 416.869 406.359C418.46 404.179 419.462 401.625 419.779 398.943V398.316V398.421Z" fill="#42E8E0"/>
<path d="M419.779 366.929V343.508L413.307 339.901C411.48 350.932 398.483 358.251 387.627 359.767L313.615 403.106L281.358 414.765L178.274 361.283L180.675 359.924C171.854 355.794 167.104 346.384 162.354 337.758L155.412 341.888L151.289 343.09V367.086C151.562 369.814 152.545 372.423 154.138 374.652C155.732 376.881 157.881 378.652 160.371 379.79L263.612 439.702C270.413 443.131 277.92 444.917 285.534 444.917C293.148 444.917 300.655 443.131 307.456 439.702L410.697 379.999C413.152 378.884 415.278 377.152 416.869 374.972C418.46 372.793 419.462 370.238 419.779 367.557V366.929Z" fill="url(#paint0_linear_2018_5118)"/>
<path opacity="0.3" d="M387.632 359.779L313.62 403.118L285.539 413.26V444.941C293.172 445.098 300.718 443.299 307.461 439.713L410.702 380.011C413.157 378.895 415.283 377.164 416.874 374.984C418.465 372.804 419.468 370.25 419.784 367.568V366.941V343.52L413.886 340.227H413.26C411.172 351.101 398.384 358.263 387.632 359.779Z" fill="#28313E"/>
<path d="M180.674 360.151L278.54 303.795C280.718 302.7 283.122 302.13 285.56 302.13C287.997 302.13 290.401 302.7 292.58 303.795L388.671 359.367L387.627 359.994C398.483 358.478 411.48 351.159 413.306 340.128L305.42 280.008L274.103 271.695L248.528 286.752L162.406 338.194C167.104 346.611 171.853 356.073 180.674 360.151Z" fill="url(#paint1_linear_2018_5118)"/>
<path opacity="0.3" d="M285.555 274.561L274.072 271.477L248.496 286.533L162.375 337.975C167.125 346.601 171.874 356.011 180.695 360.141L278.561 303.785C280.7 302.604 283.112 302.008 285.555 302.06V274.561Z" fill="#0F054C"/>
<path d="M263.601 415.869L160.621 356.062C148.512 349.109 148.512 337.712 160.621 330.707L263.862 271.004C270.663 267.575 278.17 265.789 285.784 265.789C293.398 265.789 300.905 267.575 307.706 271.004L410.947 330.707C423.056 337.712 423.056 349.109 410.947 356.062L307.706 415.764C300.887 419.277 293.334 421.118 285.666 421.137C277.998 421.155 270.436 419.349 263.601 415.869ZM292.569 279.944C290.39 278.85 287.987 278.28 285.549 278.28C283.112 278.28 280.708 278.85 278.529 279.944L175.288 339.647C174.428 339.926 173.678 340.471 173.146 341.204C172.615 341.936 172.328 342.819 172.328 343.724C172.328 344.63 172.615 345.512 173.146 346.245C173.678 346.978 174.428 347.523 175.288 347.802L278.529 407.504C280.708 408.599 283.112 409.169 285.549 409.169C287.987 409.169 290.39 408.599 292.569 407.504L395.81 347.802C396.646 347.498 397.368 346.943 397.878 346.213C398.388 345.484 398.662 344.615 398.662 343.724C398.662 342.834 398.388 341.965 397.878 341.235C397.368 340.506 396.646 339.951 395.81 339.647L292.569 279.944Z" fill="url(#paint2_linear_2018_5118)"/>
<path d="M395.796 339.43L292.554 279.727C290.376 278.633 287.972 278.062 285.534 278.062C283.097 278.062 280.693 278.633 278.514 279.727L175.273 339.43C172.663 340.946 171.828 343.037 172.663 344.971C173.251 343.857 174.161 342.946 175.273 342.357L278.514 282.864C280.693 281.769 283.097 281.199 285.534 281.199C287.972 281.199 290.376 281.769 292.554 282.864L395.796 342.566C396.895 343.156 397.787 344.068 398.353 345.18C399.188 343.037 398.353 340.946 395.796 339.43Z" fill="white"/>
<path d="M410.702 356.078L307.461 415.781C300.668 419.234 293.157 421.034 285.539 421.034C277.921 421.034 270.41 419.234 263.617 415.781L160.637 356.078C158.383 355.029 156.401 353.474 154.844 351.534C153.287 349.594 152.198 347.321 151.66 344.891C151.544 347.879 152.341 350.832 153.945 353.354C155.549 355.876 157.884 357.848 160.637 359.006L263.617 418.813C270.41 422.266 277.921 424.066 285.539 424.066C293.157 424.066 300.668 422.266 307.461 418.813L410.702 359.11C413.455 357.953 415.79 355.981 417.394 353.459C418.998 350.936 419.796 347.984 419.68 344.995C419.127 347.406 418.031 349.659 416.474 351.58C414.918 353.501 412.944 355.04 410.702 356.078Z" fill="white"/>
<path d="M266.531 414.176L163.29 354.474C152.851 348.41 152.851 338.79 163.29 332.517L266.531 272.814C272.413 269.804 278.925 268.234 285.53 268.234C292.136 268.234 298.647 269.804 304.529 272.814L407.77 332.517C418.209 338.581 418.209 348.2 407.77 354.474L304.529 414.176C298.647 417.187 292.136 418.756 285.53 418.756C278.925 418.756 272.413 417.187 266.531 414.176ZM295.447 278.251C292.378 276.678 288.979 275.857 285.53 275.857C282.082 275.857 278.683 276.678 275.613 278.251L172.372 337.745C171.168 338.148 170.122 338.921 169.38 339.953C168.638 340.985 168.239 342.224 168.239 343.495C168.239 344.767 168.638 346.006 169.38 347.038C170.122 348.07 171.168 348.842 172.372 349.246L275.457 408.948C278.535 410.494 281.93 411.299 285.374 411.299C288.817 411.299 292.212 410.494 295.291 408.948L398.584 349.246C399.788 348.842 400.834 348.07 401.576 347.038C402.318 346.006 402.717 344.767 402.717 343.495C402.717 342.224 402.318 340.985 401.576 339.953C400.834 338.921 399.788 338.148 398.584 337.745L295.447 278.251Z" fill="url(#paint3_linear_2018_5118)"/>
<path opacity="0.4" d="M292.577 279.727C290.398 278.633 287.994 278.062 285.557 278.062C283.119 278.062 280.715 278.633 278.537 279.727L175.295 339.43C174.435 339.709 173.686 340.254 173.154 340.987C172.622 341.719 172.336 342.602 172.336 343.507C172.336 344.413 172.622 345.295 173.154 346.028C173.686 346.761 174.435 347.306 175.295 347.585L278.537 407.287C280.715 408.382 283.119 408.952 285.557 408.952C287.994 408.952 290.398 408.382 292.577 407.287L395.818 347.585C396.654 347.281 397.376 346.726 397.886 345.996C398.396 345.267 398.669 344.398 398.669 343.507C398.669 342.617 398.396 341.748 397.886 341.018C397.376 340.289 396.654 339.734 395.818 339.43L292.577 279.727Z" fill="#42E8E0"/>
<g clip-path="url(#clip2_2018_5118)">
<g style="mix-blend-mode:lighten">
<path d="M383.189 356.3V-25.4219H186.906V356.3C186.951 357.217 187.207 358.103 187.646 358.857C188.086 359.612 188.691 360.206 189.396 360.574L278.936 422.364C280.826 423.496 282.911 424.086 285.025 424.086C287.139 424.086 289.224 423.496 291.113 422.364L380.654 360.574C381.344 360.176 381.939 359.576 382.383 358.828C382.826 358.08 383.103 357.21 383.189 356.3Z" fill="url(#paint4_linear_2018_5118)"/>
</g>
</g>
<g clip-path="url(#clip3_2018_5118)">
<path d="M354.787 340.905C393.013 302.608 393.013 240.517 354.787 202.22C316.56 163.923 254.582 163.923 216.356 202.22C178.129 240.517 178.129 302.608 216.356 340.905C254.583 379.202 316.56 379.202 354.787 340.905Z" fill="url(#paint5_linear_2018_5118)"/>
<path d="M351.169 337.273C387.393 300.982 387.393 242.143 351.169 205.852C314.944 169.561 256.213 169.561 219.988 205.852C183.764 242.143 183.764 300.982 219.989 337.273C256.213 373.564 314.944 373.564 351.169 337.273Z" fill="url(#paint6_linear_2018_5118)"/>
<path style="mix-blend-mode:multiply" d="M270.192 352.538C232.382 345.35 203.582 312.139 203.283 272.159C202.952 226.707 239.58 189.453 284.952 189.114C295.761 189.004 306.485 191.043 316.502 195.112C326.52 199.182 335.632 205.202 343.312 212.824C351.033 220.403 357.177 229.442 361.388 239.416C365.599 249.39 367.794 260.102 367.845 270.932C367.956 281.761 365.921 292.505 361.859 302.541C357.796 312.577 351.787 321.706 344.178 329.4C336.613 337.135 327.591 343.291 317.635 347.51C307.679 351.729 296.986 353.927 286.176 353.977C280.814 354.019 275.461 353.537 270.192 352.538ZM300.299 194.649C295.25 193.691 290.12 193.229 284.982 193.269C274.716 193.317 264.561 195.405 255.105 199.411C245.65 203.418 237.082 209.264 229.897 216.61C222.673 223.916 216.968 232.585 213.111 242.115C209.253 251.645 207.321 261.846 207.425 272.129C207.474 282.414 209.558 292.587 213.558 302.059C217.557 311.532 223.391 320.116 230.723 327.315C238.016 334.552 246.668 340.268 256.181 344.133C265.693 347.997 275.876 349.933 286.14 349.828C296.406 349.781 306.561 347.693 316.016 343.687C325.472 339.68 334.04 333.834 341.225 326.487C348.449 319.182 354.155 310.513 358.012 300.983C361.869 291.453 363.801 281.252 363.697 270.969C363.65 260.684 361.567 250.51 357.568 241.037C353.569 231.565 347.735 222.981 340.402 215.782C329.431 204.897 315.468 197.539 300.299 194.649Z" fill="url(#paint7_linear_2018_5118)"/>
<path d="M198.532 271.688C198.452 271.688 198.372 271.704 198.297 271.736C198.222 271.767 198.155 271.813 198.098 271.871C198.041 271.929 197.997 271.997 197.966 272.073C197.936 272.148 197.921 272.228 197.922 272.309C197.964 277.15 198.401 281.978 199.229 286.747C199.254 286.891 199.328 287.02 199.44 287.114C199.551 287.207 199.692 287.257 199.837 287.256H199.939C200.019 287.242 200.095 287.213 200.163 287.17C200.231 287.127 200.29 287.07 200.336 287.004C200.383 286.938 200.415 286.863 200.433 286.784C200.45 286.706 200.452 286.624 200.437 286.545C199.622 281.842 199.191 277.081 199.15 272.309C199.15 272.228 199.134 272.147 199.104 272.072C199.073 271.996 199.027 271.928 198.97 271.87C198.913 271.812 198.845 271.766 198.769 271.735C198.694 271.704 198.614 271.687 198.532 271.688Z" fill="url(#paint8_linear_2018_5118)"/>
<path d="M204.06 300.373C204.034 300.296 203.993 300.226 203.939 300.165C203.885 300.105 203.82 300.056 203.747 300.021C203.674 299.986 203.595 299.966 203.514 299.962C203.434 299.958 203.353 299.97 203.277 299.997C203.201 300.024 203.131 300.065 203.071 300.119C203.011 300.173 202.962 300.238 202.927 300.311C202.893 300.384 202.872 300.463 202.868 300.544C202.864 300.625 202.875 300.705 202.902 300.781C204.512 305.344 206.495 309.765 208.832 314C208.885 314.096 208.964 314.177 209.059 314.232C209.154 314.288 209.263 314.317 209.373 314.315C209.475 314.314 209.575 314.288 209.665 314.239C209.736 314.2 209.798 314.148 209.849 314.085C209.899 314.022 209.937 313.95 209.959 313.872C209.981 313.794 209.988 313.713 209.978 313.633C209.969 313.552 209.944 313.475 209.904 313.404C207.602 309.229 205.648 304.87 204.06 300.373Z" fill="url(#paint9_linear_2018_5118)"/>
<path d="M217.803 325.289C217.753 325.225 217.692 325.172 217.622 325.133C217.551 325.093 217.474 325.068 217.394 325.059C217.314 325.049 217.233 325.056 217.156 325.079C217.078 325.101 217.006 325.139 216.944 325.189C216.88 325.239 216.828 325.301 216.788 325.372C216.749 325.443 216.724 325.52 216.715 325.601C216.706 325.681 216.712 325.762 216.735 325.84C216.757 325.918 216.794 325.99 216.844 326.053C219.846 329.846 223.153 333.385 226.733 336.635C226.846 336.741 226.996 336.798 227.151 336.795C227.236 336.795 227.32 336.776 227.398 336.742C227.476 336.707 227.545 336.656 227.602 336.592C227.71 336.471 227.766 336.312 227.758 336.149C227.75 335.987 227.679 335.834 227.559 335.724C224.028 332.519 220.765 329.028 217.803 325.289Z" fill="url(#paint10_linear_2018_5118)"/>
<path d="M199.496 258.554H199.596C199.742 258.552 199.882 258.499 199.992 258.403C200.102 258.308 200.175 258.176 200.197 258.032C200.936 253.318 202.064 248.673 203.568 244.145C203.62 243.991 203.608 243.822 203.535 243.676C203.462 243.53 203.334 243.419 203.18 243.367C203.025 243.316 202.857 243.328 202.711 243.401C202.565 243.474 202.455 243.602 202.403 243.756C200.877 248.349 199.734 253.06 198.985 257.842C198.972 257.923 198.974 258.005 198.992 258.084C199.011 258.164 199.045 258.239 199.092 258.305C199.14 258.371 199.2 258.427 199.269 258.47C199.339 258.513 199.416 258.541 199.496 258.554Z" fill="url(#paint11_linear_2018_5118)"/>
<path d="M305.989 187.407C310.621 188.536 315.151 190.047 319.534 191.925C319.612 191.958 319.696 191.975 319.78 191.975C319.899 191.974 320.016 191.938 320.115 191.871C320.214 191.804 320.291 191.71 320.337 191.599C320.369 191.525 320.386 191.445 320.387 191.364C320.387 191.283 320.371 191.202 320.341 191.127C320.31 191.052 320.264 190.984 320.207 190.927C320.149 190.87 320.081 190.825 320.006 190.795C315.561 188.889 310.966 187.356 306.267 186.214C306.189 186.194 306.107 186.19 306.027 186.202C305.947 186.214 305.871 186.242 305.801 186.284C305.732 186.326 305.672 186.382 305.625 186.447C305.577 186.513 305.543 186.587 305.524 186.666C305.506 186.745 305.503 186.827 305.516 186.908C305.529 186.988 305.559 187.065 305.602 187.134C305.645 187.203 305.701 187.263 305.768 187.309C305.834 187.356 305.909 187.39 305.989 187.407Z" fill="url(#paint12_linear_2018_5118)"/>
<path d="M332.159 198.637C336.169 201.215 339.961 204.118 343.498 207.317C343.611 207.421 343.759 207.477 343.912 207.473C343.998 207.473 344.082 207.455 344.16 207.42C344.237 207.385 344.307 207.334 344.364 207.27C344.418 207.211 344.46 207.141 344.487 207.065C344.515 206.989 344.527 206.908 344.523 206.828C344.519 206.747 344.499 206.668 344.464 206.595C344.429 206.522 344.381 206.457 344.321 206.403C340.734 203.157 336.887 200.212 332.819 197.596C332.682 197.509 332.516 197.479 332.358 197.514C332.199 197.549 332.061 197.646 331.973 197.782C331.884 197.92 331.854 198.088 331.889 198.248C331.924 198.408 332.021 198.548 332.159 198.637Z" fill="url(#paint13_linear_2018_5118)"/>
<path d="M249.894 192.629C249.979 192.626 250.062 192.607 250.14 192.573C254.484 190.614 258.984 189.021 263.592 187.809C263.67 187.789 263.744 187.754 263.808 187.705C263.873 187.657 263.927 187.596 263.968 187.527C264.008 187.457 264.035 187.38 264.046 187.3C264.056 187.22 264.051 187.139 264.03 187.061C264.01 186.982 263.974 186.909 263.925 186.845C263.877 186.78 263.816 186.726 263.746 186.686C263.676 186.645 263.599 186.618 263.52 186.607C263.44 186.596 263.358 186.601 263.28 186.622C258.606 187.851 254.042 189.467 249.635 191.452C249.487 191.519 249.372 191.642 249.314 191.794C249.256 191.946 249.261 192.115 249.327 192.263C249.376 192.373 249.456 192.465 249.556 192.53C249.657 192.595 249.774 192.629 249.894 192.629Z" fill="url(#paint14_linear_2018_5118)"/>
<path d="M226.055 208.533C226.209 208.532 226.358 208.473 226.47 208.366C229.946 205.103 233.684 202.131 237.646 199.48C237.713 199.435 237.771 199.378 237.816 199.311C237.86 199.244 237.892 199.169 237.907 199.09C237.923 199.011 237.923 198.929 237.907 198.85C237.891 198.771 237.86 198.696 237.815 198.629C237.771 198.561 237.714 198.503 237.647 198.457C237.58 198.412 237.504 198.38 237.425 198.364C237.346 198.348 237.264 198.348 237.184 198.363C237.105 198.379 237.03 198.411 236.962 198.456C232.947 201.147 229.157 204.161 225.63 207.469C225.512 207.581 225.443 207.736 225.438 207.899C225.433 208.062 225.492 208.221 225.604 208.34C225.661 208.402 225.731 208.451 225.809 208.484C225.887 208.517 225.97 208.534 226.055 208.533Z" fill="url(#paint15_linear_2018_5118)"/>
<path d="M208.367 231.272C208.457 231.32 208.557 231.345 208.659 231.345C208.771 231.344 208.879 231.312 208.974 231.254C209.069 231.195 209.146 231.112 209.197 231.012C211.434 226.797 214.013 222.773 216.909 218.981C216.958 218.917 216.994 218.844 217.015 218.766C217.035 218.688 217.04 218.607 217.03 218.526C217.019 218.446 216.992 218.369 216.952 218.3C216.911 218.23 216.857 218.169 216.793 218.12C216.729 218.071 216.656 218.034 216.578 218.013C216.5 217.992 216.419 217.987 216.339 217.997C216.259 218.008 216.182 218.034 216.113 218.075C216.043 218.115 215.982 218.169 215.933 218.233C212.998 222.081 210.382 226.162 208.112 230.437C208.073 230.509 208.05 230.587 208.042 230.668C208.034 230.749 208.042 230.83 208.066 230.908C208.09 230.985 208.129 231.057 208.18 231.12C208.232 231.182 208.296 231.234 208.367 231.272Z" fill="url(#paint16_linear_2018_5118)"/>
<path d="M251.502 351.129C247.121 349.244 242.903 346.999 238.892 344.417C238.755 344.329 238.588 344.3 238.429 344.335C238.27 344.369 238.131 344.466 238.043 344.603C237.999 344.671 237.969 344.747 237.955 344.826C237.941 344.905 237.942 344.987 237.96 345.066C237.977 345.144 238.009 345.219 238.056 345.285C238.102 345.351 238.161 345.408 238.229 345.451C242.293 348.072 246.569 350.349 251.011 352.259C251.088 352.295 251.172 352.312 251.256 352.309C251.376 352.309 251.493 352.273 251.592 352.207C251.692 352.141 251.77 352.047 251.817 351.937C251.881 351.788 251.884 351.619 251.825 351.468C251.766 351.317 251.65 351.195 251.502 351.129Z" fill="url(#paint17_linear_2018_5118)"/>
<path d="M361.741 229.933C361.843 229.932 361.943 229.906 362.033 229.856C362.104 229.817 362.166 229.764 362.216 229.701C362.266 229.638 362.304 229.565 362.326 229.487C362.348 229.409 362.355 229.328 362.345 229.248C362.336 229.167 362.311 229.089 362.272 229.019C359.928 224.787 357.24 220.756 354.235 216.967C354.185 216.904 354.123 216.851 354.052 216.812C353.982 216.773 353.904 216.748 353.824 216.738C353.744 216.729 353.663 216.736 353.585 216.758C353.508 216.78 353.435 216.817 353.372 216.868C353.245 216.97 353.163 217.117 353.145 217.279C353.126 217.441 353.172 217.604 353.272 217.732C356.235 221.47 358.887 225.445 361.2 229.617C361.253 229.714 361.332 229.794 361.427 229.85C361.522 229.905 361.631 229.934 361.741 229.933Z" fill="url(#paint18_linear_2018_5118)"/>
<path d="M371.285 256.972H371.388C371.549 256.943 371.691 256.851 371.784 256.717C371.877 256.584 371.914 256.418 371.886 256.257C371.049 251.49 369.82 246.801 368.209 242.238C368.154 242.084 368.04 241.959 367.893 241.889C367.746 241.818 367.577 241.809 367.423 241.862C367.269 241.918 367.144 242.032 367.075 242.18C367.005 242.327 366.997 242.496 367.051 242.65C368.64 247.149 369.853 251.773 370.678 256.473C370.705 256.615 370.78 256.742 370.891 256.833C371.002 256.925 371.142 256.974 371.285 256.972Z" fill="url(#paint19_linear_2018_5118)"/>
<path d="M368.294 298.657C368.14 298.605 367.971 298.617 367.826 298.69C367.68 298.763 367.569 298.891 367.518 299.045C366.001 303.572 364.114 307.965 361.877 312.18C361.8 312.324 361.784 312.492 361.831 312.648C361.879 312.804 361.986 312.935 362.129 313.012C362.219 313.059 362.319 313.085 362.421 313.085C362.532 313.084 362.641 313.052 362.736 312.994C362.831 312.935 362.908 312.852 362.958 312.752C365.232 308.478 367.146 304.021 368.679 299.428C368.73 299.274 368.718 299.107 368.646 298.963C368.573 298.818 368.447 298.708 368.294 298.657Z" fill="url(#paint20_linear_2018_5118)"/>
<path d="M373.2 270.679C373.199 270.598 373.183 270.518 373.151 270.444C373.119 270.37 373.073 270.302 373.016 270.246C372.958 270.189 372.89 270.145 372.815 270.115C372.74 270.085 372.66 270.069 372.58 270.07C372.499 270.071 372.42 270.087 372.346 270.119C372.271 270.15 372.204 270.196 372.148 270.253C372.091 270.311 372.047 270.379 372.017 270.453C371.987 270.528 371.972 270.608 371.973 270.689V270.895C372.01 275.668 371.656 280.435 370.914 285.15C370.901 285.23 370.904 285.312 370.923 285.39C370.942 285.469 370.976 285.543 371.023 285.609C371.071 285.674 371.131 285.73 371.2 285.772C371.269 285.814 371.345 285.842 371.425 285.855H371.528C371.673 285.854 371.814 285.802 371.924 285.707C372.034 285.612 372.106 285.48 372.128 285.336C372.878 280.553 373.237 275.717 373.2 270.875V270.679Z" fill="url(#paint21_linear_2018_5118)"/>
<path d="M307.444 355.336C302.834 356.538 298.132 357.356 293.388 357.783C293.226 357.798 293.077 357.876 292.973 358.001C292.868 358.125 292.817 358.286 292.83 358.448C292.844 358.601 292.915 358.744 293.028 358.848C293.142 358.952 293.29 359.009 293.444 359.01H293.497C298.313 358.576 303.086 357.746 307.766 356.526C307.844 356.506 307.917 356.47 307.982 356.421C308.046 356.372 308.1 356.311 308.14 356.241C308.181 356.172 308.208 356.095 308.219 356.015C308.23 355.934 308.225 355.853 308.204 355.775C308.184 355.695 308.148 355.621 308.099 355.555C308.05 355.49 307.988 355.435 307.917 355.394C307.846 355.353 307.768 355.327 307.686 355.317C307.605 355.307 307.523 355.314 307.444 355.336Z" fill="url(#paint22_linear_2018_5118)"/>
<path d="M292.572 184.63C292.578 184.548 292.568 184.467 292.543 184.389C292.518 184.312 292.477 184.24 292.424 184.178C292.371 184.116 292.306 184.066 292.234 184.029C292.161 183.992 292.082 183.971 292.001 183.965C287.182 183.618 282.344 183.663 277.533 184.098C277.372 184.114 277.224 184.192 277.12 184.317C277.016 184.441 276.966 184.601 276.979 184.762C276.991 184.916 277.062 185.059 277.176 185.163C277.289 185.267 277.439 185.323 277.592 185.321H277.646C282.391 184.891 287.162 184.847 291.915 185.188C292.075 185.199 292.234 185.147 292.356 185.043C292.479 184.938 292.556 184.79 292.572 184.63Z" fill="url(#paint23_linear_2018_5118)"/>
<path d="M279.12 357.904C274.369 357.554 269.655 356.811 265.027 355.683C264.949 355.663 264.867 355.659 264.787 355.671C264.707 355.683 264.631 355.71 264.562 355.752C264.493 355.794 264.432 355.849 264.385 355.914C264.337 355.979 264.302 356.053 264.283 356.132C264.264 356.21 264.26 356.292 264.273 356.372C264.285 356.452 264.313 356.529 264.355 356.598C264.397 356.667 264.452 356.727 264.517 356.775C264.582 356.823 264.656 356.857 264.735 356.876C269.43 358.02 274.211 358.774 279.03 359.13H279.08C279.234 359.13 279.382 359.071 279.495 358.966C279.608 358.86 279.676 358.716 279.687 358.562C279.699 358.399 279.646 358.238 279.54 358.115C279.433 357.991 279.282 357.915 279.12 357.904Z" fill="url(#paint24_linear_2018_5118)"/>
<path d="M354.166 324.212C351.264 327.999 348.057 331.54 344.576 334.8C344.457 334.913 344.388 335.067 344.383 335.23C344.378 335.394 344.438 335.552 344.549 335.671C344.607 335.733 344.676 335.782 344.754 335.816C344.832 335.849 344.916 335.865 345 335.864C345.154 335.863 345.302 335.805 345.415 335.701C348.943 332.393 352.195 328.8 355.138 324.96C355.237 324.83 355.281 324.666 355.259 324.504C355.238 324.342 355.154 324.195 355.025 324.096C354.961 324.046 354.888 324.01 354.81 323.989C354.732 323.969 354.651 323.963 354.571 323.974C354.491 323.985 354.414 324.012 354.345 324.052C354.275 324.093 354.214 324.147 354.166 324.212Z" fill="url(#paint25_linear_2018_5118)"/>
<path d="M333.381 343.676C329.415 346.323 325.239 348.64 320.894 350.601C320.82 350.634 320.754 350.681 320.699 350.739C320.643 350.798 320.6 350.867 320.571 350.942C320.543 351.017 320.529 351.098 320.532 351.178C320.534 351.259 320.552 351.338 320.586 351.412C320.634 351.521 320.713 351.613 320.814 351.678C320.914 351.742 321.031 351.776 321.15 351.774C321.235 351.775 321.32 351.756 321.399 351.721C325.805 349.739 330.041 347.395 334.061 344.713C334.129 344.669 334.186 344.611 334.231 344.544C334.276 344.477 334.307 344.402 334.323 344.323C334.338 344.244 334.338 344.162 334.323 344.083C334.307 344.004 334.276 343.929 334.231 343.862C334.187 343.794 334.131 343.735 334.064 343.689C333.998 343.642 333.923 343.61 333.844 343.592C333.766 343.575 333.684 343.574 333.604 343.588C333.525 343.602 333.449 343.632 333.381 343.676Z" fill="url(#paint26_linear_2018_5118)"/>
<path d="M241.351 249.922H230.732V254.626C231.264 254.075 231.916 253.655 232.637 253.399C233.484 253.074 234.385 252.912 235.292 252.921C236.993 252.921 238.406 253.307 239.529 254.081C240.623 254.818 241.48 255.857 241.995 257.073C242.525 258.335 242.792 259.693 242.778 261.062C242.778 263.722 242.03 265.827 240.535 267.379C239.039 268.93 236.929 269.706 234.204 269.706C232.578 269.745 230.963 269.425 229.475 268.768C228.217 268.211 227.143 267.307 226.379 266.162C225.641 265.01 225.229 263.678 225.188 262.309H230.872C230.996 262.99 231.347 263.609 231.867 264.064C232.469 264.558 233.234 264.807 234.011 264.762C235.077 264.762 235.872 264.422 236.394 263.742C236.948 262.945 237.223 261.986 237.173 261.016C237.173 259.908 236.901 259.054 236.357 258.456C235.813 257.858 235.02 257.563 233.978 257.572C233.297 257.543 232.627 257.741 232.07 258.133C231.576 258.497 231.224 259.021 231.074 259.616H225.46V244.789H241.351V249.922Z" fill="url(#paint27_linear_2018_5118)"/>
<path d="M248.247 247.718C249.754 245.471 252.187 244.346 255.548 244.344C258.908 244.342 261.342 245.466 262.848 247.718C264.355 249.968 265.108 253.047 265.108 256.957C265.108 260.911 264.355 264.014 262.848 266.265C261.342 268.517 258.908 269.642 255.548 269.64C252.192 269.64 249.758 268.515 248.247 266.265C246.737 264.016 245.982 260.913 245.984 256.957C245.984 253.047 246.739 249.968 248.247 247.718ZM258.641 251.658C258.143 250.419 257.111 249.799 255.545 249.799C253.982 249.799 252.946 250.418 252.449 251.658C251.951 252.898 251.702 254.65 251.702 256.957C251.682 258.241 251.773 259.525 251.974 260.793C252.105 261.699 252.488 262.549 253.079 263.247C253.634 263.872 254.456 264.184 255.545 264.184C256.633 264.184 257.456 263.872 258.013 263.247C258.602 262.547 258.984 261.698 259.118 260.793C259.32 259.525 259.411 258.241 259.391 256.957C259.391 254.674 259.141 252.908 258.641 251.658Z" fill="url(#paint28_linear_2018_5118)"/>
<path d="M270.435 247.718C271.946 245.471 274.379 244.346 277.735 244.344C281.091 244.342 283.525 245.466 285.036 247.718C286.542 249.968 287.297 253.047 287.299 256.957C287.299 260.911 286.545 264.014 285.036 266.265C283.527 268.517 281.094 269.642 277.735 269.64C274.382 269.64 271.948 268.515 270.435 266.265C268.922 264.016 268.167 260.913 268.172 256.957C268.172 253.047 268.926 249.968 270.435 247.718ZM280.831 251.658C280.332 250.419 279.298 249.799 277.732 249.799C276.166 249.799 275.134 250.419 274.636 251.658C274.138 252.894 273.889 254.661 273.889 256.957C273.869 258.241 273.96 259.525 274.162 260.793C274.293 261.699 274.675 262.549 275.267 263.247C275.82 263.872 276.641 264.184 277.732 264.184C278.824 264.184 279.643 263.872 280.201 263.247C280.789 262.547 281.172 261.698 281.306 260.793C281.507 259.525 281.598 258.241 281.578 256.957C281.578 254.674 281.329 252.908 280.831 251.658Z" fill="url(#paint29_linear_2018_5118)"/>
<path d="M317.986 245.797V269.733H312.168V255.381L306.826 269.733H302.13L296.755 255.348V269.733H290.938V245.797H297.81L304.513 262.363L311.15 245.797H317.986Z" fill="url(#paint30_linear_2018_5118)"/>
<path d="M349.222 245.797V269.733H343.405V255.381L338.063 269.733H333.367L327.991 255.348V269.733H322.188V245.797H329.063L335.766 262.363L342.403 245.797H349.222Z" fill="url(#paint31_linear_2018_5118)"/>
<path d="M267.756 298.189C267.075 299.383 266.058 300.348 264.832 300.965C263.505 301.67 261.871 302.022 259.931 302.022H256.324V310.613H250.5V286.677H259.924C261.59 286.627 263.245 286.969 264.756 287.674C265.995 288.261 267.027 289.212 267.716 290.4C268.392 291.619 268.735 292.995 268.711 294.389C268.726 295.717 268.397 297.027 267.756 298.189ZM261.972 296.603C262.252 296.311 262.468 295.964 262.607 295.583C262.746 295.202 262.804 294.797 262.778 294.393C262.803 293.986 262.744 293.58 262.603 293.198C262.462 292.816 262.244 292.468 261.962 292.175C261.417 291.654 260.59 291.393 259.48 291.391H256.314V297.375H259.48C260.599 297.381 261.43 297.124 261.972 296.603Z" fill="url(#paint32_linear_2018_5118)"/>
<path d="M277.567 286.703V310.639H271.75V286.703H277.567Z" fill="url(#paint33_linear_2018_5118)"/>
<path d="M296.417 310.633L291.549 303.319L287.265 310.633H280.661L288.317 298.465L280.492 286.703H287.265L292.06 293.931L296.281 286.703H302.881L295.292 298.771L303.187 310.633H296.417Z" fill="url(#paint34_linear_2018_5118)"/>
<path d="M323.366 298.189C322.686 299.383 321.669 300.348 320.443 300.965C319.115 301.67 317.482 302.022 315.541 302.022H311.934V310.613H306.117V286.677H315.555C317.221 286.627 318.875 286.969 320.386 287.674C321.626 288.262 322.658 289.212 323.346 290.4C324.022 291.619 324.366 292.995 324.342 294.389C324.35 295.719 324.014 297.029 323.366 298.189ZM317.582 296.603C317.865 296.312 318.083 295.964 318.224 295.583C318.364 295.201 318.424 294.795 318.398 294.389C318.424 293.983 318.364 293.576 318.223 293.194C318.083 292.813 317.865 292.464 317.582 292.172C317.038 291.651 316.211 291.39 315.1 291.387H311.934V297.371H315.1C316.213 297.38 317.04 297.124 317.582 296.603Z" fill="url(#paint35_linear_2018_5118)"/>
<path d="M242.695 250.266H232.076V254.97C232.609 254.42 233.26 254 233.981 253.743C234.828 253.419 235.729 253.256 236.636 253.264C238.337 253.264 239.749 253.651 240.873 254.425C241.967 255.162 242.824 256.201 243.339 257.417C243.868 258.679 244.134 260.037 244.122 261.406C244.122 264.066 243.373 266.171 241.875 267.723C240.378 269.274 238.268 270.05 235.547 270.05C233.921 270.088 232.307 269.768 230.819 269.112C229.56 268.557 228.485 267.653 227.723 266.506C226.983 265.354 226.571 264.022 226.531 262.653H232.212C232.337 263.334 232.688 263.952 233.208 264.408C233.81 264.901 234.575 265.15 235.351 265.106C236.42 265.106 237.214 264.766 237.734 264.086C238.29 263.289 238.566 262.33 238.517 261.36C238.517 260.246 238.245 259.391 237.701 258.803C237.157 258.215 236.374 257.915 235.318 257.915C234.639 257.887 233.969 258.085 233.414 258.477C232.919 258.84 232.566 259.364 232.418 259.96H226.803V245.133H242.692L242.695 250.266Z" fill="url(#paint36_linear_2018_5118)"/>
<path d="M249.596 248.038C251.105 245.791 253.538 244.666 256.896 244.664C260.254 244.662 262.688 245.787 264.197 248.038C265.708 250.288 266.462 253.368 266.46 257.277C266.46 261.233 265.705 264.336 264.197 266.586C262.688 268.835 260.254 269.96 256.896 269.96C253.538 269.96 251.105 268.835 249.596 266.586C248.087 264.336 247.334 261.233 247.336 257.277C247.336 253.37 248.089 250.29 249.596 248.038ZM259.992 251.978C259.492 250.737 258.46 250.117 256.896 250.12C255.332 250.122 254.3 250.741 253.8 251.978C253.3 253.215 253.05 254.981 253.05 257.277C253.03 258.561 253.121 259.845 253.322 261.114C253.456 262.018 253.839 262.868 254.427 263.567C254.985 264.192 255.808 264.504 256.896 264.504C257.985 264.504 258.806 264.192 259.362 263.567C259.953 262.869 260.336 262.019 260.467 261.114C260.668 259.845 260.759 258.561 260.739 257.277C260.739 254.985 260.49 253.219 259.992 251.978Z" fill="url(#paint37_linear_2018_5118)"/>
<path d="M271.794 248.038C273.301 245.791 275.734 244.666 279.095 244.664C282.455 244.662 284.889 245.787 286.395 248.038C287.904 250.288 288.658 253.368 288.658 257.277C288.658 261.233 287.904 264.336 286.395 266.586C284.886 268.835 282.453 269.96 279.095 269.96C275.737 269.96 273.303 268.835 271.794 266.586C270.286 264.336 269.531 261.233 269.531 257.277C269.531 253.37 270.286 250.29 271.794 248.038ZM282.188 251.978C281.69 250.737 280.658 250.117 279.091 250.12C277.525 250.122 276.493 250.741 275.995 251.978C275.495 253.215 275.245 254.981 275.245 257.277C275.227 258.561 275.318 259.845 275.518 261.114C275.651 262.019 276.035 262.869 276.626 263.567C277.181 264.192 278.003 264.504 279.091 264.504C280.18 264.504 281.002 264.192 281.557 263.567C282.148 262.869 282.532 262.019 282.665 261.114C282.865 259.845 282.956 258.561 282.937 257.277C282.937 254.985 282.687 253.219 282.188 251.978Z" fill="url(#paint38_linear_2018_5118)"/>
<path d="M319.34 246.141V270.077H313.52V255.728L308.181 270.077H303.485L298.109 255.692V270.077H292.289V246.141H299.161L305.865 262.706L312.501 246.141H319.34Z" fill="url(#paint39_linear_2018_5118)"/>
<path d="M350.559 246.141V270.077H344.745V255.728L339.403 270.077H334.707L329.332 255.692V270.077H323.508V246.141H330.38L337.083 262.706L343.72 246.141H350.559Z" fill="url(#paint40_linear_2018_5118)"/>
<path d="M269.112 298.548C268.428 299.741 267.41 300.707 266.185 301.328C264.857 302.032 263.235 302.381 261.287 302.381H257.68V310.972H251.859V287.036H261.287C262.953 286.988 264.607 287.33 266.118 288.033C267.357 288.621 268.389 289.572 269.078 290.759C269.755 291.978 270.098 293.354 270.074 294.748C270.085 296.077 269.754 297.386 269.112 298.548ZM263.328 296.962C263.61 296.671 263.829 296.323 263.969 295.942C264.11 295.561 264.169 295.154 264.144 294.748C264.169 294.342 264.109 293.935 263.969 293.554C263.828 293.172 263.61 292.824 263.328 292.531C262.783 292.01 261.955 291.749 260.842 291.746H257.68V297.73H260.842C261.954 297.747 262.787 297.488 263.328 296.962Z" fill="url(#paint41_linear_2018_5118)"/>
<path d="M278.922 287.047V310.983H273.102V287.047H278.922Z" fill="url(#paint42_linear_2018_5118)"/>
<path d="M297.765 310.976L292.901 303.663L288.613 310.976H282.013L289.668 298.809L281.844 287.047H288.613L293.412 294.274L297.629 287.047H304.229L296.644 299.115L304.538 310.976H297.765Z" fill="url(#paint43_linear_2018_5118)"/>
<path d="M324.698 298.548C324.014 299.741 322.996 300.707 321.771 301.328C320.443 302.032 318.821 302.381 316.873 302.381H313.266V310.972H307.445V287.036H316.866C318.532 286.988 320.186 287.33 321.698 288.033C322.936 288.621 323.968 289.572 324.658 290.759C325.334 291.978 325.677 293.354 325.653 294.748C325.666 296.076 325.337 297.385 324.698 298.548ZM318.914 296.962C319.196 296.671 319.415 296.323 319.555 295.942C319.696 295.561 319.755 295.154 319.73 294.748C319.755 294.342 319.695 293.935 319.555 293.554C319.414 293.172 319.196 292.824 318.914 292.531C318.369 292.01 317.541 291.749 316.428 291.746H313.266V297.73H316.428C317.53 297.747 318.369 297.488 318.914 296.962Z" fill="url(#paint44_linear_2018_5118)"/>
</g>
</g>
<defs>
<linearGradient id="paint0_linear_2018_5118" x1="178.013" y1="296.928" x2="391.191" y2="419.8" gradientUnits="userSpaceOnUse">
<stop stop-color="#BDEEFF"/>
<stop offset="0.23" stop-color="#ACE7FB"/>
<stop offset="0.68" stop-color="#88D3ED"/>
<stop offset="1" stop-color="#57B8D9"/>
</linearGradient>
<linearGradient id="paint1_linear_2018_5118" x1="190.8" y1="288.686" x2="380.89" y2="398.259" gradientUnits="userSpaceOnUse">
<stop offset="0.24" stop-color="#5761D7"/>
<stop offset="0.39" stop-color="#7A82E5"/>
<stop offset="0.55" stop-color="#979CF0"/>
<stop offset="0.7" stop-color="#ACAFF8"/>
<stop offset="0.85" stop-color="#B8BAFD"/>
<stop offset="1" stop-color="#BCBEFF"/>
</linearGradient>
<linearGradient id="paint2_linear_2018_5118" x1="151.278" y1="343.515" x2="419.768" y2="343.515" gradientUnits="userSpaceOnUse">
<stop stop-color="#E9E9FD"/>
<stop offset="0.36" stop-color="#D3D2F9"/>
<stop offset="0.71" stop-color="#C5C4F7"/>
<stop offset="1" stop-color="#C0BFF6"/>
</linearGradient>
<linearGradient id="paint3_linear_2018_5118" x1="155.409" y1="343.495" x2="415.652" y2="343.495" gradientUnits="userSpaceOnUse">
<stop stop-color="#E9E9FD"/>
<stop offset="0.36" stop-color="#D3D2F9"/>
<stop offset="0.71" stop-color="#C5C4F7"/>
<stop offset="1" stop-color="#C0BFF6"/>
</linearGradient>
<linearGradient id="paint4_linear_2018_5118" x1="296.743" y1="290.359" x2="295.132" y2="-19.8121" gradientUnits="userSpaceOnUse">
<stop stop-color="#FFB73A"/>
<stop offset="1" stop-color="#29323C" stop-opacity="0"/>
</linearGradient>
<linearGradient id="paint5_linear_2018_5118" x1="160.823" y1="186.621" x2="455.417" y2="386.481" gradientUnits="userSpaceOnUse">
<stop stop-color="#EDDD8C"/>
<stop offset="0.2" stop-color="#E1943F"/>
<stop offset="0.25" stop-color="#D2863A"/>
<stop offset="0.31" stop-color="#C17633"/>
<stop offset="0.39" stop-color="#B66C2F"/>
<stop offset="0.47" stop-color="#B3692E"/>
<stop offset="0.53" stop-color="#BC7131"/>
<stop offset="0.61" stop-color="#D3873A"/>
<stop offset="0.65" stop-color="#E1943F"/>
<stop offset="0.68" stop-color="#E39F4C"/>
<stop offset="0.76" stop-color="#EAC377"/>
<stop offset="0.82" stop-color="#EEDA92"/>
<stop offset="0.86" stop-color="#F0E29C"/>
<stop offset="0.88" stop-color="#EFDD97"/>
<stop offset="0.91" stop-color="#EDCF88"/>
<stop offset="0.95" stop-color="#E9B86F"/>
<stop offset="0.99" stop-color="#E3994D"/>
<stop offset="1" stop-color="#E18B3E"/>
</linearGradient>
<linearGradient id="paint6_linear_2018_5118" x1="219.704" y1="338.554" x2="369.456" y2="186.817" gradientUnits="userSpaceOnUse">
<stop stop-color="#EDDD8C"/>
<stop offset="0.2" stop-color="#E1943F"/>
<stop offset="0.25" stop-color="#D2863A"/>
<stop offset="0.31" stop-color="#C17633"/>
<stop offset="0.39" stop-color="#B66C2F"/>
<stop offset="0.47" stop-color="#B3692E"/>
<stop offset="0.53" stop-color="#BC7131"/>
<stop offset="0.61" stop-color="#D3873A"/>
<stop offset="0.65" stop-color="#E1943F"/>
<stop offset="0.68" stop-color="#E39F4C"/>
<stop offset="0.76" stop-color="#EAC377"/>
<stop offset="0.82" stop-color="#EEDA92"/>
<stop offset="0.86" stop-color="#F0E29C"/>
<stop offset="0.88" stop-color="#EFDD97"/>
<stop offset="0.91" stop-color="#EDCF88"/>
<stop offset="0.95" stop-color="#E9B86F"/>
<stop offset="0.99" stop-color="#E3994D"/>
<stop offset="1" stop-color="#E18B3E"/>
</linearGradient>
<linearGradient id="paint7_linear_2018_5118" x1="204.717" y1="256.128" x2="366.444" y2="286.776" gradientUnits="userSpaceOnUse">
<stop stop-color="#EDDD8C"/>
<stop offset="0.2" stop-color="#E1943F"/>
<stop offset="0.25" stop-color="#D2863A"/>
<stop offset="0.31" stop-color="#C17633"/>
<stop offset="0.39" stop-color="#B66C2F"/>
<stop offset="0.47" stop-color="#B3692E"/>
<stop offset="0.53" stop-color="#BC7131"/>
<stop offset="0.61" stop-color="#D3873A"/>
<stop offset="0.65" stop-color="#E1943F"/>
<stop offset="0.68" stop-color="#E39F4C"/>
<stop offset="0.76" stop-color="#EAC377"/>
<stop offset="0.82" stop-color="#EEDA92"/>
<stop offset="0.86" stop-color="#F0E29C"/>
<stop offset="0.88" stop-color="#EFDD97"/>
<stop offset="0.91" stop-color="#EDCF88"/>
<stop offset="0.95" stop-color="#E9B86F"/>
<stop offset="0.99" stop-color="#E3994D"/>
<stop offset="1" stop-color="#E18B3E"/>
</linearGradient>
<linearGradient id="paint8_linear_2018_5118" x1="252.548" y1="307.376" x2="84.3883" y2="219.768" gradientUnits="userSpaceOnUse">
<stop stop-color="#EDDD8C"/>
<stop offset="0.2" stop-color="#E1943F"/>
<stop offset="0.25" stop-color="#D2863A"/>
<stop offset="0.31" stop-color="#C17633"/>
<stop offset="0.39" stop-color="#B66C2F"/>
<stop offset="0.47" stop-color="#B3692E"/>
<stop offset="0.53" stop-color="#BC7131"/>
<stop offset="0.61" stop-color="#D3873A"/>
<stop offset="0.65" stop-color="#E1943F"/>
<stop offset="0.68" stop-color="#E39F4C"/>
<stop offset="0.76" stop-color="#EAC377"/>
<stop offset="0.82" stop-color="#EEDA92"/>
<stop offset="0.86" stop-color="#F0E29C"/>
<stop offset="0.88" stop-color="#EFDD97"/>
<stop offset="0.91" stop-color="#EDCF88"/>
<stop offset="0.95" stop-color="#E9B86F"/>
<stop offset="0.99" stop-color="#E3994D"/>
<stop offset="1" stop-color="#E18B3E"/>
</linearGradient>
<linearGradient id="paint9_linear_2018_5118" x1="242.785" y1="326.15" x2="74.6281" y2="238.542" gradientUnits="userSpaceOnUse">
<stop stop-color="#EDDD8C"/>
<stop offset="0.2" stop-color="#E1943F"/>
<stop offset="0.25" stop-color="#D2863A"/>
<stop offset="0.31" stop-color="#C17633"/>
<stop offset="0.39" stop-color="#B66C2F"/>
<stop offset="0.47" stop-color="#B3692E"/>
<stop offset="0.53" stop-color="#BC7131"/>
<stop offset="0.61" stop-color="#D3873A"/>
<stop offset="0.65" stop-color="#E1943F"/>
<stop offset="0.68" stop-color="#E39F4C"/>
<stop offset="0.76" stop-color="#EAC377"/>
<stop offset="0.82" stop-color="#EEDA92"/>
<stop offset="0.86" stop-color="#F0E29C"/>
<stop offset="0.88" stop-color="#EFDD97"/>
<stop offset="0.91" stop-color="#EDCF88"/>
<stop offset="0.95" stop-color="#E9B86F"/>
<stop offset="0.99" stop-color="#E3994D"/>
<stop offset="1" stop-color="#E18B3E"/>
</linearGradient>
<linearGradient id="paint10_linear_2018_5118" x1="236.416" y1="338.341" x2="68.2581" y2="250.732" gradientUnits="userSpaceOnUse">
<stop stop-color="#EDDD8C"/>
<stop offset="0.2" stop-color="#E1943F"/>
<stop offset="0.25" stop-color="#D2863A"/>
<stop offset="0.31" stop-color="#C17633"/>
<stop offset="0.39" stop-color="#B66C2F"/>
<stop offset="0.47" stop-color="#B3692E"/>
<stop offset="0.53" stop-color="#BC7131"/>
<stop offset="0.61" stop-color="#D3873A"/>
<stop offset="0.65" stop-color="#E1943F"/>
<stop offset="0.68" stop-color="#E39F4C"/>
<stop offset="0.76" stop-color="#EAC377"/>
<stop offset="0.82" stop-color="#EEDA92"/>
<stop offset="0.86" stop-color="#F0E29C"/>
<stop offset="0.88" stop-color="#EFDD97"/>
<stop offset="0.91" stop-color="#EDCF88"/>
<stop offset="0.95" stop-color="#E9B86F"/>
<stop offset="0.99" stop-color="#E3994D"/>
<stop offset="1" stop-color="#E18B3E"/>
</linearGradient>
<linearGradient id="paint11_linear_2018_5118" x1="264.679" y1="284.099" x2="96.5181" y2="196.49" gradientUnits="userSpaceOnUse">
<stop stop-color="#EDDD8C"/>
<stop offset="0.2" stop-color="#E1943F"/>
<stop offset="0.25" stop-color="#D2863A"/>
<stop offset="0.31" stop-color="#C17633"/>
<stop offset="0.39" stop-color="#B66C2F"/>
<stop offset="0.47" stop-color="#B3692E"/>
<stop offset="0.53" stop-color="#BC7131"/>
<stop offset="0.61" stop-color="#D3873A"/>
<stop offset="0.65" stop-color="#E1943F"/>
<stop offset="0.68" stop-color="#E39F4C"/>
<stop offset="0.76" stop-color="#EAC377"/>
<stop offset="0.82" stop-color="#EEDA92"/>
<stop offset="0.86" stop-color="#F0E29C"/>
<stop offset="0.88" stop-color="#EFDD97"/>
<stop offset="0.91" stop-color="#EDCF88"/>
<stop offset="0.95" stop-color="#E9B86F"/>
<stop offset="0.99" stop-color="#E3994D"/>
<stop offset="1" stop-color="#E18B3E"/>
</linearGradient>
<linearGradient id="paint12_linear_2018_5118" x1="313.906" y1="189.585" x2="145.749" y2="101.972" gradientUnits="userSpaceOnUse">
<stop stop-color="#EDDD8C"/>
<stop offset="0.2" stop-color="#E1943F"/>
<stop offset="0.25" stop-color="#D2863A"/>
<stop offset="0.31" stop-color="#C17633"/>
<stop offset="0.39" stop-color="#B66C2F"/>
<stop offset="0.47" stop-color="#B3692E"/>
<stop offset="0.53" stop-color="#BC7131"/>
<stop offset="0.61" stop-color="#D3873A"/>
<stop offset="0.65" stop-color="#E1943F"/>
<stop offset="0.68" stop-color="#E39F4C"/>
<stop offset="0.76" stop-color="#EAC377"/>
<stop offset="0.82" stop-color="#EEDA92"/>
<stop offset="0.86" stop-color="#F0E29C"/>
<stop offset="0.88" stop-color="#EFDD97"/>
<stop offset="0.91" stop-color="#EDCF88"/>
<stop offset="0.95" stop-color="#E9B86F"/>
<stop offset="0.99" stop-color="#E3994D"/>
<stop offset="1" stop-color="#E18B3E"/>
</linearGradient>
<linearGradient id="paint13_linear_2018_5118" x1="313.841" y1="189.754" x2="145.68" y2="102.142" gradientUnits="userSpaceOnUse">
<stop stop-color="#EDDD8C"/>
<stop offset="0.2" stop-color="#E1943F"/>
<stop offset="0.25" stop-color="#D2863A"/>
<stop offset="0.31" stop-color="#C17633"/>
<stop offset="0.39" stop-color="#B66C2F"/>
<stop offset="0.47" stop-color="#B3692E"/>
<stop offset="0.53" stop-color="#BC7131"/>
<stop offset="0.61" stop-color="#D3873A"/>
<stop offset="0.65" stop-color="#E1943F"/>
<stop offset="0.68" stop-color="#E39F4C"/>
<stop offset="0.76" stop-color="#EAC377"/>
<stop offset="0.82" stop-color="#EEDA92"/>
<stop offset="0.86" stop-color="#F0E29C"/>
<stop offset="0.88" stop-color="#EFDD97"/>
<stop offset="0.91" stop-color="#EDCF88"/>
<stop offset="0.95" stop-color="#E9B86F"/>
<stop offset="0.99" stop-color="#E3994D"/>
<stop offset="1" stop-color="#E18B3E"/>
</linearGradient>
<linearGradient id="paint14_linear_2018_5118" x1="301.661" y1="213.144" x2="133.5" y2="125.532" gradientUnits="userSpaceOnUse">
<stop stop-color="#EDDD8C"/>
<stop offset="0.2" stop-color="#E1943F"/>
<stop offset="0.25" stop-color="#D2863A"/>
<stop offset="0.31" stop-color="#C17633"/>
<stop offset="0.39" stop-color="#B66C2F"/>
<stop offset="0.47" stop-color="#B3692E"/>
<stop offset="0.53" stop-color="#BC7131"/>
<stop offset="0.61" stop-color="#D3873A"/>
<stop offset="0.65" stop-color="#E1943F"/>
<stop offset="0.68" stop-color="#E39F4C"/>
<stop offset="0.76" stop-color="#EAC377"/>
<stop offset="0.82" stop-color="#EEDA92"/>
<stop offset="0.86" stop-color="#F0E29C"/>
<stop offset="0.88" stop-color="#EFDD97"/>
<stop offset="0.91" stop-color="#EDCF88"/>
<stop offset="0.95" stop-color="#E9B86F"/>
<stop offset="0.99" stop-color="#E3994D"/>
<stop offset="1" stop-color="#E18B3E"/>
</linearGradient>
<linearGradient id="paint15_linear_2018_5118" x1="290.627" y1="234.267" x2="122.47" y2="146.658" gradientUnits="userSpaceOnUse">
<stop stop-color="#EDDD8C"/>
<stop offset="0.2" stop-color="#E1943F"/>
<stop offset="0.25" stop-color="#D2863A"/>
<stop offset="0.31" stop-color="#C17633"/>
<stop offset="0.39" stop-color="#B66C2F"/>
<stop offset="0.47" stop-color="#B3692E"/>
<stop offset="0.53" stop-color="#BC7131"/>
<stop offset="0.61" stop-color="#D3873A"/>
<stop offset="0.65" stop-color="#E1943F"/>
<stop offset="0.68" stop-color="#E39F4C"/>
<stop offset="0.76" stop-color="#EAC377"/>
<stop offset="0.82" stop-color="#EEDA92"/>
<stop offset="0.86" stop-color="#F0E29C"/>
<stop offset="0.88" stop-color="#EFDD97"/>
<stop offset="0.91" stop-color="#EDCF88"/>
<stop offset="0.95" stop-color="#E9B86F"/>
<stop offset="0.99" stop-color="#E3994D"/>
<stop offset="1" stop-color="#E18B3E"/>
</linearGradient>
<linearGradient id="paint16_linear_2018_5118" x1="277.854" y1="258.825" x2="109.696" y2="171.216" gradientUnits="userSpaceOnUse">
<stop stop-color="#EDDD8C"/>
<stop offset="0.2" stop-color="#E1943F"/>
<stop offset="0.25" stop-color="#D2863A"/>
<stop offset="0.31" stop-color="#C17633"/>
<stop offset="0.39" stop-color="#B66C2F"/>
<stop offset="0.47" stop-color="#B3692E"/>
<stop offset="0.53" stop-color="#BC7131"/>
<stop offset="0.61" stop-color="#D3873A"/>
<stop offset="0.65" stop-color="#E1943F"/>
<stop offset="0.68" stop-color="#E39F4C"/>
<stop offset="0.76" stop-color="#EAC377"/>
<stop offset="0.82" stop-color="#EEDA92"/>
<stop offset="0.86" stop-color="#F0E29C"/>
<stop offset="0.88" stop-color="#EFDD97"/>
<stop offset="0.91" stop-color="#EDCF88"/>
<stop offset="0.95" stop-color="#E9B86F"/>
<stop offset="0.99" stop-color="#E3994D"/>
<stop offset="1" stop-color="#E18B3E"/>
</linearGradient>
<linearGradient id="paint17_linear_2018_5118" x1="234.094" y1="342.801" x2="65.9327" y2="255.189" gradientUnits="userSpaceOnUse">
<stop stop-color="#EDDD8C"/>
<stop offset="0.2" stop-color="#E1943F"/>
<stop offset="0.25" stop-color="#D2863A"/>
<stop offset="0.31" stop-color="#C17633"/>
<stop offset="0.39" stop-color="#B66C2F"/>
<stop offset="0.47" stop-color="#B3692E"/>
<stop offset="0.53" stop-color="#BC7131"/>
<stop offset="0.61" stop-color="#D3873A"/>
<stop offset="0.65" stop-color="#E1943F"/>
<stop offset="0.68" stop-color="#E39F4C"/>
<stop offset="0.76" stop-color="#EAC377"/>
<stop offset="0.82" stop-color="#EEDA92"/>
<stop offset="0.86" stop-color="#F0E29C"/>
<stop offset="0.88" stop-color="#EFDD97"/>
<stop offset="0.91" stop-color="#EDCF88"/>
<stop offset="0.95" stop-color="#E9B86F"/>
<stop offset="0.99" stop-color="#E3994D"/>
<stop offset="1" stop-color="#E18B3E"/>
</linearGradient>
<linearGradient id="paint18_linear_2018_5118" x1="309.496" y1="198.104" x2="141.335" y2="110.492" gradientUnits="userSpaceOnUse">
<stop stop-color="#EDDD8C"/>
<stop offset="0.2" stop-color="#E1943F"/>
<stop offset="0.25" stop-color="#D2863A"/>
<stop offset="0.31" stop-color="#C17633"/>
<stop offset="0.39" stop-color="#B66C2F"/>
<stop offset="0.47" stop-color="#B3692E"/>
<stop offset="0.53" stop-color="#BC7131"/>
<stop offset="0.61" stop-color="#D3873A"/>
<stop offset="0.65" stop-color="#E1943F"/>
<stop offset="0.68" stop-color="#E39F4C"/>
<stop offset="0.76" stop-color="#EAC377"/>
<stop offset="0.82" stop-color="#EEDA92"/>
<stop offset="0.86" stop-color="#F0E29C"/>
<stop offset="0.88" stop-color="#EFDD97"/>
<stop offset="0.91" stop-color="#EDCF88"/>
<stop offset="0.95" stop-color="#E9B86F"/>
<stop offset="0.99" stop-color="#E3994D"/>
<stop offset="1" stop-color="#E18B3E"/>
</linearGradient>
<linearGradient id="paint19_linear_2018_5118" x1="301.311" y1="213.771" x2="133.153" y2="126.162" gradientUnits="userSpaceOnUse">
<stop stop-color="#EDDD8C"/>
<stop offset="0.2" stop-color="#E1943F"/>
<stop offset="0.25" stop-color="#D2863A"/>
<stop offset="0.31" stop-color="#C17633"/>
<stop offset="0.39" stop-color="#B66C2F"/>
<stop offset="0.47" stop-color="#B3692E"/>
<stop offset="0.53" stop-color="#BC7131"/>
<stop offset="0.61" stop-color="#D3873A"/>
<stop offset="0.65" stop-color="#E1943F"/>
<stop offset="0.68" stop-color="#E39F4C"/>
<stop offset="0.76" stop-color="#EAC377"/>
<stop offset="0.82" stop-color="#EEDA92"/>
<stop offset="0.86" stop-color="#F0E29C"/>
<stop offset="0.88" stop-color="#EFDD97"/>
<stop offset="0.91" stop-color="#EDCF88"/>
<stop offset="0.95" stop-color="#E9B86F"/>
<stop offset="0.99" stop-color="#E3994D"/>
<stop offset="1" stop-color="#E18B3E"/>
</linearGradient>
<linearGradient id="paint20_linear_2018_5118" x1="277.298" y1="259.857" x2="109.144" y2="172.251" gradientUnits="userSpaceOnUse">
<stop stop-color="#EDDD8C"/>
<stop offset="0.2" stop-color="#E1943F"/>
<stop offset="0.25" stop-color="#D2863A"/>
<stop offset="0.31" stop-color="#C17633"/>
<stop offset="0.39" stop-color="#B66C2F"/>
<stop offset="0.47" stop-color="#B3692E"/>
<stop offset="0.53" stop-color="#BC7131"/>
<stop offset="0.61" stop-color="#D3873A"/>
<stop offset="0.65" stop-color="#E1943F"/>
<stop offset="0.68" stop-color="#E39F4C"/>
<stop offset="0.76" stop-color="#EAC377"/>
<stop offset="0.82" stop-color="#EEDA92"/>
<stop offset="0.86" stop-color="#F0E29C"/>
<stop offset="0.88" stop-color="#EFDD97"/>
<stop offset="0.91" stop-color="#EDCF88"/>
<stop offset="0.95" stop-color="#E9B86F"/>
<stop offset="0.99" stop-color="#E3994D"/>
<stop offset="1" stop-color="#E18B3E"/>
</linearGradient>
<linearGradient id="paint21_linear_2018_5118" x1="290.171" y1="235.15" x2="122.01" y2="147.538" gradientUnits="userSpaceOnUse">
<stop stop-color="#EDDD8C"/>
<stop offset="0.2" stop-color="#E1943F"/>
<stop offset="0.25" stop-color="#D2863A"/>
<stop offset="0.31" stop-color="#C17633"/>
<stop offset="0.39" stop-color="#B66C2F"/>
<stop offset="0.47" stop-color="#B3692E"/>
<stop offset="0.53" stop-color="#BC7131"/>
<stop offset="0.61" stop-color="#D3873A"/>
<stop offset="0.65" stop-color="#E1943F"/>
<stop offset="0.68" stop-color="#E39F4C"/>
<stop offset="0.76" stop-color="#EAC377"/>
<stop offset="0.82" stop-color="#EEDA92"/>
<stop offset="0.86" stop-color="#F0E29C"/>
<stop offset="0.88" stop-color="#EFDD97"/>
<stop offset="0.91" stop-color="#EDCF88"/>
<stop offset="0.95" stop-color="#E9B86F"/>
<stop offset="0.99" stop-color="#E3994D"/>
<stop offset="1" stop-color="#E18B3E"/>
</linearGradient>
<linearGradient id="paint22_linear_2018_5118" x1="242.434" y1="326.792" x2="74.276" y2="239.18" gradientUnits="userSpaceOnUse">
<stop stop-color="#EDDD8C"/>
<stop offset="0.2" stop-color="#E1943F"/>
<stop offset="0.25" stop-color="#D2863A"/>
<stop offset="0.31" stop-color="#C17633"/>
<stop offset="0.39" stop-color="#B66C2F"/>
<stop offset="0.47" stop-color="#B3692E"/>
<stop offset="0.53" stop-color="#BC7131"/>
<stop offset="0.61" stop-color="#D3873A"/>
<stop offset="0.65" stop-color="#E1943F"/>
<stop offset="0.68" stop-color="#E39F4C"/>
<stop offset="0.76" stop-color="#EAC377"/>
<stop offset="0.82" stop-color="#EEDA92"/>
<stop offset="0.86" stop-color="#F0E29C"/>
<stop offset="0.88" stop-color="#EFDD97"/>
<stop offset="0.91" stop-color="#EDCF88"/>
<stop offset="0.95" stop-color="#E9B86F"/>
<stop offset="0.99" stop-color="#E3994D"/>
<stop offset="1" stop-color="#E18B3E"/>
</linearGradient>
<linearGradient id="paint23_linear_2018_5118" x1="309.704" y1="197.688" x2="141.547" y2="110.079" gradientUnits="userSpaceOnUse">
<stop stop-color="#EDDD8C"/>
<stop offset="0.2" stop-color="#E1943F"/>
<stop offset="0.25" stop-color="#D2863A"/>
<stop offset="0.31" stop-color="#C17633"/>
<stop offset="0.39" stop-color="#B66C2F"/>
<stop offset="0.47" stop-color="#B3692E"/>
<stop offset="0.53" stop-color="#BC7131"/>
<stop offset="0.61" stop-color="#D3873A"/>
<stop offset="0.65" stop-color="#E1943F"/>
<stop offset="0.68" stop-color="#E39F4C"/>
<stop offset="0.76" stop-color="#EAC377"/>
<stop offset="0.82" stop-color="#EEDA92"/>
<stop offset="0.86" stop-color="#F0E29C"/>
<stop offset="0.88" stop-color="#EFDD97"/>
<stop offset="0.91" stop-color="#EDCF88"/>
<stop offset="0.95" stop-color="#E9B86F"/>
<stop offset="0.99" stop-color="#E3994D"/>
<stop offset="1" stop-color="#E18B3E"/>
</linearGradient>
<linearGradient id="paint24_linear_2018_5118" x1="236.23" y1="338.688" x2="68.0726" y2="251.079" gradientUnits="userSpaceOnUse">
<stop stop-color="#EDDD8C"/>
<stop offset="0.2" stop-color="#E1943F"/>
<stop offset="0.25" stop-color="#D2863A"/>
<stop offset="0.31" stop-color="#C17633"/>
<stop offset="0.39" stop-color="#B66C2F"/>
<stop offset="0.47" stop-color="#B3692E"/>
<stop offset="0.53" stop-color="#BC7131"/>
<stop offset="0.61" stop-color="#D3873A"/>
<stop offset="0.65" stop-color="#E1943F"/>
<stop offset="0.68" stop-color="#E39F4C"/>
<stop offset="0.76" stop-color="#EAC377"/>
<stop offset="0.82" stop-color="#EEDA92"/>
<stop offset="0.86" stop-color="#F0E29C"/>
<stop offset="0.88" stop-color="#EFDD97"/>
<stop offset="0.91" stop-color="#EDCF88"/>
<stop offset="0.95" stop-color="#E9B86F"/>
<stop offset="0.99" stop-color="#E3994D"/>
<stop offset="1" stop-color="#E18B3E"/>
</linearGradient>
<linearGradient id="paint25_linear_2018_5118" x1="264.148" y1="285.116" x2="95.9903" y2="197.507" gradientUnits="userSpaceOnUse">
<stop stop-color="#EDDD8C"/>
<stop offset="0.2" stop-color="#E1943F"/>
<stop offset="0.25" stop-color="#D2863A"/>
<stop offset="0.31" stop-color="#C17633"/>
<stop offset="0.39" stop-color="#B66C2F"/>
<stop offset="0.47" stop-color="#B3692E"/>
<stop offset="0.53" stop-color="#BC7131"/>
<stop offset="0.61" stop-color="#D3873A"/>
<stop offset="0.65" stop-color="#E1943F"/>
<stop offset="0.68" stop-color="#E39F4C"/>
<stop offset="0.76" stop-color="#EAC377"/>
<stop offset="0.82" stop-color="#EEDA92"/>
<stop offset="0.86" stop-color="#F0E29C"/>
<stop offset="0.88" stop-color="#EFDD97"/>
<stop offset="0.91" stop-color="#EDCF88"/>
<stop offset="0.95" stop-color="#E9B86F"/>
<stop offset="0.99" stop-color="#E3994D"/>
<stop offset="1" stop-color="#E18B3E"/>
</linearGradient>
<linearGradient id="paint26_linear_2018_5118" x1="252.081" y1="308.264" x2="83.9199" y2="220.655" gradientUnits="userSpaceOnUse">
<stop stop-color="#EDDD8C"/>
<stop offset="0.2" stop-color="#E1943F"/>
<stop offset="0.25" stop-color="#D2863A"/>
<stop offset="0.31" stop-color="#C17633"/>
<stop offset="0.39" stop-color="#B66C2F"/>
<stop offset="0.47" stop-color="#B3692E"/>
<stop offset="0.53" stop-color="#BC7131"/>
<stop offset="0.61" stop-color="#D3873A"/>
<stop offset="0.65" stop-color="#E1943F"/>
<stop offset="0.68" stop-color="#E39F4C"/>
<stop offset="0.76" stop-color="#EAC377"/>
<stop offset="0.82" stop-color="#EEDA92"/>
<stop offset="0.86" stop-color="#F0E29C"/>
<stop offset="0.88" stop-color="#EFDD97"/>
<stop offset="0.91" stop-color="#EDCF88"/>
<stop offset="0.95" stop-color="#E9B86F"/>
<stop offset="0.99" stop-color="#E3994D"/>
<stop offset="1" stop-color="#E18B3E"/>
</linearGradient>
<linearGradient id="paint27_linear_2018_5118" x1="233.171" y1="240.74" x2="236.645" y2="329.553" gradientUnits="userSpaceOnUse">
<stop stop-color="#EDDD8C"/>
<stop offset="0.2" stop-color="#E1943F"/>
<stop offset="0.25" stop-color="#D2863A"/>
<stop offset="0.31" stop-color="#C17633"/>
<stop offset="0.39" stop-color="#B66C2F"/>
<stop offset="0.47" stop-color="#B3692E"/>
<stop offset="0.53" stop-color="#BC7131"/>
<stop offset="0.61" stop-color="#D3873A"/>
<stop offset="0.65" stop-color="#E1943F"/>
<stop offset="0.68" stop-color="#E39F4C"/>
<stop offset="0.76" stop-color="#EAC377"/>
<stop offset="0.82" stop-color="#EEDA92"/>
<stop offset="0.86" stop-color="#F0E29C"/>
<stop offset="0.88" stop-color="#EFDD97"/>
<stop offset="0.91" stop-color="#EDCF88"/>
<stop offset="0.95" stop-color="#E9B86F"/>
<stop offset="0.99" stop-color="#E3994D"/>
<stop offset="1" stop-color="#E18B3E"/>
</linearGradient>
<linearGradient id="paint28_linear_2018_5118" x1="254.997" y1="242.888" x2="258.471" y2="331.7" gradientUnits="userSpaceOnUse">
<stop stop-color="#EDDD8C"/>
<stop offset="0.2" stop-color="#E1943F"/>
<stop offset="0.25" stop-color="#D2863A"/>
<stop offset="0.31" stop-color="#C17633"/>
<stop offset="0.39" stop-color="#B66C2F"/>
<stop offset="0.47" stop-color="#B3692E"/>
<stop offset="0.53" stop-color="#BC7131"/>
<stop offset="0.61" stop-color="#D3873A"/>
<stop offset="0.65" stop-color="#E1943F"/>
<stop offset="0.68" stop-color="#E39F4C"/>
<stop offset="0.76" stop-color="#EAC377"/>
<stop offset="0.82" stop-color="#EEDA92"/>
<stop offset="0.86" stop-color="#F0E29C"/>
<stop offset="0.88" stop-color="#EFDD97"/>
<stop offset="0.91" stop-color="#EDCF88"/>
<stop offset="0.95" stop-color="#E9B86F"/>
<stop offset="0.99" stop-color="#E3994D"/>
<stop offset="1" stop-color="#E18B3E"/>
</linearGradient>
<linearGradient id="paint29_linear_2018_5118" x1="276.899" y1="235.554" x2="280.373" y2="324.367" gradientUnits="userSpaceOnUse">
<stop stop-color="#EDDD8C"/>
<stop offset="0.2" stop-color="#E1943F"/>
<stop offset="0.25" stop-color="#D2863A"/>
<stop offset="0.31" stop-color="#C17633"/>
<stop offset="0.39" stop-color="#B66C2F"/>
<stop offset="0.47" stop-color="#B3692E"/>
<stop offset="0.53" stop-color="#BC7131"/>
<stop offset="0.61" stop-color="#D3873A"/>
<stop offset="0.65" stop-color="#E1943F"/>
<stop offset="0.68" stop-color="#E39F4C"/>
<stop offset="0.76" stop-color="#EAC377"/>
<stop offset="0.82" stop-color="#EEDA92"/>
<stop offset="0.86" stop-color="#F0E29C"/>
<stop offset="0.88" stop-color="#EFDD97"/>
<stop offset="0.91" stop-color="#EDCF88"/>
<stop offset="0.95" stop-color="#E9B86F"/>
<stop offset="0.99" stop-color="#E3994D"/>
<stop offset="1" stop-color="#E18B3E"/>
</linearGradient>
<linearGradient id="paint30_linear_2018_5118" x1="303.68" y1="237.692" x2="307.15" y2="326.505" gradientUnits="userSpaceOnUse">
<stop stop-color="#EDDD8C"/>
<stop offset="0.2" stop-color="#E1943F"/>
<stop offset="0.25" stop-color="#D2863A"/>
<stop offset="0.31" stop-color="#C17633"/>
<stop offset="0.39" stop-color="#B66C2F"/>
<stop offset="0.47" stop-color="#B3692E"/>
<stop offset="0.53" stop-color="#BC7131"/>
<stop offset="0.61" stop-color="#D3873A"/>
<stop offset="0.65" stop-color="#E1943F"/>
<stop offset="0.68" stop-color="#E39F4C"/>
<stop offset="0.76" stop-color="#EAC377"/>
<stop offset="0.82" stop-color="#EEDA92"/>
<stop offset="0.86" stop-color="#F0E29C"/>
<stop offset="0.88" stop-color="#EFDD97"/>
<stop offset="0.91" stop-color="#EDCF88"/>
<stop offset="0.95" stop-color="#E9B86F"/>
<stop offset="0.99" stop-color="#E3994D"/>
<stop offset="1" stop-color="#E18B3E"/>
</linearGradient>
<linearGradient id="paint31_linear_2018_5118" x1="334.86" y1="236.259" x2="338.331" y2="325.072" gradientUnits="userSpaceOnUse">
<stop stop-color="#EDDD8C"/>
<stop offset="0.2" stop-color="#E1943F"/>
<stop offset="0.25" stop-color="#D2863A"/>
<stop offset="0.31" stop-color="#C17633"/>
<stop offset="0.39" stop-color="#B66C2F"/>
<stop offset="0.47" stop-color="#B3692E"/>
<stop offset="0.53" stop-color="#BC7131"/>
<stop offset="0.61" stop-color="#D3873A"/>
<stop offset="0.65" stop-color="#E1943F"/>
<stop offset="0.68" stop-color="#E39F4C"/>
<stop offset="0.76" stop-color="#EAC377"/>
<stop offset="0.82" stop-color="#EEDA92"/>
<stop offset="0.86" stop-color="#F0E29C"/>
<stop offset="0.88" stop-color="#EFDD97"/>
<stop offset="0.91" stop-color="#EDCF88"/>
<stop offset="0.95" stop-color="#E9B86F"/>
<stop offset="0.99" stop-color="#E3994D"/>
<stop offset="1" stop-color="#E18B3E"/>
</linearGradient>
<linearGradient id="paint32_linear_2018_5118" x1="257.273" y1="242.468" x2="260.747" y2="331.28" gradientUnits="userSpaceOnUse">
<stop stop-color="#EDDD8C"/>
<stop offset="0.2" stop-color="#E1943F"/>
<stop offset="0.25" stop-color="#D2863A"/>
<stop offset="0.31" stop-color="#C17633"/>
<stop offset="0.39" stop-color="#B66C2F"/>
<stop offset="0.47" stop-color="#B3692E"/>
<stop offset="0.53" stop-color="#BC7131"/>
<stop offset="0.61" stop-color="#D3873A"/>
<stop offset="0.65" stop-color="#E1943F"/>
<stop offset="0.68" stop-color="#E39F4C"/>
<stop offset="0.76" stop-color="#EAC377"/>
<stop offset="0.82" stop-color="#EEDA92"/>
<stop offset="0.86" stop-color="#F0E29C"/>
<stop offset="0.88" stop-color="#EFDD97"/>
<stop offset="0.91" stop-color="#EDCF88"/>
<stop offset="0.95" stop-color="#E9B86F"/>
<stop offset="0.99" stop-color="#E3994D"/>
<stop offset="1" stop-color="#E18B3E"/>
</linearGradient>
<linearGradient id="paint33_linear_2018_5118" x1="272.185" y1="235.114" x2="275.655" y2="323.927" gradientUnits="userSpaceOnUse">
<stop stop-color="#EDDD8C"/>
<stop offset="0.2" stop-color="#E1943F"/>
<stop offset="0.25" stop-color="#D2863A"/>
<stop offset="0.31" stop-color="#C17633"/>
<stop offset="0.39" stop-color="#B66C2F"/>
<stop offset="0.47" stop-color="#B3692E"/>
<stop offset="0.53" stop-color="#BC7131"/>
<stop offset="0.61" stop-color="#D3873A"/>
<stop offset="0.65" stop-color="#E1943F"/>
<stop offset="0.68" stop-color="#E39F4C"/>
<stop offset="0.76" stop-color="#EAC377"/>
<stop offset="0.82" stop-color="#EEDA92"/>
<stop offset="0.86" stop-color="#F0E29C"/>
<stop offset="0.88" stop-color="#EFDD97"/>
<stop offset="0.91" stop-color="#EDCF88"/>
<stop offset="0.95" stop-color="#E9B86F"/>
<stop offset="0.99" stop-color="#E3994D"/>
<stop offset="1" stop-color="#E18B3E"/>
</linearGradient>
<linearGradient id="paint34_linear_2018_5118" x1="289.531" y1="241.161" x2="293.005" y2="329.971" gradientUnits="userSpaceOnUse">
<stop stop-color="#EDDD8C"/>
<stop offset="0.2" stop-color="#E1943F"/>
<stop offset="0.25" stop-color="#D2863A"/>
<stop offset="0.31" stop-color="#C17633"/>
<stop offset="0.39" stop-color="#B66C2F"/>
<stop offset="0.47" stop-color="#B3692E"/>
<stop offset="0.53" stop-color="#BC7131"/>
<stop offset="0.61" stop-color="#D3873A"/>
<stop offset="0.65" stop-color="#E1943F"/>
<stop offset="0.68" stop-color="#E39F4C"/>
<stop offset="0.76" stop-color="#EAC377"/>
<stop offset="0.82" stop-color="#EEDA92"/>
<stop offset="0.86" stop-color="#F0E29C"/>
<stop offset="0.88" stop-color="#EFDD97"/>
<stop offset="0.91" stop-color="#EDCF88"/>
<stop offset="0.95" stop-color="#E9B86F"/>
<stop offset="0.99" stop-color="#E3994D"/>
<stop offset="1" stop-color="#E18B3E"/>
</linearGradient>
<linearGradient id="paint35_linear_2018_5118" x1="312.535" y1="233.518" x2="316.009" y2="322.331" gradientUnits="userSpaceOnUse">
<stop stop-color="#EDDD8C"/>
<stop offset="0.2" stop-color="#E1943F"/>
<stop offset="0.25" stop-color="#D2863A"/>
<stop offset="0.31" stop-color="#C17633"/>
<stop offset="0.39" stop-color="#B66C2F"/>
<stop offset="0.47" stop-color="#B3692E"/>
<stop offset="0.53" stop-color="#BC7131"/>
<stop offset="0.61" stop-color="#D3873A"/>
<stop offset="0.65" stop-color="#E1943F"/>
<stop offset="0.68" stop-color="#E39F4C"/>
<stop offset="0.76" stop-color="#EAC377"/>
<stop offset="0.82" stop-color="#EEDA92"/>
<stop offset="0.86" stop-color="#F0E29C"/>
<stop offset="0.88" stop-color="#EFDD97"/>
<stop offset="0.91" stop-color="#EDCF88"/>
<stop offset="0.95" stop-color="#E9B86F"/>
<stop offset="0.99" stop-color="#E3994D"/>
<stop offset="1" stop-color="#E18B3E"/>
</linearGradient>
<linearGradient id="paint36_linear_2018_5118" x1="342.014" y1="318.853" x2="168.879" y2="217.754" gradientUnits="userSpaceOnUse">
<stop stop-color="#C98534"/>
<stop offset="0.2" stop-color="#A14819"/>
<stop offset="0.22" stop-color="#9B4418"/>
<stop offset="0.27" stop-color="#823214"/>
<stop offset="0.33" stop-color="#712611"/>
<stop offset="0.4" stop-color="#661E10"/>
<stop offset="0.47" stop-color="#631C0F"/>
<stop offset="0.52" stop-color="#6C2210"/>
<stop offset="0.59" stop-color="#833314"/>
<stop offset="0.65" stop-color="#A14819"/>
<stop offset="0.68" stop-color="#A7551E"/>
<stop offset="0.8" stop-color="#CA9B3C"/>
<stop offset="0.86" stop-color="#D7B748"/>
<stop offset="0.92" stop-color="#BC7930"/>
<stop offset="0.97" stop-color="#AA4F20"/>
<stop offset="1" stop-color="#A33F1A"/>
</linearGradient>
<linearGradient id="paint37_linear_2018_5118" x1="347.089" y1="310.173" x2="173.951" y2="209.074" gradientUnits="userSpaceOnUse">
<stop stop-color="#C98534"/>
<stop offset="0.2" stop-color="#A14819"/>
<stop offset="0.22" stop-color="#9B4418"/>
<stop offset="0.27" stop-color="#823214"/>
<stop offset="0.33" stop-color="#712611"/>
<stop offset="0.4" stop-color="#661E10"/>
<stop offset="0.47" stop-color="#631C0F"/>
<stop offset="0.52" stop-color="#6C2210"/>
<stop offset="0.59" stop-color="#833314"/>
<stop offset="0.65" stop-color="#A14819"/>
<stop offset="0.68" stop-color="#A7551E"/>
<stop offset="0.8" stop-color="#CA9B3C"/>
<stop offset="0.86" stop-color="#D7B748"/>
<stop offset="0.92" stop-color="#BC7930"/>
<stop offset="0.97" stop-color="#AA4F20"/>
<stop offset="1" stop-color="#A33F1A"/>
</linearGradient>
<linearGradient id="paint38_linear_2018_5118" x1="352.756" y1="300.485" x2="179.621" y2="199.386" gradientUnits="userSpaceOnUse">
<stop stop-color="#C98534"/>
<stop offset="0.2" stop-color="#A14819"/>
<stop offset="0.22" stop-color="#9B4418"/>
<stop offset="0.27" stop-color="#823214"/>
<stop offset="0.33" stop-color="#712611"/>
<stop offset="0.4" stop-color="#661E10"/>
<stop offset="0.47" stop-color="#631C0F"/>
<stop offset="0.52" stop-color="#6C2210"/>
<stop offset="0.59" stop-color="#833314"/>
<stop offset="0.65" stop-color="#A14819"/>
<stop offset="0.68" stop-color="#A7551E"/>
<stop offset="0.8" stop-color="#CA9B3C"/>
<stop offset="0.86" stop-color="#D7B748"/>
<stop offset="0.92" stop-color="#BC7930"/>
<stop offset="0.97" stop-color="#AA4F20"/>
<stop offset="1" stop-color="#A33F1A"/>
</linearGradient>
<linearGradient id="paint39_linear_2018_5118" x1="359.227" y1="289.412" x2="186.092" y2="188.309" gradientUnits="userSpaceOnUse">
<stop stop-color="#C98534"/>
<stop offset="0.2" stop-color="#A14819"/>
<stop offset="0.22" stop-color="#9B4418"/>
<stop offset="0.27" stop-color="#823214"/>
<stop offset="0.33" stop-color="#712611"/>
<stop offset="0.4" stop-color="#661E10"/>
<stop offset="0.47" stop-color="#631C0F"/>
<stop offset="0.52" stop-color="#6C2210"/>
<stop offset="0.59" stop-color="#833314"/>
<stop offset="0.65" stop-color="#A14819"/>
<stop offset="0.68" stop-color="#A7551E"/>
<stop offset="0.8" stop-color="#CA9B3C"/>
<stop offset="0.86" stop-color="#D7B748"/>
<stop offset="0.92" stop-color="#BC7930"/>
<stop offset="0.97" stop-color="#AA4F20"/>
<stop offset="1" stop-color="#A33F1A"/>
</linearGradient>
<linearGradient id="paint40_linear_2018_5118" x1="367.178" y1="275.772" x2="194.042" y2="174.672" gradientUnits="userSpaceOnUse">
<stop stop-color="#C98534"/>
<stop offset="0.2" stop-color="#A14819"/>
<stop offset="0.22" stop-color="#9B4418"/>
<stop offset="0.27" stop-color="#823214"/>
<stop offset="0.33" stop-color="#712611"/>
<stop offset="0.4" stop-color="#661E10"/>
<stop offset="0.47" stop-color="#631C0F"/>
<stop offset="0.52" stop-color="#6C2210"/>
<stop offset="0.59" stop-color="#833314"/>
<stop offset="0.65" stop-color="#A14819"/>
<stop offset="0.68" stop-color="#A7551E"/>
<stop offset="0.8" stop-color="#CA9B3C"/>
<stop offset="0.86" stop-color="#D7B748"/>
<stop offset="0.92" stop-color="#BC7930"/>
<stop offset="0.97" stop-color="#AA4F20"/>
<stop offset="1" stop-color="#A33F1A"/>
</linearGradient>
<linearGradient id="paint41_linear_2018_5118" x1="329.277" y1="340.686" x2="156.138" y2="239.587" gradientUnits="userSpaceOnUse">
<stop stop-color="#C98534"/>
<stop offset="0.2" stop-color="#A14819"/>
<stop offset="0.22" stop-color="#9B4418"/>
<stop offset="0.27" stop-color="#823214"/>
<stop offset="0.33" stop-color="#712611"/>
<stop offset="0.4" stop-color="#661E10"/>
<stop offset="0.47" stop-color="#631C0F"/>
<stop offset="0.52" stop-color="#6C2210"/>
<stop offset="0.59" stop-color="#833314"/>
<stop offset="0.65" stop-color="#A14819"/>
<stop offset="0.68" stop-color="#A7551E"/>
<stop offset="0.8" stop-color="#CA9B3C"/>
<stop offset="0.86" stop-color="#D7B748"/>
<stop offset="0.92" stop-color="#BC7930"/>
<stop offset="0.97" stop-color="#AA4F20"/>
<stop offset="1" stop-color="#A33F1A"/>
</linearGradient>
<linearGradient id="paint42_linear_2018_5118" x1="333.834" y1="332.901" x2="160.699" y2="231.802" gradientUnits="userSpaceOnUse">
<stop stop-color="#C98534"/>
<stop offset="0.2" stop-color="#A14819"/>
<stop offset="0.22" stop-color="#9B4418"/>
<stop offset="0.27" stop-color="#823214"/>
<stop offset="0.33" stop-color="#712611"/>
<stop offset="0.4" stop-color="#661E10"/>
<stop offset="0.47" stop-color="#631C0F"/>
<stop offset="0.52" stop-color="#6C2210"/>
<stop offset="0.59" stop-color="#833314"/>
<stop offset="0.65" stop-color="#A14819"/>
<stop offset="0.68" stop-color="#A7551E"/>
<stop offset="0.8" stop-color="#CA9B3C"/>
<stop offset="0.86" stop-color="#D7B748"/>
<stop offset="0.92" stop-color="#BC7930"/>
<stop offset="0.97" stop-color="#AA4F20"/>
<stop offset="1" stop-color="#A33F1A"/>
</linearGradient>
<linearGradient id="paint43_linear_2018_5118" x1="338.193" y1="325.428" x2="165.058" y2="224.329" gradientUnits="userSpaceOnUse">
<stop stop-color="#C98534"/>
<stop offset="0.2" stop-color="#A14819"/>
<stop offset="0.22" stop-color="#9B4418"/>
<stop offset="0.27" stop-color="#823214"/>
<stop offset="0.33" stop-color="#712611"/>
<stop offset="0.4" stop-color="#661E10"/>
<stop offset="0.47" stop-color="#631C0F"/>
<stop offset="0.52" stop-color="#6C2210"/>
<stop offset="0.59" stop-color="#833314"/>
<stop offset="0.65" stop-color="#A14819"/>
<stop offset="0.68" stop-color="#A7551E"/>
<stop offset="0.8" stop-color="#CA9B3C"/>
<stop offset="0.86" stop-color="#D7B748"/>
<stop offset="0.92" stop-color="#BC7930"/>
<stop offset="0.97" stop-color="#AA4F20"/>
<stop offset="1" stop-color="#A33F1A"/>
</linearGradient>
<linearGradient id="paint44_linear_2018_5118" x1="343.443" y1="316.411" x2="170.304" y2="215.311" gradientUnits="userSpaceOnUse">
<stop stop-color="#C98534"/>
<stop offset="0.2" stop-color="#A14819"/>
<stop offset="0.22" stop-color="#9B4418"/>
<stop offset="0.27" stop-color="#823214"/>
<stop offset="0.33" stop-color="#712611"/>
<stop offset="0.4" stop-color="#661E10"/>
<stop offset="0.47" stop-color="#631C0F"/>
<stop offset="0.52" stop-color="#6C2210"/>
<stop offset="0.59" stop-color="#833314"/>
<stop offset="0.65" stop-color="#A14819"/>
<stop offset="0.68" stop-color="#A7551E"/>
<stop offset="0.8" stop-color="#CA9B3C"/>
<stop offset="0.86" stop-color="#D7B748"/>
<stop offset="0.92" stop-color="#BC7930"/>
<stop offset="0.97" stop-color="#AA4F20"/>
<stop offset="1" stop-color="#A33F1A"/>
</linearGradient>
<clipPath id="clip0_2018_5118">
<rect width="575.383" height="575.383" fill="white" transform="translate(0.125 30.1484)"/>
</clipPath>
<clipPath id="clip1_2018_5118">
<rect width="268.49" height="598" fill="white" transform="translate(151.289)"/>
</clipPath>
<clipPath id="clip2_2018_5118">
<rect width="196.282" height="449.517" fill="white" transform="translate(186.891 -25.4219)"/>
</clipPath>
<clipPath id="clip3_2018_5118">
<rect width="195.774" height="196.134" fill="white" transform="translate(187.656 173.5)"/>
</clipPath>
</defs>
</svg>
