<svg width="228" height="92" viewBox="0 0 228 92" fill="none" xmlns="http://www.w3.org/2000/svg">
<path d="M64.0683 28.0807H56.2843L54.9963 31.8047H50.8803L57.9083 12.2327H62.4723L69.5003 31.8047H65.3563L64.0683 28.0807ZM63.0043 24.9447L60.1763 16.7687L57.3483 24.9447H63.0043ZM76.0473 18.5607C76.5513 17.814 77.242 17.2074 78.1193 16.7407C79.0153 16.274 80.0326 16.0407 81.1713 16.0407C82.4966 16.0407 83.6913 16.3674 84.7553 17.0207C85.838 17.674 86.6873 18.6074 87.3033 19.8207C87.938 21.0154 88.2553 22.406 88.2553 23.9927C88.2553 25.5794 87.938 26.9887 87.3033 28.2207C86.6873 29.434 85.838 30.3767 84.7553 31.0487C83.6913 31.7207 82.4966 32.0567 81.1713 32.0567C80.014 32.0567 78.9966 31.8327 78.1193 31.3847C77.2606 30.918 76.57 30.3207 76.0473 29.5927V31.8047H72.1273V11.0847H76.0473V18.5607ZM84.2513 23.9927C84.2513 23.0594 84.0553 22.2567 83.6633 21.5847C83.29 20.894 82.786 20.3714 82.1513 20.0167C81.5353 19.662 80.8633 19.4847 80.1353 19.4847C79.426 19.4847 78.754 19.6714 78.1193 20.0447C77.5033 20.3994 76.9993 20.922 76.6073 21.6127C76.234 22.3034 76.0473 23.1154 76.0473 24.0487C76.0473 24.982 76.234 25.794 76.6073 26.4847C76.9993 27.1754 77.5033 27.7074 78.1193 28.0807C78.754 28.4354 79.426 28.6127 80.1353 28.6127C80.8633 28.6127 81.5353 28.426 82.1513 28.0527C82.786 27.6794 83.29 27.1474 83.6633 26.4567C84.0553 25.766 84.2513 24.9447 84.2513 23.9927ZM97.9919 32.0567C96.4985 32.0567 95.1545 31.73 93.9599 31.0767C92.7652 30.4047 91.8225 29.462 91.1319 28.2487C90.4599 27.0354 90.1239 25.6354 90.1239 24.0487C90.1239 22.462 90.4692 21.062 91.1599 19.8487C91.8692 18.6354 92.8305 17.702 94.0439 17.0487C95.2572 16.3767 96.6105 16.0407 98.1039 16.0407C99.5972 16.0407 100.951 16.3767 102.164 17.0487C103.377 17.702 104.329 18.6354 105.02 19.8487C105.729 21.062 106.084 22.462 106.084 24.0487C106.084 25.6354 105.72 27.0354 104.992 28.2487C104.283 29.462 103.312 30.4047 102.08 31.0767C100.867 31.73 99.5039 32.0567 97.9919 32.0567ZM97.9919 28.6407C98.7012 28.6407 99.3639 28.4727 99.9799 28.1367C100.615 27.782 101.119 27.2594 101.492 26.5687C101.865 25.878 102.052 25.038 102.052 24.0487C102.052 22.574 101.66 21.4447 100.876 20.6607C100.111 19.858 99.1679 19.4567 98.0479 19.4567C96.9279 19.4567 95.9852 19.858 95.2199 20.6607C94.4732 21.4447 94.0999 22.574 94.0999 24.0487C94.0999 25.5234 94.4639 26.662 95.1919 27.4647C95.9385 28.2487 96.8719 28.6407 97.9919 28.6407ZM123.603 16.2927V31.8047H119.655V29.8447C119.151 30.5167 118.489 31.0487 117.667 31.4407C116.865 31.814 115.987 32.0007 115.035 32.0007C113.822 32.0007 112.749 31.7487 111.815 31.2447C110.882 30.722 110.145 29.966 109.603 28.9767C109.081 27.9687 108.819 26.774 108.819 25.3927V16.2927H112.739V24.8327C112.739 26.0647 113.047 27.0167 113.663 27.6887C114.279 28.342 115.119 28.6687 116.183 28.6687C117.266 28.6687 118.115 28.342 118.731 27.6887C119.347 27.0167 119.655 26.0647 119.655 24.8327V16.2927H123.603ZM132.035 19.5127V27.0167C132.035 27.5394 132.156 27.922 132.399 28.1647C132.66 28.3887 133.09 28.5007 133.687 28.5007H135.507V31.8047H133.043C129.739 31.8047 128.087 30.1994 128.087 26.9887V19.5127H126.239V16.2927H128.087V12.4567H132.035V16.2927H135.507V19.5127H132.035ZM148.862 12.2607V24.3567C148.862 25.682 149.208 26.6994 149.898 27.4087C150.589 28.0994 151.56 28.4447 152.81 28.4447C154.08 28.4447 155.06 28.0994 155.75 27.4087C156.441 26.6994 156.786 25.682 156.786 24.3567V12.2607H160.734V24.3287C160.734 25.99 160.37 27.3994 159.642 28.5567C158.933 29.6954 157.972 30.554 156.758 31.1327C155.564 31.7114 154.229 32.0007 152.754 32.0007C151.298 32.0007 149.973 31.7114 148.778 31.1327C147.602 30.554 146.669 29.6954 145.978 28.5567C145.288 27.3994 144.942 25.99 144.942 24.3287V12.2607H148.862ZM170.458 32.0567C169.189 32.0567 168.05 31.8327 167.042 31.3847C166.034 30.918 165.231 30.2927 164.634 29.5087C164.055 28.7247 163.738 27.8567 163.682 26.9047H167.63C167.705 27.502 167.994 27.9967 168.498 28.3887C169.021 28.7807 169.665 28.9767 170.43 28.9767C171.177 28.9767 171.755 28.8274 172.166 28.5287C172.595 28.23 172.81 27.8474 172.81 27.3807C172.81 26.8767 172.549 26.5034 172.026 26.2607C171.522 25.9994 170.71 25.7194 169.59 25.4207C168.433 25.1407 167.481 24.8514 166.734 24.5527C166.006 24.254 165.371 23.7967 164.83 23.1807C164.307 22.5647 164.046 21.734 164.046 20.6887C164.046 19.83 164.289 19.046 164.774 18.3367C165.278 17.6274 165.987 17.0674 166.902 16.6567C167.835 16.246 168.927 16.0407 170.178 16.0407C172.026 16.0407 173.501 16.5074 174.602 17.4407C175.703 18.3554 176.31 19.5967 176.422 21.1647H172.67C172.614 20.5487 172.353 20.0634 171.886 19.7087C171.438 19.3354 170.831 19.1487 170.066 19.1487C169.357 19.1487 168.806 19.2794 168.414 19.5407C168.041 19.802 167.854 20.166 167.854 20.6327C167.854 21.1554 168.115 21.5567 168.638 21.8367C169.161 22.098 169.973 22.3687 171.074 22.6487C172.194 22.9287 173.118 23.218 173.846 23.5167C174.574 23.8154 175.199 24.282 175.722 24.9167C176.263 25.5327 176.543 26.354 176.562 27.3807C176.562 28.2767 176.31 29.0794 175.806 29.7887C175.321 30.498 174.611 31.058 173.678 31.4687C172.763 31.8607 171.69 32.0567 170.458 32.0567Z" fill="white"/>
<line x1="101.805" y1="45.5997" x2="126.202" y2="45.5997" stroke="#2EBD85" stroke-width="0.206755"/>
<path d="M8.61961 57.1987C8.61961 58.0687 8.31961 58.7937 7.71961 59.3737C7.12961 59.9437 6.22461 60.2287 5.00461 60.2287H2.99461V64.5938H1.62961V54.1387H5.00461C6.18461 54.1387 7.07961 54.4237 7.68961 54.9937C8.30961 55.5637 8.61961 56.2987 8.61961 57.1987ZM5.00461 59.1037C5.76461 59.1037 6.32461 58.9387 6.68461 58.6087C7.04461 58.2787 7.22461 57.8087 7.22461 57.1987C7.22461 55.9087 6.48461 55.2637 5.00461 55.2637H2.99461V59.1037H5.00461ZM11.6811 57.7087C11.9211 57.2387 12.2611 56.8737 12.7011 56.6137C13.1511 56.3537 13.6961 56.2237 14.3361 56.2237V57.6337H13.9761C12.4461 57.6337 11.6811 58.4637 11.6811 60.1237V64.5938H10.3161V56.3737H11.6811V57.7087ZM19.4968 64.7288C18.7268 64.7288 18.0268 64.5538 17.3968 64.2037C16.7768 63.8537 16.2868 63.3587 15.9268 62.7188C15.5768 62.0687 15.4018 61.3187 15.4018 60.4687C15.4018 59.6287 15.5818 58.8887 15.9418 58.2487C16.3118 57.5987 16.8118 57.1037 17.4418 56.7637C18.0718 56.4137 18.7768 56.2387 19.5568 56.2387C20.3368 56.2387 21.0418 56.4137 21.6718 56.7637C22.3018 57.1037 22.7968 57.5937 23.1568 58.2337C23.5268 58.8737 23.7118 59.6187 23.7118 60.4687C23.7118 61.3187 23.5218 62.0687 23.1418 62.7188C22.7718 63.3587 22.2668 63.8537 21.6268 64.2037C20.9868 64.5538 20.2768 64.7288 19.4968 64.7288ZM19.4968 63.5287C19.9868 63.5287 20.4468 63.4137 20.8768 63.1837C21.3068 62.9537 21.6518 62.6087 21.9118 62.1487C22.1818 61.6887 22.3168 61.1287 22.3168 60.4687C22.3168 59.8087 22.1868 59.2487 21.9268 58.7887C21.6668 58.3287 21.3268 57.9887 20.9068 57.7687C20.4868 57.5387 20.0318 57.4237 19.5418 57.4237C19.0418 57.4237 18.5818 57.5387 18.1618 57.7687C17.7518 57.9887 17.4218 58.3287 17.1718 58.7887C16.9218 59.2487 16.7968 59.8087 16.7968 60.4687C16.7968 61.1387 16.9168 61.7037 17.1568 62.1637C17.4068 62.6237 17.7368 62.9687 18.1468 63.1987C18.5568 63.4187 19.0068 63.5287 19.4968 63.5287ZM28.5666 63.3337L31.1166 56.3737H32.5716L29.3466 64.5938H27.7566L24.5316 56.3737H26.0016L28.5666 63.3337ZM34.6198 55.0387C34.3598 55.0387 34.1398 54.9487 33.9598 54.7687C33.7798 54.5887 33.6898 54.3687 33.6898 54.1087C33.6898 53.8487 33.7798 53.6287 33.9598 53.4487C34.1398 53.2687 34.3598 53.1787 34.6198 53.1787C34.8698 53.1787 35.0798 53.2687 35.2498 53.4487C35.4298 53.6287 35.5198 53.8487 35.5198 54.1087C35.5198 54.3687 35.4298 54.5887 35.2498 54.7687C35.0798 54.9487 34.8698 55.0387 34.6198 55.0387ZM35.2798 56.3737V64.5938H33.9148V56.3737H35.2798ZM37.0962 60.4537C37.0962 59.6137 37.2662 58.8787 37.6062 58.2487C37.9462 57.6087 38.4112 57.1137 39.0012 56.7637C39.6012 56.4137 40.2712 56.2387 41.0112 56.2387C41.6512 56.2387 42.2462 56.3887 42.7962 56.6887C43.3462 56.9787 43.7662 57.3637 44.0562 57.8437V53.4937H45.4362V64.5938H44.0562V63.0487C43.7862 63.5387 43.3862 63.9437 42.8562 64.2637C42.3262 64.5737 41.7062 64.7288 40.9962 64.7288C40.2662 64.7288 39.6012 64.5488 39.0012 64.1887C38.4112 63.8287 37.9462 63.3237 37.6062 62.6737C37.2662 62.0237 37.0962 61.2837 37.0962 60.4537ZM44.0562 60.4687C44.0562 59.8487 43.9312 59.3087 43.6812 58.8487C43.4312 58.3887 43.0912 58.0387 42.6612 57.7987C42.2412 57.5487 41.7762 57.4237 41.2662 57.4237C40.7562 57.4237 40.2912 57.5437 39.8712 57.7837C39.4512 58.0237 39.1162 58.3737 38.8662 58.8337C38.6162 59.2937 38.4912 59.8337 38.4912 60.4537C38.4912 61.0837 38.6162 61.6337 38.8662 62.1037C39.1162 62.5637 39.4512 62.9187 39.8712 63.1687C40.2912 63.4087 40.7562 63.5287 41.2662 63.5287C41.7762 63.5287 42.2412 63.4087 42.6612 63.1687C43.0912 62.9187 43.4312 62.5637 43.6812 62.1037C43.9312 61.6337 44.0562 61.0887 44.0562 60.4687ZM48.4479 55.0387C48.1879 55.0387 47.9679 54.9487 47.7879 54.7687C47.6079 54.5887 47.5179 54.3687 47.5179 54.1087C47.5179 53.8487 47.6079 53.6287 47.7879 53.4487C47.9679 53.2687 48.1879 53.1787 48.4479 53.1787C48.6979 53.1787 48.9079 53.2687 49.0779 53.4487C49.2579 53.6287 49.3479 53.8487 49.3479 54.1087C49.3479 54.3687 49.2579 54.5887 49.0779 54.7687C48.9079 54.9487 48.6979 55.0387 48.4479 55.0387ZM49.1079 56.3737V64.5938H47.7429V56.3737H49.1079ZM55.4393 56.2237C56.4393 56.2237 57.2493 56.5287 57.8693 57.1387C58.4893 57.7387 58.7993 58.6087 58.7993 59.7487V64.5938H57.4493V59.9437C57.4493 59.1237 57.2443 58.4987 56.8343 58.0687C56.4243 57.6287 55.8643 57.4087 55.1543 57.4087C54.4343 57.4087 53.8593 57.6337 53.4293 58.0837C53.0093 58.5337 52.7993 59.1887 52.7993 60.0487V64.5938H51.4343V56.3737H52.7993V57.5437C53.0693 57.1237 53.4343 56.7987 53.8943 56.5687C54.3643 56.3387 54.8793 56.2237 55.4393 56.2237ZM64.419 56.2387C65.129 56.2387 65.749 56.3937 66.279 56.7037C66.819 57.0137 67.219 57.4037 67.479 57.8737V56.3737H68.859V64.7738C68.859 65.5238 68.699 66.1888 68.379 66.7688C68.059 67.3588 67.599 67.8188 66.999 68.1488C66.409 68.4788 65.719 68.6438 64.929 68.6438C63.849 68.6438 62.949 68.3888 62.229 67.8788C61.509 67.3688 61.084 66.6738 60.954 65.7938H62.304C62.454 66.2938 62.764 66.6938 63.234 66.9938C63.704 67.3038 64.269 67.4588 64.929 67.4588C65.679 67.4588 66.289 67.2238 66.759 66.7538C67.239 66.2838 67.479 65.6238 67.479 64.7738V63.0487C67.209 63.5287 66.809 63.9287 66.279 64.2487C65.749 64.5687 65.129 64.7288 64.419 64.7288C63.689 64.7288 63.024 64.5488 62.424 64.1887C61.834 63.8287 61.369 63.3237 61.029 62.6737C60.689 62.0237 60.519 61.2837 60.519 60.4537C60.519 59.6137 60.689 58.8787 61.029 58.2487C61.369 57.6087 61.834 57.1137 62.424 56.7637C63.024 56.4137 63.689 56.2387 64.419 56.2387ZM67.479 60.4687C67.479 59.8487 67.354 59.3087 67.104 58.8487C66.854 58.3887 66.514 58.0387 66.084 57.7987C65.664 57.5487 65.199 57.4237 64.689 57.4237C64.179 57.4237 63.714 57.5437 63.294 57.7837C62.874 58.0237 62.539 58.3737 62.289 58.8337C62.039 59.2937 61.914 59.8337 61.914 60.4537C61.914 61.0837 62.039 61.6337 62.289 62.1037C62.539 62.5637 62.874 62.9187 63.294 63.1687C63.714 63.4087 64.179 63.5287 64.689 63.5287C65.199 63.5287 65.664 63.4087 66.084 63.1687C66.514 62.9187 66.854 62.5637 67.104 62.1037C67.354 61.6337 67.479 61.0887 67.479 60.4687ZM82.6648 60.1687C82.6648 60.4287 82.6498 60.7037 82.6198 60.9937H76.0498C76.0998 61.8037 76.3748 62.4387 76.8748 62.8987C77.3848 63.3487 77.9998 63.5737 78.7198 63.5737C79.3098 63.5737 79.7998 63.4387 80.1898 63.1687C80.5898 62.8887 80.8698 62.5187 81.0298 62.0587H82.4998C82.2798 62.8487 81.8398 63.4937 81.1798 63.9937C80.5198 64.4837 79.6998 64.7288 78.7198 64.7288C77.9398 64.7288 77.2398 64.5538 76.6198 64.2037C76.0098 63.8537 75.5298 63.3587 75.1798 62.7188C74.8298 62.0687 74.6548 61.3187 74.6548 60.4687C74.6548 59.6187 74.8248 58.8737 75.1648 58.2337C75.5048 57.5937 75.9798 57.1037 76.5898 56.7637C77.2098 56.4137 77.9198 56.2387 78.7198 56.2387C79.4998 56.2387 80.1898 56.4087 80.7898 56.7487C81.3898 57.0887 81.8498 57.5587 82.1698 58.1587C82.4998 58.7487 82.6648 59.4187 82.6648 60.1687ZM81.2548 59.8837C81.2548 59.3637 81.1398 58.9187 80.9098 58.5487C80.6798 58.1687 80.3648 57.8837 79.9648 57.6937C79.5748 57.4937 79.1398 57.3937 78.6598 57.3937C77.9698 57.3937 77.3798 57.6137 76.8898 58.0537C76.4098 58.4937 76.1348 59.1037 76.0648 59.8837H81.2548ZM87.5265 63.3337L90.0765 56.3737H91.5315L88.3065 64.5938H86.7165L83.4915 56.3737H84.9615L87.5265 63.3337ZM100.375 60.1687C100.375 60.4287 100.36 60.7037 100.33 60.9937H93.7597C93.8097 61.8037 94.0847 62.4387 94.5847 62.8987C95.0947 63.3487 95.7097 63.5737 96.4297 63.5737C97.0197 63.5737 97.5097 63.4387 97.8997 63.1687C98.2997 62.8887 98.5797 62.5187 98.7397 62.0587H100.21C99.9897 62.8487 99.5497 63.4937 98.8897 63.9937C98.2297 64.4837 97.4097 64.7288 96.4297 64.7288C95.6497 64.7288 94.9497 64.5538 94.3297 64.2037C93.7197 63.8537 93.2397 63.3587 92.8897 62.7188C92.5397 62.0687 92.3647 61.3187 92.3647 60.4687C92.3647 59.6187 92.5347 58.8737 92.8747 58.2337C93.2147 57.5937 93.6897 57.1037 94.2997 56.7637C94.9197 56.4137 95.6297 56.2387 96.4297 56.2387C97.2097 56.2387 97.8997 56.4087 98.4997 56.7487C99.0997 57.0887 99.5597 57.5587 99.8797 58.1587C100.21 58.7487 100.375 59.4187 100.375 60.1687ZM98.9647 59.8837C98.9647 59.3637 98.8497 58.9187 98.6197 58.5487C98.3897 58.1687 98.0747 57.8837 97.6747 57.6937C97.2847 57.4937 96.8497 57.3937 96.3697 57.3937C95.6797 57.3937 95.0897 57.6137 94.5997 58.0537C94.1197 58.4937 93.8447 59.1037 93.7747 59.8837H98.9647ZM103.541 57.7087C103.781 57.2387 104.121 56.8737 104.561 56.6137C105.011 56.3537 105.556 56.2237 106.196 56.2237V57.6337H105.836C104.306 57.6337 103.541 58.4637 103.541 60.1237V64.5938H102.176V56.3737H103.541V57.7087ZM114.852 56.3737L109.902 68.4638H108.492L110.112 64.5037L106.797 56.3737H108.312L110.892 63.0337L113.442 56.3737H114.852ZM117.889 57.4987V62.3437C117.889 62.7437 117.974 63.0287 118.144 63.1987C118.314 63.3587 118.609 63.4387 119.029 63.4387H120.034V64.5938H118.804C118.044 64.5938 117.474 64.4187 117.094 64.0687C116.714 63.7187 116.524 63.1437 116.524 62.3437V57.4987H115.459V56.3737H116.524V54.3037H117.889V56.3737H120.034V57.4987H117.889ZM125.768 56.2237C126.388 56.2237 126.948 56.3587 127.448 56.6287C127.948 56.8887 128.338 57.2837 128.618 57.8137C128.908 58.3437 129.053 58.9887 129.053 59.7487V64.5938H127.703V59.9437C127.703 59.1237 127.498 58.4987 127.088 58.0687C126.678 57.6287 126.118 57.4087 125.408 57.4087C124.688 57.4087 124.113 57.6337 123.683 58.0837C123.263 58.5337 123.053 59.1887 123.053 60.0487V64.5938H121.688V53.4937H123.053V57.5437C123.323 57.1237 123.693 56.7987 124.163 56.5687C124.643 56.3387 125.178 56.2237 125.768 56.2237ZM131.988 55.0387C131.728 55.0387 131.508 54.9487 131.328 54.7687C131.148 54.5887 131.058 54.3687 131.058 54.1087C131.058 53.8487 131.148 53.6287 131.328 53.4487C131.508 53.2687 131.728 53.1787 131.988 53.1787C132.238 53.1787 132.448 53.2687 132.618 53.4487C132.798 53.6287 132.888 53.8487 132.888 54.1087C132.888 54.3687 132.798 54.5887 132.618 54.7687C132.448 54.9487 132.238 55.0387 131.988 55.0387ZM132.648 56.3737V64.5938H131.283V56.3737H132.648ZM138.979 56.2237C139.979 56.2237 140.789 56.5287 141.409 57.1387C142.029 57.7387 142.339 58.6087 142.339 59.7487V64.5938H140.989V59.9437C140.989 59.1237 140.784 58.4987 140.374 58.0687C139.964 57.6287 139.404 57.4087 138.694 57.4087C137.974 57.4087 137.399 57.6337 136.969 58.0837C136.549 58.5337 136.339 59.1887 136.339 60.0487V64.5938H134.974V56.3737H136.339V57.5437C136.609 57.1237 136.974 56.7987 137.434 56.5687C137.904 56.3387 138.419 56.2237 138.979 56.2237ZM147.959 56.2387C148.669 56.2387 149.289 56.3937 149.819 56.7037C150.359 57.0137 150.759 57.4037 151.019 57.8737V56.3737H152.399V64.7738C152.399 65.5238 152.239 66.1888 151.919 66.7688C151.599 67.3588 151.139 67.8188 150.539 68.1488C149.949 68.4788 149.259 68.6438 148.469 68.6438C147.389 68.6438 146.489 68.3888 145.769 67.8788C145.049 67.3688 144.624 66.6738 144.494 65.7938H145.844C145.994 66.2938 146.304 66.6938 146.774 66.9938C147.244 67.3038 147.809 67.4588 148.469 67.4588C149.219 67.4588 149.829 67.2238 150.299 66.7538C150.779 66.2838 151.019 65.6238 151.019 64.7738V63.0487C150.749 63.5287 150.349 63.9287 149.819 64.2487C149.289 64.5687 148.669 64.7288 147.959 64.7288C147.229 64.7288 146.564 64.5488 145.964 64.1887C145.374 63.8287 144.909 63.3237 144.569 62.6737C144.229 62.0237 144.059 61.2837 144.059 60.4537C144.059 59.6137 144.229 58.8787 144.569 58.2487C144.909 57.6087 145.374 57.1137 145.964 56.7637C146.564 56.4137 147.229 56.2387 147.959 56.2387ZM151.019 60.4687C151.019 59.8487 150.894 59.3087 150.644 58.8487C150.394 58.3887 150.054 58.0387 149.624 57.7987C149.204 57.5487 148.739 57.4237 148.229 57.4237C147.719 57.4237 147.254 57.5437 146.834 57.7837C146.414 58.0237 146.079 58.3737 145.829 58.8337C145.579 59.2937 145.454 59.8337 145.454 60.4537C145.454 61.0837 145.579 61.6337 145.829 62.1037C146.079 62.5637 146.414 62.9187 146.834 63.1687C147.254 63.4087 147.719 63.5287 148.229 63.5287C148.739 63.5287 149.204 63.4087 149.624 63.1687C150.054 62.9187 150.394 62.5637 150.644 62.1037C150.894 61.6337 151.019 61.0887 151.019 60.4687ZM165.785 56.3737L160.835 68.4638H159.425L161.045 64.5037L157.73 56.3737H159.245L161.825 63.0337L164.375 56.3737H165.785ZM170.742 64.7288C169.972 64.7288 169.272 64.5538 168.642 64.2037C168.022 63.8537 167.532 63.3587 167.172 62.7188C166.822 62.0687 166.647 61.3187 166.647 60.4687C166.647 59.6287 166.827 58.8887 167.187 58.2487C167.557 57.5987 168.057 57.1037 168.687 56.7637C169.317 56.4137 170.022 56.2387 170.802 56.2387C171.582 56.2387 172.287 56.4137 172.917 56.7637C173.547 57.1037 174.042 57.5937 174.402 58.2337C174.772 58.8737 174.957 59.6187 174.957 60.4687C174.957 61.3187 174.767 62.0687 174.387 62.7188C174.017 63.3587 173.512 63.8537 172.872 64.2037C172.232 64.5538 171.522 64.7288 170.742 64.7288ZM170.742 63.5287C171.232 63.5287 171.692 63.4137 172.122 63.1837C172.552 62.9537 172.897 62.6087 173.157 62.1487C173.427 61.6887 173.562 61.1287 173.562 60.4687C173.562 59.8087 173.432 59.2487 173.172 58.7887C172.912 58.3287 172.572 57.9887 172.152 57.7687C171.732 57.5387 171.277 57.4237 170.787 57.4237C170.287 57.4237 169.827 57.5387 169.407 57.7687C168.997 57.9887 168.667 58.3287 168.417 58.7887C168.167 59.2487 168.042 59.8087 168.042 60.4687C168.042 61.1387 168.162 61.7037 168.402 62.1637C168.652 62.6237 168.982 62.9687 169.392 63.1987C169.802 63.4187 170.252 63.5287 170.742 63.5287ZM184.042 56.3737V64.5938H182.677V63.3787C182.417 63.7987 182.052 64.1287 181.582 64.3687C181.122 64.5988 180.612 64.7138 180.052 64.7138C179.412 64.7138 178.837 64.5837 178.327 64.3237C177.817 64.0537 177.412 63.6537 177.112 63.1237C176.822 62.5937 176.677 61.9487 176.677 61.1887V56.3737H178.027V61.0087C178.027 61.8187 178.232 62.4437 178.642 62.8837C179.052 63.3137 179.612 63.5287 180.322 63.5287C181.052 63.5287 181.627 63.3037 182.047 62.8537C182.467 62.4037 182.677 61.7487 182.677 60.8887V56.3737H184.042ZM194.35 56.2237C195.35 56.2237 196.16 56.5287 196.78 57.1387C197.4 57.7387 197.71 58.6087 197.71 59.7487V64.5938H196.36V59.9437C196.36 59.1237 196.155 58.4987 195.745 58.0687C195.335 57.6287 194.775 57.4087 194.065 57.4087C193.345 57.4087 192.77 57.6337 192.34 58.0837C191.92 58.5337 191.71 59.1887 191.71 60.0487V64.5938H190.345V56.3737H191.71V57.5437C191.98 57.1237 192.345 56.7987 192.805 56.5687C193.275 56.3387 193.79 56.2237 194.35 56.2237ZM207.44 60.1687C207.44 60.4287 207.425 60.7037 207.395 60.9937H200.825C200.875 61.8037 201.15 62.4387 201.65 62.8987C202.16 63.3487 202.775 63.5737 203.495 63.5737C204.085 63.5737 204.575 63.4387 204.965 63.1687C205.365 62.8887 205.645 62.5187 205.805 62.0587H207.275C207.055 62.8487 206.615 63.4937 205.955 63.9937C205.295 64.4837 204.475 64.7288 203.495 64.7288C202.715 64.7288 202.015 64.5538 201.395 64.2037C200.785 63.8537 200.305 63.3587 199.955 62.7188C199.605 62.0687 199.43 61.3187 199.43 60.4687C199.43 59.6187 199.6 58.8737 199.94 58.2337C200.28 57.5937 200.755 57.1037 201.365 56.7637C201.985 56.4137 202.695 56.2387 203.495 56.2387C204.275 56.2387 204.965 56.4087 205.565 56.7487C206.165 57.0887 206.625 57.5587 206.945 58.1587C207.275 58.7487 207.44 59.4187 207.44 60.1687ZM206.03 59.8837C206.03 59.3637 205.915 58.9187 205.685 58.5487C205.455 58.1687 205.14 57.8837 204.74 57.6937C204.35 57.4937 203.915 57.3937 203.435 57.3937C202.745 57.3937 202.155 57.6137 201.665 58.0537C201.185 58.4937 200.91 59.1037 200.84 59.8837H206.03ZM216.742 60.1687C216.742 60.4287 216.727 60.7037 216.697 60.9937H210.127C210.177 61.8037 210.452 62.4387 210.952 62.8987C211.462 63.3487 212.077 63.5737 212.797 63.5737C213.387 63.5737 213.877 63.4387 214.267 63.1687C214.667 62.8887 214.947 62.5187 215.107 62.0587H216.577C216.357 62.8487 215.917 63.4937 215.257 63.9937C214.597 64.4837 213.777 64.7288 212.797 64.7288C212.017 64.7288 211.317 64.5538 210.697 64.2037C210.087 63.8537 209.607 63.3587 209.257 62.7188C208.907 62.0687 208.732 61.3187 208.732 60.4687C208.732 59.6187 208.902 58.8737 209.242 58.2337C209.582 57.5937 210.057 57.1037 210.667 56.7637C211.287 56.4137 211.997 56.2387 212.797 56.2387C213.577 56.2387 214.267 56.4087 214.867 56.7487C215.467 57.0887 215.927 57.5587 216.247 58.1587C216.577 58.7487 216.742 59.4187 216.742 60.1687ZM215.332 59.8837C215.332 59.3637 215.217 58.9187 214.987 58.5487C214.757 58.1687 214.442 57.8837 214.042 57.6937C213.652 57.4937 213.217 57.3937 212.737 57.3937C212.047 57.3937 211.457 57.6137 210.967 58.0537C210.487 58.4937 210.212 59.1037 210.142 59.8837H215.332ZM218.034 60.4537C218.034 59.6137 218.204 58.8787 218.544 58.2487C218.884 57.6087 219.349 57.1137 219.939 56.7637C220.539 56.4137 221.209 56.2387 221.949 56.2387C222.589 56.2387 223.184 56.3887 223.734 56.6887C224.284 56.9787 224.704 57.3637 224.994 57.8437V53.4937H226.374V64.5938H224.994V63.0487C224.724 63.5387 224.324 63.9437 223.794 64.2637C223.264 64.5737 222.644 64.7288 221.934 64.7288C221.204 64.7288 220.539 64.5488 219.939 64.1887C219.349 63.8287 218.884 63.3237 218.544 62.6737C218.204 62.0237 218.034 61.2837 218.034 60.4537ZM224.994 60.4687C224.994 59.8487 224.869 59.3087 224.619 58.8487C224.369 58.3887 224.029 58.0387 223.599 57.7987C223.179 57.5487 222.714 57.4237 222.204 57.4237C221.694 57.4237 221.229 57.5437 220.809 57.7837C220.389 58.0237 220.054 58.3737 219.804 58.8337C219.554 59.2937 219.429 59.8337 219.429 60.4537C219.429 61.0837 219.554 61.6337 219.804 62.1037C220.054 62.5637 220.389 62.9187 220.809 63.1687C221.229 63.4087 221.694 63.5287 222.204 63.5287C222.714 63.5287 223.179 63.4087 223.599 63.1687C224.029 62.9187 224.369 62.5637 224.619 62.1037C224.869 61.6337 224.994 61.0887 224.994 60.4687ZM47.694 78.4987V83.3437C47.694 83.7437 47.779 84.0287 47.949 84.1987C48.119 84.3587 48.414 84.4387 48.834 84.4387H49.839V85.5938H48.609C47.849 85.5938 47.279 85.4187 46.899 85.0687C46.519 84.7187 46.329 84.1437 46.329 83.3437V78.4987H45.264V77.3737H46.329V75.3037H47.694V77.3737H49.839V78.4987H47.694ZM55.0779 85.7288C54.3079 85.7288 53.6079 85.5538 52.9779 85.2037C52.3579 84.8537 51.8679 84.3587 51.5079 83.7188C51.1579 83.0687 50.9829 82.3187 50.9829 81.4687C50.9829 80.6287 51.1629 79.8887 51.5229 79.2487C51.8929 78.5987 52.3929 78.1037 53.0229 77.7637C53.6529 77.4137 54.3579 77.2387 55.1379 77.2387C55.9179 77.2387 56.6229 77.4137 57.2529 77.7637C57.8829 78.1037 58.3779 78.5937 58.7379 79.2337C59.1079 79.8737 59.2929 80.6187 59.2929 81.4687C59.2929 82.3187 59.1029 83.0687 58.7229 83.7188C58.3529 84.3587 57.8479 84.8537 57.2079 85.2037C56.5679 85.5538 55.8579 85.7288 55.0779 85.7288ZM55.0779 84.5287C55.5679 84.5287 56.0279 84.4137 56.4579 84.1837C56.8879 83.9537 57.2329 83.6087 57.4929 83.1487C57.7629 82.6887 57.8979 82.1287 57.8979 81.4687C57.8979 80.8087 57.7679 80.2487 57.5079 79.7887C57.2479 79.3287 56.9079 78.9887 56.4879 78.7687C56.0679 78.5387 55.6129 78.4237 55.1229 78.4237C54.6229 78.4237 54.1629 78.5387 53.7429 78.7687C53.3329 78.9887 53.0029 79.3287 52.7529 79.7887C52.5029 80.2487 52.3779 80.8087 52.3779 81.4687C52.3779 82.1387 52.4979 82.7037 52.7379 83.1637C52.9879 83.6237 53.3179 83.9687 53.7279 84.1987C54.1379 84.4187 54.5879 84.5287 55.0779 84.5287ZM66.4516 78.8887C66.7216 78.4187 67.1216 78.0287 67.6516 77.7187C68.1916 77.3987 68.8166 77.2387 69.5266 77.2387C70.2566 77.2387 70.9166 77.4137 71.5066 77.7637C72.1066 78.1137 72.5766 78.6087 72.9166 79.2487C73.2566 79.8787 73.4266 80.6137 73.4266 81.4537C73.4266 82.2837 73.2566 83.0237 72.9166 83.6737C72.5766 84.3237 72.1066 84.8287 71.5066 85.1887C70.9166 85.5488 70.2566 85.7288 69.5266 85.7288C68.8266 85.7288 68.2066 85.5737 67.6666 85.2637C67.1366 84.9437 66.7316 84.5487 66.4516 84.0787V89.4938H65.0866V77.3737H66.4516V78.8887ZM72.0316 81.4537C72.0316 80.8337 71.9066 80.2937 71.6566 79.8337C71.4066 79.3737 71.0666 79.0237 70.6366 78.7837C70.2166 78.5437 69.7516 78.4237 69.2416 78.4237C68.7416 78.4237 68.2766 78.5487 67.8466 78.7987C67.4266 79.0387 67.0866 79.3937 66.8266 79.8637C66.5766 80.3237 66.4516 80.8587 66.4516 81.4687C66.4516 82.0887 66.5766 82.6337 66.8266 83.1037C67.0866 83.5637 67.4266 83.9187 67.8466 84.1687C68.2766 84.4087 68.7416 84.5287 69.2416 84.5287C69.7516 84.5287 70.2166 84.4087 70.6366 84.1687C71.0666 83.9187 71.4066 83.5637 71.6566 83.1037C71.9066 82.6337 72.0316 82.0837 72.0316 81.4537ZM76.5884 74.4937V85.5938H75.2234V74.4937H76.5884ZM78.4048 81.4537C78.4048 80.6137 78.5748 79.8787 78.9148 79.2487C79.2548 78.6087 79.7198 78.1137 80.3098 77.7637C80.9098 77.4137 81.5748 77.2387 82.3048 77.2387C83.0248 77.2387 83.6498 77.3937 84.1798 77.7037C84.7098 78.0137 85.1048 78.4037 85.3648 78.8737V77.3737H86.7448V85.5938H85.3648V84.0637C85.0948 84.5437 84.6898 84.9437 84.1498 85.2637C83.6198 85.5737 82.9998 85.7288 82.2898 85.7288C81.5598 85.7288 80.8998 85.5488 80.3098 85.1887C79.7198 84.8287 79.2548 84.3237 78.9148 83.6737C78.5748 83.0237 78.4048 82.2837 78.4048 81.4537ZM85.3648 81.4687C85.3648 80.8487 85.2398 80.3087 84.9898 79.8487C84.7398 79.3887 84.3998 79.0387 83.9698 78.7987C83.5498 78.5487 83.0848 78.4237 82.5748 78.4237C82.0648 78.4237 81.5998 78.5437 81.1798 78.7837C80.7598 79.0237 80.4248 79.3737 80.1748 79.8337C79.9248 80.2937 79.7998 80.8337 79.7998 81.4537C79.7998 82.0837 79.9248 82.6337 80.1748 83.1037C80.4248 83.5637 80.7598 83.9187 81.1798 84.1687C81.5998 84.4087 82.0648 84.5287 82.5748 84.5287C83.0848 84.5287 83.5498 84.4087 83.9698 84.1687C84.3998 83.9187 84.7398 83.5637 84.9898 83.1037C85.2398 82.6337 85.3648 82.0887 85.3648 81.4687ZM96.1315 77.3737L91.1815 89.4638H89.7715L91.3915 85.5037L88.0765 77.3737H89.5915L92.1715 84.0337L94.7215 77.3737H96.1315ZM100.993 81.4537C100.993 80.6137 101.163 79.8787 101.503 79.2487C101.843 78.6087 102.308 78.1137 102.898 77.7637C103.498 77.4137 104.163 77.2387 104.893 77.2387C105.613 77.2387 106.238 77.3937 106.768 77.7037C107.298 78.0137 107.693 78.4037 107.953 78.8737V77.3737H109.333V85.5938H107.953V84.0637C107.683 84.5437 107.278 84.9437 106.738 85.2637C106.208 85.5737 105.588 85.7288 104.878 85.7288C104.148 85.7288 103.488 85.5488 102.898 85.1887C102.308 84.8287 101.843 84.3237 101.503 83.6737C101.163 83.0237 100.993 82.2837 100.993 81.4537ZM107.953 81.4687C107.953 80.8487 107.828 80.3087 107.578 79.8487C107.328 79.3887 106.988 79.0387 106.558 78.7987C106.138 78.5487 105.673 78.4237 105.163 78.4237C104.653 78.4237 104.188 78.5437 103.768 78.7837C103.348 79.0237 103.013 79.3737 102.763 79.8337C102.513 80.2937 102.388 80.8337 102.388 81.4537C102.388 82.0837 102.513 82.6337 102.763 83.1037C103.013 83.5637 103.348 83.9187 103.768 84.1687C104.188 84.4087 104.653 84.5287 105.163 84.5287C105.673 84.5287 106.138 84.4087 106.558 84.1687C106.988 83.9187 107.328 83.5637 107.578 83.1037C107.828 82.6337 107.953 82.0887 107.953 81.4687ZM115.644 77.2237C116.644 77.2237 117.454 77.5287 118.074 78.1387C118.694 78.7387 119.004 79.6087 119.004 80.7487V85.5938H117.654V80.9437C117.654 80.1237 117.449 79.4987 117.039 79.0687C116.629 78.6287 116.069 78.4087 115.359 78.4087C114.639 78.4087 114.064 78.6337 113.634 79.0837C113.214 79.5337 113.004 80.1887 113.004 81.0487V85.5938H111.639V77.3737H113.004V78.5437C113.274 78.1237 113.639 77.7987 114.099 77.5687C114.569 77.3387 115.084 77.2237 115.644 77.2237ZM120.724 81.4537C120.724 80.6137 120.894 79.8787 121.234 79.2487C121.574 78.6087 122.039 78.1137 122.629 77.7637C123.229 77.4137 123.899 77.2387 124.639 77.2387C125.279 77.2387 125.874 77.3887 126.424 77.6887C126.974 77.9787 127.394 78.3637 127.684 78.8437V74.4937H129.064V85.5938H127.684V84.0487C127.414 84.5387 127.014 84.9437 126.484 85.2637C125.954 85.5737 125.334 85.7288 124.624 85.7288C123.894 85.7288 123.229 85.5488 122.629 85.1887C122.039 84.8287 121.574 84.3237 121.234 83.6737C120.894 83.0237 120.724 82.2837 120.724 81.4537ZM127.684 81.4687C127.684 80.8487 127.559 80.3087 127.309 79.8487C127.059 79.3887 126.719 79.0387 126.289 78.7987C125.869 78.5487 125.404 78.4237 124.894 78.4237C124.384 78.4237 123.919 78.5437 123.499 78.7837C123.079 79.0237 122.744 79.3737 122.494 79.8337C122.244 80.2937 122.119 80.8337 122.119 81.4537C122.119 82.0837 122.244 82.6337 122.494 83.1037C122.744 83.5637 123.079 83.9187 123.499 84.1687C123.919 84.4087 124.384 84.5287 124.894 84.5287C125.404 84.5287 125.869 84.4087 126.289 84.1687C126.719 83.9187 127.059 83.5637 127.309 83.1037C127.559 82.6337 127.684 82.0887 127.684 81.4687ZM134.86 81.4687C134.86 80.6187 135.03 79.8787 135.37 79.2487C135.71 78.6087 136.18 78.1137 136.78 77.7637C137.39 77.4137 138.085 77.2387 138.865 77.2387C139.875 77.2387 140.705 77.4837 141.355 77.9737C142.015 78.4637 142.45 79.1437 142.66 80.0137H141.19C141.05 79.5137 140.775 79.1187 140.365 78.8287C139.965 78.5387 139.465 78.3937 138.865 78.3937C138.085 78.3937 137.455 78.6637 136.975 79.2037C136.495 79.7337 136.255 80.4887 136.255 81.4687C136.255 82.4587 136.495 83.2237 136.975 83.7637C137.455 84.3037 138.085 84.5737 138.865 84.5737C139.465 84.5737 139.965 84.4337 140.365 84.1537C140.765 83.8737 141.04 83.4737 141.19 82.9537H142.66C142.44 83.7937 142 84.4687 141.34 84.9787C140.68 85.4787 139.855 85.7288 138.865 85.7288C138.085 85.7288 137.39 85.5538 136.78 85.2037C136.18 84.8537 135.71 84.3587 135.37 83.7188C135.03 83.0787 134.86 82.3287 134.86 81.4687ZM145.846 78.7087C146.086 78.2387 146.426 77.8737 146.866 77.6137C147.316 77.3537 147.861 77.2237 148.501 77.2237V78.6337H148.141C146.611 78.6337 145.846 79.4637 145.846 81.1237V85.5938H144.481V77.3737H145.846V78.7087ZM157.577 81.1687C157.577 81.4287 157.562 81.7037 157.532 81.9937H150.962C151.012 82.8037 151.287 83.4387 151.787 83.8987C152.297 84.3487 152.912 84.5737 153.632 84.5737C154.222 84.5737 154.712 84.4387 155.102 84.1687C155.502 83.8887 155.782 83.5187 155.942 83.0587H157.412C157.192 83.8487 156.752 84.4937 156.092 84.9937C155.432 85.4837 154.612 85.7288 153.632 85.7288C152.852 85.7288 152.152 85.5538 151.532 85.2037C150.922 84.8537 150.442 84.3587 150.092 83.7188C149.742 83.0687 149.567 82.3187 149.567 81.4687C149.567 80.6187 149.737 79.8737 150.077 79.2337C150.417 78.5937 150.892 78.1037 151.502 77.7637C152.122 77.4137 152.832 77.2387 153.632 77.2387C154.412 77.2387 155.102 77.4087 155.702 77.7487C156.302 78.0887 156.762 78.5587 157.082 79.1587C157.412 79.7487 157.577 80.4187 157.577 81.1687ZM156.167 80.8837C156.167 80.3637 156.052 79.9187 155.822 79.5487C155.592 79.1687 155.277 78.8837 154.877 78.6937C154.487 78.4937 154.052 78.3937 153.572 78.3937C152.882 78.3937 152.292 78.6137 151.802 79.0537C151.322 79.4937 151.047 80.1037 150.977 80.8837H156.167ZM158.869 81.4537C158.869 80.6137 159.039 79.8787 159.379 79.2487C159.719 78.6087 160.184 78.1137 160.774 77.7637C161.374 77.4137 162.039 77.2387 162.769 77.2387C163.489 77.2387 164.114 77.3937 164.644 77.7037C165.174 78.0137 165.569 78.4037 165.829 78.8737V77.3737H167.209V85.5938H165.829V84.0637C165.559 84.5437 165.154 84.9437 164.614 85.2637C164.084 85.5737 163.464 85.7288 162.754 85.7288C162.024 85.7288 161.364 85.5488 160.774 85.1887C160.184 84.8287 159.719 84.3237 159.379 83.6737C159.039 83.0237 158.869 82.2837 158.869 81.4537ZM165.829 81.4687C165.829 80.8487 165.704 80.3087 165.454 79.8487C165.204 79.3887 164.864 79.0387 164.434 78.7987C164.014 78.5487 163.549 78.4237 163.039 78.4237C162.529 78.4237 162.064 78.5437 161.644 78.7837C161.224 79.0237 160.889 79.3737 160.639 79.8337C160.389 80.2937 160.264 80.8337 160.264 81.4537C160.264 82.0837 160.389 82.6337 160.639 83.1037C160.889 83.5637 161.224 83.9187 161.644 84.1687C162.064 84.4087 162.529 84.5287 163.039 84.5287C163.549 84.5287 164.014 84.4087 164.434 84.1687C164.864 83.9187 165.204 83.5637 165.454 83.1037C165.704 82.6337 165.829 82.0887 165.829 81.4687ZM171.18 78.4987V83.3437C171.18 83.7437 171.265 84.0287 171.435 84.1987C171.605 84.3587 171.9 84.4387 172.32 84.4387H173.325V85.5938H172.095C171.335 85.5938 170.765 85.4187 170.385 85.0687C170.005 84.7187 169.815 84.1437 169.815 83.3437V78.4987H168.75V77.3737H169.815V75.3037H171.18V77.3737H173.325V78.4987H171.18ZM182.479 81.1687C182.479 81.4287 182.464 81.7037 182.434 81.9937H175.864C175.914 82.8037 176.189 83.4387 176.689 83.8987C177.199 84.3487 177.814 84.5737 178.534 84.5737C179.124 84.5737 179.614 84.4387 180.004 84.1687C180.404 83.8887 180.684 83.5187 180.844 83.0587H182.314C182.094 83.8487 181.654 84.4937 180.994 84.9937C180.334 85.4837 179.514 85.7288 178.534 85.7288C177.754 85.7288 177.054 85.5538 176.434 85.2037C175.824 84.8537 175.344 84.3587 174.994 83.7188C174.644 83.0687 174.469 82.3187 174.469 81.4687C174.469 80.6187 174.639 79.8737 174.979 79.2337C175.319 78.5937 175.794 78.1037 176.404 77.7637C177.024 77.4137 177.734 77.2387 178.534 77.2387C179.314 77.2387 180.004 77.4087 180.604 77.7487C181.204 78.0887 181.664 78.5587 181.984 79.1587C182.314 79.7487 182.479 80.4187 182.479 81.1687ZM181.069 80.8837C181.069 80.3637 180.954 79.9187 180.724 79.5487C180.494 79.1687 180.179 78.8837 179.779 78.6937C179.389 78.4937 178.954 78.3937 178.474 78.3937C177.784 78.3937 177.194 78.6137 176.704 79.0537C176.224 79.4937 175.949 80.1037 175.879 80.8837H181.069Z" fill="#FFFEFE"/>
</svg>
