<svg width="146" height="47" viewBox="0 0 146 47" fill="none" xmlns="http://www.w3.org/2000/svg">
<path d="M13.881 32.0007C12.0516 32.0007 10.3716 31.5714 8.84095 30.7127C7.31029 29.854 6.09695 28.6687 5.20095 27.1567C4.30495 25.626 3.85695 23.8994 3.85695 21.9767C3.85695 20.0727 4.30495 18.3647 5.20095 16.8527C6.09695 15.322 7.31029 14.1274 8.84095 13.2687C10.3716 12.41 12.0516 11.9807 13.881 11.9807C15.729 11.9807 17.409 12.41 18.921 13.2687C20.4516 14.1274 21.6556 15.322 22.533 16.8527C23.429 18.3647 23.877 20.0727 23.877 21.9767C23.877 23.8994 23.429 25.626 22.533 27.1567C21.6556 28.6687 20.4516 29.854 18.921 30.7127C17.3903 31.5714 15.7103 32.0007 13.881 32.0007ZM13.881 28.5007C15.057 28.5007 16.093 28.2394 16.989 27.7167C17.885 27.1754 18.585 26.41 19.089 25.4207C19.593 24.4314 19.845 23.2834 19.845 21.9767C19.845 20.67 19.593 19.5314 19.089 18.5607C18.585 17.5714 17.885 16.8154 16.989 16.2927C16.093 15.77 15.057 15.5087 13.881 15.5087C12.705 15.5087 11.6596 15.77 10.745 16.2927C9.84895 16.8154 9.14895 17.5714 8.64495 18.5607C8.14095 19.5314 7.88895 20.67 7.88895 21.9767C7.88895 23.2834 8.14095 24.4314 8.64495 25.4207C9.14895 26.41 9.84895 27.1754 10.745 27.7167C11.6596 28.2394 12.705 28.5007 13.881 28.5007ZM41.4373 16.2927V31.8047H37.4893V29.8447C36.9853 30.5167 36.3227 31.0487 35.5013 31.4407C34.6987 31.814 33.8213 32.0007 32.8693 32.0007C31.656 32.0007 30.5827 31.7487 29.6493 31.2447C28.716 30.722 27.9787 29.966 27.4373 28.9767C26.9147 27.9687 26.6533 26.774 26.6533 25.3927V16.2927H30.5733V24.8327C30.5733 26.0647 30.8813 27.0167 31.4973 27.6887C32.1133 28.342 32.9533 28.6687 34.0173 28.6687C35.1 28.6687 35.9493 28.342 36.5653 27.6887C37.1813 27.0167 37.4893 26.0647 37.4893 24.8327V16.2927H41.4373ZM49.225 18.7007C49.729 17.8794 50.3824 17.2354 51.185 16.7687C52.0064 16.302 52.9397 16.0687 53.985 16.0687V20.1847H52.949C51.717 20.1847 50.7837 20.474 50.149 21.0527C49.533 21.6314 49.225 22.6394 49.225 24.0767V31.8047H45.305V16.2927H49.225V18.7007ZM76.5972 12.2607V15.4247H71.3892V31.8047H67.4692V15.4247H62.2612V12.2607H76.5972ZM93.8774 23.7127C93.8774 24.2727 93.8401 24.7767 93.7654 25.2247H82.4254C82.5187 26.3447 82.9107 27.222 83.6014 27.8567C84.2921 28.4914 85.1414 28.8087 86.1494 28.8087C87.6054 28.8087 88.6414 28.1834 89.2574 26.9327H93.4854C93.0374 28.426 92.1787 29.658 90.9094 30.6287C89.6401 31.5807 88.0814 32.0567 86.2334 32.0567C84.7401 32.0567 83.3961 31.73 82.2014 31.0767C81.0254 30.4047 80.1014 29.462 79.4294 28.2487C78.7761 27.0354 78.4494 25.6354 78.4494 24.0487C78.4494 22.4434 78.7761 21.034 79.4294 19.8207C80.0827 18.6074 80.9974 17.674 82.1734 17.0207C83.3494 16.3674 84.7027 16.0407 86.2334 16.0407C87.7081 16.0407 89.0241 16.358 90.1814 16.9927C91.3574 17.6274 92.2627 18.5327 92.8974 19.7087C93.5507 20.866 93.8774 22.2007 93.8774 23.7127ZM89.8174 22.5927C89.7987 21.5847 89.4347 20.782 88.7254 20.1847C88.0161 19.5687 87.1481 19.2607 86.1214 19.2607C85.1507 19.2607 84.3294 19.5594 83.6574 20.1567C83.0041 20.7354 82.6027 21.5474 82.4534 22.5927H89.8174ZM95.7306 23.9927C95.7306 22.4247 96.0386 21.034 96.6546 19.8207C97.2893 18.6074 98.1386 17.674 99.2026 17.0207C100.285 16.3674 101.489 16.0407 102.815 16.0407C103.972 16.0407 104.98 16.274 105.839 16.7407C106.716 17.2074 107.416 17.7954 107.939 18.5047V16.2927H111.887V31.8047H107.939V29.5367C107.435 30.2647 106.735 30.8714 105.839 31.3567C104.961 31.8234 103.944 32.0567 102.787 32.0567C101.48 32.0567 100.285 31.7207 99.2026 31.0487C98.1386 30.3767 97.2893 29.434 96.6546 28.2207C96.0386 26.9887 95.7306 25.5794 95.7306 23.9927ZM107.939 24.0487C107.939 23.0967 107.752 22.2847 107.379 21.6127C107.005 20.922 106.501 20.3994 105.867 20.0447C105.232 19.6714 104.551 19.4847 103.823 19.4847C103.095 19.4847 102.423 19.662 101.807 20.0167C101.191 20.3714 100.687 20.894 100.295 21.5847C99.9213 22.2567 99.7346 23.0594 99.7346 23.9927C99.7346 24.926 99.9213 25.7474 100.295 26.4567C100.687 27.1474 101.191 27.6794 101.807 28.0527C102.441 28.426 103.113 28.6127 103.823 28.6127C104.551 28.6127 105.232 28.4354 105.867 28.0807C106.501 27.7074 107.005 27.1847 107.379 26.5127C107.752 25.822 107.939 25.0007 107.939 24.0487ZM134.979 16.0687C136.883 16.0687 138.414 16.6567 139.571 17.8327C140.747 18.99 141.335 20.614 141.335 22.7047V31.8047H137.415V23.2367C137.415 22.0234 137.107 21.0994 136.491 20.4647C135.875 19.8114 135.035 19.4847 133.971 19.4847C132.907 19.4847 132.058 19.8114 131.423 20.4647C130.807 21.0994 130.499 22.0234 130.499 23.2367V31.8047H126.579V23.2367C126.579 22.0234 126.271 21.0994 125.655 20.4647C125.039 19.8114 124.199 19.4847 123.135 19.4847C122.053 19.4847 121.194 19.8114 120.559 20.4647C119.943 21.0994 119.635 22.0234 119.635 23.2367V31.8047H115.715V16.2927H119.635V18.1687C120.139 17.5154 120.783 17.002 121.567 16.6287C122.37 16.2554 123.247 16.0687 124.199 16.0687C125.413 16.0687 126.495 16.33 127.447 16.8527C128.399 17.3567 129.137 18.0847 129.659 19.0367C130.163 18.1407 130.891 17.422 131.843 16.8807C132.814 16.3394 133.859 16.0687 134.979 16.0687Z" fill="white"/>
<line x1="42" y1="46.3047" x2="104" y2="46.3047" stroke="white"/>
</svg>
