<svg width="258" height="50" viewBox="0 0 258 50" fill="none" xmlns="http://www.w3.org/2000/svg">
<path d="M18.6615 19.15C20.5282 19.4833 22.1115 20.4667 23.4115 22.1C24.7115 23.7333 25.3615 25.5833 25.3615 27.65C25.3615 29.4167 24.8949 31.0167 23.9615 32.45C23.0615 33.85 21.7449 34.9667 20.0115 35.8C18.2782 36.6 16.2615 37 13.9615 37H0.0615236V2.25H13.3115C15.6782 2.25 17.7115 2.65 19.4115 3.45C21.1115 4.25 22.3949 5.33333 23.2615 6.7C24.1282 8.03333 24.5615 9.53333 24.5615 11.2C24.5615 13.2 24.0282 14.8667 22.9615 16.2C21.8949 17.5333 20.4615 18.5167 18.6615 19.15ZM5.76152 16.85H12.8115C14.6782 16.85 16.1282 16.4333 17.1615 15.6C18.2282 14.7333 18.7615 13.5 18.7615 11.9C18.7615 10.3333 18.2282 9.11667 17.1615 8.25C16.1282 7.35 14.6782 6.9 12.8115 6.9H5.76152V16.85ZM13.4615 32.35C15.3949 32.35 16.9115 31.8833 18.0115 30.95C19.1115 30.0167 19.6615 28.7167 19.6615 27.05C19.6615 25.35 19.0782 24 17.9115 23C16.7449 22 15.1949 21.5 13.2615 21.5H5.76152V32.35H13.4615ZM29.6557 23.1C29.6557 20.3333 30.2223 17.8833 31.3557 15.75C32.5223 13.6167 34.089 11.9667 36.0557 10.8C38.0557 9.6 40.2557 9 42.6557 9C44.8223 9 46.7057 9.43333 48.3057 10.3C49.939 11.1333 51.239 12.1833 52.2057 13.45V9.45H57.9557V37H52.2057V32.9C51.239 34.2 49.9223 35.2833 48.2557 36.15C46.589 37.0167 44.689 37.45 42.5557 37.45C40.189 37.45 38.0223 36.85 36.0557 35.65C34.089 34.4167 32.5223 32.7167 31.3557 30.55C30.2223 28.35 29.6557 25.8667 29.6557 23.1ZM52.2057 23.2C52.2057 21.3 51.8057 19.65 51.0057 18.25C50.239 16.85 49.2223 15.7833 47.9557 15.05C46.689 14.3167 45.3223 13.95 43.8557 13.95C42.389 13.95 41.0223 14.3167 39.7557 15.05C38.489 15.75 37.4557 16.8 36.6557 18.2C35.889 19.5667 35.5057 21.2 35.5057 23.1C35.5057 25 35.889 26.6667 36.6557 28.1C37.4557 29.5333 38.489 30.6333 39.7557 31.4C41.0557 32.1333 42.4223 32.5 43.8557 32.5C45.3223 32.5 46.689 32.1333 47.9557 31.4C49.2223 30.6667 50.239 29.6 51.0057 28.2C51.8057 26.7667 52.2057 25.1 52.2057 23.2ZM63.5424 23.2C63.5424 20.3667 64.109 17.8833 65.2424 15.75C66.409 13.5833 68.009 11.9167 70.0424 10.75C72.0757 9.58333 74.4091 9 77.0424 9C80.3757 9 83.1257 9.8 85.2924 11.4C87.4924 12.9667 88.9757 15.2167 89.7424 18.15H83.5924C83.0924 16.7833 82.2924 15.7167 81.1924 14.95C80.0924 14.1833 78.7091 13.8 77.0424 13.8C74.7091 13.8 72.8424 14.6333 71.4424 16.3C70.0757 17.9333 69.3924 20.2333 69.3924 23.2C69.3924 26.1667 70.0757 28.4833 71.4424 30.15C72.8424 31.8167 74.7091 32.65 77.0424 32.65C80.3424 32.65 82.5257 31.2 83.5924 28.3H89.7424C88.9424 31.1 87.4424 33.3333 85.2424 35C83.0424 36.6333 80.3091 37.45 77.0424 37.45C74.4091 37.45 72.0757 36.8667 70.0424 35.7C68.009 34.5 66.409 32.8333 65.2424 30.7C64.109 28.5333 63.5424 26.0333 63.5424 23.2ZM106.323 23.25L119.023 37H111.323L101.123 25.15V37H95.4229V-4.76837e-07H101.123V21.5L111.123 9.45H119.023L106.323 23.25ZM148.358 22.55C148.358 23.5833 148.292 24.5167 148.158 25.35H127.108C127.275 27.55 128.092 29.3167 129.558 30.65C131.025 31.9833 132.825 32.65 134.958 32.65C138.025 32.65 140.192 31.3667 141.458 28.8H147.608C146.775 31.3333 145.258 33.4167 143.058 35.05C140.892 36.65 138.192 37.45 134.958 37.45C132.325 37.45 129.958 36.8667 127.858 35.7C125.792 34.5 124.158 32.8333 122.958 30.7C121.792 28.5333 121.208 26.0333 121.208 23.2C121.208 20.3667 121.775 17.8833 122.908 15.75C124.075 13.5833 125.692 11.9167 127.758 10.75C129.858 9.58333 132.258 9 134.958 9C137.558 9 139.875 9.56667 141.908 10.7C143.942 11.8333 145.525 13.4333 146.658 15.5C147.792 17.5333 148.358 19.8833 148.358 22.55ZM142.408 20.75C142.375 18.65 141.625 16.9667 140.158 15.7C138.692 14.4333 136.875 13.8 134.708 13.8C132.742 13.8 131.058 14.4333 129.658 15.7C128.258 16.9333 127.425 18.6167 127.158 20.75H142.408ZM152.068 23.1C152.068 20.3333 152.634 17.8833 153.768 15.75C154.934 13.6167 156.501 11.9667 158.468 10.8C160.468 9.6 162.684 9 165.118 9C166.918 9 168.684 9.4 170.418 10.2C172.184 10.9667 173.584 12 174.618 13.3V-4.76837e-07H180.368V37H174.618V32.85C173.684 34.1833 172.384 35.2833 170.718 36.15C169.084 37.0167 167.201 37.45 165.068 37.45C162.668 37.45 160.468 36.85 158.468 35.65C156.501 34.4167 154.934 32.7167 153.768 30.55C152.634 28.35 152.068 25.8667 152.068 23.1ZM174.618 23.2C174.618 21.3 174.218 19.65 173.418 18.25C172.651 16.85 171.634 15.7833 170.368 15.05C169.101 14.3167 167.734 13.95 166.268 13.95C164.801 13.95 163.434 14.3167 162.168 15.05C160.901 15.75 159.868 16.8 159.068 18.2C158.301 19.5667 157.918 21.2 157.918 23.1C157.918 25 158.301 26.6667 159.068 28.1C159.868 29.5333 160.901 30.6333 162.168 31.4C163.468 32.1333 164.834 32.5 166.268 32.5C167.734 32.5 169.101 32.1333 170.368 31.4C171.634 30.6667 172.651 29.6 173.418 28.2C174.218 26.7667 174.618 25.1 174.618 23.2ZM219.443 19.15C221.309 19.4833 222.893 20.4667 224.193 22.1C225.493 23.7333 226.143 25.5833 226.143 27.65C226.143 29.4167 225.676 31.0167 224.743 32.45C223.843 33.85 222.526 34.9667 220.793 35.8C219.059 36.6 217.043 37 214.743 37H200.843V2.25H214.093C216.459 2.25 218.493 2.65 220.193 3.45C221.893 4.25 223.176 5.33333 224.043 6.7C224.909 8.03333 225.343 9.53333 225.343 11.2C225.343 13.2 224.809 14.8667 223.743 16.2C222.676 17.5333 221.243 18.5167 219.443 19.15ZM206.543 16.85H213.593C215.459 16.85 216.909 16.4333 217.943 15.6C219.009 14.7333 219.543 13.5 219.543 11.9C219.543 10.3333 219.009 9.11667 217.943 8.25C216.909 7.35 215.459 6.9 213.593 6.9H206.543V16.85ZM214.243 32.35C216.176 32.35 217.693 31.8833 218.793 30.95C219.893 30.0167 220.443 28.7167 220.443 27.05C220.443 25.35 219.859 24 218.693 23C217.526 22 215.976 21.5 214.043 21.5H206.543V32.35H214.243ZM257.137 9.45L240.237 49.95H234.337L239.937 36.55L229.087 9.45H235.437L243.187 30.45L251.237 9.45H257.137Z" fill="white"/>
</svg>
