<svg width="1509" height="119" viewBox="0 0 1509 119" fill="none" xmlns="http://www.w3.org/2000/svg">
<g filter="url(#filter0_d_106_642)">
<path d="M47.382 35.006L41.554 68H33.517L39.345 35.006H47.382ZM65.7083 38.014C64.173 37.92 63.045 38.1393 62.3243 38.672C61.635 39.2047 61.165 40.1603 60.9143 41.539L60.8673 41.774H65.1913L64.0163 48.448H59.6923L56.2613 68H48.1773L51.6083 48.448H48.6943L49.8693 41.774H52.7833L52.9243 41.022C53.5197 37.7947 54.8827 35.3507 57.0133 33.69C59.1753 31.998 62.0423 31.152 65.6143 31.152C66.1783 31.152 66.6013 31.1677 66.8833 31.199L65.7083 38.014ZM85.8148 41.774L89.0108 58.177L97.9408 41.774H106.636L83.3708 80.455H74.7228L83.0888 67.107L76.8848 41.774H85.8148ZM116.874 68.376C114.618 68.376 112.613 67.9217 110.858 67.013C109.103 66.1043 107.74 64.8197 106.769 63.159C105.829 61.4983 105.359 59.5713 105.359 57.378C105.359 54.4013 106.064 51.691 107.474 49.247C108.884 46.803 110.827 44.8917 113.302 43.513C115.777 42.103 118.535 41.398 121.574 41.398C123.83 41.398 125.835 41.868 127.59 42.808C129.376 43.7167 130.755 45.0013 131.726 46.662C132.697 48.3227 133.183 50.2497 133.183 52.443C133.183 55.451 132.462 58.177 131.021 60.621C129.611 63.0337 127.653 64.9293 125.146 66.308C122.671 67.6867 119.913 68.376 116.874 68.376ZM118.002 61.467C119.318 61.467 120.493 61.0753 121.527 60.292C122.592 59.4773 123.407 58.4433 123.971 57.19C124.566 55.9053 124.864 54.5737 124.864 53.195C124.864 51.6283 124.441 50.422 123.595 49.576C122.749 48.73 121.684 48.307 120.399 48.307C119.052 48.307 117.861 48.7143 116.827 49.529C115.824 50.3123 115.041 51.3463 114.477 52.631C113.913 53.9157 113.631 55.263 113.631 56.673C113.631 58.2083 114.038 59.399 114.853 60.245C115.668 61.0597 116.717 61.467 118.002 61.467ZM165.318 41.774L160.712 68H152.675L153.286 64.428C152.252 65.5873 150.983 66.5273 149.479 67.248C148.006 67.9373 146.424 68.282 144.732 68.282C142.1 68.282 140.032 67.5457 138.528 66.073C137.024 64.569 136.272 62.4853 136.272 59.822C136.272 58.8193 136.35 57.9107 136.507 57.096L139.233 41.774H147.223L144.732 56.015C144.638 56.5163 144.591 57.002 144.591 57.472C144.591 58.788 144.951 59.8063 145.672 60.527C146.424 61.2163 147.458 61.561 148.774 61.561C150.278 61.561 151.547 61.1223 152.581 60.245C153.646 59.3363 154.351 58.0517 154.696 56.391L157.281 41.774H165.318ZM178.115 54.84C178.585 52.1453 179.509 49.7797 180.888 47.743C182.266 45.7063 183.927 44.1397 185.87 43.043C187.812 41.9463 189.865 41.398 192.027 41.398C193.875 41.398 195.426 41.774 196.68 42.526C197.933 43.278 198.842 44.265 199.406 45.487L200.064 41.774H208.101L203.448 68H195.411L196.116 64.287C195.113 65.509 193.844 66.496 192.309 67.248C190.773 68 189.081 68.376 187.233 68.376C185.384 68.376 183.739 67.953 182.298 67.107C180.888 66.261 179.791 65.0703 179.008 63.535C178.224 61.9683 177.833 60.1353 177.833 58.036C177.833 57.0333 177.927 55.968 178.115 54.84ZM197.761 54.887C197.855 54.323 197.902 53.806 197.902 53.336C197.902 51.8007 197.447 50.5943 196.539 49.717C195.661 48.8397 194.533 48.401 193.155 48.401C191.557 48.401 190.1 48.9807 188.784 50.14C187.468 51.268 186.637 52.8347 186.293 54.84C186.199 55.404 186.152 55.921 186.152 56.391C186.152 57.9263 186.59 59.1483 187.468 60.057C188.376 60.9343 189.504 61.373 190.852 61.373C192.45 61.373 193.907 60.7933 195.223 59.634C196.539 58.4747 197.385 56.8923 197.761 54.887ZM221.059 46.521C222.281 44.9543 223.675 43.7323 225.242 42.855C226.84 41.9463 228.501 41.492 230.224 41.492L228.72 49.999H226.511C224.506 49.999 222.923 50.4377 221.764 51.315C220.605 52.161 219.837 53.665 219.461 55.827L217.299 68H209.262L213.868 41.774H221.905L221.059 46.521ZM245.722 41.398C249.106 41.398 251.785 42.3223 253.759 44.171C255.764 45.9883 256.767 48.4793 256.767 51.644C256.767 52.678 256.688 53.6023 256.532 54.417C256.406 55.1377 256.218 55.9053 255.968 56.72H237.779C237.747 56.908 237.732 57.2057 237.732 57.613C237.732 58.9917 238.108 60.0413 238.86 60.762C239.612 61.4827 240.614 61.843 241.868 61.843C243.873 61.843 245.408 60.997 246.474 59.305H255.028C253.9 61.9683 252.067 64.146 249.529 65.838C246.991 67.53 244.139 68.376 240.975 68.376C237.591 68.376 234.88 67.436 232.844 65.556C230.838 63.676 229.836 61.1223 229.836 57.895C229.836 56.9237 229.93 55.921 230.118 54.887C230.588 52.161 231.559 49.7797 233.032 47.743C234.504 45.7063 236.337 44.1397 238.531 43.043C240.724 41.9463 243.121 41.398 245.722 41.398ZM248.636 52.631C248.698 52.1923 248.73 51.8947 248.73 51.738C248.73 50.4847 248.338 49.529 247.555 48.871C246.771 48.1817 245.737 47.837 244.453 47.837C243.074 47.837 241.852 48.26 240.787 49.106C239.753 49.9207 239.001 51.0957 238.531 52.631H248.636ZM269.957 54.84C270.427 52.1453 271.352 49.7797 272.73 47.743C274.109 45.7063 275.77 44.1397 277.712 43.043C279.655 41.9463 281.707 41.398 283.869 41.398C285.718 41.398 287.269 41.774 288.522 42.526C289.776 43.278 290.684 44.265 291.248 45.487L291.906 41.774H299.943L295.29 68H287.253L287.958 64.287C286.956 65.509 285.687 66.496 284.151 67.248C282.616 68 280.924 68.376 279.075 68.376C277.227 68.376 275.582 67.953 274.14 67.107C272.73 66.261 271.634 65.0703 270.85 63.535C270.067 61.9683 269.675 60.1353 269.675 58.036C269.675 57.0333 269.769 55.968 269.957 54.84ZM289.603 54.887C289.697 54.323 289.744 53.806 289.744 53.336C289.744 51.8007 289.29 50.5943 288.381 49.717C287.504 48.8397 286.376 48.401 284.997 48.401C283.399 48.401 281.942 48.9807 280.626 50.14C279.31 51.268 278.48 52.8347 278.135 54.84C278.041 55.404 277.994 55.921 277.994 56.391C277.994 57.9263 278.433 59.1483 279.31 60.057C280.219 60.9343 281.347 61.373 282.694 61.373C284.292 61.373 285.749 60.7933 287.065 59.634C288.381 58.4747 289.227 56.8923 289.603 54.887ZM323.78 46.521C325.002 44.9543 326.396 43.7323 327.963 42.855C329.561 41.9463 331.221 41.492 332.945 41.492L331.441 49.999H329.232C327.226 49.999 325.644 50.4377 324.485 51.315C323.325 52.161 322.558 53.665 322.182 55.827L320.02 68H311.983L316.589 41.774H324.626L323.78 46.521ZM348.442 41.398C351.826 41.398 354.505 42.3223 356.479 44.171C358.485 45.9883 359.487 48.4793 359.487 51.644C359.487 52.678 359.409 53.6023 359.252 54.417C359.127 55.1377 358.939 55.9053 358.688 56.72H340.499C340.468 56.908 340.452 57.2057 340.452 57.613C340.452 58.9917 340.828 60.0413 341.58 60.762C342.332 61.4827 343.335 61.843 344.588 61.843C346.594 61.843 348.129 60.997 349.194 59.305H357.748C356.62 61.9683 354.787 64.146 352.249 65.838C349.711 67.53 346.86 68.376 343.695 68.376C340.311 68.376 337.601 67.436 335.564 65.556C333.559 63.676 332.556 61.1223 332.556 57.895C332.556 56.9237 332.65 55.921 332.838 54.887C333.308 52.161 334.28 49.7797 335.752 47.743C337.225 45.7063 339.058 44.1397 341.251 43.043C343.445 41.9463 345.842 41.398 348.442 41.398ZM351.356 52.631C351.419 52.1923 351.45 51.8947 351.45 51.738C351.45 50.4847 351.059 49.529 350.275 48.871C349.492 48.1817 348.458 47.837 347.173 47.837C345.795 47.837 344.573 48.26 343.507 49.106C342.473 49.9207 341.721 51.0957 341.251 52.631H351.356ZM375.712 41.398C377.561 41.398 379.128 41.774 380.412 42.526C381.697 43.278 382.59 44.265 383.091 45.487L383.749 41.774H391.786L387.18 67.953C386.742 70.3657 385.864 72.5433 384.548 74.486C383.264 76.46 381.525 78.0267 379.331 79.186C377.169 80.3453 374.647 80.925 371.764 80.925C367.879 80.925 364.887 80.0007 362.787 78.152C360.688 76.3347 359.748 73.8593 359.967 70.726H367.91C368.004 71.7287 368.459 72.512 369.273 73.076C370.119 73.6713 371.232 73.969 372.61 73.969C374.271 73.969 375.681 73.4833 376.84 72.512C378 71.572 378.767 70.0523 379.143 67.953L379.801 64.24C378.799 65.462 377.53 66.4647 375.994 67.248C374.49 68 372.814 68.376 370.965 68.376C369.117 68.376 367.472 67.953 366.03 67.107C364.62 66.261 363.508 65.0547 362.693 63.488C361.91 61.9213 361.518 60.0883 361.518 57.989C361.518 57.0177 361.612 55.968 361.8 54.84C362.27 52.1453 363.195 49.7797 364.573 47.743C365.952 45.7063 367.613 44.1397 369.555 43.043C371.498 41.9463 373.55 41.398 375.712 41.398ZM381.446 54.887C381.54 54.323 381.587 53.806 381.587 53.336C381.587 51.8007 381.133 50.5943 380.224 49.717C379.347 48.8397 378.219 48.401 376.84 48.401C375.242 48.401 373.785 48.9807 372.469 50.14C371.153 51.268 370.323 52.8347 369.978 54.84C369.884 55.404 369.837 55.921 369.837 56.391C369.837 57.9263 370.276 59.1483 371.153 60.057C372.062 60.9343 373.19 61.373 374.537 61.373C376.135 61.373 377.592 60.7933 378.908 59.634C380.224 58.4747 381.07 56.8923 381.446 54.887ZM402.113 39.048C400.859 39.048 399.857 38.719 399.105 38.061C398.384 37.3717 398.024 36.51 398.024 35.476C398.024 34.066 398.572 32.8597 399.669 31.857C400.765 30.8543 402.097 30.353 403.664 30.353C404.917 30.353 405.904 30.6977 406.625 31.387C407.345 32.045 407.706 32.9067 407.706 33.972C407.706 35.3507 407.157 36.5413 406.061 37.544C404.964 38.5467 403.648 39.048 402.113 39.048ZM405.591 41.774L400.985 68H392.948L397.554 41.774H405.591ZM417.713 68.376C415.645 68.376 413.781 68.047 412.12 67.389C410.491 66.731 409.206 65.8223 408.266 64.663C407.326 63.4723 406.856 62.1093 406.856 60.574C406.856 60.3547 406.887 59.963 406.95 59.399H414.705C414.642 60.3703 414.924 61.1537 415.551 61.749C416.209 62.313 417.133 62.595 418.324 62.595C419.327 62.595 420.157 62.407 420.815 62.031C421.473 61.655 421.802 61.1223 421.802 60.433C421.802 59.775 421.442 59.258 420.721 58.882C420.032 58.4747 418.872 57.989 417.243 57.425C415.551 56.861 414.125 56.3127 412.966 55.78C411.838 55.216 410.867 54.417 410.052 53.383C409.237 52.349 408.83 51.0487 408.83 49.482C408.83 47.9467 409.284 46.568 410.193 45.346C411.102 44.0927 412.371 43.1213 414 42.432C415.661 41.7427 417.572 41.398 419.734 41.398C421.896 41.398 423.776 41.7583 425.374 42.479C426.972 43.1683 428.21 44.1397 429.087 45.393C429.964 46.6463 430.403 48.0563 430.403 49.623L430.356 50.328H423.071C423.134 49.388 422.852 48.636 422.225 48.072C421.598 47.508 420.705 47.226 419.546 47.226C418.637 47.226 417.885 47.414 417.29 47.79C416.726 48.166 416.444 48.683 416.444 49.341C416.444 50.0303 416.82 50.61 417.572 51.08C418.355 51.5187 419.562 52.02 421.191 52.584C422.883 53.148 424.277 53.712 425.374 54.276C426.502 54.8087 427.458 55.5763 428.241 56.579C429.056 57.5503 429.463 58.7723 429.463 60.245C429.463 61.937 428.946 63.394 427.912 64.616C426.909 65.838 425.515 66.778 423.729 67.436C421.974 68.0627 419.969 68.376 417.713 68.376ZM443.921 58.976C443.89 59.1327 443.874 59.3363 443.874 59.587C443.874 60.151 444.031 60.5583 444.344 60.809C444.689 61.0597 445.237 61.185 445.989 61.185H448.856L447.634 68H443.545C438.281 68 435.649 65.791 435.649 61.373C435.649 60.715 435.727 59.8847 435.884 58.882L437.764 48.448H434.568L435.743 41.774H438.939L440.067 35.382H448.104L446.976 41.774H452.24L451.065 48.448H445.801L443.921 58.976ZM468.467 41.398C471.851 41.398 474.53 42.3223 476.504 44.171C478.509 45.9883 479.512 48.4793 479.512 51.644C479.512 52.678 479.433 53.6023 479.277 54.417C479.151 55.1377 478.963 55.9053 478.713 56.72H460.524C460.492 56.908 460.477 57.2057 460.477 57.613C460.477 58.9917 460.853 60.0413 461.605 60.762C462.357 61.4827 463.359 61.843 464.613 61.843C466.618 61.843 468.153 60.997 469.219 59.305H477.773C476.645 61.9683 474.812 64.146 472.274 65.838C469.736 67.53 466.884 68.376 463.72 68.376C460.336 68.376 457.625 67.436 455.589 65.556C453.583 63.676 452.581 61.1223 452.581 57.895C452.581 56.9237 452.675 55.921 452.863 54.887C453.333 52.161 454.304 49.7797 455.777 47.743C457.249 45.7063 459.082 44.1397 461.276 43.043C463.469 41.9463 465.866 41.398 468.467 41.398ZM471.381 52.631C471.443 52.1923 471.475 51.8947 471.475 51.738C471.475 50.4847 471.083 49.529 470.3 48.871C469.516 48.1817 468.482 47.837 467.198 47.837C465.819 47.837 464.597 48.26 463.532 49.106C462.498 49.9207 461.746 51.0957 461.276 52.631H471.381ZM492.87 46.521C494.092 44.9543 495.486 43.7323 497.053 42.855C498.651 41.9463 500.311 41.492 502.035 41.492L500.531 49.999H498.322C496.316 49.999 494.734 50.4377 493.575 51.315C492.415 52.161 491.648 53.665 491.272 55.827L489.11 68H481.073L485.679 41.774H493.716L492.87 46.521ZM517.532 41.398C520.916 41.398 523.595 42.3223 525.569 44.171C527.575 45.9883 528.577 48.4793 528.577 51.644C528.577 52.678 528.499 53.6023 528.342 54.417C528.217 55.1377 528.029 55.9053 527.778 56.72H509.589C509.558 56.908 509.542 57.2057 509.542 57.613C509.542 58.9917 509.918 60.0413 510.67 60.762C511.422 61.4827 512.425 61.843 513.678 61.843C515.684 61.843 517.219 60.997 518.284 59.305H526.838C525.71 61.9683 523.877 64.146 521.339 65.838C518.801 67.53 515.95 68.376 512.785 68.376C509.401 68.376 506.691 67.436 504.654 65.556C502.649 63.676 501.646 61.1223 501.646 57.895C501.646 56.9237 501.74 55.921 501.928 54.887C502.398 52.161 503.37 49.7797 504.842 47.743C506.315 45.7063 508.148 44.1397 510.341 43.043C512.535 41.9463 514.932 41.398 517.532 41.398ZM520.446 52.631C520.509 52.1923 520.54 51.8947 520.54 51.738C520.54 50.4847 520.149 49.529 519.365 48.871C518.582 48.1817 517.548 47.837 516.263 47.837C514.885 47.837 513.663 48.26 512.597 49.106C511.563 49.9207 510.811 51.0957 510.341 52.631H520.446ZM530.89 54.84C531.36 52.1453 532.284 49.7797 533.663 47.743C535.042 45.7063 536.702 44.1397 538.645 43.043C540.588 41.9463 542.64 41.398 544.802 41.398C546.525 41.398 548.029 41.7583 549.314 42.479C550.63 43.1997 551.586 44.171 552.181 45.393L554.343 33.22H562.38L556.223 68H548.186L548.844 64.24C547.841 65.4933 546.588 66.496 545.084 67.248C543.58 68 541.904 68.376 540.055 68.376C538.206 68.376 536.561 67.953 535.12 67.107C533.71 66.261 532.598 65.0547 531.783 63.488C531 61.9213 530.608 60.0883 530.608 57.989C530.608 57.0177 530.702 55.968 530.89 54.84ZM550.536 54.887C550.63 54.323 550.677 53.806 550.677 53.336C550.677 51.8007 550.223 50.5943 549.314 49.717C548.437 48.8397 547.309 48.401 545.93 48.401C544.332 48.401 542.875 48.9807 541.559 50.14C540.243 51.268 539.413 52.8347 539.068 54.84C538.974 55.404 538.927 55.921 538.927 56.391C538.927 57.9263 539.366 59.1483 540.243 60.057C541.152 60.9343 542.28 61.373 543.627 61.373C545.225 61.373 546.682 60.7933 547.998 59.634C549.314 58.4747 550.16 56.8923 550.536 54.887ZM603.418 41.774L598.812 68H590.775L591.386 64.428C590.352 65.5873 589.083 66.5273 587.579 67.248C586.107 67.9373 584.524 68.282 582.832 68.282C580.2 68.282 578.132 67.5457 576.628 66.073C575.124 64.569 574.372 62.4853 574.372 59.822C574.372 58.8193 574.451 57.9107 574.607 57.096L577.333 41.774H585.323L582.832 56.015C582.738 56.5163 582.691 57.002 582.691 57.472C582.691 58.788 583.052 59.8063 583.772 60.527C584.524 61.2163 585.558 61.561 586.874 61.561C588.378 61.561 589.647 61.1223 590.681 60.245C591.747 59.3363 592.452 58.0517 592.796 56.391L595.381 41.774H603.418ZM615.489 68.376C613.421 68.376 611.557 68.047 609.896 67.389C608.267 66.731 606.982 65.8223 606.042 64.663C605.102 63.4723 604.632 62.1093 604.632 60.574C604.632 60.3547 604.664 59.963 604.726 59.399H612.481C612.419 60.3703 612.701 61.1537 613.327 61.749C613.985 62.313 614.91 62.595 616.1 62.595C617.103 62.595 617.933 62.407 618.591 62.031C619.249 61.655 619.578 61.1223 619.578 60.433C619.578 59.775 619.218 59.258 618.497 58.882C617.808 58.4747 616.649 57.989 615.019 57.425C613.327 56.861 611.902 56.3127 610.742 55.78C609.614 55.216 608.643 54.417 607.828 53.383C607.014 52.349 606.606 51.0487 606.606 49.482C606.606 47.9467 607.061 46.568 607.969 45.346C608.878 44.0927 610.147 43.1213 611.776 42.432C613.437 41.7427 615.348 41.398 617.51 41.398C619.672 41.398 621.552 41.7583 623.15 42.479C624.748 43.1683 625.986 44.1397 626.863 45.393C627.741 46.6463 628.179 48.0563 628.179 49.623L628.132 50.328H620.847C620.91 49.388 620.628 48.636 620.001 48.072C619.375 47.508 618.482 47.226 617.322 47.226C616.414 47.226 615.662 47.414 615.066 47.79C614.502 48.166 614.22 48.683 614.22 49.341C614.22 50.0303 614.596 50.61 615.348 51.08C616.132 51.5187 617.338 52.02 618.967 52.584C620.659 53.148 622.054 53.712 623.15 54.276C624.278 54.8087 625.234 55.5763 626.017 56.579C626.832 57.5503 627.239 58.7723 627.239 60.245C627.239 61.937 626.722 63.394 625.688 64.616C624.686 65.838 623.291 66.778 621.505 67.436C619.751 68.0627 617.745 68.376 615.489 68.376ZM647.149 41.398C650.533 41.398 653.212 42.3223 655.186 44.171C657.192 45.9883 658.194 48.4793 658.194 51.644C658.194 52.678 658.116 53.6023 657.959 54.417C657.834 55.1377 657.646 55.9053 657.395 56.72H639.206C639.175 56.908 639.159 57.2057 639.159 57.613C639.159 58.9917 639.535 60.0413 640.287 60.762C641.039 61.4827 642.042 61.843 643.295 61.843C645.301 61.843 646.836 60.997 647.901 59.305H656.455C655.327 61.9683 653.494 64.146 650.956 65.838C648.418 67.53 645.567 68.376 642.402 68.376C639.018 68.376 636.308 67.436 634.271 65.556C632.266 63.676 631.263 61.1223 631.263 57.895C631.263 56.9237 631.357 55.921 631.545 54.887C632.015 52.161 632.987 49.7797 634.459 47.743C635.932 45.7063 637.765 44.1397 639.958 43.043C642.152 41.9463 644.549 41.398 647.149 41.398ZM650.063 52.631C650.126 52.1923 650.157 51.8947 650.157 51.738C650.157 50.4847 649.766 49.529 648.982 48.871C648.199 48.1817 647.165 47.837 645.88 47.837C644.502 47.837 643.28 48.26 642.214 49.106C641.18 49.9207 640.428 51.0957 639.958 52.631H650.063ZM671.552 46.521C672.774 44.9543 674.169 43.7323 675.735 42.855C677.333 41.9463 678.994 41.492 680.717 41.492L679.213 49.999H677.004C674.999 49.999 673.417 50.4377 672.257 51.315C671.098 52.161 670.33 53.665 669.954 55.827L667.792 68H659.755L664.361 41.774H672.398L671.552 46.521ZM701.641 58.976C701.609 59.1327 701.594 59.3363 701.594 59.587C701.594 60.151 701.75 60.5583 702.064 60.809C702.408 61.0597 702.957 61.185 703.709 61.185H706.576L705.354 68H701.265C696.001 68 693.369 65.791 693.369 61.373C693.369 60.715 693.447 59.8847 693.604 58.882L695.484 48.448H692.288L693.463 41.774H696.659L697.787 35.382H705.824L704.696 41.774H709.96L708.785 48.448H703.521L701.641 58.976ZM730.604 41.492C733.174 41.492 735.195 42.2283 736.667 43.701C738.171 45.1737 738.923 47.226 738.923 49.858C738.923 50.7353 738.829 51.6753 738.641 52.678L735.915 68H727.925L730.463 53.759C730.557 53.2263 730.604 52.7563 730.604 52.349C730.604 51.033 730.228 50.0147 729.476 49.294C728.756 48.5733 727.737 48.213 726.421 48.213C724.855 48.213 723.539 48.6987 722.473 49.67C721.408 50.6413 720.719 52.0043 720.405 53.759V53.665L717.867 68H709.83L715.987 33.22H724.024L721.909 45.252C722.943 44.0927 724.212 43.184 725.716 42.526C727.22 41.8367 728.85 41.492 730.604 41.492ZM757.856 41.398C761.24 41.398 763.919 42.3223 765.893 44.171C767.899 45.9883 768.901 48.4793 768.901 51.644C768.901 52.678 768.823 53.6023 768.666 54.417C768.541 55.1377 768.353 55.9053 768.102 56.72H749.913C749.882 56.908 749.866 57.2057 749.866 57.613C749.866 58.9917 750.242 60.0413 750.994 60.762C751.746 61.4827 752.749 61.843 754.002 61.843C756.008 61.843 757.543 60.997 758.608 59.305H767.162C766.034 61.9683 764.201 64.146 761.663 65.838C759.125 67.53 756.274 68.376 753.109 68.376C749.725 68.376 747.015 67.436 744.978 65.556C742.973 63.676 741.97 61.1223 741.97 57.895C741.97 56.9237 742.064 55.921 742.252 54.887C742.722 52.161 743.694 49.7797 745.166 47.743C746.639 45.7063 748.472 44.1397 750.665 43.043C752.859 41.9463 755.256 41.398 757.856 41.398ZM760.77 52.631C760.833 52.1923 760.864 51.8947 760.864 51.738C760.864 50.4847 760.473 49.529 759.689 48.871C758.906 48.1817 757.872 47.837 756.587 47.837C755.209 47.837 753.987 48.26 752.921 49.106C751.887 49.9207 751.135 51.0957 750.665 52.631H760.77ZM791.095 41.492C793.727 41.492 795.795 42.2283 797.299 43.701C798.803 45.1737 799.555 47.226 799.555 49.858C799.555 50.7353 799.461 51.6753 799.273 52.678L796.547 68H788.557L791.095 53.759C791.189 53.2263 791.236 52.7563 791.236 52.349C791.236 51.033 790.86 50.0147 790.108 49.294C789.388 48.5733 788.369 48.213 787.053 48.213C785.487 48.213 784.171 48.6987 783.105 49.67C782.04 50.6413 781.351 52.0043 781.037 53.759V53.524L778.499 68H770.462L775.068 41.774H783.105L782.494 45.299C783.528 44.1397 784.782 43.2153 786.254 42.526C787.758 41.8367 789.372 41.492 791.095 41.492ZM824.995 45.487C825.998 44.265 827.251 43.278 828.755 42.526C830.29 41.774 831.982 41.398 833.831 41.398C836.651 41.398 838.923 42.3223 840.646 44.171C842.401 46.0197 843.278 48.5263 843.278 51.691C843.278 52.6623 843.184 53.712 842.996 54.84C842.526 57.5347 841.602 59.916 840.223 61.984C838.844 64.0207 837.184 65.603 835.241 66.731C833.298 67.8277 831.246 68.376 829.084 68.376C827.267 68.376 825.731 68 824.478 67.248C823.225 66.496 822.3 65.5247 821.705 64.334L818.838 80.502H810.801L817.616 41.774H825.653L824.995 45.487ZM834.865 54.84C834.959 54.3073 835.006 53.8217 835.006 53.383C835.006 51.8163 834.552 50.5943 833.643 49.717C832.766 48.8397 831.638 48.401 830.259 48.401C828.661 48.401 827.204 48.9807 825.888 50.14C824.572 51.2993 823.726 52.8817 823.35 54.887C823.256 55.451 823.209 55.968 823.209 56.438C823.209 57.9733 823.648 59.1797 824.525 60.057C825.402 60.9343 826.53 61.373 827.909 61.373C829.507 61.373 830.964 60.7933 832.28 59.634C833.627 58.4433 834.489 56.8453 834.865 54.84ZM859.104 33.22L852.947 68H844.91L851.067 33.22H859.104ZM875.127 41.398C878.511 41.398 881.19 42.3223 883.164 44.171C885.169 45.9883 886.172 48.4793 886.172 51.644C886.172 52.678 886.094 53.6023 885.937 54.417C885.812 55.1377 885.624 55.9053 885.373 56.72H867.184C867.153 56.908 867.137 57.2057 867.137 57.613C867.137 58.9917 867.513 60.0413 868.265 60.762C869.017 61.4827 870.02 61.843 871.273 61.843C873.278 61.843 874.814 60.997 875.879 59.305H884.433C883.305 61.9683 881.472 64.146 878.934 65.838C876.396 67.53 873.545 68.376 870.38 68.376C866.996 68.376 864.286 67.436 862.249 65.556C860.244 63.676 859.241 61.1223 859.241 57.895C859.241 56.9237 859.335 55.921 859.523 54.887C859.993 52.161 860.964 49.7797 862.437 47.743C863.91 45.7063 865.743 44.1397 867.936 43.043C870.129 41.9463 872.526 41.398 875.127 41.398ZM878.041 52.631C878.104 52.1923 878.135 51.8947 878.135 51.738C878.135 50.4847 877.743 49.529 876.96 48.871C876.177 48.1817 875.143 47.837 873.858 47.837C872.479 47.837 871.257 48.26 870.192 49.106C869.158 49.9207 868.406 51.0957 867.936 52.631H878.041ZM888.485 54.84C888.955 52.1453 889.879 49.7797 891.258 47.743C892.636 45.7063 894.297 44.1397 896.24 43.043C898.182 41.9463 900.235 41.398 902.397 41.398C904.245 41.398 905.796 41.774 907.05 42.526C908.303 43.278 909.212 44.265 909.776 45.487L910.434 41.774H918.471L913.818 68H905.781L906.486 64.287C905.483 65.509 904.214 66.496 902.679 67.248C901.143 68 899.451 68.376 897.603 68.376C895.754 68.376 894.109 67.953 892.668 67.107C891.258 66.261 890.161 65.0703 889.378 63.535C888.594 61.9683 888.203 60.1353 888.203 58.036C888.203 57.0333 888.297 55.968 888.485 54.84ZM908.131 54.887C908.225 54.323 908.272 53.806 908.272 53.336C908.272 51.8007 907.817 50.5943 906.909 49.717C906.031 48.8397 904.903 48.401 903.525 48.401C901.927 48.401 900.47 48.9807 899.154 50.14C897.838 51.268 897.007 52.8347 896.663 54.84C896.569 55.404 896.522 55.921 896.522 56.391C896.522 57.9263 896.96 59.1483 897.838 60.057C898.746 60.9343 899.874 61.373 901.222 61.373C902.82 61.373 904.277 60.7933 905.593 59.634C906.909 58.4747 907.755 56.8923 908.131 54.887ZM930.536 68.376C928.468 68.376 926.604 68.047 924.943 67.389C923.314 66.731 922.029 65.8223 921.089 64.663C920.149 63.4723 919.679 62.1093 919.679 60.574C919.679 60.3547 919.711 59.963 919.773 59.399H927.528C927.466 60.3703 927.748 61.1537 928.374 61.749C929.032 62.313 929.957 62.595 931.147 62.595C932.15 62.595 932.98 62.407 933.638 62.031C934.296 61.655 934.625 61.1223 934.625 60.433C934.625 59.775 934.265 59.258 933.544 58.882C932.855 58.4747 931.696 57.989 930.066 57.425C928.374 56.861 926.949 56.3127 925.789 55.78C924.661 55.216 923.69 54.417 922.875 53.383C922.061 52.349 921.653 51.0487 921.653 49.482C921.653 47.9467 922.108 46.568 923.016 45.346C923.925 44.0927 925.194 43.1213 926.823 42.432C928.484 41.7427 930.395 41.398 932.557 41.398C934.719 41.398 936.599 41.7583 938.197 42.479C939.795 43.1683 941.033 44.1397 941.91 45.393C942.788 46.6463 943.226 48.0563 943.226 49.623L943.179 50.328H935.894C935.957 49.388 935.675 48.636 935.048 48.072C934.422 47.508 933.529 47.226 932.369 47.226C931.461 47.226 930.709 47.414 930.113 47.79C929.549 48.166 929.267 48.683 929.267 49.341C929.267 50.0303 929.643 50.61 930.395 51.08C931.179 51.5187 932.385 52.02 934.014 52.584C935.706 53.148 937.101 53.712 938.197 54.276C939.325 54.8087 940.281 55.5763 941.064 56.579C941.879 57.5503 942.286 58.7723 942.286 60.245C942.286 61.937 941.769 63.394 940.735 64.616C939.733 65.838 938.338 66.778 936.552 67.436C934.798 68.0627 932.792 68.376 930.536 68.376ZM962.196 41.398C965.58 41.398 968.259 42.3223 970.233 44.171C972.239 45.9883 973.241 48.4793 973.241 51.644C973.241 52.678 973.163 53.6023 973.006 54.417C972.881 55.1377 972.693 55.9053 972.442 56.72H954.253C954.222 56.908 954.206 57.2057 954.206 57.613C954.206 58.9917 954.582 60.0413 955.334 60.762C956.086 61.4827 957.089 61.843 958.342 61.843C960.348 61.843 961.883 60.997 962.948 59.305H971.502C970.374 61.9683 968.541 64.146 966.003 65.838C963.465 67.53 960.614 68.376 957.449 68.376C954.065 68.376 951.355 67.436 949.318 65.556C947.313 63.676 946.31 61.1223 946.31 57.895C946.31 56.9237 946.404 55.921 946.592 54.887C947.062 52.161 948.034 49.7797 949.506 47.743C950.979 45.7063 952.812 44.1397 955.005 43.043C957.199 41.9463 959.596 41.398 962.196 41.398ZM965.11 52.631C965.173 52.1923 965.204 51.8947 965.204 51.738C965.204 50.4847 964.813 49.529 964.029 48.871C963.246 48.1817 962.212 47.837 960.927 47.837C959.549 47.837 958.327 48.26 957.261 49.106C956.227 49.9207 955.475 51.0957 955.005 52.631H965.11ZM1002.04 41.398C1005.42 41.398 1008.1 42.3223 1010.07 44.171C1012.08 45.9883 1013.08 48.4793 1013.08 51.644C1013.08 52.678 1013 53.6023 1012.85 54.417C1012.72 55.1377 1012.53 55.9053 1012.28 56.72H994.093C994.062 56.908 994.046 57.2057 994.046 57.613C994.046 58.9917 994.422 60.0413 995.174 60.762C995.926 61.4827 996.929 61.843 998.182 61.843C1000.19 61.843 1001.72 60.997 1002.79 59.305H1011.34C1010.21 61.9683 1008.38 64.146 1005.84 65.838C1003.31 67.53 1000.45 68.376 997.289 68.376C993.905 68.376 991.195 67.436 989.158 65.556C987.153 63.676 986.15 61.1223 986.15 57.895C986.15 56.9237 986.244 55.921 986.432 54.887C986.902 52.161 987.873 49.7797 989.346 47.743C990.819 45.7063 992.652 44.1397 994.845 43.043C997.038 41.9463 999.435 41.398 1002.04 41.398ZM1004.95 52.631C1005.01 52.1923 1005.04 51.8947 1005.04 51.738C1005.04 50.4847 1004.65 49.529 1003.87 48.871C1003.09 48.1817 1002.05 47.837 1000.77 47.837C999.388 47.837 998.166 48.26 997.101 49.106C996.067 49.9207 995.315 51.0957 994.845 52.631H1004.95ZM1035.28 41.492C1037.91 41.492 1039.98 42.2283 1041.48 43.701C1042.98 45.1737 1043.74 47.226 1043.74 49.858C1043.74 50.7353 1043.64 51.6753 1043.45 52.678L1040.73 68H1032.74L1035.28 53.759C1035.37 53.2263 1035.42 52.7563 1035.42 52.349C1035.42 51.033 1035.04 50.0147 1034.29 49.294C1033.57 48.5733 1032.55 48.213 1031.23 48.213C1029.67 48.213 1028.35 48.6987 1027.29 49.67C1026.22 50.6413 1025.53 52.0043 1025.22 53.759V53.524L1022.68 68H1014.64L1019.25 41.774H1027.29L1026.67 45.299C1027.71 44.1397 1028.96 43.2153 1030.43 42.526C1031.94 41.8367 1033.55 41.492 1035.28 41.492ZM1057.22 58.976C1057.18 59.1327 1057.17 59.3363 1057.17 59.587C1057.17 60.151 1057.33 60.5583 1057.64 60.809C1057.98 61.0597 1058.53 61.185 1059.28 61.185H1062.15L1060.93 68H1056.84C1051.58 68 1048.94 65.791 1048.94 61.373C1048.94 60.715 1049.02 59.8847 1049.18 58.882L1051.06 48.448H1047.86L1049.04 41.774H1052.23L1053.36 35.382H1061.4L1060.27 41.774H1065.53L1064.36 48.448H1059.1L1057.22 58.976ZM1081.76 41.398C1085.15 41.398 1087.82 42.3223 1089.8 44.171C1091.8 45.9883 1092.81 48.4793 1092.81 51.644C1092.81 52.678 1092.73 53.6023 1092.57 54.417C1092.45 55.1377 1092.26 55.9053 1092.01 56.72H1073.82C1073.79 56.908 1073.77 57.2057 1073.77 57.613C1073.77 58.9917 1074.15 60.0413 1074.9 60.762C1075.65 61.4827 1076.65 61.843 1077.91 61.843C1079.91 61.843 1081.45 60.997 1082.51 59.305H1091.07C1089.94 61.9683 1088.11 64.146 1085.57 65.838C1083.03 67.53 1080.18 68.376 1077.01 68.376C1073.63 68.376 1070.92 67.436 1068.88 65.556C1066.88 63.676 1065.88 61.1223 1065.88 57.895C1065.88 56.9237 1065.97 55.921 1066.16 54.887C1066.63 52.161 1067.6 49.7797 1069.07 47.743C1070.54 45.7063 1072.38 44.1397 1074.57 43.043C1076.76 41.9463 1079.16 41.398 1081.76 41.398ZM1084.68 52.631C1084.74 52.1923 1084.77 51.8947 1084.77 51.738C1084.77 50.4847 1084.38 49.529 1083.59 48.871C1082.81 48.1817 1081.78 47.837 1080.49 47.837C1079.11 47.837 1077.89 48.26 1076.83 49.106C1075.79 49.9207 1075.04 51.0957 1074.57 52.631H1084.68ZM1106.16 46.521C1107.39 44.9543 1108.78 43.7323 1110.35 42.855C1111.95 41.9463 1113.61 41.492 1115.33 41.492L1113.83 49.999H1111.62C1109.61 49.999 1108.03 50.4377 1106.87 51.315C1105.71 52.161 1104.94 53.665 1104.57 55.827L1102.4 68H1094.37L1098.97 41.774H1107.01L1106.16 46.521ZM1135.97 41.774L1139.17 58.177L1148.1 41.774H1156.79L1133.53 80.455H1124.88L1133.25 67.107L1127.04 41.774H1135.97ZM1167.03 68.376C1164.77 68.376 1162.77 67.9217 1161.01 67.013C1159.26 66.1043 1157.9 64.8197 1156.93 63.159C1155.99 61.4983 1155.52 59.5713 1155.52 57.378C1155.52 54.4013 1156.22 51.691 1157.63 49.247C1159.04 46.803 1160.98 44.8917 1163.46 43.513C1165.93 42.103 1168.69 41.398 1171.73 41.398C1173.99 41.398 1175.99 41.868 1177.75 42.808C1179.53 43.7167 1180.91 45.0013 1181.88 46.662C1182.85 48.3227 1183.34 50.2497 1183.34 52.443C1183.34 55.451 1182.62 58.177 1181.18 60.621C1179.77 63.0337 1177.81 64.9293 1175.3 66.308C1172.83 67.6867 1170.07 68.376 1167.03 68.376ZM1168.16 61.467C1169.47 61.467 1170.65 61.0753 1171.68 60.292C1172.75 59.4773 1173.56 58.4433 1174.13 57.19C1174.72 55.9053 1175.02 54.5737 1175.02 53.195C1175.02 51.6283 1174.6 50.422 1173.75 49.576C1172.91 48.73 1171.84 48.307 1170.56 48.307C1169.21 48.307 1168.02 48.7143 1166.98 49.529C1165.98 50.3123 1165.2 51.3463 1164.63 52.631C1164.07 53.9157 1163.79 55.263 1163.79 56.673C1163.79 58.2083 1164.19 59.399 1165.01 60.245C1165.82 61.0597 1166.87 61.467 1168.16 61.467ZM1215.47 41.774L1210.87 68H1202.83L1203.44 64.428C1202.41 65.5873 1201.14 66.5273 1199.64 67.248C1198.16 67.9373 1196.58 68.282 1194.89 68.282C1192.26 68.282 1190.19 67.5457 1188.68 66.073C1187.18 64.569 1186.43 62.4853 1186.43 59.822C1186.43 58.8193 1186.51 57.9107 1186.66 57.096L1189.39 41.774H1197.38L1194.89 56.015C1194.79 56.5163 1194.75 57.002 1194.75 57.472C1194.75 58.788 1195.11 59.8063 1195.83 60.527C1196.58 61.2163 1197.61 61.561 1198.93 61.561C1200.43 61.561 1201.7 61.1223 1202.74 60.245C1203.8 59.3363 1204.51 58.0517 1204.85 56.391L1207.44 41.774H1215.47ZM1258.02 41.774L1253.42 68H1245.38L1245.99 64.428C1244.96 65.5873 1243.69 66.5273 1242.18 67.248C1240.71 67.9373 1239.13 68.282 1237.44 68.282C1234.8 68.282 1232.74 67.5457 1231.23 66.073C1229.73 64.569 1228.98 62.4853 1228.98 59.822C1228.98 58.8193 1229.05 57.9107 1229.21 57.096L1231.94 41.774H1239.93L1237.44 56.015C1237.34 56.5163 1237.29 57.002 1237.29 57.472C1237.29 58.788 1237.66 59.8063 1238.38 60.527C1239.13 61.2163 1240.16 61.561 1241.48 61.561C1242.98 61.561 1244.25 61.1223 1245.28 60.245C1246.35 59.3363 1247.06 58.0517 1247.4 56.391L1249.98 41.774H1258.02ZM1270.09 68.376C1268.02 68.376 1266.16 68.047 1264.5 67.389C1262.87 66.731 1261.59 65.8223 1260.65 64.663C1259.71 63.4723 1259.24 62.1093 1259.24 60.574C1259.24 60.3547 1259.27 59.963 1259.33 59.399H1267.08C1267.02 60.3703 1267.3 61.1537 1267.93 61.749C1268.59 62.313 1269.51 62.595 1270.7 62.595C1271.71 62.595 1272.54 62.407 1273.19 62.031C1273.85 61.655 1274.18 61.1223 1274.18 60.433C1274.18 59.775 1273.82 59.258 1273.1 58.882C1272.41 58.4747 1271.25 57.989 1269.62 57.425C1267.93 56.861 1266.51 56.3127 1265.35 55.78C1264.22 55.216 1263.25 54.417 1262.43 53.383C1261.62 52.349 1261.21 51.0487 1261.21 49.482C1261.21 47.9467 1261.66 46.568 1262.57 45.346C1263.48 44.0927 1264.75 43.1213 1266.38 42.432C1268.04 41.7427 1269.95 41.398 1272.11 41.398C1274.28 41.398 1276.16 41.7583 1277.75 42.479C1279.35 43.1683 1280.59 44.1397 1281.47 45.393C1282.34 46.6463 1282.78 48.0563 1282.78 49.623L1282.74 50.328H1275.45C1275.51 49.388 1275.23 48.636 1274.6 48.072C1273.98 47.508 1273.09 47.226 1271.93 47.226C1271.02 47.226 1270.27 47.414 1269.67 47.79C1269.11 48.166 1268.82 48.683 1268.82 49.341C1268.82 50.0303 1269.2 50.61 1269.95 51.08C1270.74 51.5187 1271.94 52.02 1273.57 52.584C1275.26 53.148 1276.66 53.712 1277.75 54.276C1278.88 54.8087 1279.84 55.5763 1280.62 56.579C1281.44 57.5503 1281.84 58.7723 1281.84 60.245C1281.84 61.937 1281.33 63.394 1280.29 64.616C1279.29 65.838 1277.89 66.778 1276.11 67.436C1274.35 68.0627 1272.35 68.376 1270.09 68.376ZM1301.75 41.398C1305.14 41.398 1307.82 42.3223 1309.79 44.171C1311.8 45.9883 1312.8 48.4793 1312.8 51.644C1312.8 52.678 1312.72 53.6023 1312.56 54.417C1312.44 55.1377 1312.25 55.9053 1312 56.72H1293.81C1293.78 56.908 1293.76 57.2057 1293.76 57.613C1293.76 58.9917 1294.14 60.0413 1294.89 60.762C1295.64 61.4827 1296.65 61.843 1297.9 61.843C1299.9 61.843 1301.44 60.997 1302.5 59.305H1311.06C1309.93 61.9683 1308.1 64.146 1305.56 65.838C1303.02 67.53 1300.17 68.376 1297.01 68.376C1293.62 68.376 1290.91 67.436 1288.87 65.556C1286.87 63.676 1285.87 61.1223 1285.87 57.895C1285.87 56.9237 1285.96 55.921 1286.15 54.887C1286.62 52.161 1287.59 49.7797 1289.06 47.743C1290.54 45.7063 1292.37 44.1397 1294.56 43.043C1296.76 41.9463 1299.15 41.398 1301.75 41.398ZM1304.67 52.631C1304.73 52.1923 1304.76 51.8947 1304.76 51.738C1304.76 50.4847 1304.37 49.529 1303.59 48.871C1302.8 48.1817 1301.77 47.837 1300.48 47.837C1299.11 47.837 1297.88 48.26 1296.82 49.106C1295.78 49.9207 1295.03 51.0957 1294.56 52.631H1304.67ZM1326.16 46.521C1327.38 44.9543 1328.77 43.7323 1330.34 42.855C1331.94 41.9463 1333.6 41.492 1335.32 41.492L1333.82 49.999H1331.61C1329.6 49.999 1328.02 50.4377 1326.86 51.315C1325.7 52.161 1324.93 53.665 1324.56 55.827L1322.4 68H1314.36L1318.96 41.774H1327L1326.16 46.521ZM1355.1 41.492C1357.73 41.492 1359.8 42.2283 1361.3 43.701C1362.8 45.1737 1363.56 47.226 1363.56 49.858C1363.56 50.7353 1363.46 51.6753 1363.27 52.678L1360.55 68H1352.56L1355.1 53.759C1355.19 53.2263 1355.24 52.7563 1355.24 52.349C1355.24 51.033 1354.86 50.0147 1354.11 49.294C1353.39 48.5733 1352.37 48.213 1351.05 48.213C1349.49 48.213 1348.17 48.6987 1347.11 49.67C1346.04 50.6413 1345.35 52.0043 1345.04 53.759V53.524L1342.5 68H1334.46L1339.07 41.774H1347.11L1346.49 45.299C1347.53 44.1397 1348.78 43.2153 1350.25 42.526C1351.76 41.8367 1353.37 41.492 1355.1 41.492ZM1366.88 54.84C1367.35 52.1453 1368.28 49.7797 1369.66 47.743C1371.04 45.7063 1372.7 44.1397 1374.64 43.043C1376.58 41.9463 1378.63 41.398 1380.8 41.398C1382.64 41.398 1384.2 41.774 1385.45 42.526C1386.7 43.278 1387.61 44.265 1388.18 45.487L1388.83 41.774H1396.87L1392.22 68H1384.18L1384.89 64.287C1383.88 65.509 1382.61 66.496 1381.08 67.248C1379.54 68 1377.85 68.376 1376 68.376C1374.15 68.376 1372.51 67.953 1371.07 67.107C1369.66 66.261 1368.56 65.0703 1367.78 63.535C1366.99 61.9683 1366.6 60.1353 1366.6 58.036C1366.6 57.0333 1366.7 55.968 1366.88 54.84ZM1386.53 54.887C1386.62 54.323 1386.67 53.806 1386.67 53.336C1386.67 51.8007 1386.22 50.5943 1385.31 49.717C1384.43 48.8397 1383.3 48.401 1381.92 48.401C1380.33 48.401 1378.87 48.9807 1377.55 50.14C1376.24 51.268 1375.41 52.8347 1375.06 54.84C1374.97 55.404 1374.92 55.921 1374.92 56.391C1374.92 57.9263 1375.36 59.1483 1376.24 60.057C1377.15 60.9343 1378.27 61.373 1379.62 61.373C1381.22 61.373 1382.68 60.7933 1383.99 59.634C1385.31 58.4747 1386.15 56.8923 1386.53 54.887ZM1436.2 41.492C1439.02 41.492 1441.21 42.244 1442.78 43.748C1444.37 45.2207 1445.17 47.2887 1445.17 49.952C1445.17 50.7667 1445.08 51.6753 1444.89 52.678L1442.16 68H1434.17L1436.71 53.759C1436.78 53.4457 1436.81 53.0227 1436.81 52.49C1436.81 51.174 1436.43 50.1713 1435.68 49.482C1434.96 48.7927 1433.94 48.448 1432.62 48.448C1431.06 48.448 1429.74 48.918 1428.68 49.858C1427.61 50.7667 1426.94 52.067 1426.65 53.759L1424.12 68H1416.13L1418.66 53.759C1418.73 53.4457 1418.76 53.0227 1418.76 52.49C1418.76 51.174 1418.38 50.1713 1417.63 49.482C1416.91 48.7927 1415.89 48.448 1414.58 48.448C1413.01 48.448 1411.69 48.918 1410.63 49.858C1409.56 50.7667 1408.89 52.067 1408.61 53.759V53.524L1406.07 68H1398.03L1402.64 41.774H1410.67L1410.11 45.111C1411.11 43.983 1412.32 43.1057 1413.73 42.479C1415.17 41.821 1416.72 41.492 1418.38 41.492C1420.39 41.492 1422.08 41.915 1423.46 42.761C1424.87 43.607 1425.87 44.829 1426.47 46.427C1427.63 44.9543 1429.07 43.7637 1430.79 42.855C1432.51 41.9463 1434.32 41.492 1436.2 41.492ZM1464.14 41.398C1467.53 41.398 1470.2 42.3223 1472.18 44.171C1474.18 45.9883 1475.19 48.4793 1475.19 51.644C1475.19 52.678 1475.11 53.6023 1474.95 54.417C1474.83 55.1377 1474.64 55.9053 1474.39 56.72H1456.2C1456.17 56.908 1456.15 57.2057 1456.15 57.613C1456.15 58.9917 1456.53 60.0413 1457.28 60.762C1458.03 61.4827 1459.03 61.843 1460.29 61.843C1462.29 61.843 1463.83 60.997 1464.89 59.305H1473.45C1472.32 61.9683 1470.49 64.146 1467.95 65.838C1465.41 67.53 1462.56 68.376 1459.39 68.376C1456.01 68.376 1453.3 67.436 1451.26 65.556C1449.26 63.676 1448.26 61.1223 1448.26 57.895C1448.26 56.9237 1448.35 55.921 1448.54 54.887C1449.01 52.161 1449.98 49.7797 1451.45 47.743C1452.92 45.7063 1454.76 44.1397 1456.95 43.043C1459.14 41.9463 1461.54 41.398 1464.14 41.398ZM1467.06 52.631C1467.12 52.1923 1467.15 51.8947 1467.15 51.738C1467.15 50.4847 1466.76 49.529 1465.97 48.871C1465.19 48.1817 1464.16 47.837 1462.87 47.837C1461.49 47.837 1460.27 48.26 1459.21 49.106C1458.17 49.9207 1457.42 51.0957 1456.95 52.631H1467.06Z" fill="white"/>
</g>
<defs>
<filter id="filter0_d_106_642" x="0.115623" y="0.951561" width="1508.47" height="117.37" filterUnits="userSpaceOnUse" color-interpolation-filters="sRGB">
<feFlood flood-opacity="0" result="BackgroundImageFix"/>
<feColorMatrix in="SourceAlpha" type="matrix" values="0 0 0 0 0 0 0 0 0 0 0 0 0 0 0 0 0 0 127 0" result="hardAlpha"/>
<feOffset dy="4"/>
<feGaussianBlur stdDeviation="16.7"/>
<feComposite in2="hardAlpha" operator="out"/>
<feColorMatrix type="matrix" values="0 0 0 0 1 0 0 0 0 0.958886 0 0 0 0 0.958886 0 0 0 0.49 0"/>
<feBlend mode="normal" in2="BackgroundImageFix" result="effect1_dropShadow_106_642"/>
<feBlend mode="normal" in="SourceGraphic" in2="effect1_dropShadow_106_642" result="shape"/>
</filter>
</defs>
</svg>
