<svg width="1503" height="151" viewBox="0 0 1503 151" fill="none" xmlns="http://www.w3.org/2000/svg">
<g filter="url(#filter0_d_29_834)">
<path d="M92.0333 39.928L83.4093 89.0027C82.0404 96.6 78.8578 102.452 73.8613 106.559C68.8649 110.665 62.7391 112.719 55.484 112.719C48.9133 112.719 43.7116 111.076 39.8787 107.791C36.1142 104.505 34.232 99.7827 34.232 93.6227C34.232 91.5009 34.4031 89.5844 34.7453 87.8733H52.1987C51.9933 88.9684 51.8907 89.9609 51.8907 90.8507C51.8907 92.904 52.404 94.444 53.4307 95.4707C54.4573 96.4973 55.8947 97.0107 57.7427 97.0107C59.8644 97.0107 61.6098 96.3604 62.9787 95.06C64.416 93.6911 65.3742 91.672 65.8533 89.0027L74.4773 39.928H92.0333ZM119.664 112.821C114.736 112.821 110.355 111.829 106.522 109.844C102.689 107.859 99.7119 105.053 97.5902 101.425C95.5368 97.7978 94.5102 93.5884 94.5102 88.7973C94.5102 82.2951 96.0502 76.3747 99.1302 71.036C102.21 65.6973 106.454 61.5222 111.861 58.5107C117.268 55.4307 123.291 53.8907 129.93 53.8907C134.858 53.8907 139.239 54.9173 143.072 56.9707C146.973 58.9556 149.984 61.7618 152.106 65.3893C154.228 69.0169 155.289 73.2262 155.289 78.0173C155.289 84.588 153.715 90.5427 150.566 95.8813C147.486 101.152 143.208 105.292 137.733 108.304C132.326 111.316 126.303 112.821 119.664 112.821ZM122.128 97.7293C125.002 97.7293 127.569 96.8738 129.828 95.1627C132.155 93.3831 133.934 91.1244 135.166 88.3867C136.467 85.5804 137.117 82.6716 137.117 79.66C137.117 76.2378 136.193 73.6027 134.345 71.7547C132.497 69.9067 130.17 68.9827 127.364 68.9827C124.42 68.9827 121.82 69.8724 119.561 71.652C117.371 73.3631 115.66 75.6218 114.428 78.428C113.196 81.2342 112.58 84.1773 112.58 87.2573C112.58 90.6111 113.469 93.212 115.249 95.06C117.028 96.8396 119.321 97.7293 122.128 97.7293ZM178.873 48.7573C176.136 48.7573 173.945 48.0387 172.303 46.6013C170.728 45.0955 169.941 43.2133 169.941 40.9547C169.941 37.8747 171.139 35.2395 173.535 33.0493C175.93 30.8591 178.839 29.764 182.261 29.764C184.999 29.764 187.155 30.5169 188.729 32.0227C190.304 33.46 191.091 35.3422 191.091 37.6693C191.091 40.6809 189.893 43.2818 187.497 45.472C185.102 47.6622 182.227 48.7573 178.873 48.7573ZM186.471 54.712L176.409 112H158.853L168.915 54.712H186.471ZM234.203 54.096C239.952 54.096 244.469 55.7044 247.755 58.9213C251.04 62.1382 252.683 66.6213 252.683 72.3707C252.683 74.2871 252.477 76.3404 252.067 78.5307L246.112 112H228.659L234.203 80.892C234.408 79.7284 234.511 78.7018 234.511 77.812C234.511 74.9373 233.689 72.7129 232.047 71.1387C230.472 69.5644 228.248 68.7773 225.373 68.7773C221.951 68.7773 219.076 69.8382 216.749 71.96C214.422 74.0818 212.916 77.0591 212.232 80.892V80.3787L206.688 112H189.132L199.193 54.712H216.749L215.415 62.412C217.673 59.8795 220.411 57.8604 223.628 56.3547C226.913 54.8489 230.438 54.096 234.203 54.096ZM305.892 92.288C305.824 92.6302 305.789 93.0751 305.789 93.6227C305.789 94.8547 306.132 95.7444 306.816 96.292C307.569 96.8396 308.767 97.1133 310.409 97.1133H316.672L314.003 112H305.071C293.572 112 287.823 107.175 287.823 97.524C287.823 96.0867 287.994 94.2729 288.336 92.0827L292.443 69.2907H285.461L288.028 54.712H295.009L297.473 40.7493H315.029L312.565 54.712H324.064L321.497 69.2907H309.999L305.892 92.288ZM369.16 54.096C374.773 54.096 379.187 55.7044 382.404 58.9213C385.69 62.1382 387.332 66.6213 387.332 72.3707C387.332 74.2871 387.127 76.3404 386.716 78.5307L380.762 112H363.308L368.852 80.892C369.058 79.7284 369.16 78.7018 369.16 77.812C369.16 74.9373 368.339 72.7129 366.696 71.1387C365.122 69.5644 362.898 68.7773 360.023 68.7773C356.601 68.7773 353.726 69.8382 351.399 71.96C349.072 74.0818 347.566 77.0591 346.882 80.892V80.6867L341.338 112H323.782L337.231 36.0267H354.787L350.167 62.3093C352.426 59.7769 355.198 57.792 358.483 56.3547C361.768 54.8489 365.327 54.096 369.16 54.096ZM428.689 53.8907C436.081 53.8907 441.933 55.9098 446.245 59.948C450.626 63.9178 452.816 69.3591 452.816 76.272C452.816 78.5307 452.645 80.5498 452.303 82.3293C452.029 83.9036 451.618 85.5804 451.071 87.36H411.339C411.27 87.7707 411.236 88.4209 411.236 89.3107C411.236 92.3222 412.057 94.6151 413.7 96.1893C415.343 97.7636 417.533 98.5507 420.271 98.5507C424.651 98.5507 428.005 96.7027 430.332 93.0067H449.017C446.553 98.8244 442.549 103.581 437.005 107.277C431.461 110.973 425.233 112.821 418.32 112.821C410.928 112.821 405.008 110.768 400.559 106.661C396.178 102.555 393.988 96.9764 393.988 89.9267C393.988 87.8049 394.193 85.6147 394.604 83.356C395.631 77.4013 397.752 72.1996 400.969 67.7507C404.186 63.3018 408.19 59.8796 412.981 57.484C417.772 55.0884 423.008 53.8907 428.689 53.8907ZM435.055 78.428C435.192 77.4698 435.26 76.8196 435.26 76.4773C435.26 73.7396 434.404 71.652 432.693 70.2147C430.982 68.7089 428.724 67.956 425.917 67.956C422.906 67.956 420.236 68.88 417.909 70.728C415.651 72.5076 414.008 75.0742 412.981 78.428H435.055ZM515.715 53.8907C523.107 53.8907 528.959 55.9098 533.271 59.948C537.652 63.9178 539.842 69.3591 539.842 76.272C539.842 78.5307 539.671 80.5498 539.329 82.3293C539.055 83.9036 538.644 85.5804 538.097 87.36H498.365C498.296 87.7707 498.262 88.4209 498.262 89.3107C498.262 92.3222 499.083 94.6151 500.726 96.1893C502.369 97.7636 504.559 98.5507 507.297 98.5507C511.677 98.5507 515.031 96.7027 517.358 93.0067H536.043C533.579 98.8244 529.575 103.581 524.031 107.277C518.487 110.973 512.259 112.821 505.346 112.821C497.954 112.821 492.034 110.768 487.585 106.661C483.204 102.555 481.014 96.9764 481.014 89.9267C481.014 87.8049 481.219 85.6147 481.63 83.356C482.657 77.4013 484.779 72.1996 487.995 67.7507C491.212 63.3018 495.216 59.8796 500.007 57.484C504.799 55.0884 510.035 53.8907 515.715 53.8907ZM522.081 78.428C522.218 77.4698 522.286 76.8196 522.286 76.4773C522.286 73.7396 521.431 71.652 519.719 70.2147C518.008 68.7089 515.75 67.956 512.943 67.956C509.932 67.956 507.263 68.88 504.935 70.728C502.677 72.5076 501.034 75.0742 500.007 78.428H522.081ZM582.162 83.664L596.844 112H577.132L568.918 96.1893L556.906 112H537.913L561.937 82.74L547.461 54.712H567.173L575.386 70.6253L587.398 54.712H606.392L582.162 83.664ZM605.251 83.356C606.278 77.4013 608.4 72.1996 611.617 67.7507C614.833 63.3018 618.803 59.8796 623.526 57.484C628.317 55.0884 633.519 53.8907 639.131 53.8907C646.318 53.8907 651.999 55.7729 656.174 59.5373C660.349 63.3018 662.573 68.6062 662.847 75.4507H644.162C643.409 71.0702 640.74 68.88 636.154 68.88C632.937 68.88 630.165 70.1462 627.838 72.6787C625.511 75.1427 623.937 78.7018 623.115 83.356C622.841 84.7933 622.705 86.2991 622.705 87.8733C622.705 91.0902 623.457 93.5542 624.963 95.2653C626.469 96.9764 628.522 97.832 631.123 97.832C635.641 97.832 639.029 95.6418 641.287 91.2613H660.075C657.406 97.9689 653.299 103.239 647.755 107.072C642.211 110.905 635.88 112.821 628.762 112.821C621.37 112.821 615.484 110.802 611.103 106.764C606.791 102.657 604.635 97.0791 604.635 90.0293C604.635 87.9076 604.841 85.6831 605.251 83.356ZM696.775 36.0267L683.326 112H665.77L679.219 36.0267H696.775ZM762.679 54.712L752.618 112H735.062L736.397 104.197C734.138 106.73 731.366 108.783 728.081 110.357C724.864 111.863 721.407 112.616 717.711 112.616C711.962 112.616 707.445 111.008 704.159 107.791C700.874 104.505 699.231 99.9538 699.231 94.136C699.231 91.9458 699.402 89.9609 699.745 88.1813L705.699 54.712H723.153L717.711 85.82C717.506 86.9151 717.403 87.976 717.403 89.0027C717.403 91.8773 718.19 94.1018 719.765 95.676C721.407 97.1818 723.666 97.9347 726.541 97.9347C729.826 97.9347 732.598 96.9764 734.857 95.06C737.184 93.0751 738.724 90.2689 739.477 86.6413L745.123 54.712H762.679ZM789.047 112.821C784.53 112.821 780.457 112.103 776.83 110.665C773.271 109.228 770.464 107.243 768.411 104.711C766.358 102.11 765.331 99.1324 765.331 95.7787C765.331 95.2996 765.399 94.444 765.536 93.212H782.476C782.339 95.3338 782.955 97.0449 784.324 98.3453C785.762 99.5773 787.781 100.193 790.382 100.193C792.572 100.193 794.386 99.7827 795.823 98.9613C797.26 98.14 797.979 96.9764 797.979 95.4707C797.979 94.0333 797.192 92.904 795.618 92.0827C794.112 91.1929 791.579 90.132 788.02 88.9C784.324 87.668 781.21 86.4702 778.678 85.3067C776.214 84.0747 774.092 82.3293 772.312 80.0707C770.533 77.812 769.643 74.9716 769.643 71.5493C769.643 68.1956 770.635 65.184 772.62 62.5147C774.605 59.7769 777.377 57.6551 780.936 56.1493C784.564 54.6435 788.739 53.8907 793.462 53.8907C798.184 53.8907 802.291 54.6778 805.782 56.252C809.272 57.7578 811.976 59.8795 813.892 62.6173C815.809 65.3551 816.767 68.4351 816.767 71.8573L816.664 73.3973H800.751C800.888 71.344 800.272 69.7013 798.903 68.4693C797.534 67.2373 795.583 66.6213 793.051 66.6213C791.066 66.6213 789.423 67.032 788.123 67.8533C786.891 68.6747 786.275 69.804 786.275 71.2413C786.275 72.7471 787.096 74.0133 788.739 75.04C790.45 75.9982 793.085 77.0933 796.644 78.3253C800.34 79.5573 803.386 80.7893 805.782 82.0213C808.246 83.1849 810.333 84.8618 812.044 87.052C813.824 89.1738 814.714 91.8431 814.714 95.06C814.714 98.756 813.584 101.939 811.326 104.608C809.135 107.277 806.09 109.331 802.188 110.768C798.355 112.137 793.975 112.821 789.047 112.821ZM842.497 48.7573C839.759 48.7573 837.569 48.0387 835.926 46.6013C834.352 45.0955 833.565 43.2133 833.565 40.9547C833.565 37.8747 834.763 35.2395 837.158 33.0493C839.554 30.8591 842.463 29.764 845.885 29.764C848.623 29.764 850.779 30.5169 852.353 32.0227C853.927 33.46 854.714 35.3422 854.714 37.6693C854.714 40.6809 853.517 43.2818 851.121 45.472C848.725 47.6622 845.851 48.7573 842.497 48.7573ZM850.094 54.712L840.033 112H822.477L832.538 54.712H850.094ZM881.4 95.5733L901.112 54.712H919.9L889.408 112H867.642L857.478 54.712H876.164L881.4 95.5733ZM952.751 53.8907C960.143 53.8907 965.995 55.9098 970.307 59.948C974.687 63.9178 976.877 69.3591 976.877 76.272C976.877 78.5307 976.706 80.5498 976.364 82.3293C976.09 83.9036 975.679 85.5804 975.132 87.36H935.4C935.331 87.7707 935.297 88.4209 935.297 89.3107C935.297 92.3222 936.119 94.6151 937.761 96.1893C939.404 97.7636 941.594 98.5507 944.332 98.5507C948.712 98.5507 952.066 96.7027 954.393 93.0067H973.079C970.615 98.8244 966.611 103.581 961.067 107.277C955.523 110.973 949.294 112.821 942.381 112.821C934.989 112.821 929.069 110.768 924.62 106.661C920.239 102.555 918.049 96.9764 918.049 89.9267C918.049 87.8049 918.255 85.6147 918.665 83.356C919.692 77.4013 921.814 72.1996 925.031 67.7507C928.247 63.3018 932.251 59.8796 937.043 57.484C941.834 55.0884 947.07 53.8907 952.751 53.8907ZM959.116 78.428C959.253 77.4698 959.321 76.8196 959.321 76.4773C959.321 73.7396 958.466 71.652 956.755 70.2147C955.043 68.7089 952.785 67.956 949.979 67.956C946.967 67.956 944.298 68.88 941.971 70.728C939.712 72.5076 938.069 75.0742 937.043 78.428H959.116ZM1068.63 39.928L1066.26 53.788H1047.07L1036.8 112H1019.24L1029.51 53.788H1010.41L1012.88 39.928H1068.63ZM1100.43 53.8907C1107.83 53.8907 1113.68 55.9098 1117.99 59.948C1122.37 63.9178 1124.56 69.3591 1124.56 76.272C1124.56 78.5307 1124.39 80.5498 1124.05 82.3293C1123.77 83.9036 1123.36 85.5804 1122.82 87.36H1083.08C1083.02 87.7707 1082.98 88.4209 1082.98 89.3107C1082.98 92.3222 1083.8 94.6151 1085.44 96.1893C1087.09 97.7636 1089.28 98.5507 1092.02 98.5507C1096.4 98.5507 1099.75 96.7027 1102.08 93.0067H1120.76C1118.3 98.8244 1114.29 103.581 1108.75 107.277C1103.21 110.973 1096.98 112.821 1090.06 112.821C1082.67 112.821 1076.75 110.768 1072.3 106.661C1067.92 102.555 1065.73 96.9764 1065.73 89.9267C1065.73 87.8049 1065.94 85.6147 1066.35 83.356C1067.38 77.4013 1069.5 72.1996 1072.71 67.7507C1075.93 63.3018 1079.94 59.8796 1084.73 57.484C1089.52 55.0884 1094.75 53.8907 1100.43 53.8907ZM1106.8 78.428C1106.94 77.4698 1107 76.8196 1107 76.4773C1107 73.7396 1106.15 71.652 1104.44 70.2147C1102.73 68.7089 1100.47 67.956 1097.66 67.956C1094.65 67.956 1091.98 68.88 1089.65 70.728C1087.4 72.5076 1085.75 75.0742 1084.73 78.428H1106.8ZM1151.79 112.821C1147.27 112.821 1143.2 112.103 1139.57 110.665C1136.01 109.228 1133.21 107.243 1131.15 104.711C1129.1 102.11 1128.07 99.1324 1128.07 95.7787C1128.07 95.2996 1128.14 94.444 1128.28 93.212H1145.22C1145.08 95.3338 1145.7 97.0449 1147.07 98.3453C1148.5 99.5773 1150.52 100.193 1153.12 100.193C1155.31 100.193 1157.13 99.7827 1158.57 98.9613C1160 98.14 1160.72 96.9764 1160.72 95.4707C1160.72 94.0333 1159.93 92.904 1158.36 92.0827C1156.85 91.1929 1154.32 90.132 1150.76 88.9C1147.07 87.668 1143.95 86.4702 1141.42 85.3067C1138.96 84.0747 1136.83 82.3293 1135.05 80.0707C1133.27 77.812 1132.39 74.9716 1132.39 71.5493C1132.39 68.1956 1133.38 65.184 1135.36 62.5147C1137.35 59.7769 1140.12 57.6551 1143.68 56.1493C1147.31 54.6435 1151.48 53.8907 1156.2 53.8907C1160.93 53.8907 1165.03 54.6778 1168.52 56.252C1172.01 57.7578 1174.72 59.8795 1176.63 62.6173C1178.55 65.3551 1179.51 68.4351 1179.51 71.8573L1179.41 73.3973H1163.49C1163.63 71.344 1163.01 69.7013 1161.65 68.4693C1160.28 67.2373 1158.33 66.6213 1155.79 66.6213C1153.81 66.6213 1152.17 67.032 1150.87 67.8533C1149.63 68.6747 1149.02 69.804 1149.02 71.2413C1149.02 72.7471 1149.84 74.0133 1151.48 75.04C1153.19 75.9982 1155.83 77.0933 1159.39 78.3253C1163.08 79.5573 1166.13 80.7893 1168.52 82.0213C1170.99 83.1849 1173.08 84.8618 1174.79 87.052C1176.57 89.1738 1177.46 91.8431 1177.46 95.06C1177.46 98.756 1176.33 101.939 1174.07 104.608C1171.88 107.277 1168.83 109.331 1164.93 110.768C1161.1 112.137 1156.72 112.821 1151.79 112.821ZM1209.04 92.288C1208.97 92.6302 1208.94 93.0751 1208.94 93.6227C1208.94 94.8547 1209.28 95.7444 1209.96 96.292C1210.71 96.8396 1211.91 97.1133 1213.56 97.1133H1219.82L1217.15 112H1208.22C1196.72 112 1190.97 107.175 1190.97 97.524C1190.97 96.0867 1191.14 94.2729 1191.48 92.0827L1195.59 69.2907H1188.61L1191.17 54.712H1198.16L1200.62 40.7493H1218.18L1215.71 54.712H1227.21L1224.64 69.2907H1213.14L1209.04 92.288ZM1278.77 68.6747L1276.1 83.2533H1230.93L1233.6 68.6747H1278.77ZM1350.96 112H1333.4L1311.94 67.5453L1304.04 112H1286.48L1299.21 39.928H1316.77L1338.23 84.588L1346.13 39.928H1363.69L1350.96 112ZM1399.41 53.8907C1406.8 53.8907 1412.65 55.9098 1416.97 59.948C1421.35 63.9178 1423.54 69.3591 1423.54 76.272C1423.54 78.5307 1423.37 80.5498 1423.02 82.3293C1422.75 83.9036 1422.34 85.5804 1421.79 87.36H1382.06C1381.99 87.7707 1381.96 88.4209 1381.96 89.3107C1381.96 92.3222 1382.78 94.6151 1384.42 96.1893C1386.06 97.7636 1388.25 98.5507 1390.99 98.5507C1395.37 98.5507 1398.73 96.7027 1401.05 93.0067H1419.74C1417.27 98.8244 1413.27 103.581 1407.73 107.277C1402.18 110.973 1395.95 112.821 1389.04 112.821C1381.65 112.821 1375.73 110.768 1371.28 106.661C1366.9 102.555 1364.71 96.9764 1364.71 89.9267C1364.71 87.8049 1364.91 85.6147 1365.33 83.356C1366.35 77.4013 1368.47 72.1996 1371.69 67.7507C1374.91 63.3018 1378.91 59.8796 1383.7 57.484C1388.49 55.0884 1393.73 53.8907 1399.41 53.8907ZM1405.78 78.428C1405.91 77.4698 1405.98 76.8196 1405.98 76.4773C1405.98 73.7396 1405.13 71.652 1403.41 70.2147C1401.7 68.7089 1399.45 67.956 1396.64 67.956C1393.63 67.956 1390.96 68.88 1388.63 70.728C1386.37 72.5076 1384.73 75.0742 1383.7 78.428H1405.78ZM1450.77 92.288C1450.7 92.6302 1450.66 93.0751 1450.66 93.6227C1450.66 94.8547 1451.01 95.7444 1451.69 96.292C1452.44 96.8396 1453.64 97.1133 1455.28 97.1133H1461.55L1458.88 112H1449.94C1438.45 112 1432.7 107.175 1432.7 97.524C1432.7 96.0867 1432.87 94.2729 1433.21 92.0827L1437.32 69.2907H1430.34L1432.9 54.712H1439.88L1442.35 40.7493H1459.9L1457.44 54.712H1468.94L1466.37 69.2907H1454.87L1450.77 92.288Z" fill="white"/>
</g>
<defs>
<filter id="filter0_d_29_834" x="0.834373" y="0.365623" width="1501.5" height="149.855" filterUnits="userSpaceOnUse" color-interpolation-filters="sRGB">
<feFlood flood-opacity="0" result="BackgroundImageFix"/>
<feColorMatrix in="SourceAlpha" type="matrix" values="0 0 0 0 0 0 0 0 0 0 0 0 0 0 0 0 0 0 127 0" result="hardAlpha"/>
<feOffset dy="4"/>
<feGaussianBlur stdDeviation="16.7"/>
<feComposite in2="hardAlpha" operator="out"/>
<feColorMatrix type="matrix" values="0 0 0 0 1 0 0 0 0 0.958886 0 0 0 0 0.958886 0 0 0 0.49 0"/>
<feBlend mode="normal" in2="BackgroundImageFix" result="effect1_dropShadow_29_834"/>
<feBlend mode="normal" in="SourceGraphic" in2="effect1_dropShadow_29_834" result="shape"/>
</filter>
</defs>
</svg>
