<svg width="1277" height="409" viewBox="0 0 1277 409" fill="none" xmlns="http://www.w3.org/2000/svg">
<g filter="url(#filter0_d_28_341)">
<path d="M375.48 165.35V171.86H362.53V214H354.55V171.86H341.53V165.35H375.48ZM403.512 174.8C406.452 174.8 409.065 175.43 411.352 176.69C413.685 177.95 415.505 179.817 416.812 182.29C418.165 184.763 418.842 187.75 418.842 191.25V214H410.932V192.44C410.932 188.987 410.068 186.35 408.342 184.53C406.615 182.663 404.258 181.73 401.272 181.73C398.285 181.73 395.905 182.663 394.132 184.53C392.405 186.35 391.542 188.987 391.542 192.44V214H383.562V162.2H391.542V179.91C392.895 178.277 394.598 177.017 396.652 176.13C398.752 175.243 401.038 174.8 403.512 174.8ZM464.371 193.77C464.371 195.217 464.277 196.523 464.091 197.69H434.621C434.854 200.77 435.997 203.243 438.051 205.11C440.104 206.977 442.624 207.91 445.611 207.91C449.904 207.91 452.937 206.113 454.711 202.52H463.321C462.154 206.067 460.031 208.983 456.951 211.27C453.917 213.51 450.137 214.63 445.611 214.63C441.924 214.63 438.611 213.813 435.671 212.18C432.777 210.5 430.491 208.167 428.811 205.18C427.177 202.147 426.361 198.647 426.361 194.68C426.361 190.713 427.154 187.237 428.741 184.25C430.374 181.217 432.637 178.883 435.531 177.25C438.471 175.617 441.831 174.8 445.611 174.8C449.251 174.8 452.494 175.593 455.341 177.18C458.187 178.767 460.404 181.007 461.991 183.9C463.577 186.747 464.371 190.037 464.371 193.77ZM456.041 191.25C455.994 188.31 454.944 185.953 452.891 184.18C450.837 182.407 448.294 181.52 445.261 181.52C442.507 181.52 440.151 182.407 438.191 184.18C436.231 185.907 435.064 188.263 434.691 191.25H456.041ZM525.617 179.35C524.357 176.923 522.607 175.103 520.367 173.89C518.127 172.63 515.537 172 512.597 172C509.377 172 506.507 172.723 503.987 174.17C501.467 175.617 499.484 177.67 498.037 180.33C496.637 182.99 495.937 186.07 495.937 189.57C495.937 193.07 496.637 196.173 498.037 198.88C499.484 201.54 501.467 203.593 503.987 205.04C506.507 206.487 509.377 207.21 512.597 207.21C516.937 207.21 520.461 205.997 523.167 203.57C525.874 201.143 527.531 197.853 528.137 193.7H509.867V187.33H536.677V193.56C536.164 197.34 534.811 200.817 532.617 203.99C530.471 207.163 527.647 209.707 524.147 211.62C520.694 213.487 516.844 214.42 512.597 214.42C508.024 214.42 503.847 213.37 500.067 211.27C496.287 209.123 493.277 206.16 491.037 202.38C488.844 198.6 487.747 194.33 487.747 189.57C487.747 184.81 488.844 180.54 491.037 176.76C493.277 172.98 496.287 170.04 500.067 167.94C503.894 165.793 508.071 164.72 512.597 164.72C517.777 164.72 522.374 166.003 526.387 168.57C530.447 171.09 533.387 174.683 535.207 179.35H525.617ZM541.888 194.54C541.888 190.667 542.681 187.237 544.268 184.25C545.901 181.263 548.095 178.953 550.848 177.32C553.648 175.64 556.728 174.8 560.088 174.8C563.121 174.8 565.758 175.407 567.998 176.62C570.285 177.787 572.105 179.257 573.458 181.03V175.43H581.508V214H573.458V208.26C572.105 210.08 570.261 211.597 567.928 212.81C565.595 214.023 562.935 214.63 559.948 214.63C556.635 214.63 553.601 213.79 550.848 212.11C548.095 210.383 545.901 208.003 544.268 204.97C542.681 201.89 541.888 198.413 541.888 194.54ZM573.458 194.68C573.458 192.02 572.898 189.71 571.778 187.75C570.705 185.79 569.281 184.297 567.508 183.27C565.735 182.243 563.821 181.73 561.768 181.73C559.715 181.73 557.801 182.243 556.028 183.27C554.255 184.25 552.808 185.72 551.688 187.68C550.615 189.593 550.078 191.88 550.078 194.54C550.078 197.2 550.615 199.533 551.688 201.54C552.808 203.547 554.255 205.087 556.028 206.16C557.848 207.187 559.761 207.7 561.768 207.7C563.821 207.7 565.735 207.187 567.508 206.16C569.281 205.133 570.705 203.64 571.778 201.68C572.898 199.673 573.458 197.34 573.458 194.68ZM601.299 181.94V203.29C601.299 204.737 601.626 205.787 602.279 206.44C602.979 207.047 604.146 207.35 605.779 207.35H610.679V214H604.379C600.786 214 598.033 213.16 596.119 211.48C594.206 209.8 593.249 207.07 593.249 203.29V181.94H588.699V175.43H593.249V165.84H601.299V175.43H610.679V181.94H601.299ZM653.384 193.77C653.384 195.217 653.291 196.523 653.104 197.69H623.634C623.868 200.77 625.011 203.243 627.064 205.11C629.118 206.977 631.638 207.91 634.624 207.91C638.918 207.91 641.951 206.113 643.724 202.52H652.334C651.168 206.067 649.044 208.983 645.964 211.27C642.931 213.51 639.151 214.63 634.624 214.63C630.938 214.63 627.624 213.813 624.684 212.18C621.791 210.5 619.504 208.167 617.824 205.18C616.191 202.147 615.374 198.647 615.374 194.68C615.374 190.713 616.168 187.237 617.754 184.25C619.388 181.217 621.651 178.883 624.544 177.25C627.484 175.617 630.844 174.8 634.624 174.8C638.264 174.8 641.508 175.593 644.354 177.18C647.201 178.767 649.418 181.007 651.004 183.9C652.591 186.747 653.384 190.037 653.384 193.77ZM645.054 191.25C645.008 188.31 643.958 185.953 641.904 184.18C639.851 182.407 637.308 181.52 634.274 181.52C631.521 181.52 629.164 182.407 627.204 184.18C625.244 185.907 624.078 188.263 623.704 191.25H645.054ZM687.401 165.35V214H679.421V165.35H687.401ZM711.878 214.63C708.845 214.63 706.115 214.093 703.688 213.02C701.308 211.9 699.418 210.407 698.018 208.54C696.618 206.627 695.871 204.503 695.778 202.17H704.038C704.178 203.803 704.948 205.18 706.348 206.3C707.795 207.373 709.591 207.91 711.738 207.91C713.978 207.91 715.705 207.49 716.918 206.65C718.178 205.763 718.808 204.643 718.808 203.29C718.808 201.843 718.108 200.77 716.708 200.07C715.355 199.37 713.185 198.6 710.198 197.76C707.305 196.967 704.948 196.197 703.128 195.45C701.308 194.703 699.721 193.56 698.368 192.02C697.061 190.48 696.408 188.45 696.408 185.93C696.408 183.877 697.015 182.01 698.228 180.33C699.441 178.603 701.168 177.25 703.408 176.27C705.695 175.29 708.308 174.8 711.248 174.8C715.635 174.8 719.158 175.92 721.818 178.16C724.525 180.353 725.971 183.363 726.158 187.19H718.178C718.038 185.463 717.338 184.087 716.078 183.06C714.818 182.033 713.115 181.52 710.968 181.52C708.868 181.52 707.258 181.917 706.138 182.71C705.018 183.503 704.458 184.553 704.458 185.86C704.458 186.887 704.831 187.75 705.578 188.45C706.325 189.15 707.235 189.71 708.308 190.13C709.381 190.503 710.968 190.993 713.068 191.6C715.868 192.347 718.155 193.117 719.928 193.91C721.748 194.657 723.311 195.777 724.618 197.27C725.925 198.763 726.601 200.747 726.648 203.22C726.648 205.413 726.041 207.373 724.828 209.1C723.615 210.827 721.888 212.18 719.648 213.16C717.455 214.14 714.865 214.63 711.878 214.63ZM775.644 214.49C771.117 214.49 766.941 213.44 763.114 211.34C759.334 209.193 756.324 206.23 754.084 202.45C751.891 198.623 750.794 194.33 750.794 189.57C750.794 184.81 751.891 180.54 754.084 176.76C756.324 172.98 759.334 170.04 763.114 167.94C766.941 165.793 771.117 164.72 775.644 164.72C780.217 164.72 784.394 165.793 788.174 167.94C792.001 170.04 795.011 172.98 797.204 176.76C799.397 180.54 800.494 184.81 800.494 189.57C800.494 194.33 799.397 198.623 797.204 202.45C795.011 206.23 792.001 209.193 788.174 211.34C784.394 213.44 780.217 214.49 775.644 214.49ZM775.644 207.56C778.864 207.56 781.734 206.837 784.254 205.39C786.774 203.897 788.734 201.797 790.134 199.09C791.581 196.337 792.304 193.163 792.304 189.57C792.304 185.977 791.581 182.827 790.134 180.12C788.734 177.413 786.774 175.337 784.254 173.89C781.734 172.443 778.864 171.72 775.644 171.72C772.424 171.72 769.554 172.443 767.034 173.89C764.514 175.337 762.531 177.413 761.084 180.12C759.684 182.827 758.984 185.977 758.984 189.57C758.984 193.163 759.684 196.337 761.084 199.09C762.531 201.797 764.514 203.897 767.034 205.39C769.554 206.837 772.424 207.56 775.644 207.56ZM816.327 181.1C817.68 179.327 819.523 177.833 821.857 176.62C824.19 175.407 826.827 174.8 829.767 174.8C833.127 174.8 836.183 175.64 838.937 177.32C841.737 178.953 843.93 181.263 845.517 184.25C847.103 187.237 847.897 190.667 847.897 194.54C847.897 198.413 847.103 201.89 845.517 204.97C843.93 208.003 841.737 210.383 838.937 212.11C836.183 213.79 833.127 214.63 829.767 214.63C826.827 214.63 824.213 214.047 821.927 212.88C819.64 211.667 817.773 210.173 816.327 208.4V232.34H808.347V175.43H816.327V181.1ZM839.777 194.54C839.777 191.88 839.217 189.593 838.097 187.68C837.023 185.72 835.577 184.25 833.757 183.27C831.983 182.243 830.07 181.73 828.017 181.73C826.01 181.73 824.097 182.243 822.277 183.27C820.503 184.297 819.057 185.79 817.937 187.75C816.863 189.71 816.327 192.02 816.327 194.68C816.327 197.34 816.863 199.673 817.937 201.68C819.057 203.64 820.503 205.133 822.277 206.16C824.097 207.187 826.01 207.7 828.017 207.7C830.07 207.7 831.983 207.187 833.757 206.16C835.577 205.087 837.023 203.547 838.097 201.54C839.217 199.533 839.777 197.2 839.777 194.54ZM891.138 193.77C891.138 195.217 891.045 196.523 890.858 197.69H861.388C861.621 200.77 862.765 203.243 864.818 205.11C866.871 206.977 869.391 207.91 872.378 207.91C876.671 207.91 879.705 206.113 881.478 202.52H890.088C888.921 206.067 886.798 208.983 883.718 211.27C880.685 213.51 876.905 214.63 872.378 214.63C868.691 214.63 865.378 213.813 862.438 212.18C859.545 210.5 857.258 208.167 855.578 205.18C853.945 202.147 853.128 198.647 853.128 194.68C853.128 190.713 853.921 187.237 855.508 184.25C857.141 181.217 859.405 178.883 862.298 177.25C865.238 175.617 868.598 174.8 872.378 174.8C876.018 174.8 879.261 175.593 882.108 177.18C884.955 178.767 887.171 181.007 888.758 183.9C890.345 186.747 891.138 190.037 891.138 193.77ZM882.808 191.25C882.761 188.31 881.711 185.953 879.658 184.18C877.605 182.407 875.061 181.52 872.028 181.52C869.275 181.52 866.918 182.407 864.958 184.18C862.998 185.907 861.831 188.263 861.458 191.25H882.808ZM918.451 174.8C921.485 174.8 924.191 175.43 926.571 176.69C928.998 177.95 930.888 179.817 932.241 182.29C933.595 184.763 934.271 187.75 934.271 191.25V214H926.361V192.44C926.361 188.987 925.498 186.35 923.771 184.53C922.045 182.663 919.688 181.73 916.701 181.73C913.715 181.73 911.335 182.663 909.561 184.53C907.835 186.35 906.971 188.987 906.971 192.44V214H898.991V175.43H906.971V179.84C908.278 178.253 909.935 177.017 911.941 176.13C913.995 175.243 916.165 174.8 918.451 174.8ZM85.6894 298.06H65.3194L61.8194 308H53.4894L70.9194 259.28H80.1594L97.5894 308H89.1894L85.6894 298.06ZM83.4494 291.55L75.5394 268.94L67.5594 291.55H83.4494ZM113.148 275.03C114.315 273.07 115.855 271.553 117.768 270.48C119.728 269.36 122.038 268.8 124.698 268.8V277.06H122.668C119.541 277.06 117.161 277.853 115.528 279.44C113.941 281.027 113.148 283.78 113.148 287.7V308H105.168V269.43H113.148V275.03ZM167.383 287.77C167.383 289.217 167.29 290.523 167.103 291.69H137.633C137.867 294.77 139.01 297.243 141.063 299.11C143.117 300.977 145.637 301.91 148.623 301.91C152.917 301.91 155.95 300.113 157.723 296.52H166.333C165.167 300.067 163.043 302.983 159.963 305.27C156.93 307.51 153.15 308.63 148.623 308.63C144.937 308.63 141.623 307.813 138.683 306.18C135.79 304.5 133.503 302.167 131.823 299.18C130.19 296.147 129.373 292.647 129.373 288.68C129.373 284.713 130.167 281.237 131.753 278.25C133.387 275.217 135.65 272.883 138.543 271.25C141.483 269.617 144.843 268.8 148.623 268.8C152.263 268.8 155.507 269.593 158.353 271.18C161.2 272.767 163.417 275.007 165.003 277.9C166.59 280.747 167.383 284.037 167.383 287.77ZM159.053 285.25C159.007 282.31 157.957 279.953 155.903 278.18C153.85 276.407 151.307 275.52 148.273 275.52C145.52 275.52 143.163 276.407 141.203 278.18C139.243 279.907 138.077 282.263 137.703 285.25H159.053ZM229.47 259.35L213.37 290.36V308H205.39V290.36L189.22 259.35H198.11L209.38 283.22L220.65 259.35H229.47ZM252.533 308.63C248.893 308.63 245.603 307.813 242.663 306.18C239.723 304.5 237.413 302.167 235.733 299.18C234.053 296.147 233.213 292.647 233.213 288.68C233.213 284.76 234.076 281.283 235.803 278.25C237.529 275.217 239.886 272.883 242.873 271.25C245.859 269.617 249.196 268.8 252.883 268.8C256.569 268.8 259.906 269.617 262.893 271.25C265.879 272.883 268.236 275.217 269.963 278.25C271.689 281.283 272.553 284.76 272.553 288.68C272.553 292.6 271.666 296.077 269.893 299.11C268.119 302.143 265.693 304.5 262.613 306.18C259.579 307.813 256.219 308.63 252.533 308.63ZM252.533 301.7C254.586 301.7 256.499 301.21 258.273 300.23C260.093 299.25 261.563 297.78 262.683 295.82C263.803 293.86 264.363 291.48 264.363 288.68C264.363 285.88 263.826 283.523 262.753 281.61C261.679 279.65 260.256 278.18 258.483 277.2C256.709 276.22 254.796 275.73 252.743 275.73C250.689 275.73 248.776 276.22 247.003 277.2C245.276 278.18 243.899 279.65 242.873 281.61C241.846 283.523 241.333 285.88 241.333 288.68C241.333 292.833 242.383 296.053 244.483 298.34C246.629 300.58 249.313 301.7 252.533 301.7ZM315.371 269.43V308H307.391V303.45C306.131 305.037 304.475 306.297 302.421 307.23C300.415 308.117 298.268 308.56 295.981 308.56C292.948 308.56 290.218 307.93 287.791 306.67C285.411 305.41 283.521 303.543 282.121 301.07C280.768 298.597 280.091 295.61 280.091 292.11V269.43H288.001V290.92C288.001 294.373 288.865 297.033 290.591 298.9C292.318 300.72 294.675 301.63 297.661 301.63C300.648 301.63 303.005 300.72 304.731 298.9C306.505 297.033 307.391 294.373 307.391 290.92V269.43H315.371ZM369.354 308L358.154 288.54H352.064V308H344.084V259.35H360.884C364.617 259.35 367.767 260.003 370.334 261.31C372.947 262.617 374.884 264.367 376.144 266.56C377.451 268.753 378.104 271.203 378.104 273.91C378.104 277.083 377.171 279.977 375.304 282.59C373.484 285.157 370.661 286.907 366.834 287.84L378.874 308H369.354ZM352.064 282.17H360.884C363.871 282.17 366.111 281.423 367.604 279.93C369.144 278.437 369.914 276.43 369.914 273.91C369.914 271.39 369.167 269.43 367.674 268.03C366.181 266.583 363.917 265.86 360.884 265.86H352.064V282.17ZM423.663 287.77C423.663 289.217 423.569 290.523 423.383 291.69H393.913C394.146 294.77 395.289 297.243 397.343 299.11C399.396 300.977 401.916 301.91 404.903 301.91C409.196 301.91 412.229 300.113 414.003 296.52H422.612C421.446 300.067 419.323 302.983 416.243 305.27C413.209 307.51 409.429 308.63 404.903 308.63C401.216 308.63 397.903 307.813 394.963 306.18C392.069 304.5 389.783 302.167 388.103 299.18C386.469 296.147 385.653 292.647 385.653 288.68C385.653 284.713 386.446 281.237 388.033 278.25C389.666 275.217 391.929 272.883 394.823 271.25C397.763 269.617 401.123 268.8 404.903 268.8C408.543 268.8 411.786 269.593 414.633 271.18C417.479 272.767 419.696 275.007 421.283 277.9C422.869 280.747 423.663 284.037 423.663 287.77ZM415.333 285.25C415.286 282.31 414.236 279.953 412.183 278.18C410.129 276.407 407.586 275.52 404.553 275.52C401.799 275.52 399.443 276.407 397.483 278.18C395.523 279.907 394.356 282.263 393.983 285.25H415.333ZM428.856 288.54C428.856 284.667 429.649 281.237 431.236 278.25C432.869 275.263 435.062 272.953 437.816 271.32C440.616 269.64 443.696 268.8 447.056 268.8C450.089 268.8 452.726 269.407 454.966 270.62C457.252 271.787 459.072 273.257 460.426 275.03V269.43H468.476V308H460.426V302.26C459.072 304.08 457.229 305.597 454.896 306.81C452.562 308.023 449.902 308.63 446.916 308.63C443.602 308.63 440.569 307.79 437.816 306.11C435.062 304.383 432.869 302.003 431.236 298.97C429.649 295.89 428.856 292.413 428.856 288.54ZM460.426 288.68C460.426 286.02 459.866 283.71 458.746 281.75C457.672 279.79 456.249 278.297 454.476 277.27C452.702 276.243 450.789 275.73 448.736 275.73C446.682 275.73 444.769 276.243 442.996 277.27C441.222 278.25 439.776 279.72 438.656 281.68C437.582 283.593 437.046 285.88 437.046 288.54C437.046 291.2 437.582 293.533 438.656 295.54C439.776 297.547 441.222 299.087 442.996 300.16C444.816 301.187 446.729 301.7 448.736 301.7C450.789 301.7 452.702 301.187 454.476 300.16C456.249 299.133 457.672 297.64 458.746 295.68C459.866 293.673 460.426 291.34 460.426 288.68ZM476.297 288.54C476.297 284.667 477.09 281.237 478.677 278.25C480.31 275.263 482.504 272.953 485.257 271.32C488.057 269.64 491.16 268.8 494.567 268.8C497.087 268.8 499.56 269.36 501.987 270.48C504.46 271.553 506.42 273 507.867 274.82V256.2H515.917V308H507.867V302.19C506.56 304.057 504.74 305.597 502.407 306.81C500.12 308.023 497.484 308.63 494.497 308.63C491.137 308.63 488.057 307.79 485.257 306.11C482.504 304.383 480.31 302.003 478.677 298.97C477.09 295.89 476.297 292.413 476.297 288.54ZM507.867 288.68C507.867 286.02 507.307 283.71 506.187 281.75C505.114 279.79 503.69 278.297 501.917 277.27C500.144 276.243 498.23 275.73 496.177 275.73C494.124 275.73 492.21 276.243 490.437 277.27C488.664 278.25 487.217 279.72 486.097 281.68C485.024 283.593 484.487 285.88 484.487 288.54C484.487 291.2 485.024 293.533 486.097 295.54C487.217 297.547 488.664 299.087 490.437 300.16C492.257 301.187 494.17 301.7 496.177 301.7C498.23 301.7 500.144 301.187 501.917 300.16C503.69 299.133 505.114 297.64 506.187 295.68C507.307 293.673 507.867 291.34 507.867 288.68ZM561.118 269.43L537.458 326.13H529.198L537.038 307.37L521.848 269.43H530.738L541.588 298.83L552.858 269.43H561.118ZM594.634 275.94V297.29C594.634 298.737 594.961 299.787 595.614 300.44C596.314 301.047 597.481 301.35 599.114 301.35H604.014V308H597.714C594.121 308 591.368 307.16 589.454 305.48C587.541 303.8 586.584 301.07 586.584 297.29V275.94H582.034V269.43H586.584V259.84H594.634V269.43H604.014V275.94H594.634ZM628.099 308.63C624.459 308.63 621.169 307.813 618.229 306.18C615.289 304.5 612.979 302.167 611.299 299.18C609.619 296.147 608.779 292.647 608.779 288.68C608.779 284.76 609.642 281.283 611.369 278.25C613.096 275.217 615.452 272.883 618.439 271.25C621.426 269.617 624.762 268.8 628.449 268.8C632.136 268.8 635.472 269.617 638.459 271.25C641.446 272.883 643.802 275.217 645.529 278.25C647.256 281.283 648.119 284.76 648.119 288.68C648.119 292.6 647.232 296.077 645.459 299.11C643.686 302.143 641.259 304.5 638.179 306.18C635.146 307.813 631.786 308.63 628.099 308.63ZM628.099 301.7C630.152 301.7 632.066 301.21 633.839 300.23C635.659 299.25 637.129 297.78 638.249 295.82C639.369 293.86 639.929 291.48 639.929 288.68C639.929 285.88 639.392 283.523 638.319 281.61C637.246 279.65 635.822 278.18 634.049 277.2C632.276 276.22 630.362 275.73 628.309 275.73C626.256 275.73 624.342 276.22 622.569 277.2C620.842 278.18 619.466 279.65 618.439 281.61C617.412 283.523 616.899 285.88 616.899 288.68C616.899 292.833 617.949 296.053 620.049 298.34C622.196 300.58 624.879 301.7 628.099 301.7ZM705.621 259.35V265.86H692.671V308H684.691V265.86H671.671V259.35H705.621ZM749.053 287.77C749.053 289.217 748.96 290.523 748.773 291.69H719.303C719.536 294.77 720.68 297.243 722.733 299.11C724.786 300.977 727.306 301.91 730.293 301.91C734.586 301.91 737.62 300.113 739.393 296.52H748.003C746.836 300.067 744.713 302.983 741.633 305.27C738.6 307.51 734.82 308.63 730.293 308.63C726.606 308.63 723.293 307.813 720.353 306.18C717.46 304.5 715.173 302.167 713.493 299.18C711.86 296.147 711.043 292.647 711.043 288.68C711.043 284.713 711.836 281.237 713.423 278.25C715.056 275.217 717.32 272.883 720.213 271.25C723.153 269.617 726.513 268.8 730.293 268.8C733.933 268.8 737.176 269.593 740.023 271.18C742.87 272.767 745.086 275.007 746.673 277.9C748.26 280.747 749.053 284.037 749.053 287.77ZM740.723 285.25C740.676 282.31 739.626 279.953 737.573 278.18C735.52 276.407 732.976 275.52 729.943 275.52C727.19 275.52 724.833 276.407 722.873 278.18C720.913 279.907 719.746 282.263 719.373 285.25H740.723ZM770.906 308.63C767.873 308.63 765.143 308.093 762.716 307.02C760.336 305.9 758.446 304.407 757.046 302.54C755.646 300.627 754.9 298.503 754.806 296.17H763.066C763.206 297.803 763.976 299.18 765.376 300.3C766.823 301.373 768.62 301.91 770.766 301.91C773.006 301.91 774.733 301.49 775.946 300.65C777.206 299.763 777.836 298.643 777.836 297.29C777.836 295.843 777.136 294.77 775.736 294.07C774.383 293.37 772.213 292.6 769.226 291.76C766.333 290.967 763.976 290.197 762.156 289.45C760.336 288.703 758.75 287.56 757.396 286.02C756.09 284.48 755.436 282.45 755.436 279.93C755.436 277.877 756.043 276.01 757.256 274.33C758.47 272.603 760.196 271.25 762.436 270.27C764.723 269.29 767.336 268.8 770.276 268.8C774.663 268.8 778.186 269.92 780.846 272.16C783.553 274.353 785 277.363 785.186 281.19H777.206C777.066 279.463 776.366 278.087 775.106 277.06C773.846 276.033 772.143 275.52 769.996 275.52C767.896 275.52 766.286 275.917 765.166 276.71C764.046 277.503 763.486 278.553 763.486 279.86C763.486 280.887 763.86 281.75 764.606 282.45C765.353 283.15 766.263 283.71 767.336 284.13C768.41 284.503 769.996 284.993 772.096 285.6C774.896 286.347 777.183 287.117 778.956 287.91C780.776 288.657 782.34 289.777 783.646 291.27C784.953 292.763 785.63 294.747 785.676 297.22C785.676 299.413 785.07 301.373 783.856 303.1C782.643 304.827 780.916 306.18 778.676 307.16C776.483 308.14 773.893 308.63 770.906 308.63ZM803.609 275.94V297.29C803.609 298.737 803.935 299.787 804.589 300.44C805.289 301.047 806.455 301.35 808.089 301.35H812.989V308H806.689C803.095 308 800.342 307.16 798.429 305.48C796.515 303.8 795.559 301.07 795.559 297.29V275.94H791.009V269.43H795.559V259.84H803.609V269.43H812.989V275.94H803.609ZM847.837 275.94V297.29C847.837 298.737 848.164 299.787 848.817 300.44C849.517 301.047 850.684 301.35 852.317 301.35H857.217V308H850.917C847.324 308 844.571 307.16 842.657 305.48C840.744 303.8 839.787 301.07 839.787 297.29V275.94H835.237V269.43H839.787V259.84H847.837V269.43H857.217V275.94H847.837ZM884.522 268.8C887.462 268.8 890.076 269.43 892.362 270.69C894.696 271.95 896.516 273.817 897.822 276.29C899.176 278.763 899.852 281.75 899.852 285.25V308H891.942V286.44C891.942 282.987 891.079 280.35 889.352 278.53C887.626 276.663 885.269 275.73 882.282 275.73C879.296 275.73 876.916 276.663 875.142 278.53C873.416 280.35 872.552 282.987 872.552 286.44V308H864.572V256.2H872.552V273.91C873.906 272.277 875.609 271.017 877.662 270.13C879.762 269.243 882.049 268.8 884.522 268.8ZM945.381 287.77C945.381 289.217 945.288 290.523 945.101 291.69H915.631C915.865 294.77 917.008 297.243 919.061 299.11C921.115 300.977 923.635 301.91 926.621 301.91C930.915 301.91 933.948 300.113 935.721 296.52H944.331C943.165 300.067 941.041 302.983 937.961 305.27C934.928 307.51 931.148 308.63 926.621 308.63C922.935 308.63 919.621 307.813 916.681 306.18C913.788 304.5 911.501 302.167 909.821 299.18C908.188 296.147 907.371 292.647 907.371 288.68C907.371 284.713 908.165 281.237 909.751 278.25C911.385 275.217 913.648 272.883 916.541 271.25C919.481 269.617 922.841 268.8 926.621 268.8C930.261 268.8 933.505 269.593 936.351 271.18C939.198 272.767 941.415 275.007 943.001 277.9C944.588 280.747 945.381 284.037 945.381 287.77ZM937.051 285.25C937.005 282.31 935.955 279.953 933.901 278.18C931.848 276.407 929.305 275.52 926.271 275.52C923.518 275.52 921.161 276.407 919.201 278.18C917.241 279.907 916.075 282.263 915.701 285.25H937.051ZM1000.05 259.35V265.86H979.398V280.21H995.498V286.72H979.398V308H971.418V259.35H1000.05ZM1042.37 269.43V308H1034.39V303.45C1033.13 305.037 1031.48 306.297 1029.42 307.23C1027.42 308.117 1025.27 308.56 1022.98 308.56C1019.95 308.56 1017.22 307.93 1014.79 306.67C1012.41 305.41 1010.52 303.543 1009.12 301.07C1007.77 298.597 1007.09 295.61 1007.09 292.11V269.43H1015V290.92C1015 294.373 1015.87 297.033 1017.59 298.9C1019.32 300.72 1021.68 301.63 1024.66 301.63C1027.65 301.63 1030.01 300.72 1031.73 298.9C1033.51 297.033 1034.39 294.373 1034.39 290.92V269.43H1042.37ZM1062.21 275.94V297.29C1062.21 298.737 1062.54 299.787 1063.19 300.44C1063.89 301.047 1065.06 301.35 1066.69 301.35H1071.59V308H1065.29C1061.7 308 1058.95 307.16 1057.03 305.48C1055.12 303.8 1054.16 301.07 1054.16 297.29V275.94H1049.61V269.43H1054.16V259.84H1062.21V269.43H1071.59V275.94H1062.21ZM1113.88 269.43V308H1105.9V303.45C1104.64 305.037 1102.98 306.297 1100.93 307.23C1098.92 308.117 1096.77 308.56 1094.49 308.56C1091.45 308.56 1088.72 307.93 1086.3 306.67C1083.92 305.41 1082.03 303.543 1080.63 301.07C1079.27 298.597 1078.6 295.61 1078.6 292.11V269.43H1086.51V290.92C1086.51 294.373 1087.37 297.033 1089.1 298.9C1090.82 300.72 1093.18 301.63 1096.17 301.63C1099.15 301.63 1101.51 300.72 1103.24 298.9C1105.01 297.033 1105.9 294.373 1105.9 290.92V269.43H1113.88ZM1132.39 275.03C1133.55 273.07 1135.09 271.553 1137.01 270.48C1138.97 269.36 1141.28 268.8 1143.94 268.8V277.06H1141.91C1138.78 277.06 1136.4 277.853 1134.77 279.44C1133.18 281.027 1132.39 283.78 1132.39 287.7V308H1124.41V269.43H1132.39V275.03ZM1186.62 287.77C1186.62 289.217 1186.53 290.523 1186.34 291.69H1156.87C1157.1 294.77 1158.25 297.243 1160.3 299.11C1162.35 300.977 1164.87 301.91 1167.86 301.91C1172.15 301.91 1175.19 300.113 1176.96 296.52H1185.57C1184.4 300.067 1182.28 302.983 1179.2 305.27C1176.17 307.51 1172.39 308.63 1167.86 308.63C1164.17 308.63 1160.86 307.813 1157.92 306.18C1155.03 304.5 1152.74 302.167 1151.06 299.18C1149.43 296.147 1148.61 292.647 1148.61 288.68C1148.61 284.713 1149.4 281.237 1150.99 278.25C1152.62 275.217 1154.89 272.883 1157.78 271.25C1160.72 269.617 1164.08 268.8 1167.86 268.8C1171.5 268.8 1174.74 269.593 1177.59 271.18C1180.44 272.767 1182.65 275.007 1184.24 277.9C1185.83 280.747 1186.62 284.037 1186.62 287.77ZM1178.29 285.25C1178.24 282.31 1177.19 279.953 1175.14 278.18C1173.09 276.407 1170.54 275.52 1167.51 275.52C1164.76 275.52 1162.4 276.407 1160.44 278.18C1158.48 279.907 1157.31 282.263 1156.94 285.25H1178.29ZM1207.56 258.65C1212.32 258.65 1216.13 259.957 1218.97 262.57C1221.87 265.183 1223.31 268.753 1223.31 273.28C1223.31 277.993 1221.82 281.54 1218.83 283.92C1215.85 286.3 1211.88 287.49 1206.93 287.49L1206.65 293.02H1199.72L1199.37 282.03H1201.68C1206.21 282.03 1209.66 281.423 1212.04 280.21C1214.47 278.997 1215.68 276.687 1215.68 273.28C1215.68 270.807 1214.96 268.87 1213.51 267.47C1212.11 266.07 1210.15 265.37 1207.63 265.37C1205.11 265.37 1203.13 266.047 1201.68 267.4C1200.24 268.753 1199.51 270.643 1199.51 273.07H1192.02C1192.02 270.27 1192.65 267.773 1193.91 265.58C1195.17 263.387 1196.97 261.683 1199.3 260.47C1201.68 259.257 1204.44 258.65 1207.56 258.65ZM1203.08 308.49C1201.64 308.49 1200.42 308 1199.44 307.02C1198.46 306.04 1197.97 304.827 1197.97 303.38C1197.97 301.933 1198.46 300.72 1199.44 299.74C1200.42 298.76 1201.64 298.27 1203.08 298.27C1204.48 298.27 1205.67 298.76 1206.65 299.74C1207.63 300.72 1208.12 301.933 1208.12 303.38C1208.12 304.827 1207.63 306.04 1206.65 307.02C1205.67 308 1204.48 308.49 1203.08 308.49Z" fill="white"/>
</g>
<path d="M346.676 39.945V44.502H337.611V74H332.025V44.502H322.911V39.945H346.676ZM362.819 44.453V54.449H374.579V59.006H362.819V69.443H376.049V74H357.233V39.896H376.049V44.453H362.819ZM399.05 74.343C396.764 74.343 394.706 73.951 392.876 73.167C391.047 72.3503 389.61 71.207 388.564 69.737C387.519 68.267 386.996 66.552 386.996 64.592H392.974C393.105 66.062 393.677 67.2707 394.689 68.218C395.735 69.1653 397.188 69.639 399.05 69.639C400.978 69.639 402.48 69.1817 403.558 68.267C404.636 67.3197 405.175 66.111 405.175 64.641C405.175 63.4977 404.832 62.5667 404.146 61.848C403.493 61.1293 402.66 60.574 401.647 60.182C400.667 59.79 399.295 59.3653 397.531 58.908C395.31 58.32 393.497 57.732 392.092 57.144C390.72 56.5233 389.544 55.576 388.564 54.302C387.584 53.028 387.094 51.3293 387.094 49.206C387.094 47.246 387.584 45.531 388.564 44.061C389.544 42.591 390.916 41.464 392.68 40.68C394.444 39.896 396.486 39.504 398.805 39.504C402.105 39.504 404.8 40.337 406.89 42.003C409.014 43.6363 410.19 45.8903 410.418 48.765H404.244C404.146 47.5237 403.558 46.462 402.48 45.58C401.402 44.698 399.981 44.257 398.217 44.257C396.617 44.257 395.31 44.6653 394.297 45.482C393.285 46.2987 392.778 47.4747 392.778 49.01C392.778 50.0553 393.089 50.921 393.709 51.607C394.363 52.2603 395.179 52.783 396.159 53.175C397.139 53.567 398.479 53.9917 400.177 54.449C402.431 55.0697 404.261 55.6903 405.665 56.311C407.103 56.9317 408.311 57.8953 409.291 59.202C410.304 60.476 410.81 62.191 410.81 64.347C410.81 66.0783 410.337 67.7117 409.389 69.247C408.475 70.7823 407.119 72.0237 405.322 72.971C403.558 73.8857 401.468 74.343 399.05 74.343ZM444.303 39.945V44.502H435.238V74H429.652V44.502H420.538V39.945H444.303ZM482.839 74H477.253L460.446 48.569V74H454.86V39.896H460.446L477.253 65.278V39.896H482.839V74ZM500.66 44.453V54.449H512.42V59.006H500.66V69.443H513.89V74H495.074V39.896H513.89V44.453H500.66ZM547.672 39.945V44.502H538.607V74H533.021V44.502H523.907V39.945H547.672ZM581.443 39.945V74H575.857V39.945H581.443ZM621.656 74H616.07L599.263 48.569V74H593.677V39.896H599.263L616.07 65.278V39.896H621.656V74ZM675.334 50.088C675.334 51.8193 674.926 53.4527 674.109 54.988C673.293 56.5233 671.986 57.781 670.189 58.761C668.393 59.7083 666.09 60.182 663.28 60.182H657.106V74H651.52V39.945H663.28C665.894 39.945 668.099 40.4023 669.895 41.317C671.725 42.199 673.08 43.4077 673.962 44.943C674.877 46.4783 675.334 48.1933 675.334 50.088ZM663.28 55.625C665.404 55.625 666.988 55.1513 668.033 54.204C669.079 53.224 669.601 51.852 669.601 50.088C669.601 46.364 667.494 44.502 663.28 44.502H657.106V55.625H663.28ZM703.251 74L695.411 60.378H691.148V74H685.562V39.945H697.322C699.935 39.945 702.14 40.4023 703.937 41.317C705.766 42.2317 707.122 43.4567 708.004 44.992C708.919 46.5273 709.376 48.2423 709.376 50.137C709.376 52.3583 708.723 54.3837 707.416 56.213C706.142 58.0097 704.166 59.2347 701.487 59.888L709.915 74H703.251ZM691.148 55.919H697.322C699.413 55.919 700.981 55.3963 702.026 54.351C703.104 53.3057 703.643 51.901 703.643 50.137C703.643 48.373 703.12 47.001 702.075 46.021C701.03 45.0083 699.445 44.502 697.322 44.502H691.148V55.919ZM736.955 74.343C733.786 74.343 730.863 73.608 728.184 72.138C725.538 70.6353 723.431 68.561 721.863 65.915C720.328 63.2363 719.56 60.231 719.56 56.899C719.56 53.567 720.328 50.578 721.863 47.932C723.431 45.286 725.538 43.228 728.184 41.758C730.863 40.2553 733.786 39.504 736.955 39.504C740.156 39.504 743.08 40.2553 745.726 41.758C748.405 43.228 750.512 45.286 752.047 47.932C753.582 50.578 754.35 53.567 754.35 56.899C754.35 60.231 753.582 63.2363 752.047 65.915C750.512 68.561 748.405 70.6353 745.726 72.138C743.08 73.608 740.156 74.343 736.955 74.343ZM736.955 69.492C739.209 69.492 741.218 68.9857 742.982 67.973C744.746 66.9277 746.118 65.4577 747.098 63.563C748.111 61.6357 748.617 59.4143 748.617 56.899C748.617 54.3837 748.111 52.1787 747.098 50.284C746.118 48.3893 744.746 46.9357 742.982 45.923C741.218 44.9103 739.209 44.404 736.955 44.404C734.701 44.404 732.692 44.9103 730.928 45.923C729.164 46.9357 727.776 48.3893 726.763 50.284C725.783 52.1787 725.293 54.3837 725.293 56.899C725.293 59.4143 725.783 61.6357 726.763 63.563C727.776 65.4577 729.164 66.9277 730.928 67.973C732.692 68.9857 734.701 69.492 736.955 69.492ZM789.394 49.745C788.512 48.0463 787.287 46.7723 785.719 45.923C784.151 45.041 782.338 44.6 780.28 44.6C778.026 44.6 776.017 45.1063 774.253 46.119C772.489 47.1317 771.1 48.569 770.088 50.431C769.108 52.293 768.618 54.449 768.618 56.899C768.618 59.349 769.108 61.5213 770.088 63.416C771.1 65.278 772.489 66.7153 774.253 67.728C776.017 68.7407 778.026 69.247 780.28 69.247C783.318 69.247 785.784 68.3977 787.679 66.699C789.573 65.0003 790.733 62.6973 791.158 59.79H778.369V55.331H797.136V59.692C796.776 62.338 795.829 64.7717 794.294 66.993C792.791 69.2143 790.815 70.9947 788.365 72.334C785.947 73.6407 783.252 74.294 780.28 74.294C777.078 74.294 774.155 73.559 771.509 72.089C768.863 70.5863 766.756 68.512 765.188 65.866C763.652 63.22 762.885 60.231 762.885 56.899C762.885 53.567 763.652 50.578 765.188 47.932C766.756 45.286 768.863 43.228 771.509 41.758C774.187 40.2553 777.111 39.504 780.28 39.504C783.906 39.504 787.123 40.4023 789.933 42.199C792.775 43.963 794.833 46.4783 796.107 49.745H789.394ZM825.234 74L817.394 60.378H813.131V74H807.545V39.945H819.305C821.918 39.945 824.123 40.4023 825.92 41.317C827.749 42.2317 829.105 43.4567 829.987 44.992C830.902 46.5273 831.359 48.2423 831.359 50.137C831.359 52.3583 830.706 54.3837 829.399 56.213C828.125 58.0097 826.149 59.2347 823.47 59.888L831.898 74H825.234ZM813.131 55.919H819.305C821.396 55.919 822.964 55.3963 824.009 54.351C825.087 53.3057 825.626 51.901 825.626 50.137C825.626 48.373 825.103 47.001 824.058 46.021C823.013 45.0083 821.428 44.502 819.305 44.502H813.131V55.919ZM848.991 44.453V54.449H860.751V59.006H848.991V69.443H862.221V74H843.405V39.896H862.221V44.453H848.991ZM885.222 74.343C882.936 74.343 880.878 73.951 879.048 73.167C877.219 72.3503 875.782 71.207 874.736 69.737C873.691 68.267 873.168 66.552 873.168 64.592H879.146C879.277 66.062 879.849 67.2707 880.861 68.218C881.907 69.1653 883.36 69.639 885.222 69.639C887.15 69.639 888.652 69.1817 889.73 68.267C890.808 67.3197 891.347 66.111 891.347 64.641C891.347 63.4977 891.004 62.5667 890.318 61.848C889.665 61.1293 888.832 60.574 887.819 60.182C886.839 59.79 885.467 59.3653 883.703 58.908C881.482 58.32 879.669 57.732 878.264 57.144C876.892 56.5233 875.716 55.576 874.736 54.302C873.756 53.028 873.266 51.3293 873.266 49.206C873.266 47.246 873.756 45.531 874.736 44.061C875.716 42.591 877.088 41.464 878.852 40.68C880.616 39.896 882.658 39.504 884.977 39.504C888.277 39.504 890.972 40.337 893.062 42.003C895.186 43.6363 896.362 45.8903 896.59 48.765H890.416C890.318 47.5237 889.73 46.462 888.652 45.58C887.574 44.698 886.153 44.257 884.389 44.257C882.789 44.257 881.482 44.6653 880.469 45.482C879.457 46.2987 878.95 47.4747 878.95 49.01C878.95 50.0553 879.261 50.921 879.881 51.607C880.535 52.2603 881.351 52.783 882.331 53.175C883.311 53.567 884.651 53.9917 886.349 54.449C888.603 55.0697 890.433 55.6903 891.837 56.311C893.275 56.9317 894.483 57.8953 895.463 59.202C896.476 60.476 896.982 62.191 896.982 64.347C896.982 66.0783 896.509 67.7117 895.561 69.247C894.647 70.7823 893.291 72.0237 891.494 72.971C889.73 73.8857 887.64 74.343 885.222 74.343ZM919.695 74.343C917.408 74.343 915.35 73.951 913.521 73.167C911.691 72.3503 910.254 71.207 909.209 69.737C908.163 68.267 907.641 66.552 907.641 64.592H913.619C913.749 66.062 914.321 67.2707 915.334 68.218C916.379 69.1653 917.833 69.639 919.695 69.639C921.622 69.639 923.125 69.1817 924.203 68.267C925.281 67.3197 925.82 66.111 925.82 64.641C925.82 63.4977 925.477 62.5667 924.791 61.848C924.137 61.1293 923.304 60.574 922.292 60.182C921.312 59.79 919.94 59.3653 918.176 58.908C915.954 58.32 914.141 57.732 912.737 57.144C911.365 56.5233 910.189 55.576 909.209 54.302C908.229 53.028 907.739 51.3293 907.739 49.206C907.739 47.246 908.229 45.531 909.209 44.061C910.189 42.591 911.561 41.464 913.325 40.68C915.089 39.896 917.13 39.504 919.45 39.504C922.749 39.504 925.444 40.337 927.535 42.003C929.658 43.6363 930.834 45.8903 931.063 48.765H924.889C924.791 47.5237 924.203 46.462 923.125 45.58C922.047 44.698 920.626 44.257 918.862 44.257C917.261 44.257 915.954 44.6653 914.942 45.482C913.929 46.2987 913.423 47.4747 913.423 49.01C913.423 50.0553 913.733 50.921 914.354 51.607C915.007 52.2603 915.824 52.783 916.804 53.175C917.784 53.567 919.123 53.9917 920.822 54.449C923.076 55.0697 924.905 55.6903 926.31 56.311C927.747 56.9317 928.956 57.8953 929.936 59.202C930.948 60.476 931.455 62.191 931.455 64.347C931.455 66.0783 930.981 67.7117 930.034 69.247C929.119 70.7823 927.763 72.0237 925.967 72.971C924.203 73.8857 922.112 74.343 919.695 74.343ZM949.953 39.945L949.316 63.71H944.661L944.024 39.945H949.953ZM947.16 74.343C946.147 74.343 945.298 74 944.612 73.314C943.926 72.628 943.583 71.7787 943.583 70.766C943.583 69.7533 943.926 68.904 944.612 68.218C945.298 67.532 946.147 67.189 947.16 67.189C948.14 67.189 948.973 67.532 949.659 68.218C950.345 68.904 950.688 69.7533 950.688 70.766C950.688 71.7787 950.345 72.628 949.659 73.314C948.973 74 948.14 74.343 947.16 74.343Z" fill="white"/>
<path d="M123 114L1155 114" stroke="white" stroke-width="2" stroke-miterlimit="10"/>
<path d="M850.764 371.29C853.288 371.29 855.494 371.779 857.382 372.757C859.293 373.712 860.76 375.099 861.783 376.919C862.829 378.716 863.352 380.819 863.352 383.23C863.352 385.641 862.829 387.733 861.783 389.507C860.76 391.281 859.293 392.646 857.382 393.601C855.494 394.534 853.288 395 850.764 395H843.02V371.29H850.764ZM850.764 391.827C853.538 391.827 855.665 391.077 857.143 389.576C858.622 388.075 859.361 385.959 859.361 383.23C859.361 380.478 858.622 378.329 857.143 376.782C855.665 375.236 853.538 374.463 850.764 374.463H846.909V391.827H850.764ZM871.096 374.428V381.388H879.284V384.561H871.096V391.827H880.307V395H867.207V371.256H880.307V374.428H871.096ZM895.98 383.162L903.349 395H898.982L893.626 386.403L888.611 395H884.279L891.648 383.162L884.245 371.29H888.611L894.002 379.955L899.051 371.29H903.383L895.98 383.162ZM934.801 395L931.867 392.066C930.73 393.203 929.49 394.056 928.148 394.625C926.806 395.171 925.305 395.443 923.645 395.443C921.962 395.443 920.472 395.148 919.176 394.557C917.88 393.965 916.879 393.124 916.174 392.032C915.469 390.918 915.116 389.633 915.116 388.177C915.116 386.539 915.583 385.084 916.515 383.81C917.447 382.514 918.835 381.49 920.677 380.74C920.018 379.944 919.551 379.205 919.278 378.522C919.005 377.817 918.869 377.044 918.869 376.202C918.869 375.156 919.131 374.224 919.654 373.405C920.199 372.586 920.973 371.938 921.973 371.46C922.974 370.983 924.134 370.744 925.453 370.744C926.795 370.744 927.932 371.006 928.865 371.529C929.82 372.029 930.525 372.723 930.98 373.61C931.458 374.497 931.651 375.486 931.56 376.578H927.671C927.693 375.736 927.489 375.088 927.057 374.633C926.625 374.156 926.033 373.917 925.283 373.917C924.532 373.917 923.918 374.144 923.44 374.599C922.986 375.031 922.758 375.566 922.758 376.202C922.758 376.817 922.929 377.431 923.27 378.045C923.634 378.636 924.259 379.409 925.146 380.365L931.423 386.608L933.846 382.616H938.042L934.971 387.87L934.119 389.269L939.884 395H934.801ZM923.645 392.134C925.783 392.134 927.671 391.259 929.308 389.507L923.031 383.196C920.347 384.265 919.005 385.88 919.005 388.04C919.005 389.2 919.438 390.178 920.302 390.974C921.166 391.748 922.28 392.134 923.645 392.134ZM955.185 391.861H963.202V395H951.296V371.29H955.185V391.861ZM980.749 390.156H970.821L969.116 395H965.056L973.551 371.256H978.054L986.548 395H982.455L980.749 390.156ZM979.657 386.983L975.802 375.964L971.913 386.983H979.657ZM994.097 371.29V386.403C994.097 388.2 994.563 389.553 995.496 390.463C996.451 391.372 997.77 391.827 999.453 391.827C1001.16 391.827 1002.48 391.372 1003.41 390.463C1004.37 389.553 1004.84 388.2 1004.84 386.403V371.29H1008.73V386.335C1008.73 388.268 1008.31 389.905 1007.47 391.247C1006.63 392.589 1005.5 393.59 1004.09 394.249C1002.68 394.909 1001.12 395.239 999.419 395.239C997.713 395.239 996.155 394.909 994.745 394.249C993.358 393.59 992.255 392.589 991.436 391.247C990.617 389.905 990.208 388.268 990.208 386.335V371.29H994.097ZM1033.28 395H1029.39L1017.69 377.294V395H1013.8V371.256H1017.69L1029.39 388.927V371.256H1033.28V395ZM1037.09 383.094C1037.09 380.774 1037.62 378.693 1038.69 376.851C1039.78 375.008 1041.25 373.576 1043.09 372.552C1044.96 371.506 1046.99 370.983 1049.2 370.983C1051.72 370.983 1053.96 371.608 1055.92 372.859C1057.9 374.087 1059.33 375.839 1060.22 378.113H1055.54C1054.93 376.862 1054.08 375.93 1052.98 375.315C1051.89 374.701 1050.63 374.394 1049.2 374.394C1047.63 374.394 1046.23 374.747 1045 375.452C1043.77 376.157 1042.81 377.169 1042.1 378.488C1041.42 379.807 1041.08 381.342 1041.08 383.094C1041.08 384.845 1041.42 386.38 1042.1 387.699C1042.81 389.018 1043.77 390.042 1045 390.77C1046.23 391.475 1047.63 391.827 1049.2 391.827C1050.63 391.827 1051.89 391.52 1052.98 390.906C1054.08 390.292 1054.93 389.36 1055.54 388.109H1060.22C1059.33 390.383 1057.9 392.134 1055.92 393.362C1053.96 394.591 1051.72 395.205 1049.2 395.205C1046.97 395.205 1044.93 394.693 1043.09 393.67C1041.25 392.623 1039.78 391.179 1038.69 389.337C1037.62 387.495 1037.09 385.414 1037.09 383.094ZM1083.7 371.29V395H1079.81V384.629H1068.66V395H1064.77V371.29H1068.66V381.456H1079.81V371.29H1083.7ZM1105.4 378.352C1105.4 379.557 1105.12 380.694 1104.55 381.763C1103.98 382.832 1103.07 383.708 1101.82 384.39C1100.57 385.05 1098.97 385.379 1097.01 385.379H1092.71V395H1088.82V371.29H1097.01C1098.83 371.29 1100.37 371.608 1101.62 372.245C1102.89 372.859 1103.83 373.701 1104.45 374.77C1105.09 375.839 1105.4 377.033 1105.4 378.352ZM1097.01 382.207C1098.49 382.207 1099.59 381.877 1100.32 381.217C1101.05 380.535 1101.41 379.58 1101.41 378.352C1101.41 375.759 1099.94 374.463 1097.01 374.463H1092.71V382.207H1097.01ZM1123.41 390.156H1113.48L1111.77 395H1107.71L1116.21 371.256H1120.71L1129.21 395H1125.11L1123.41 390.156ZM1122.32 386.983L1118.46 375.964L1114.57 386.983H1122.32ZM1140.64 371.29C1143.17 371.29 1145.38 371.779 1147.26 372.757C1149.17 373.712 1150.64 375.099 1151.66 376.919C1152.71 378.716 1153.23 380.819 1153.23 383.23C1153.23 385.641 1152.71 387.733 1151.66 389.507C1150.64 391.281 1149.17 392.646 1147.26 393.601C1145.38 394.534 1143.17 395 1140.64 395H1132.9V371.29H1140.64ZM1140.64 391.827C1143.42 391.827 1145.55 391.077 1147.02 389.576C1148.5 388.075 1149.24 385.959 1149.24 383.23C1149.24 380.478 1148.5 378.329 1147.02 376.782C1145.55 375.236 1143.42 374.463 1140.64 374.463H1136.79V391.827H1140.64Z" fill="white"/>
<path d="M123 383L805 383" stroke="white" stroke-width="2" stroke-miterlimit="10"/>
<defs>
<filter id="filter0_d_28_341" x="0.740189" y="109.451" width="1275.32" height="269.434" filterUnits="userSpaceOnUse" color-interpolation-filters="sRGB">
<feFlood flood-opacity="0" result="BackgroundImageFix"/>
<feColorMatrix in="SourceAlpha" type="matrix" values="0 0 0 0 0 0 0 0 0 0 0 0 0 0 0 0 0 0 127 0" result="hardAlpha"/>
<feOffset/>
<feGaussianBlur stdDeviation="26.376"/>
<feColorMatrix type="matrix" values="0 0 0 0 1 0 0 0 0 1 0 0 0 0 1 0 0 0 1 0"/>
<feBlend mode="lighten" in2="BackgroundImageFix" result="effect1_dropShadow_28_341"/>
<feBlend mode="normal" in="SourceGraphic" in2="effect1_dropShadow_28_341" result="shape"/>
</filter>
</defs>
</svg>
