<svg width="534" height="148" viewBox="0 0 534 148" fill="none" xmlns="http://www.w3.org/2000/svg">
<g filter="url(#filter0_d_106_642)">
<path d="M49.4 78.6H67.32L65.48 89H33.88L43.8 32.84H57.48L49.4 78.6ZM73.285 66.6C74.085 62.0133 75.6583 57.9867 78.005 54.52C80.3517 51.0533 83.1783 48.3867 86.485 46.52C89.7917 44.6533 93.285 43.72 96.965 43.72C100.112 43.72 102.752 44.36 104.885 45.64C107.018 46.92 108.565 48.6 109.525 50.68L110.645 44.36H124.325L116.405 89H102.725L103.925 82.68C102.218 84.76 100.058 86.44 97.445 87.72C94.8317 89 91.9517 89.64 88.805 89.64C85.6583 89.64 82.8583 88.92 80.405 87.48C78.005 86.04 76.1383 84.0133 74.805 81.4C73.4717 78.7333 72.805 75.6133 72.805 72.04C72.805 70.3333 72.965 68.52 73.285 66.6ZM106.725 66.68C106.885 65.72 106.965 64.84 106.965 64.04C106.965 61.4267 106.192 59.3733 104.645 57.88C103.152 56.3867 101.232 55.64 98.885 55.64C96.165 55.64 93.685 56.6267 91.445 58.6C89.205 60.52 87.7917 63.1867 87.205 66.6C87.045 67.56 86.965 68.44 86.965 69.24C86.965 71.8533 87.7117 73.9333 89.205 75.48C90.7517 76.9733 92.6717 77.72 94.965 77.72C97.685 77.72 100.165 76.7333 102.405 74.76C104.645 72.7867 106.085 70.0933 106.725 66.68ZM178.222 44.36L170.382 89H156.702L157.742 82.92C155.982 84.8933 153.822 86.4933 151.262 87.72C148.755 88.8933 146.062 89.48 143.182 89.48C138.702 89.48 135.182 88.2267 132.622 85.72C130.062 83.16 128.782 79.6133 128.782 75.08C128.782 73.3733 128.915 71.8267 129.182 70.44L133.822 44.36H147.422L143.182 68.6C143.022 69.4533 142.942 70.28 142.942 71.08C142.942 73.32 143.555 75.0533 144.782 76.28C146.062 77.4533 147.822 78.04 150.062 78.04C152.622 78.04 154.782 77.2933 156.542 75.8C158.355 74.2533 159.555 72.0667 160.142 69.24L164.542 44.36H178.222ZM215.328 43.88C219.808 43.88 223.328 45.1333 225.888 47.64C228.448 50.1467 229.728 53.64 229.728 58.12C229.728 59.6133 229.568 61.2133 229.248 62.92L224.608 89H211.008L215.328 64.76C215.488 63.8533 215.568 63.0533 215.568 62.36C215.568 60.12 214.928 58.3867 213.648 57.16C212.421 55.9333 210.688 55.32 208.448 55.32C205.781 55.32 203.541 56.1467 201.728 57.8C199.915 59.4533 198.741 61.7733 198.208 64.76V64.36L193.888 89H180.208L188.048 44.36H201.728L200.688 50.36C202.448 48.3867 204.581 46.8133 207.088 45.64C209.648 44.4667 212.395 43.88 215.328 43.88ZM235.394 66.68C236.194 62.04 237.848 57.9867 240.354 54.52C242.861 51.0533 245.954 48.3867 249.634 46.52C253.368 44.6533 257.421 43.72 261.794 43.72C267.394 43.72 271.821 45.1867 275.074 48.12C278.328 51.0533 280.061 55.1867 280.274 60.52H265.714C265.128 57.1067 263.048 55.4 259.474 55.4C256.968 55.4 254.808 56.3867 252.994 58.36C251.181 60.28 249.954 63.0533 249.314 66.68C249.101 67.8 248.994 68.9733 248.994 70.2C248.994 72.7067 249.581 74.6267 250.754 75.96C251.928 77.2933 253.528 77.96 255.554 77.96C259.074 77.96 261.714 76.2533 263.474 72.84H278.114C276.034 78.0667 272.834 82.1733 268.514 85.16C264.194 88.1467 259.261 89.64 253.714 89.64C247.954 89.64 243.368 88.0667 239.954 84.92C236.594 81.72 234.914 77.3733 234.914 71.88C234.914 70.2267 235.074 68.4933 235.394 66.68ZM317.912 43.88C322.285 43.88 325.725 45.1333 328.232 47.64C330.792 50.1467 332.072 53.64 332.072 58.12C332.072 59.6133 331.912 61.2133 331.592 62.92L326.952 89H313.352L317.672 64.76C317.832 63.8533 317.912 63.0533 317.912 62.36C317.912 60.12 317.272 58.3867 315.992 57.16C314.765 55.9333 313.032 55.32 310.792 55.32C308.125 55.32 305.885 56.1467 304.072 57.8C302.259 59.4533 301.085 61.7733 300.552 64.76V64.6L296.232 89H282.552L293.032 29.8H306.712L303.112 50.28C304.872 48.3067 307.032 46.76 309.592 45.64C312.152 44.4667 314.925 43.88 317.912 43.88ZM356.858 50.68C358.565 48.6 360.698 46.92 363.258 45.64C365.871 44.36 368.751 43.72 371.898 43.72C376.698 43.72 380.565 45.2933 383.498 48.44C386.485 51.5867 387.978 55.8533 387.978 61.24C387.978 62.8933 387.818 64.68 387.498 66.6C386.698 71.1867 385.125 75.24 382.778 78.76C380.431 82.2267 377.605 84.92 374.298 86.84C370.991 88.7067 367.498 89.64 363.818 89.64C360.725 89.64 358.111 89 355.978 87.72C353.845 86.44 352.271 84.7867 351.258 82.76L346.378 110.28H332.698L344.298 44.36H357.978L356.858 50.68ZM373.658 66.6C373.818 65.6933 373.898 64.8667 373.898 64.12C373.898 61.4533 373.125 59.3733 371.578 57.88C370.085 56.3867 368.165 55.64 365.818 55.64C363.098 55.64 360.618 56.6267 358.378 58.6C356.138 60.5733 354.698 63.2667 354.058 66.68C353.898 67.64 353.818 68.52 353.818 69.32C353.818 71.9333 354.565 73.9867 356.058 75.48C357.551 76.9733 359.471 77.72 361.818 77.72C364.538 77.72 367.018 76.7333 369.258 74.76C371.551 72.7333 373.018 70.0133 373.658 66.6ZM392.035 66.6C392.835 62.0133 394.408 57.9867 396.755 54.52C399.102 51.0533 401.928 48.3867 405.235 46.52C408.542 44.6533 412.035 43.72 415.715 43.72C418.862 43.72 421.502 44.36 423.635 45.64C425.768 46.92 427.315 48.6 428.275 50.68L429.395 44.36H443.075L435.155 89H421.475L422.675 82.68C420.968 84.76 418.808 86.44 416.195 87.72C413.582 89 410.702 89.64 407.555 89.64C404.408 89.64 401.608 88.92 399.155 87.48C396.755 86.04 394.888 84.0133 393.555 81.4C392.222 78.7333 391.555 75.6133 391.555 72.04C391.555 70.3333 391.715 68.52 392.035 66.6ZM425.475 66.68C425.635 65.72 425.715 64.84 425.715 64.04C425.715 61.4267 424.942 59.3733 423.395 57.88C421.902 56.3867 419.982 55.64 417.635 55.64C414.915 55.64 412.435 56.6267 410.195 58.6C407.955 60.52 406.542 63.1867 405.955 66.6C405.795 67.56 405.715 68.44 405.715 69.24C405.715 71.8533 406.462 73.9333 407.955 75.48C409.502 76.9733 411.422 77.72 413.715 77.72C416.435 77.72 418.915 76.7333 421.155 74.76C423.395 72.7867 424.835 70.0933 425.475 66.68ZM446.332 66.6C447.132 62.0133 448.705 57.9867 451.052 54.52C453.399 51.0533 456.225 48.3867 459.532 46.52C462.839 44.6533 466.332 43.72 470.012 43.72C472.945 43.72 475.505 44.3333 477.692 45.56C479.932 46.7867 481.559 48.44 482.572 50.52L486.252 29.8H499.932L489.452 89H475.772L476.892 82.6C475.185 84.7333 473.052 86.44 470.492 87.72C467.932 89 465.079 89.64 461.932 89.64C458.785 89.64 455.985 88.92 453.532 87.48C451.132 86.04 449.239 83.9867 447.852 81.32C446.519 78.6533 445.852 75.5333 445.852 71.96C445.852 70.3067 446.012 68.52 446.332 66.6ZM479.772 66.68C479.932 65.72 480.012 64.84 480.012 64.04C480.012 61.4267 479.239 59.3733 477.692 57.88C476.199 56.3867 474.279 55.64 471.932 55.64C469.212 55.64 466.732 56.6267 464.492 58.6C462.252 60.52 460.839 63.1867 460.252 66.6C460.092 67.56 460.012 68.44 460.012 69.24C460.012 71.8533 460.759 73.9333 462.252 75.48C463.799 76.9733 465.719 77.72 468.012 77.72C470.732 77.72 473.212 76.7333 475.452 74.76C477.692 72.7867 479.132 70.0933 479.772 66.68Z" fill="white"/>
</g>
<defs>
<filter id="filter0_d_106_642" x="0.482811" y="0.396873" width="532.847" height="147.284" filterUnits="userSpaceOnUse" color-interpolation-filters="sRGB">
<feFlood flood-opacity="0" result="BackgroundImageFix"/>
<feColorMatrix in="SourceAlpha" type="matrix" values="0 0 0 0 0 0 0 0 0 0 0 0 0 0 0 0 0 0 127 0" result="hardAlpha"/>
<feOffset dy="4"/>
<feGaussianBlur stdDeviation="16.7"/>
<feComposite in2="hardAlpha" operator="out"/>
<feColorMatrix type="matrix" values="0 0 0 0 1 0 0 0 0 0.958886 0 0 0 0 0.958886 0 0 0 0.49 0"/>
<feBlend mode="normal" in2="BackgroundImageFix" result="effect1_dropShadow_106_642"/>
<feBlend mode="normal" in="SourceGraphic" in2="effect1_dropShadow_106_642" result="shape"/>
</filter>
</defs>
</svg>
