<svg width="1624" height="175" viewBox="0 0 1624 175" fill="none" xmlns="http://www.w3.org/2000/svg">
<g filter="url(#filter0_d_29_865)">
<path d="M72.1693 44.4987C68.8156 44.2933 66.3516 44.7724 64.7773 45.936C63.2716 47.0995 62.2449 49.1871 61.6973 52.1987L61.5947 52.712H71.04L68.4733 67.2907H59.028L51.5333 110H33.8747L41.3693 67.2907H35.004L37.5707 52.712H43.936L44.244 51.0693C45.5444 44.0195 48.5218 38.6809 53.176 35.0533C57.8987 31.3573 64.1613 29.5093 71.964 29.5093C73.196 29.5093 74.12 29.5435 74.736 29.612L72.1693 44.4987ZM95.3054 110.821C90.3774 110.821 85.997 109.829 82.1641 107.844C78.3312 105.859 75.3539 103.053 73.2321 99.4253C71.1788 95.7978 70.1521 91.5884 70.1521 86.7973C70.1521 80.2951 71.6921 74.3747 74.7721 69.036C77.8521 63.6973 82.0957 59.5222 87.5028 56.5107C92.9099 53.4307 98.933 51.8907 105.572 51.8907C110.5 51.8907 114.881 52.9173 118.713 54.9707C122.615 56.9556 125.626 59.7618 127.748 63.3893C129.87 67.0169 130.931 71.2262 130.931 76.0173C130.931 82.588 129.357 88.5427 126.208 93.8813C123.128 99.1516 118.85 103.292 113.375 106.304C107.968 109.316 101.945 110.821 95.3054 110.821ZM97.7694 95.7293C100.644 95.7293 103.211 94.8738 105.469 93.1627C107.797 91.3831 109.576 89.1244 110.808 86.3867C112.109 83.5804 112.759 80.6716 112.759 77.66C112.759 74.2378 111.835 71.6027 109.987 69.7547C108.139 67.9067 105.812 66.9827 103.005 66.9827C100.062 66.9827 97.4614 67.8724 95.2028 69.652C93.0125 71.3631 91.3014 73.6218 90.0694 76.428C88.8374 79.2342 88.2214 82.1773 88.2214 85.2573C88.2214 88.6111 89.1112 91.212 90.8908 93.06C92.6703 94.8396 94.9632 95.7293 97.7694 95.7293ZM160.265 63.0813C162.934 59.6591 165.98 56.9898 169.402 55.0733C172.893 53.0884 176.52 52.096 180.285 52.096L176.999 70.6787H172.174C167.793 70.6787 164.337 71.6369 161.805 73.5533C159.272 75.4013 157.595 78.6867 156.774 83.4093L152.051 110H134.495L144.557 52.712H162.113L160.265 63.0813ZM265.722 61.1307C265.037 65.3058 263.429 69.1387 260.896 72.6293C258.364 76.0516 254.907 78.8236 250.527 80.9453C246.215 83.0671 241.116 84.128 235.23 84.128H224.347L219.727 110H202.171L214.902 37.928H243.34C250.869 37.928 256.55 39.6049 260.383 42.9587C264.216 46.244 266.132 50.7271 266.132 56.408C266.132 58.1191 265.995 59.6933 265.722 61.1307ZM236.256 70.3707C242.827 70.3707 246.694 67.2907 247.858 61.1307C247.995 60.0356 248.063 59.2484 248.063 58.7693C248.063 56.5791 247.344 54.9022 245.907 53.7387C244.538 52.5067 242.416 51.8907 239.542 51.8907H229.994L226.811 70.3707H236.256ZM296.524 37.928L283.793 110H266.237L278.968 37.928H296.524ZM343.537 74.272L361.093 110H340.663L329.883 87.9267L313.045 110H293.128L322.696 73.348L305.345 37.928H325.776L336.453 59.6933L352.983 37.928H372.9L343.537 74.272ZM433.457 61.1307C432.773 65.3058 431.164 69.1387 428.632 72.6293C426.1 76.0516 422.643 78.8236 418.263 80.9453C413.951 83.0671 408.852 84.128 402.965 84.128H392.083L387.463 110H369.907L382.637 37.928H411.076C418.605 37.928 424.286 39.6049 428.119 42.9587C431.952 46.244 433.868 50.7271 433.868 56.408C433.868 58.1191 433.731 59.6933 433.457 61.1307ZM403.992 70.3707C410.563 70.3707 414.43 67.2907 415.593 61.1307C415.73 60.0356 415.799 59.2484 415.799 58.7693C415.799 56.5791 415.08 54.9022 413.643 53.7387C412.274 52.5067 410.152 51.8907 407.277 51.8907H397.729L394.547 70.3707H403.992ZM461.796 51.788L459.229 66.7773H482.74L480.378 80.0213H456.868L453.993 96.14H480.584L478.12 110H433.973L446.704 37.928H490.85L488.386 51.788H461.796ZM509.435 96.6533H532.432L530.071 110H489.517L502.248 37.928H519.804L509.435 96.6533ZM556.103 37.928H574.07L557.746 65.4427H545.939L556.103 37.928ZM599.372 110.719C591.57 110.719 585.204 109.042 580.276 105.688C575.417 102.266 572.987 97.4404 572.987 91.212C572.987 90.596 573.055 89.672 573.192 88.44H591.467C591.262 91.0409 591.878 93.0942 593.315 94.6C594.752 96.1058 596.943 96.8587 599.886 96.8587C602.555 96.8587 604.643 96.2769 606.148 95.1133C607.723 93.9498 608.51 92.3071 608.51 90.1853C608.51 87.9951 607.517 86.2156 605.532 84.8467C603.616 83.4778 600.604 81.9378 596.498 80.2267C592.528 78.584 589.277 77.044 586.744 75.6067C584.28 74.1009 582.124 72.0818 580.276 69.5493C578.428 67.0169 577.504 63.8342 577.504 60.0013C577.436 55.2787 578.599 51.172 580.995 47.6813C583.391 44.1907 586.71 41.5213 590.954 39.6733C595.197 37.8253 600.057 36.9013 605.532 36.9013C610.46 36.9013 614.841 37.6884 618.674 39.2627C622.507 40.7684 625.484 42.9929 627.606 45.936C629.727 48.8107 630.788 52.2329 630.788 56.2027C630.788 57.2293 630.754 57.9822 630.686 58.4613H612C612.069 58.1875 612.103 57.7769 612.103 57.2293C612.103 55.3129 611.419 53.7729 610.05 52.6093C608.749 51.3773 606.935 50.7613 604.608 50.7613C602.144 50.7613 600.125 51.3773 598.551 52.6093C597.045 53.7729 596.292 55.3813 596.292 57.4347C596.292 59.488 597.251 61.2333 599.167 62.6707C601.083 64.0396 604.061 65.648 608.099 67.496C612.137 69.344 615.423 71.0551 617.955 72.6293C620.556 74.2036 622.78 76.3253 624.628 78.9947C626.476 81.5956 627.4 84.8124 627.4 88.6453C627.4 92.8889 626.271 96.6876 624.012 100.041C621.754 103.395 618.503 106.03 614.259 107.947C610.015 109.795 605.053 110.719 599.372 110.719ZM698.088 37.928C704.727 37.928 710.442 39.1258 715.233 41.5213C720.093 43.8484 723.789 47.168 726.321 51.48C728.922 55.7235 730.223 60.72 730.223 66.4693C730.223 68.4542 729.983 70.9524 729.504 73.964C728.272 81.0138 725.603 87.2764 721.496 92.752C717.458 98.2276 712.29 102.471 705.993 105.483C699.765 108.494 692.886 110 685.357 110H658.356L671.087 37.928H698.088ZM686.897 95.0107C693.536 95.0107 699.046 93.1627 703.427 89.4667C707.807 85.7707 710.545 80.6031 711.64 73.964C711.982 71.9107 712.153 70.1996 712.153 68.8307C712.153 63.7658 710.613 59.8644 707.533 57.1267C704.453 54.3204 700.073 52.9173 694.392 52.9173H685.973L678.581 95.0107H686.897ZM760.772 51.788L758.206 66.7773H781.716L779.355 80.0213H755.844L752.97 96.14H779.56L777.096 110H732.95L745.68 37.928H789.827L787.363 51.788H760.772ZM835.515 74.272L853.071 110H832.641L821.861 87.9267L805.023 110H785.106L814.674 73.348L797.323 37.928H817.754L828.431 59.6933L844.961 37.928H864.878L835.515 74.272ZM955.46 81.4587C952.448 86.1813 949.608 90.0484 946.938 93.06L961.312 110H940.881L935.337 103.532C927.877 108.597 919.492 111.129 910.184 111.129C902.655 111.129 896.7 109.487 892.32 106.201C888.008 102.848 885.852 98.3302 885.852 92.6493C885.852 87.2422 887.597 82.4169 891.088 78.1733C894.647 73.9298 899.369 70.5418 905.256 68.0093C903.134 64.724 902.073 61.5071 902.073 58.3587C902.073 54.1836 903.168 50.4876 905.358 47.2707C907.549 43.9853 910.594 41.4529 914.496 39.6733C918.397 37.8938 922.812 37.004 927.74 37.004C933.9 37.004 938.622 38.4071 941.908 41.2133C945.261 44.0196 946.938 47.5787 946.938 51.8907C946.938 52.7804 946.836 53.8071 946.63 54.9707H930.204C930.272 54.6969 930.306 54.2862 930.306 53.7387C930.306 52.4382 929.861 51.4458 928.972 50.7613C928.082 50.0084 926.953 49.632 925.584 49.632C923.736 49.632 922.161 50.248 920.861 51.48C919.561 52.6435 918.91 54.1493 918.91 55.9973C918.91 58.3929 920.279 61.3018 923.017 64.724L937.493 81.8693L939.341 78.9947L944.269 72.5267H961.928L955.46 81.4587ZM913.674 96.9613C918.26 96.9613 922.504 95.6951 926.405 93.1627L913.161 77.66C910.218 79.0289 907.925 80.74 906.282 82.7933C904.64 84.7782 903.818 86.9684 903.818 89.364C903.818 91.6227 904.674 93.4707 906.385 94.908C908.165 96.2769 910.594 96.9613 913.674 96.9613ZM1012.24 96.6533H1035.24L1032.88 110H992.323L1005.05 37.928H1022.61L1012.24 96.6533ZM1042.89 81.2533C1043.92 75.3671 1045.94 70.1996 1048.95 65.7507C1051.96 61.3018 1055.59 57.8796 1059.83 55.484C1064.08 53.0884 1068.56 51.8907 1073.28 51.8907C1077.32 51.8907 1080.71 52.712 1083.45 54.3547C1086.18 55.9973 1088.17 58.1533 1089.4 60.8227L1090.84 52.712H1108.39L1098.23 110H1080.67L1082.21 101.889C1080.02 104.559 1077.25 106.715 1073.9 108.357C1070.54 110 1066.85 110.821 1062.81 110.821C1058.77 110.821 1055.18 109.897 1052.03 108.049C1048.95 106.201 1046.55 103.6 1044.84 100.247C1043.13 96.8244 1042.28 92.8204 1042.28 88.2347C1042.28 86.0444 1042.48 83.7173 1042.89 81.2533ZM1085.81 81.356C1086.01 80.124 1086.12 78.9947 1086.12 77.968C1086.12 74.6142 1085.12 71.9791 1083.14 70.0627C1081.22 68.1462 1078.76 67.188 1075.75 67.188C1072.26 67.188 1069.07 68.4542 1066.2 70.9867C1063.32 73.4507 1061.51 76.8729 1060.76 81.2533C1060.55 82.4853 1060.45 83.6147 1060.45 84.6413C1060.45 87.9951 1061.41 90.6644 1063.32 92.6493C1065.31 94.5658 1067.77 95.524 1070.72 95.524C1074.21 95.524 1077.39 94.2578 1080.26 91.7253C1083.14 89.1929 1084.99 85.7364 1085.81 81.356ZM1177.56 52.712L1167.5 110H1149.94L1151.28 102.197C1149.02 104.73 1146.25 106.783 1142.96 108.357C1139.75 109.863 1136.29 110.616 1132.59 110.616C1126.84 110.616 1122.33 109.008 1119.04 105.791C1115.76 102.505 1114.11 97.9538 1114.11 92.136C1114.11 89.9458 1114.29 87.9609 1114.63 86.1813L1120.58 52.712H1138.04L1132.59 83.82C1132.39 84.9151 1132.29 85.976 1132.29 87.0027C1132.29 89.8773 1133.07 92.1018 1134.65 93.676C1136.29 95.1818 1138.55 95.9347 1141.42 95.9347C1144.71 95.9347 1147.48 94.9764 1149.74 93.06C1152.07 91.0751 1153.61 88.2689 1154.36 84.6413L1160.01 52.712H1177.56ZM1225.18 52.096C1230.93 52.096 1235.45 53.7044 1238.73 56.9213C1242.02 60.1382 1243.66 64.6213 1243.66 70.3707C1243.66 72.2871 1243.46 74.3404 1243.05 76.5307L1237.09 110H1219.64L1225.18 78.892C1225.39 77.7284 1225.49 76.7018 1225.49 75.812C1225.49 72.9373 1224.67 70.7129 1223.03 69.1387C1221.45 67.5644 1219.23 66.7773 1216.35 66.7773C1212.93 66.7773 1210.06 67.8382 1207.73 69.96C1205.4 72.0818 1203.9 75.0591 1203.21 78.892V78.3787L1197.67 110H1180.11L1190.17 52.712H1207.73L1206.39 60.412C1208.65 57.8795 1211.39 55.8604 1214.61 54.3547C1217.89 52.8489 1221.42 52.096 1225.18 52.096ZM1250.93 81.356C1251.96 75.4013 1254.08 70.1996 1257.3 65.7507C1260.52 61.3018 1264.49 57.8796 1269.21 55.484C1274 53.0884 1279.2 51.8907 1284.81 51.8907C1292 51.8907 1297.68 53.7729 1301.86 57.5373C1306.03 61.3018 1308.26 66.6062 1308.53 73.4507H1289.84C1289.09 69.0702 1286.42 66.88 1281.84 66.88C1278.62 66.88 1275.85 68.1462 1273.52 70.6787C1271.19 73.1427 1269.62 76.7018 1268.8 81.356C1268.52 82.7933 1268.39 84.2991 1268.39 85.8733C1268.39 89.0902 1269.14 91.5542 1270.65 93.2653C1272.15 94.9764 1274.2 95.832 1276.81 95.832C1281.32 95.832 1284.71 93.6418 1286.97 89.2613H1305.76C1303.09 95.9689 1298.98 101.239 1293.44 105.072C1287.89 108.905 1281.56 110.821 1274.44 110.821C1267.05 110.821 1261.17 108.802 1256.79 104.764C1252.47 100.657 1250.32 95.0791 1250.32 88.0293C1250.32 85.9076 1250.52 83.6831 1250.93 81.356ZM1356.83 52.096C1362.44 52.096 1366.86 53.7044 1370.08 56.9213C1373.36 60.1382 1375 64.6213 1375 70.3707C1375 72.2871 1374.8 74.3404 1374.39 76.5307L1368.43 110H1350.98L1356.52 78.892C1356.73 77.7284 1356.83 76.7018 1356.83 75.812C1356.83 72.9373 1356.01 70.7129 1354.37 69.1387C1352.79 67.5644 1350.57 66.7773 1347.69 66.7773C1344.27 66.7773 1341.4 67.8382 1339.07 69.96C1336.74 72.0818 1335.24 75.0591 1334.55 78.892V78.6867L1329.01 110H1311.45L1324.9 34.0267H1342.46L1337.84 60.3093C1340.1 57.7769 1342.87 55.792 1346.15 54.3547C1349.44 52.8489 1353 52.096 1356.83 52.096ZM1406.81 60.8227C1409 58.1533 1411.74 55.9973 1415.03 54.3547C1418.38 52.712 1422.08 51.8907 1426.11 51.8907C1432.27 51.8907 1437.24 53.9098 1441 57.948C1444.83 61.9862 1446.75 67.4618 1446.75 74.3747C1446.75 76.4964 1446.54 78.7893 1446.13 81.2533C1445.11 87.1396 1443.09 92.3413 1440.08 96.8587C1437.06 101.308 1433.44 104.764 1429.19 107.228C1424.95 109.624 1420.47 110.821 1415.74 110.821C1411.77 110.821 1408.42 110 1405.68 108.357C1402.94 106.715 1400.93 104.593 1399.63 101.992L1393.36 137.309H1375.81L1390.69 52.712H1408.25L1406.81 60.8227ZM1428.37 81.2533C1428.58 80.0898 1428.68 79.0289 1428.68 78.0707C1428.68 74.6484 1427.69 71.9791 1425.7 70.0627C1423.79 68.1462 1421.32 67.188 1418.31 67.188C1414.82 67.188 1411.64 68.4542 1408.76 70.9867C1405.89 73.5191 1404.04 76.9756 1403.22 81.356C1403.01 82.588 1402.91 83.7173 1402.91 84.744C1402.91 88.0978 1403.87 90.7329 1405.79 92.6493C1407.7 94.5658 1410.17 95.524 1413.18 95.524C1416.67 95.524 1419.85 94.2578 1422.73 91.7253C1425.67 89.1244 1427.55 85.6338 1428.37 81.2533ZM1451.96 81.2533C1452.98 75.3671 1455 70.1996 1458.01 65.7507C1461.02 61.3018 1464.65 57.8796 1468.9 55.484C1473.14 53.0884 1477.62 51.8907 1482.34 51.8907C1486.38 51.8907 1489.77 52.712 1492.51 54.3547C1495.25 55.9973 1497.23 58.1533 1498.46 60.8227L1499.9 52.712H1517.46L1507.29 110H1489.74L1491.28 101.889C1489.09 104.559 1486.31 106.715 1482.96 108.357C1479.61 110 1475.91 110.821 1471.87 110.821C1467.83 110.821 1464.24 109.897 1461.09 108.049C1458.01 106.201 1455.62 103.6 1453.91 100.247C1452.2 96.8244 1451.34 92.8204 1451.34 88.2347C1451.34 86.0444 1451.54 83.7173 1451.96 81.2533ZM1494.87 81.356C1495.08 80.124 1495.18 78.9947 1495.18 77.968C1495.18 74.6142 1494.19 71.9791 1492.2 70.0627C1490.28 68.1462 1487.82 67.188 1484.81 67.188C1481.32 67.188 1478.14 68.4542 1475.26 70.9867C1472.39 73.4507 1470.57 76.8729 1469.82 81.2533C1469.61 82.4853 1469.51 83.6147 1469.51 84.6413C1469.51 87.9951 1470.47 90.6644 1472.39 92.6493C1474.37 94.5658 1476.84 95.524 1479.78 95.524C1483.27 95.524 1486.45 94.2578 1489.33 91.7253C1492.2 89.1929 1494.05 85.7364 1494.87 81.356ZM1521.64 81.2533C1522.66 75.3671 1524.68 70.1996 1527.69 65.7507C1530.71 61.3018 1534.33 57.8796 1538.58 55.484C1542.82 53.0884 1547.3 51.8907 1552.03 51.8907C1555.79 51.8907 1559.08 52.6778 1561.88 54.252C1564.76 55.8262 1566.84 57.948 1568.14 60.6173L1572.87 34.0267H1590.42L1576.97 110H1559.42L1560.86 101.787C1558.67 104.524 1555.93 106.715 1552.64 108.357C1549.36 110 1545.69 110.821 1541.66 110.821C1537.62 110.821 1534.03 109.897 1530.88 108.049C1527.8 106.201 1525.37 103.566 1523.59 100.144C1521.88 96.7218 1521.02 92.7178 1521.02 88.132C1521.02 86.0102 1521.23 83.7173 1521.64 81.2533ZM1564.55 81.356C1564.76 80.124 1564.86 78.9947 1564.86 77.968C1564.86 74.6142 1563.87 71.9791 1561.88 70.0627C1559.97 68.1462 1557.5 67.188 1554.49 67.188C1551 67.188 1547.82 68.4542 1544.94 70.9867C1542.07 73.4507 1540.25 76.8729 1539.5 81.2533C1539.3 82.4853 1539.19 83.6147 1539.19 84.6413C1539.19 87.9951 1540.15 90.6644 1542.07 92.6493C1544.05 94.5658 1546.52 95.524 1549.46 95.524C1552.95 95.524 1556.13 94.2578 1559.01 91.7253C1561.88 89.1929 1563.73 85.7364 1564.55 81.356Z" fill="white"/>
</g>
<defs>
<filter id="filter0_d_29_865" x="0.474998" y="0.107811" width="1623.35" height="174.605" filterUnits="userSpaceOnUse" color-interpolation-filters="sRGB">
<feFlood flood-opacity="0" result="BackgroundImageFix"/>
<feColorMatrix in="SourceAlpha" type="matrix" values="0 0 0 0 0 0 0 0 0 0 0 0 0 0 0 0 0 0 127 0" result="hardAlpha"/>
<feOffset dy="4"/>
<feGaussianBlur stdDeviation="16.7"/>
<feComposite in2="hardAlpha" operator="out"/>
<feColorMatrix type="matrix" values="0 0 0 0 1 0 0 0 0 1 0 0 0 0 1 0 0 0 0.49 0"/>
<feBlend mode="normal" in2="BackgroundImageFix" result="effect1_dropShadow_29_865"/>
<feBlend mode="normal" in="SourceGraphic" in2="effect1_dropShadow_29_865" result="shape"/>
</filter>
</defs>
</svg>
