<svg width="1344" height="158" viewBox="0 0 1344 158" fill="none" xmlns="http://www.w3.org/2000/svg">
<path d="M223.078 157.767C222.322 157.767 221.575 157.474 221.045 156.897L207.316 142.873C206.493 142.037 206.269 140.804 206.736 139.731C207.198 138.669 208.175 138.006 209.289 138.006H215.116C217.63 138.006 219.834 136.057 219.834 133.833C219.834 131.679 217.608 129.789 215.077 129.789H204.008C204.024 129.796 203.952 129.883 203.952 129.979V154.905C203.952 156.475 202.679 157.755 201.117 157.755C199.576 157.755 198.327 156.475 198.327 154.905V129.979C198.327 126.778 200.875 124.173 204.008 124.173H215.077C220.777 124.173 225.415 128.507 225.415 133.833C225.415 138.894 221.199 143.212 216.022 143.668L225.018 152.891C225.612 153.446 225.949 154.238 225.919 155.068C225.893 155.842 225.538 156.566 224.948 157.068C224.415 157.537 223.743 157.767 223.078 157.767ZM301.55 157.755C296.676 157.755 292.861 156.395 290.218 153.711C287.54 150.984 286.177 147.007 286.177 141.885V126.809C286.177 125.239 287.411 123.961 288.924 123.961C290.489 123.961 291.759 125.239 291.759 126.809V141.885C291.759 148.918 294.815 152.054 301.673 152.054C308.615 152.054 311.593 149.01 311.628 141.874V126.809C311.628 125.239 312.883 123.961 314.421 123.961C315.96 123.961 317.212 125.239 317.212 126.809V141.885C317.212 152.119 311.692 157.755 301.673 157.755C301.631 157.755 301.592 157.755 301.55 157.755ZM357.209 157.755C355.647 157.755 354.374 156.475 354.374 154.905V129.765C354.302 129.705 354.256 129.725 354.226 129.771L347.533 140.87C346.523 142.635 344.677 143.708 342.616 143.708C340.616 143.708 338.839 142.675 337.744 140.877L331.074 129.823C331.028 129.745 330.963 129.707 330.951 129.702L330.899 154.905C330.899 156.475 329.628 157.755 328.066 157.755C326.527 157.755 325.275 156.475 325.275 154.905V129.765C325.275 126.564 327.826 123.961 330.961 123.961C332.941 123.961 334.777 125.034 335.871 126.834L342.54 137.888C342.596 137.98 342.635 138.006 342.649 138.011C342.616 137.998 342.713 137.917 342.746 137.866L349.4 126.838C350.511 125.007 352.304 123.961 354.316 123.961C357.449 123.961 360 126.564 360 129.765V154.905C360 156.475 358.747 157.755 357.209 157.755ZM274.852 157.755C273.313 157.755 272.064 156.475 272.064 154.905V126.852C272.064 125.257 273.313 123.961 274.852 123.961C276.416 123.961 277.685 125.257 277.685 126.852V154.905C277.685 156.475 276.416 157.755 274.852 157.755ZM173.344 157.755C162.676 157.755 155.504 150.964 155.504 140.857C155.504 130.909 162.842 123.961 173.344 123.961C184.024 123.961 191.19 130.751 191.19 140.857C191.19 150.964 184.024 157.755 173.344 157.755ZM173.344 129.702C165.696 129.702 161.125 133.873 161.125 140.857C161.125 147.867 165.696 152.054 173.344 152.054C180.999 152.054 185.569 147.867 185.569 140.857C185.569 133.873 180.999 129.702 173.344 129.702ZM136.033 157.755C125.361 157.755 118.188 150.964 118.188 140.857C118.188 130.909 125.526 123.961 136.033 123.961C141.203 123.961 145.632 125.513 148.839 128.451C149.399 128.962 149.726 129.655 149.77 130.409C149.816 131.174 149.564 131.91 149.061 132.484C148.561 133.05 147.871 133.387 147.118 133.432C146.36 133.481 145.632 133.22 145.071 132.705C142.929 130.742 139.805 129.702 136.033 129.702C128.381 129.702 123.816 133.873 123.816 140.857C123.816 147.841 128.381 152.012 136.033 152.012C139.805 152.012 142.929 150.972 145.071 149.01C145.63 148.497 146.353 148.236 147.118 148.282C147.871 148.329 148.557 148.664 149.061 149.23C150.086 150.399 149.989 152.206 148.839 153.261C145.688 156.198 141.257 157.755 136.033 157.755ZM105.571 157.755C103.561 157.755 101.738 156.707 100.691 154.952L85.929 129.803C85.882 129.725 85.8361 129.702 85.8243 129.702L85.7645 154.905C85.7645 156.475 84.5098 157.755 82.9733 157.755C81.41 157.755 80.1393 156.475 80.1393 154.905V129.765C80.1393 126.564 82.6892 123.961 85.8243 123.961C87.8318 123.961 89.6684 125.041 90.748 126.849L105.51 151.996C105.528 152.027 105.564 152.052 105.576 152.054C105.635 152.054 105.675 152.012 105.675 151.949V126.852C105.675 125.23 106.902 123.961 108.466 123.961C110.055 123.961 111.3 125.23 111.3 126.852V151.949C111.3 155.15 108.734 157.755 105.571 157.755ZM55.1621 157.755C44.4883 157.755 37.3168 150.964 37.3168 140.857C37.3168 130.909 44.6538 123.961 55.1621 123.961C65.8359 123.961 73.0063 130.751 73.0063 140.857C73.0063 150.964 65.8359 157.755 55.1621 157.755ZM55.1621 129.702C47.5102 129.702 42.9421 133.873 42.9421 140.857C42.9421 147.867 47.5102 152.054 55.1621 152.054C62.8162 152.054 67.3811 147.867 67.3811 140.857C67.3811 133.873 62.8162 129.702 55.1621 129.702ZM17.8474 157.755C7.17357 157.755 0 150.964 0 140.857C0 130.909 7.34014 123.961 17.8474 123.961C23.0178 123.961 27.447 125.513 30.6558 128.451C31.21 128.962 31.5389 129.655 31.5848 130.409C31.6286 131.174 31.3766 131.91 30.8726 132.484C30.3739 133.05 29.6852 133.387 28.9345 133.432C28.1742 133.481 27.4449 133.22 26.8832 132.705C24.7487 130.742 21.6179 129.702 17.8474 129.702C10.1933 129.702 5.62843 133.873 5.62843 140.857C5.62843 147.841 10.1933 152.012 17.8474 152.012C21.6179 152.012 24.7487 150.972 26.8832 149.01C27.4449 148.497 28.1657 148.236 28.9345 148.282C29.6852 148.329 30.3739 148.664 30.8726 149.23C31.8987 150.399 31.8016 152.206 30.6579 153.261C27.5004 156.198 23.069 157.755 17.8474 157.755ZM246.999 157.584C246.894 157.584 246.786 157.584 246.684 157.584H238.648C235.513 157.584 232.963 154.978 232.963 151.778V129.979C232.963 126.778 235.513 124.173 238.648 124.173H246.687C252.733 124.088 257.367 125.591 260.355 128.605C263.137 131.411 264.543 135.531 264.543 140.857C264.543 146.177 263.139 150.297 260.366 153.105C257.393 156.118 253.015 157.584 246.999 157.584ZM246.862 129.832C246.814 129.832 246.761 129.832 246.705 129.832H238.648C238.648 129.836 238.587 129.892 238.587 129.979V151.778C238.587 151.829 238.644 151.914 238.684 151.932L246.717 151.925C251.337 151.958 254.484 151.062 256.371 149.152C258.088 147.417 258.92 144.705 258.92 140.857C258.92 137.063 258.095 134.377 256.392 132.651C254.528 130.755 251.409 129.832 246.862 129.832Z" fill="#FBFBF9"/>
<path d="M225.398 71.3406H207.551C212.084 65.4614 214.81 58.1148 214.81 50.1161C214.81 42.1079 212.078 34.7534 207.535 28.8698H225.389C228.415 35.3218 230.113 42.5192 230.113 50.1161C230.113 57.7048 228.417 64.8944 225.398 71.3406ZM179.998 71.3406C168.269 71.3406 158.761 61.8341 158.761 50.1067C158.761 38.378 168.269 28.8698 179.998 28.8698C191.727 28.8698 201.234 38.378 201.234 50.1067C201.234 61.8341 191.727 71.3406 179.998 71.3406ZM145.166 50.1161C145.166 69.351 160.755 84.9436 179.988 84.9436C185.15 84.9436 190.031 83.7894 194.437 81.775V98.1097C189.863 99.4835 185.018 100.231 179.998 100.231C152.321 100.231 129.883 77.7941 129.883 50.1161C129.883 22.4377 152.321 0 179.998 0C185.018 0 189.863 0.748096 194.437 2.12183V18.4562C190.031 16.4409 185.15 15.2882 179.988 15.2882C160.755 15.2882 145.166 30.8811 145.166 50.1161Z" fill="#FBFBF9"/>
<g clip-path="url(#clip0_29_953)">
<path d="M527.73 46.3367V47.8842H499.717V52.527H485.711V57.1698H490.38V85.0263H485.711V98.9546H495.048V112.883H485.711V126.811H495.048V136.097H499.717V140.74H504.386V150.025H499.717V154.668H504.386V157.763H513.723V150.025H518.392V140.74H523.061V131.454H527.73V140.74H532.398V145.382H527.73V150.025H541.736V140.74H546.405V126.811H541.736V122.168H537.067V117.526H532.398V108.24H537.067V103.597H546.405V98.9546H551.073V94.3119H555.742V89.6691H560.411V85.0263H551.073V89.6691H546.405V52.527H551.073V47.8842H532.398V44.7891H527.73V46.3367Z" fill="white"/>
<path d="M772.561 66.8466C772.017 67.0788 771.628 67.6591 771.472 68.5103C771.005 71.0251 772.406 72.2632 775.791 72.2632H777.502V93.9294L774.701 93.9681C770.966 93.9681 769.293 94.5871 768.904 95.98C768.515 97.3728 769.021 98.7656 770.071 99.3073C770.538 99.5781 774.507 99.7329 780.693 99.7329C792.248 99.7329 792.404 99.6942 792.209 96.7151C792.092 95.0127 792.014 94.858 790.731 94.4324C789.991 94.1615 788.085 93.9681 786.568 93.9681L783.727 93.9294V80.4267C783.727 68.4716 783.65 66.8853 783.105 66.6919C782.171 66.3437 773.542 66.4597 772.561 66.8466Z" fill="white"/>
<path d="M586.668 76.2058C586.094 76.55 585.547 76.938 585.034 77.3665C584.217 78.1403 584.217 78.1403 583.945 77.3279C583.633 76.2832 582.388 76.0124 579.392 76.2058C576.747 76.3993 575.969 77.0183 575.969 78.9528C575.969 80.5004 576.552 81.429 577.72 81.6998L578.692 81.9319V93.9257L577.758 94.3126C575.93 95.009 575.385 97.6013 576.747 98.9554C577.447 99.6518 578.031 99.7292 581.727 99.7292C586.746 99.7292 587.368 99.381 587.174 96.634C587.057 95.009 586.746 94.6222 585.228 94.1579C584.606 93.9644 584.528 93.3841 584.528 88.8187C584.528 83.2474 584.839 82.1254 586.551 81.1968C587.485 80.6552 587.641 80.6552 588.38 81.3129C589.119 81.9706 589.197 82.4349 589.197 90.4437C589.197 96.4406 589.314 98.9167 589.664 99.2649C590.247 99.8453 595.928 99.8839 596.978 99.3423C598.768 98.4137 598.184 94.9317 596.161 94.2352L594.955 93.8097L595.111 88.5092C595.227 84.4081 595.422 82.9379 595.928 82.2027C596.861 80.7712 598.067 80.5004 599.079 81.5063C599.857 82.2801 599.896 82.8218 600.091 90.9466L600.285 99.5357L603.475 99.6518C607.249 99.7679 608.144 99.4197 608.455 97.6399C608.767 96.0924 608.183 94.7769 606.938 94.3126C606.043 94.0031 606.004 93.8483 605.849 87.2711C605.654 79.7266 605.226 78.2177 602.853 76.6314C600.985 75.3934 597.756 75.4321 595.5 76.7088L593.866 77.6374L592.426 76.7088C590.909 75.6642 588.107 75.3934 586.668 76.2058Z" fill="white"/>
<path d="M619.346 76.2504C615.028 77.6819 611.915 80.4675 610.748 83.9496C609.931 86.4258 610.125 91.1846 611.176 93.1578C613.199 97.0654 616.662 99.3868 621.564 100.161C626.388 100.896 632.769 99.3868 635.298 96.872C636.504 95.6726 636.621 93.5833 635.57 92.6548C634.597 91.7649 634.442 91.8036 630.746 93.4286C627.906 94.7054 627.166 94.8988 624.404 94.8988C621.953 94.8988 621.019 94.744 619.93 94.0863C618.568 93.3125 616.817 91.1459 616.817 90.2174C616.817 89.8691 618.957 89.7144 626.077 89.5983C636.659 89.4822 636.659 89.4436 636.659 86.6579C636.659 83.9883 635.881 82.0538 634.053 79.9646C631.485 77.1402 628.761 75.9795 624.443 75.8635C622.264 75.7861 620.319 75.9408 619.346 76.2504ZM626.077 81.0092C627.594 81.3187 629.501 82.905 629.968 84.2591L630.396 85.4198H623.587C616.273 85.4198 616.195 85.3811 617.556 83.3693C618.529 81.8604 619.618 81.164 621.564 80.8158C623.198 80.5062 623.82 80.5565 626.085 81.0092H626.077Z" fill="white"/>
<path d="M648.872 76.4772C648.309 76.7987 647.797 77.203 647.355 77.6766C647.161 77.9861 646.927 77.8313 646.616 77.2123C646.227 76.4385 645.838 76.3224 643.426 76.2064C641.169 76.129 640.508 76.245 639.768 76.8254C638.018 78.2569 639.029 81.9324 641.169 81.9324C641.597 81.9324 641.714 83.0544 641.714 87.9293C641.714 93.3459 641.636 93.9649 641.052 94.1584C639.457 94.6227 639.185 95.0095 639.068 96.7119C638.873 99.4589 639.379 99.7297 644.476 99.7297C648.211 99.7297 648.795 99.6523 649.495 98.9559C650.857 97.6018 650.312 95.0096 648.483 94.3131C647.55 93.9649 647.55 93.9262 647.55 88.3162C647.55 82.8223 647.588 82.6289 648.522 81.739C649.612 80.617 650.195 80.5396 651.285 81.3134C651.985 81.8164 652.024 82.4741 652.14 90.4829C652.218 96.6732 652.413 99.2267 652.724 99.4202C653.035 99.6136 654.514 99.7297 656.109 99.7297C659.766 99.7297 660.778 99.1493 660.778 97.0988C660.778 95.3578 660.466 94.8548 659.105 94.3518L658.054 93.9262V88.7031C658.054 83.2479 658.443 81.5455 659.805 81.0039C660.817 80.6557 661.128 80.7331 661.945 81.5455C662.684 82.2806 662.723 82.8223 662.723 90.5602C662.723 96.4411 662.84 98.9172 663.19 99.2654C663.462 99.5362 664.863 99.7297 666.808 99.7297C670.426 99.7297 671.282 99.2267 671.282 97.0601C671.282 95.3965 670.738 94.4679 669.532 94.1584L668.559 93.9262V87.6198C668.52 78.2182 667.547 76.1677 662.801 75.8195C660.815 75.6062 658.823 76.1603 657.237 77.367C656.693 77.7153 656.342 77.6379 655.331 76.7867C653.775 75.4713 650.74 75.3552 648.872 76.4772Z" fill="white"/>
<path d="M683.823 76.7431C682.656 77.2848 681.644 78.0199 681.528 78.3681C681.411 78.7163 681.139 78.5228 680.866 77.633L680.438 76.3175L677.52 76.2015C675.731 76.1628 674.252 76.3175 673.669 76.5883C671.49 77.749 671.879 80.999 674.33 81.6954L675.575 82.0436L675.497 93.1089L675.38 104.174L673.513 104.406C671.412 104.638 670.906 105.141 670.906 107.076C670.906 109.591 670.906 109.591 679.038 109.707C686.041 109.823 686.469 109.784 687.208 109.049C687.691 108.527 687.972 107.852 688 107.143C688.029 106.434 687.803 105.739 687.364 105.18C686.819 104.561 686.157 104.368 684.134 104.29L681.605 104.174L681.489 100.769L681.372 97.4034L682.85 98.1772C689.231 101.466 697.362 98.4093 699.541 91.8708C700.28 89.6268 700.397 85.8739 699.736 83.5912C699.074 81.3085 696.701 78.4455 694.211 77.13C692.499 76.2015 691.527 75.9306 688.998 75.8146C686.235 75.6985 685.652 75.7759 683.823 76.7431ZM690.982 82.3531C692.382 83.6299 693.083 85.4096 693.083 87.7697C693.083 91.2518 691.215 93.6892 688.258 94.1922C684.835 94.7338 682.15 92.3351 681.878 88.4661C681.683 85.6417 681.917 84.6358 683.24 83.0882C684.601 81.4633 685.457 81.1537 687.947 81.2698C689.426 81.3859 690.243 81.6567 690.982 82.3531Z" fill="white"/>
<path d="M713.039 76.3018C708.915 77.6559 705.686 80.5576 704.519 84.001C703.663 86.5932 703.935 91.1973 705.063 93.4413C707.631 98.3936 713.895 101.141 720.392 100.135C727.123 99.1287 731.13 95.0276 731.52 88.8759C731.831 83.4207 729.652 79.6678 724.711 77.2303C722.415 76.1083 721.715 75.9535 718.408 75.8762C716.035 75.7872 714.09 75.9419 713.039 76.3018ZM721.793 82.2987C725.256 84.7361 725.567 90.3461 722.415 93.2478C718.992 96.3817 713 94.9502 711.327 90.5783C710.316 87.9474 711.444 83.9236 713.584 82.4147C715.218 81.2927 715.646 81.1767 718.175 81.2927C719.925 81.3585 720.898 81.6293 721.801 82.2871L721.793 82.2987Z" fill="white"/>
<path d="M744.636 76.2504C738.683 78.2235 735.454 82.2473 735.415 87.7025C735.376 91.378 736.349 93.9316 738.528 96.1756C740.706 98.4196 743.158 99.5803 746.698 100.122C753.896 101.244 760.86 97.5297 762.572 91.6876C763.895 87.1995 762.533 81.9764 759.265 79.1521C756.736 76.9468 754.012 75.9795 749.888 75.8635C747.593 75.7861 745.609 75.9408 744.636 76.2504ZM752.845 82.1312C755.802 83.8722 756.891 87.7025 755.374 91.0685C753.662 94.7827 748.993 96.0982 745.414 93.9316C742.107 91.9197 741.446 86.1162 744.169 83.1371C746.192 80.9705 750.044 80.5062 752.845 82.1312Z" fill="white"/>
<path d="M667.277 117.996C666.81 118.382 666.616 119.234 666.538 121.4L666.421 124.302L664.865 124.418C662.958 124.573 662.336 125.076 662.336 126.43C662.336 127.784 662.958 128.287 664.865 128.442L666.421 128.558L666.616 133.239C666.849 138.54 667.277 139.584 669.65 140.59C671.79 141.48 677.12 141.171 679.571 140.01C681.633 139.004 682.373 138.037 682.022 136.644C681.672 135.328 680.272 135.135 677.704 136.064C674.98 137.07 672.802 137.108 671.946 136.18C671.44 135.599 671.284 134.671 671.284 131.924V128.364H674.903C678.832 128.364 679.455 128.094 679.455 126.43C679.455 124.766 678.832 124.495 674.903 124.495H671.284V121.865C671.284 118.769 670.623 117.531 668.989 117.531C668.389 117.546 667.801 117.705 667.277 117.996Z" fill="white"/>
<path d="M788.983 123.113C788.477 123.461 787.855 123.539 786.882 123.307C784.937 122.842 781.085 122.881 779.373 123.345C774.86 124.622 774.16 130.696 778.284 132.824C778.906 133.134 780.929 133.637 782.797 133.985C787.582 134.797 788.983 135.881 787.31 137.39C786.415 138.202 783.419 138.241 781.668 137.506C780.777 137.074 779.973 136.484 779.295 135.765C778.089 134.527 776.844 134.217 776.027 135.03C775.755 135.3 775.56 136.577 775.56 138.086C775.56 141.22 776.105 141.916 778.011 141.22C778.945 140.872 779.957 140.872 781.785 141.181C786.298 141.916 790.695 140.833 792.134 138.628C792.578 137.813 792.856 136.919 792.951 135.997C793.34 132.515 791.356 130.812 785.87 129.923C781.513 129.226 780.618 128.839 780.618 127.795C780.618 125.628 783.886 125.473 787.388 127.408C788.749 128.143 790.111 128.762 790.5 128.762C791.823 128.762 792.407 125.009 791.278 123.423C790.617 122.444 789.994 122.339 788.983 123.113Z" fill="white"/>
<path d="M612.734 123.567C608.96 124.883 606.703 128.094 606.703 132.079C606.742 138.424 612.345 142.371 619.659 141.171C623.9 140.475 626.156 138.966 626.156 136.877C626.156 135.02 625.184 134.826 622.11 136.18C619.776 137.186 619.075 137.341 616.702 137.186C614.251 137.07 613.901 136.915 612.889 135.793C610.827 133.511 611.022 133.395 618.103 133.356C626.429 133.317 626.351 133.317 626.351 130.609C626.351 128.984 626.117 128.133 625.378 127.05C624.132 125.292 622.342 123.987 620.281 123.335C618.414 122.794 614.562 122.91 612.734 123.567ZM618.881 126.972C619.491 127.203 620.047 127.556 620.515 128.008C620.984 128.461 621.354 129.003 621.604 129.603C621.838 130.261 621.449 130.299 616.585 130.299H611.302L612.041 129.023C613.356 126.779 616.274 125.889 618.881 126.984V126.972Z" fill="white"/>
<path d="M643.471 123.569C642.891 123.886 642.355 124.276 641.876 124.73C641.487 125.194 641.37 125.117 641.176 124.304C640.942 123.376 640.787 123.337 638.258 123.337C635.262 123.337 634.328 123.84 634.328 125.503C634.328 126.161 634.678 126.664 635.495 127.128L636.662 127.786V132.158C636.662 136.414 636.662 136.53 635.69 136.878C634.562 137.304 634.095 138.774 634.717 139.935C635.106 140.67 635.456 140.747 639.191 140.747C642.926 140.747 643.277 140.67 643.666 139.935C644.288 138.774 643.821 137.304 642.693 136.878C641.759 136.53 641.72 136.375 641.72 132.893C641.72 128.947 642.07 128.018 643.977 127.245C645.416 126.625 647.05 127.245 647.556 128.56C647.79 129.14 647.945 131.075 647.945 132.932C647.945 136.259 647.945 136.298 646.778 136.956C645.922 137.459 645.611 137.884 645.611 138.735C645.611 140.476 646.195 140.747 650.28 140.747C654.365 140.747 654.948 140.476 654.948 138.735C654.948 137.884 654.637 137.459 653.781 136.956L652.614 136.298V132.236C652.614 127.361 652.225 125.774 650.669 124.304C649.657 123.337 649.112 123.143 647.05 123.066C645.377 122.989 644.288 123.143 643.471 123.569Z" fill="white"/>
<path d="M731.403 123.603C730.496 124.125 729.625 124.707 728.796 125.344L727.317 126.505V125.538C727.317 123.487 727.045 123.332 723.933 123.332C720.587 123.332 719.536 123.758 719.536 125.073C719.536 126.621 719.964 127.162 721.326 127.433L722.649 127.665V136.874H721.092C719.809 136.874 719.458 137.028 719.069 137.841C718.916 138.14 718.836 138.472 718.836 138.808C718.836 139.144 718.916 139.476 719.069 139.775L719.536 140.743H726.469C733.9 140.743 734.328 140.627 734.328 138.808C734.328 137.222 733.667 136.874 730.554 136.874H727.714V130.374L729.271 128.981C731.216 127.24 732.461 126.93 734.173 127.743C736.935 129.02 738.997 128.168 738.997 125.731C738.997 123.913 737.48 122.945 734.756 122.945C733.542 122.984 732.064 123.255 731.403 123.603Z" fill="white"/>
<path d="M752.376 123.567C750.12 124.379 747.746 126.507 746.968 128.442C746.19 130.376 746.151 134.013 746.89 135.793C748.602 139.816 753.66 142.06 759.224 141.17C763.815 140.435 766.266 138.617 765.682 136.373C765.332 134.941 764.67 134.903 761.752 136.18C759.457 137.185 758.757 137.34 756.461 137.185C753.621 137.031 752.648 136.489 751.598 134.477L751.014 133.394H757.434C765.993 133.394 766.577 133.162 766.032 129.602C765.799 128.093 765.449 127.474 763.776 125.849C762.531 124.65 761.13 123.721 760.157 123.412C758.056 122.793 754.36 122.87 752.376 123.567ZM759.496 127.397C760.106 127.868 760.609 128.461 760.974 129.138L761.597 130.299H756.306C753.427 130.299 751.053 130.144 751.053 129.95C751.053 129.293 752.765 127.474 753.932 126.971C755.372 126.314 758.173 126.546 759.496 127.397Z" fill="white"/>
<path d="M578.499 124.274C578.315 124.545 578.198 124.855 578.157 125.18C578.116 125.504 578.152 125.834 578.261 126.142C578.371 126.45 578.551 126.729 578.789 126.955C579.026 127.182 579.313 127.35 579.627 127.446C580.405 127.64 581.028 128.723 583.44 134.101C586.513 141.026 587.214 141.839 589.431 141.297C590.326 141.065 590.91 140.098 593.672 134.372C596.201 129.149 597.096 127.601 597.835 127.408C598.924 127.059 599.314 126.518 599.314 125.28C599.314 123.616 598.652 123.345 594.8 123.345C590.871 123.345 589.976 123.732 589.976 125.473C589.976 126.286 590.599 126.943 592.233 127.794C592.271 127.833 591.532 129.574 590.56 131.702L588.848 135.532L588.225 134.062C587.914 133.25 587.175 131.625 586.669 130.425C585.463 127.795 585.463 127.833 586.669 127.292C587.408 126.943 587.642 126.556 587.642 125.55C587.642 123.577 587.136 123.345 582.895 123.345C579.316 123.334 579.082 123.372 578.499 124.274Z" fill="white"/>
<path d="M690.434 123.793C689.928 124.296 689.812 125.998 690.278 126.656C690.578 126.974 690.952 127.214 691.368 127.352C692.146 127.584 692.224 127.932 692.379 132.343C692.496 136.173 692.691 137.334 693.274 138.379C694.519 140.468 695.842 141.242 698.215 141.242C700.394 141.242 701.639 140.777 703.117 139.462L703.973 138.688V139.694C703.973 140.739 704.012 140.739 706.814 140.739C709.926 140.739 710.587 140.39 710.587 138.804C710.587 137.644 709.926 136.87 708.953 136.87C708.331 136.87 708.253 136.289 708.175 130.176L708.059 123.522H704.946C702.106 123.522 701.834 123.599 701.406 124.412C700.744 125.727 701.172 126.849 702.534 127.352L703.662 127.778L703.507 131.26C703.351 134.974 702.884 136.135 701.367 136.831C700.005 137.45 699.11 137.373 698.099 136.522C697.204 135.825 697.165 135.516 696.97 129.635L696.776 123.522L693.858 123.406C691.912 123.328 690.784 123.444 690.434 123.793Z" fill="white"/>
</g>
<path d="M950.44 100.711C957.743 100.711 963.677 106.644 963.677 113.947C963.677 121.25 957.743 127.183 950.44 127.183C943.137 127.183 937.203 121.25 937.203 113.947C937.203 106.644 943.137 100.711 950.44 100.711Z" fill="#E41513"/>
<path d="M982.163 113.258C982.163 97.0548 967.785 84.0469 951.81 84.0469C935.606 84.0469 921 96.142 921 113.258C921 132.427 936.291 143.61 951.353 144.066H951.125H968.014H978.512H981.935V113.03C982.163 113.03 982.163 113.258 982.163 113.258ZM933.552 113.942C933.552 104.586 941.084 97.0548 950.441 97.0548C959.798 97.0548 967.329 104.586 967.329 113.942C967.329 123.299 959.798 130.83 950.441 130.83C941.084 130.83 933.552 123.299 933.552 113.942Z" fill="white"/>
<path d="M1010.91 100.711H1019.35L1036.01 144.071H1027.34L1023.92 135.171H1006.35L1002.92 144.071H994.25L1010.91 100.711ZM1015.02 112.121L1009.08 126.955H1020.72L1015.02 112.121Z" fill="white"/>
<path d="M1049.48 111.889V115.313C1050.85 113.943 1052.45 112.802 1054.27 112.118C1055.87 111.433 1057.7 110.977 1059.75 110.977C1063.86 110.977 1067.51 112.574 1070.48 115.769C1073.44 118.964 1074.81 123.072 1074.81 127.864C1074.81 132.656 1073.22 136.536 1070.25 139.731C1067.28 142.926 1063.63 144.523 1059.52 144.523C1057.7 144.523 1055.87 144.295 1054.27 143.611C1052.68 142.926 1051.08 142.013 1049.48 140.416V155.477H1041.49V111.889H1049.48ZM1057.92 118.507C1055.41 118.507 1053.36 119.42 1051.53 121.018C1049.94 122.615 1049.02 125.126 1049.02 127.864C1049.02 130.831 1049.94 133.113 1051.53 134.71C1053.13 136.536 1055.41 137.221 1057.92 137.221C1060.43 137.221 1062.49 136.308 1064.09 134.482C1065.68 132.656 1066.6 130.374 1066.6 127.636C1066.6 124.897 1065.68 122.615 1064.09 120.79C1062.49 119.42 1060.43 118.507 1057.92 118.507Z" fill="white"/>
<path d="M1089.19 111.889V115.313C1090.56 113.943 1092.16 112.802 1093.98 112.118C1095.58 111.433 1097.41 110.977 1099.46 110.977C1103.57 110.977 1107.22 112.574 1110.19 115.769C1113.15 118.964 1114.52 123.072 1114.52 127.864C1114.52 132.656 1112.93 136.536 1109.96 139.731C1106.99 142.926 1103.34 144.523 1099.23 144.523C1097.41 144.523 1095.58 144.295 1093.98 143.611C1092.39 142.926 1090.79 142.013 1089.19 140.416V155.477H1081.2V111.889H1089.19ZM1097.64 118.507C1095.12 118.507 1093.07 119.42 1091.24 121.018C1089.65 122.615 1088.73 125.126 1088.73 127.864C1088.73 130.831 1089.65 133.113 1091.24 134.71C1092.84 136.536 1095.12 137.221 1097.64 137.221C1100.15 137.221 1102.2 136.308 1103.8 134.482C1105.39 132.656 1106.31 130.374 1106.31 127.636C1106.31 124.897 1105.39 122.615 1103.8 120.79C1102.2 119.42 1100.15 118.507 1097.64 118.507Z" fill="white"/>
<path d="M1120.23 99.5625H1128.21V144.063H1120.23V99.5625Z" fill="white"/>
<path d="M1138.71 98.8828C1140.08 98.8828 1141.22 99.3392 1142.36 100.252C1143.5 101.393 1143.96 102.534 1143.96 103.903C1143.96 105.273 1143.5 106.642 1142.36 107.555C1141.45 108.696 1140.08 109.152 1138.71 109.152C1137.34 109.152 1135.97 108.696 1135.06 107.555C1133.92 106.414 1133.46 105.273 1133.46 103.675C1133.46 102.306 1133.92 101.165 1135.06 100.024C1135.97 99.3392 1137.11 98.8828 1138.71 98.8828ZM1134.6 111.891H1142.59V143.84H1134.6V111.891Z" fill="white"/>
<path d="M1181.39 118.507L1174.78 122.159C1173.41 120.79 1172.26 119.877 1171.12 119.42C1169.98 118.964 1168.38 118.736 1166.79 118.736C1163.82 118.736 1161.31 119.649 1159.48 121.474C1157.66 123.3 1156.75 125.582 1156.75 128.321C1156.75 131.059 1157.66 133.341 1159.48 134.939C1161.31 136.536 1163.59 137.449 1166.56 137.449C1170.21 137.449 1172.95 136.308 1175 133.798L1181.39 138.134C1177.97 142.698 1173.18 144.752 1166.79 144.752C1161.08 144.752 1156.75 143.154 1153.55 139.731C1150.36 136.308 1148.76 132.428 1148.76 128.092C1148.76 124.897 1149.44 122.159 1151.04 119.42C1152.64 116.91 1154.69 114.856 1157.43 113.259C1160.17 111.661 1163.36 110.977 1166.79 110.977C1169.98 110.977 1172.72 111.661 1175.46 112.802C1177.51 114.4 1179.57 116.225 1181.39 118.507Z" fill="white"/>
<path d="M1209.92 111.889H1217.9V143.839H1209.92V140.416C1208.32 142.013 1206.72 142.926 1205.12 143.611C1203.53 144.295 1201.93 144.523 1200.1 144.523C1196 144.523 1192.34 142.926 1189.38 139.731C1186.41 136.536 1184.81 132.656 1184.81 127.864C1184.81 122.843 1186.18 118.964 1189.15 115.769C1192.12 112.574 1195.54 110.977 1199.88 110.977C1201.93 110.977 1203.53 111.433 1205.35 112.118C1206.95 112.802 1208.55 113.943 1209.92 115.313V111.889ZM1201.47 118.507C1198.96 118.507 1196.91 119.42 1195.31 121.018C1193.71 122.843 1192.8 125.126 1192.8 127.864C1192.8 130.603 1193.71 132.885 1195.31 134.71C1196.91 136.536 1198.96 137.449 1201.47 137.449C1203.98 137.449 1206.04 136.536 1207.63 134.939C1209.23 133.113 1210.15 130.831 1210.15 128.092C1210.15 125.354 1209.23 123.072 1207.63 121.246C1206.27 119.42 1204.21 118.507 1201.47 118.507Z" fill="white"/>
<path d="M1227.26 100.25H1235.25V112.117H1240.04V118.963H1235.25V144.066H1227.26V118.963H1223.16V112.117H1227.26V100.25Z" fill="white"/>
<path d="M1244.15 111.891H1252.36V127.409C1252.36 130.376 1252.59 132.43 1253.05 133.571C1253.51 134.712 1254.19 135.624 1255.1 136.309C1256.02 136.994 1257.16 137.222 1258.53 137.222C1259.9 137.222 1261.04 136.994 1261.95 136.309C1262.86 135.624 1263.55 134.712 1264 133.571C1264.46 132.658 1264.46 130.604 1264.46 127.637V111.891H1272.45V125.355C1272.45 130.832 1271.99 134.712 1271.08 136.765C1269.94 139.276 1268.34 141.101 1266.29 142.471C1264.23 143.84 1261.49 144.525 1258.3 144.525C1254.87 144.525 1251.91 143.84 1249.85 142.243C1247.57 140.645 1246.2 138.363 1245.29 135.624C1244.6 133.571 1244.38 130.147 1244.38 125.127V111.891H1244.15Z" fill="white"/>
<path d="M1278.61 111.896H1285.46V116.003C1286.14 114.406 1287.28 113.265 1288.42 112.352C1289.57 111.439 1290.93 111.211 1292.53 111.211C1293.67 111.211 1294.59 111.439 1295.73 112.124L1293.22 118.97C1292.3 118.514 1291.62 118.285 1290.94 118.285C1289.79 118.285 1288.65 118.97 1287.74 120.568C1286.83 122.165 1286.37 125.132 1286.37 129.468V131.065V144.073H1278.38L1278.61 111.896Z" fill="white"/>
<path d="M1331.78 130.381H1306C1306.45 132.663 1307.36 134.488 1308.96 135.858C1310.56 137.227 1312.61 137.911 1315.12 137.911C1318.09 137.911 1320.6 136.77 1322.88 134.717L1329.73 137.911C1328.13 140.194 1326.08 142.019 1323.57 143.16C1321.29 144.301 1318.32 144.758 1315.12 144.758C1310.1 144.758 1306 143.16 1302.8 139.965C1299.61 136.77 1298.01 132.891 1298.01 128.098C1298.01 123.306 1299.61 119.198 1302.8 116.003C1306 112.808 1309.88 111.211 1314.67 111.211C1319.69 111.211 1323.8 112.808 1326.99 116.003C1330.19 119.198 1331.78 123.534 1331.78 128.783V130.381ZM1323.8 123.991C1323.34 122.165 1322.2 120.796 1320.6 119.655C1319 118.514 1317.18 118.057 1315.12 118.057C1312.84 118.057 1311.02 118.742 1309.19 119.883C1308.05 120.568 1307.14 122.165 1306.22 123.991H1323.8Z" fill="white"/>
<defs>
<clipPath id="clip0_29_953">
<rect width="307.289" height="112.974" fill="white" transform="translate(485.711 44.7891)"/>
</clipPath>
</defs>
</svg>
