<svg width="990" height="26" viewBox="0 0 990 26" fill="none" xmlns="http://www.w3.org/2000/svg">
<path d="M8.288 2.92L9.152 4.48L5.816 5.872L9.176 7.24L8.264 8.848L5.36 6.736L5.744 10.36H3.944L4.304 6.736L1.4 8.872L0.464 7.24L3.8 5.848L0.464 4.504L1.352 2.896L4.328 5.032L3.944 1.384H5.768L5.36 5.032L8.288 2.92ZM23.7039 7.168C23.7039 8.56 23.2239 9.72 22.2639 10.648C21.3199 11.56 19.8719 12.016 17.9199 12.016H14.7039V19H12.5199V2.272H17.9199C19.8079 2.272 21.2399 2.728 22.2159 3.64C23.2079 4.552 23.7039 5.728 23.7039 7.168ZM17.9199 10.216C19.1359 10.216 20.0319 9.952 20.6079 9.424C21.1839 8.896 21.4719 8.144 21.4719 7.168C21.4719 5.104 20.2879 4.072 17.9199 4.072H14.7039V10.216H17.9199ZM27.5463 3.712C27.1303 3.712 26.7783 3.568 26.4903 3.28C26.2023 2.992 26.0583 2.64 26.0583 2.224C26.0583 1.808 26.2023 1.456 26.4903 1.168C26.7783 0.879999 27.1303 0.735999 27.5463 0.735999C27.9463 0.735999 28.2823 0.879999 28.5543 1.168C28.8423 1.456 28.9863 1.808 28.9863 2.224C28.9863 2.64 28.8423 2.992 28.5543 3.28C28.2823 3.568 27.9463 3.712 27.5463 3.712ZM28.6023 5.848V19H26.4183V5.848H28.6023ZM39.1886 19L36.0686 14.104L33.0686 19H30.7886L35.0366 12.472L30.7886 5.848H33.2606L36.3806 10.72L39.3566 5.848H41.6366L37.4126 12.352L41.6606 19H39.1886ZM45.9929 8.272C46.4249 7.52 47.0649 6.896 47.9129 6.4C48.7769 5.888 49.7769 5.632 50.9129 5.632C52.0809 5.632 53.1369 5.912 54.0809 6.472C55.0409 7.032 55.7929 7.824 56.3369 8.848C56.8809 9.856 57.1529 11.032 57.1529 12.376C57.1529 13.704 56.8809 14.888 56.3369 15.928C55.7929 16.968 55.0409 17.776 54.0809 18.352C53.1369 18.928 52.0809 19.216 50.9129 19.216C49.7929 19.216 48.8009 18.968 47.9369 18.472C47.0889 17.96 46.4409 17.328 45.9929 16.576V25.24H43.8089V5.848H45.9929V8.272ZM54.9209 12.376C54.9209 11.384 54.7209 10.52 54.3209 9.784C53.9209 9.048 53.3769 8.488 52.6889 8.104C52.0169 7.72 51.2729 7.528 50.4569 7.528C49.6569 7.528 48.9129 7.728 48.2249 8.128C47.5529 8.512 47.0089 9.08 46.5929 9.832C46.1929 10.568 45.9929 11.424 45.9929 12.4C45.9929 13.392 46.1929 14.264 46.5929 15.016C47.0089 15.752 47.5529 16.32 48.2249 16.72C48.9129 17.104 49.6569 17.296 50.4569 17.296C51.2729 17.296 52.0169 17.104 52.6889 16.72C53.3769 16.32 53.9209 15.752 54.3209 15.016C54.7209 14.264 54.9209 13.384 54.9209 12.376ZM72.0277 11.92C72.0277 12.336 72.0037 12.776 71.9557 13.24H61.4437C61.5237 14.536 61.9637 15.552 62.7637 16.288C63.5797 17.008 64.5637 17.368 65.7157 17.368C66.6597 17.368 67.4437 17.152 68.0677 16.72C68.7077 16.272 69.1557 15.68 69.4117 14.944H71.7637C71.4117 16.208 70.7077 17.24 69.6517 18.04C68.5957 18.824 67.2837 19.216 65.7157 19.216C64.4677 19.216 63.3477 18.936 62.3557 18.376C61.3797 17.816 60.6117 17.024 60.0517 16C59.4917 14.96 59.2117 13.76 59.2117 12.4C59.2117 11.04 59.4837 9.848 60.0277 8.824C60.5717 7.8 61.3317 7.016 62.3077 6.472C63.2997 5.912 64.4357 5.632 65.7157 5.632C66.9637 5.632 68.0677 5.904 69.0277 6.448C69.9877 6.992 70.7237 7.744 71.2357 8.704C71.7637 9.648 72.0277 10.72 72.0277 11.92ZM69.7717 11.464C69.7717 10.632 69.5877 9.92 69.2197 9.328C68.8517 8.72 68.3477 8.264 67.7077 7.96C67.0837 7.64 66.3877 7.48 65.6197 7.48C64.5157 7.48 63.5717 7.832 62.7877 8.536C62.0197 9.24 61.5797 10.216 61.4677 11.464H69.7717ZM77.0945 1.24V19H74.9105V1.24H77.0945ZM89.3992 7.984C89.7832 7.232 90.3272 6.648 91.0312 6.232C91.7512 5.816 92.6232 5.608 93.6472 5.608V7.864H93.0712C90.6232 7.864 89.3992 9.192 89.3992 11.848V19H87.2152V5.848H89.3992V7.984ZM108.168 11.92C108.168 12.336 108.144 12.776 108.096 13.24H97.5843C97.6643 14.536 98.1043 15.552 98.9043 16.288C99.7203 17.008 100.704 17.368 101.856 17.368C102.8 17.368 103.584 17.152 104.208 16.72C104.848 16.272 105.296 15.68 105.552 14.944H107.904C107.552 16.208 106.848 17.24 105.792 18.04C104.736 18.824 103.424 19.216 101.856 19.216C100.608 19.216 99.4883 18.936 98.4963 18.376C97.5203 17.816 96.7523 17.024 96.1923 16C95.6323 14.96 95.3523 13.76 95.3523 12.4C95.3523 11.04 95.6243 9.848 96.1683 8.824C96.7123 7.8 97.4723 7.016 98.4483 6.472C99.4403 5.912 100.576 5.632 101.856 5.632C103.104 5.632 104.208 5.904 105.168 6.448C106.128 6.992 106.864 7.744 107.376 8.704C107.904 9.648 108.168 10.72 108.168 11.92ZM105.912 11.464C105.912 10.632 105.728 9.92 105.36 9.328C104.992 8.72 104.488 8.264 103.848 7.96C103.224 7.64 102.528 7.48 101.76 7.48C100.656 7.48 99.7123 7.832 98.9283 8.536C98.1603 9.24 97.7203 10.216 97.6083 11.464H105.912ZM115.707 19.216C114.699 19.216 113.795 19.048 112.995 18.712C112.195 18.36 111.563 17.88 111.099 17.272C110.635 16.648 110.379 15.936 110.331 15.136H112.587C112.651 15.792 112.955 16.328 113.499 16.744C114.059 17.16 114.787 17.368 115.683 17.368C116.515 17.368 117.171 17.184 117.651 16.816C118.131 16.448 118.371 15.984 118.371 15.424C118.371 14.848 118.115 14.424 117.603 14.152C117.091 13.864 116.299 13.584 115.227 13.312C114.251 13.056 113.451 12.8 112.827 12.544C112.219 12.272 111.691 11.88 111.243 11.368C110.811 10.84 110.595 10.152 110.595 9.304C110.595 8.632 110.795 8.016 111.195 7.456C111.595 6.896 112.163 6.456 112.899 6.136C113.635 5.8 114.475 5.632 115.419 5.632C116.875 5.632 118.051 6 118.947 6.736C119.843 7.472 120.323 8.48 120.387 9.76H118.203C118.155 9.072 117.875 8.52 117.363 8.104C116.867 7.688 116.195 7.48 115.347 7.48C114.563 7.48 113.939 7.648 113.475 7.984C113.011 8.32 112.779 8.76 112.779 9.304C112.779 9.736 112.915 10.096 113.187 10.384C113.475 10.656 113.827 10.88 114.243 11.056C114.675 11.216 115.267 11.4 116.019 11.608C116.963 11.864 117.731 12.12 118.323 12.376C118.915 12.616 119.419 12.984 119.835 13.48C120.267 13.976 120.491 14.624 120.507 15.424C120.507 16.144 120.307 16.792 119.907 17.368C119.507 17.944 118.939 18.4 118.203 18.736C117.483 19.056 116.651 19.216 115.707 19.216ZM135.59 11.92C135.59 12.336 135.566 12.776 135.518 13.24H125.006C125.086 14.536 125.526 15.552 126.326 16.288C127.142 17.008 128.126 17.368 129.278 17.368C130.222 17.368 131.006 17.152 131.63 16.72C132.27 16.272 132.718 15.68 132.974 14.944H135.326C134.974 16.208 134.27 17.24 133.214 18.04C132.158 18.824 130.846 19.216 129.278 19.216C128.03 19.216 126.91 18.936 125.918 18.376C124.942 17.816 124.174 17.024 123.614 16C123.054 14.96 122.774 13.76 122.774 12.4C122.774 11.04 123.046 9.848 123.59 8.824C124.134 7.8 124.894 7.016 125.87 6.472C126.862 5.912 127.998 5.632 129.278 5.632C130.526 5.632 131.63 5.904 132.59 6.448C133.55 6.992 134.286 7.744 134.798 8.704C135.326 9.648 135.59 10.72 135.59 11.92ZM133.334 11.464C133.334 10.632 133.15 9.92 132.782 9.328C132.414 8.72 131.91 8.264 131.27 7.96C130.646 7.64 129.95 7.48 129.182 7.48C128.078 7.48 127.134 7.832 126.35 8.536C125.582 9.24 125.142 10.216 125.03 11.464H133.334ZM140.657 7.984C141.041 7.232 141.585 6.648 142.289 6.232C143.009 5.816 143.881 5.608 144.905 5.608V7.864H144.329C141.881 7.864 140.657 9.192 140.657 11.848V19H138.473V5.848H140.657V7.984ZM152.322 16.984L156.402 5.848H158.73L153.57 19H151.026L145.866 5.848H148.218L152.322 16.984ZM172.879 11.92C172.879 12.336 172.855 12.776 172.807 13.24H162.295C162.375 14.536 162.815 15.552 163.615 16.288C164.431 17.008 165.415 17.368 166.567 17.368C167.511 17.368 168.295 17.152 168.919 16.72C169.559 16.272 170.007 15.68 170.263 14.944H172.615C172.263 16.208 171.559 17.24 170.503 18.04C169.447 18.824 168.135 19.216 166.567 19.216C165.319 19.216 164.199 18.936 163.207 18.376C162.231 17.816 161.463 17.024 160.903 16C160.343 14.96 160.063 13.76 160.063 12.4C160.063 11.04 160.335 9.848 160.879 8.824C161.423 7.8 162.183 7.016 163.159 6.472C164.151 5.912 165.287 5.632 166.567 5.632C167.815 5.632 168.919 5.904 169.879 6.448C170.839 6.992 171.575 7.744 172.087 8.704C172.615 9.648 172.879 10.72 172.879 11.92ZM170.623 11.464C170.623 10.632 170.439 9.92 170.071 9.328C169.703 8.72 169.199 8.264 168.559 7.96C167.935 7.64 167.239 7.48 166.471 7.48C165.367 7.48 164.423 7.832 163.639 8.536C162.871 9.24 162.431 10.216 162.319 11.464H170.623ZM180.418 19.216C179.41 19.216 178.506 19.048 177.706 18.712C176.906 18.36 176.274 17.88 175.81 17.272C175.346 16.648 175.09 15.936 175.042 15.136H177.298C177.362 15.792 177.666 16.328 178.21 16.744C178.77 17.16 179.498 17.368 180.394 17.368C181.226 17.368 181.882 17.184 182.362 16.816C182.842 16.448 183.082 15.984 183.082 15.424C183.082 14.848 182.826 14.424 182.314 14.152C181.802 13.864 181.01 13.584 179.938 13.312C178.962 13.056 178.162 12.8 177.538 12.544C176.93 12.272 176.402 11.88 175.954 11.368C175.522 10.84 175.306 10.152 175.306 9.304C175.306 8.632 175.506 8.016 175.906 7.456C176.306 6.896 176.874 6.456 177.61 6.136C178.346 5.8 179.186 5.632 180.13 5.632C181.586 5.632 182.762 6 183.658 6.736C184.554 7.472 185.034 8.48 185.098 9.76H182.914C182.866 9.072 182.586 8.52 182.074 8.104C181.578 7.688 180.906 7.48 180.058 7.48C179.274 7.48 178.65 7.648 178.186 7.984C177.722 8.32 177.49 8.76 177.49 9.304C177.49 9.736 177.626 10.096 177.898 10.384C178.186 10.656 178.538 10.88 178.954 11.056C179.386 11.216 179.978 11.4 180.73 11.608C181.674 11.864 182.442 12.12 183.034 12.376C183.626 12.616 184.13 12.984 184.546 13.48C184.978 13.976 185.202 14.624 185.218 15.424C185.218 16.144 185.018 16.792 184.618 17.368C184.218 17.944 183.65 18.4 182.914 18.736C182.194 19.056 181.362 19.216 180.418 19.216ZM197.364 7.648V15.4C197.364 16.04 197.5 16.496 197.772 16.768C198.044 17.024 198.516 17.152 199.188 17.152H200.796V19H198.828C197.612 19 196.7 18.72 196.092 18.16C195.484 17.6 195.18 16.68 195.18 15.4V7.648H193.476V5.848H195.18V2.536H197.364V5.848H200.796V7.648H197.364ZM209.97 5.608C210.962 5.608 211.858 5.824 212.658 6.256C213.458 6.672 214.082 7.304 214.53 8.152C214.994 9 215.226 10.032 215.226 11.248V19H213.066V11.56C213.066 10.248 212.738 9.248 212.082 8.56C211.426 7.856 210.53 7.504 209.394 7.504C208.242 7.504 207.322 7.864 206.634 8.584C205.962 9.304 205.626 10.352 205.626 11.728V19H203.442V1.24H205.626V7.72C206.058 7.048 206.65 6.528 207.402 6.16C208.17 5.792 209.026 5.608 209.97 5.608ZM230.793 11.92C230.793 12.336 230.769 12.776 230.721 13.24H220.209C220.289 14.536 220.729 15.552 221.529 16.288C222.345 17.008 223.329 17.368 224.481 17.368C225.425 17.368 226.209 17.152 226.833 16.72C227.473 16.272 227.921 15.68 228.177 14.944H230.529C230.177 16.208 229.473 17.24 228.417 18.04C227.361 18.824 226.049 19.216 224.481 19.216C223.233 19.216 222.113 18.936 221.121 18.376C220.145 17.816 219.377 17.024 218.817 16C218.257 14.96 217.977 13.76 217.977 12.4C217.977 11.04 218.249 9.848 218.793 8.824C219.337 7.8 220.097 7.016 221.073 6.472C222.065 5.912 223.201 5.632 224.481 5.632C225.729 5.632 226.833 5.904 227.793 6.448C228.753 6.992 229.489 7.744 230.001 8.704C230.529 9.648 230.793 10.72 230.793 11.92ZM228.537 11.464C228.537 10.632 228.353 9.92 227.985 9.328C227.617 8.72 227.113 8.264 226.473 7.96C225.849 7.64 225.153 7.48 224.385 7.48C223.281 7.48 222.337 7.832 221.553 8.536C220.785 9.24 220.345 10.216 220.233 11.464H228.537ZM242.259 7.984C242.643 7.232 243.187 6.648 243.891 6.232C244.611 5.816 245.483 5.608 246.507 5.608V7.864H245.931C243.483 7.864 242.259 9.192 242.259 11.848V19H240.075V5.848H242.259V7.984ZM250.156 3.712C249.74 3.712 249.388 3.568 249.1 3.28C248.812 2.992 248.668 2.64 248.668 2.224C248.668 1.808 248.812 1.456 249.1 1.168C249.388 0.879999 249.74 0.735999 250.156 0.735999C250.556 0.735999 250.892 0.879999 251.164 1.168C251.452 1.456 251.596 1.808 251.596 2.224C251.596 2.64 251.452 2.992 251.164 3.28C250.892 3.568 250.556 3.712 250.156 3.712ZM251.212 5.848V19H249.028V5.848H251.212ZM260.358 5.632C261.494 5.632 262.486 5.88 263.334 6.376C264.198 6.872 264.838 7.496 265.254 8.248V5.848H267.462V19.288C267.462 20.488 267.206 21.552 266.694 22.48C266.182 23.424 265.446 24.16 264.486 24.688C263.542 25.216 262.438 25.48 261.174 25.48C259.446 25.48 258.006 25.072 256.854 24.256C255.702 23.44 255.022 22.328 254.814 20.92H256.974C257.214 21.72 257.71 22.36 258.462 22.84C259.214 23.336 260.118 23.584 261.174 23.584C262.374 23.584 263.35 23.208 264.102 22.456C264.87 21.704 265.254 20.648 265.254 19.288V16.528C264.822 17.296 264.182 17.936 263.334 18.448C262.486 18.96 261.494 19.216 260.358 19.216C259.19 19.216 258.126 18.928 257.166 18.352C256.222 17.776 255.478 16.968 254.934 15.928C254.39 14.888 254.118 13.704 254.118 12.376C254.118 11.032 254.39 9.856 254.934 8.848C255.478 7.824 256.222 7.032 257.166 6.472C258.126 5.912 259.19 5.632 260.358 5.632ZM265.254 12.4C265.254 11.408 265.054 10.544 264.654 9.808C264.254 9.072 263.71 8.512 263.022 8.128C262.35 7.728 261.606 7.528 260.79 7.528C259.974 7.528 259.23 7.72 258.558 8.104C257.886 8.488 257.35 9.048 256.95 9.784C256.55 10.52 256.35 11.384 256.35 12.376C256.35 13.384 256.55 14.264 256.95 15.016C257.35 15.752 257.886 16.32 258.558 16.72C259.23 17.104 259.974 17.296 260.79 17.296C261.606 17.296 262.35 17.104 263.022 16.72C263.71 16.32 264.254 15.752 264.654 15.016C265.054 14.264 265.254 13.392 265.254 12.4ZM277.681 5.608C278.673 5.608 279.569 5.824 280.369 6.256C281.169 6.672 281.793 7.304 282.241 8.152C282.705 9 282.937 10.032 282.937 11.248V19H280.777V11.56C280.777 10.248 280.449 9.248 279.793 8.56C279.137 7.856 278.241 7.504 277.105 7.504C275.953 7.504 275.033 7.864 274.345 8.584C273.673 9.304 273.337 10.352 273.337 11.728V19H271.153V1.24H273.337V7.72C273.769 7.048 274.361 6.528 275.113 6.16C275.881 5.792 276.737 5.608 277.681 5.608ZM289.168 7.648V15.4C289.168 16.04 289.304 16.496 289.576 16.768C289.848 17.024 290.32 17.152 290.992 17.152H292.6V19H290.632C289.416 19 288.504 18.72 287.896 18.16C287.288 17.6 286.984 16.68 286.984 15.4V7.648H285.28V5.848H286.984V2.536H289.168V5.848H292.6V7.648H289.168ZM304.309 7.648V15.4C304.309 16.04 304.445 16.496 304.717 16.768C304.989 17.024 305.461 17.152 306.133 17.152H307.741V19H305.773C304.557 19 303.645 18.72 303.037 18.16C302.429 17.6 302.125 16.68 302.125 15.4V7.648H300.421V5.848H302.125V2.536H304.309V5.848H307.741V7.648H304.309ZM316.123 19.216C314.891 19.216 313.771 18.936 312.763 18.376C311.771 17.816 310.987 17.024 310.411 16C309.851 14.96 309.571 13.76 309.571 12.4C309.571 11.056 309.859 9.872 310.435 8.848C311.027 7.808 311.827 7.016 312.835 6.472C313.843 5.912 314.971 5.632 316.219 5.632C317.467 5.632 318.595 5.912 319.603 6.472C320.611 7.016 321.403 7.8 321.979 8.824C322.571 9.848 322.867 11.04 322.867 12.4C322.867 13.76 322.563 14.96 321.955 16C321.363 17.024 320.555 17.816 319.531 18.376C318.507 18.936 317.371 19.216 316.123 19.216ZM316.123 17.296C316.907 17.296 317.643 17.112 318.331 16.744C319.019 16.376 319.571 15.824 319.987 15.088C320.419 14.352 320.635 13.456 320.635 12.4C320.635 11.344 320.427 10.448 320.011 9.712C319.595 8.976 319.051 8.432 318.379 8.08C317.707 7.712 316.979 7.528 316.195 7.528C315.395 7.528 314.659 7.712 313.987 8.08C313.331 8.432 312.803 8.976 312.403 9.712C312.003 10.448 311.803 11.344 311.803 12.4C311.803 13.472 311.995 14.376 312.379 15.112C312.779 15.848 313.307 16.4 313.963 16.768C314.619 17.12 315.339 17.296 316.123 17.296ZM331.321 12.4C331.321 11.04 331.593 9.856 332.137 8.848C332.681 7.824 333.433 7.032 334.393 6.472C335.369 5.912 336.481 5.632 337.729 5.632C339.345 5.632 340.673 6.024 341.713 6.808C342.769 7.592 343.465 8.68 343.801 10.072H341.449C341.225 9.272 340.785 8.64 340.129 8.176C339.489 7.712 338.689 7.48 337.729 7.48C336.481 7.48 335.473 7.912 334.705 8.776C333.937 9.624 333.553 10.832 333.553 12.4C333.553 13.984 333.937 15.208 334.705 16.072C335.473 16.936 336.481 17.368 337.729 17.368C338.689 17.368 339.489 17.144 340.129 16.696C340.769 16.248 341.209 15.608 341.449 14.776H343.801C343.449 16.12 342.745 17.2 341.689 18.016C340.633 18.816 339.313 19.216 337.729 19.216C336.481 19.216 335.369 18.936 334.393 18.376C333.433 17.816 332.681 17.024 332.137 16C331.593 14.976 331.321 13.776 331.321 12.4ZM352.451 19.216C351.219 19.216 350.099 18.936 349.091 18.376C348.099 17.816 347.315 17.024 346.739 16C346.179 14.96 345.899 13.76 345.899 12.4C345.899 11.056 346.187 9.872 346.763 8.848C347.355 7.808 348.155 7.016 349.163 6.472C350.171 5.912 351.299 5.632 352.547 5.632C353.795 5.632 354.923 5.912 355.931 6.472C356.939 7.016 357.731 7.8 358.307 8.824C358.899 9.848 359.195 11.04 359.195 12.4C359.195 13.76 358.891 14.96 358.283 16C357.691 17.024 356.883 17.816 355.859 18.376C354.835 18.936 353.699 19.216 352.451 19.216ZM352.451 17.296C353.235 17.296 353.971 17.112 354.659 16.744C355.347 16.376 355.899 15.824 356.315 15.088C356.747 14.352 356.963 13.456 356.963 12.4C356.963 11.344 356.755 10.448 356.339 9.712C355.923 8.976 355.379 8.432 354.707 8.08C354.035 7.712 353.307 7.528 352.523 7.528C351.723 7.528 350.987 7.712 350.315 8.08C349.659 8.432 349.131 8.976 348.731 9.712C348.331 10.448 348.131 11.344 348.131 12.4C348.131 13.472 348.323 14.376 348.707 15.112C349.107 15.848 349.635 16.4 350.291 16.768C350.947 17.12 351.667 17.296 352.451 17.296ZM368.475 5.608C370.075 5.608 371.371 6.096 372.363 7.072C373.355 8.032 373.851 9.424 373.851 11.248V19H371.691V11.56C371.691 10.248 371.363 9.248 370.707 8.56C370.051 7.856 369.155 7.504 368.019 7.504C366.867 7.504 365.947 7.864 365.259 8.584C364.587 9.304 364.251 10.352 364.251 11.728V19H362.067V5.848H364.251V7.72C364.683 7.048 365.267 6.528 366.003 6.16C366.755 5.792 367.579 5.608 368.475 5.608ZM376.602 12.4C376.602 11.04 376.874 9.856 377.418 8.848C377.962 7.824 378.714 7.032 379.674 6.472C380.65 5.912 381.762 5.632 383.01 5.632C384.626 5.632 385.954 6.024 386.994 6.808C388.05 7.592 388.746 8.68 389.082 10.072H386.73C386.506 9.272 386.066 8.64 385.41 8.176C384.77 7.712 383.97 7.48 383.01 7.48C381.762 7.48 380.754 7.912 379.986 8.776C379.218 9.624 378.834 10.832 378.834 12.4C378.834 13.984 379.218 15.208 379.986 16.072C380.754 16.936 381.762 17.368 383.01 17.368C383.97 17.368 384.77 17.144 385.41 16.696C386.05 16.248 386.49 15.608 386.73 14.776H389.082C388.73 16.12 388.026 17.2 386.97 18.016C385.914 18.816 384.594 19.216 383.01 19.216C381.762 19.216 380.65 18.936 379.674 18.376C378.714 17.816 377.962 17.024 377.418 16C376.874 14.976 376.602 13.776 376.602 12.4ZM394.18 1.24V19H391.996V1.24H394.18ZM409.567 5.848V19H407.383V17.056C406.967 17.728 406.383 18.256 405.631 18.64C404.895 19.008 404.079 19.192 403.183 19.192C402.159 19.192 401.239 18.984 400.423 18.568C399.607 18.136 398.959 17.496 398.479 16.648C398.015 15.8 397.783 14.768 397.783 13.552V5.848H399.943V13.264C399.943 14.56 400.271 15.56 400.927 16.264C401.583 16.952 402.479 17.296 403.615 17.296C404.783 17.296 405.703 16.936 406.375 16.216C407.047 15.496 407.383 14.448 407.383 13.072V5.848H409.567ZM412.438 12.376C412.438 11.032 412.71 9.856 413.254 8.848C413.798 7.824 414.542 7.032 415.486 6.472C416.446 5.912 417.518 5.632 418.702 5.632C419.726 5.632 420.678 5.872 421.558 6.352C422.438 6.816 423.11 7.432 423.574 8.2V1.24H425.782V19H423.574V16.528C423.142 17.312 422.502 17.96 421.654 18.472C420.806 18.968 419.814 19.216 418.678 19.216C417.51 19.216 416.446 18.928 415.486 18.352C414.542 17.776 413.798 16.968 413.254 15.928C412.71 14.888 412.438 13.704 412.438 12.376ZM423.574 12.4C423.574 11.408 423.374 10.544 422.974 9.808C422.574 9.072 422.03 8.512 421.342 8.128C420.67 7.728 419.926 7.528 419.11 7.528C418.294 7.528 417.55 7.72 416.878 8.104C416.206 8.488 415.67 9.048 415.27 9.784C414.87 10.52 414.67 11.384 414.67 12.376C414.67 13.384 414.87 14.264 415.27 15.016C415.67 15.752 416.206 16.32 416.878 16.72C417.55 17.104 418.294 17.296 419.11 17.296C419.926 17.296 420.67 17.104 421.342 16.72C422.03 16.32 422.574 15.752 422.974 15.016C423.374 14.264 423.574 13.392 423.574 12.4ZM441.473 11.92C441.473 12.336 441.449 12.776 441.401 13.24H430.889C430.969 14.536 431.409 15.552 432.209 16.288C433.025 17.008 434.009 17.368 435.161 17.368C436.105 17.368 436.889 17.152 437.513 16.72C438.153 16.272 438.601 15.68 438.857 14.944H441.209C440.857 16.208 440.153 17.24 439.097 18.04C438.041 18.824 436.729 19.216 435.161 19.216C433.913 19.216 432.793 18.936 431.801 18.376C430.825 17.816 430.057 17.024 429.497 16C428.937 14.96 428.657 13.76 428.657 12.4C428.657 11.04 428.929 9.848 429.473 8.824C430.017 7.8 430.777 7.016 431.753 6.472C432.745 5.912 433.881 5.632 435.161 5.632C436.409 5.632 437.513 5.904 438.473 6.448C439.433 6.992 440.169 7.744 440.681 8.704C441.209 9.648 441.473 10.72 441.473 11.92ZM439.217 11.464C439.217 10.632 439.033 9.92 438.665 9.328C438.297 8.72 437.793 8.264 437.153 7.96C436.529 7.64 435.833 7.48 435.065 7.48C433.961 7.48 433.017 7.832 432.233 8.536C431.465 9.24 431.025 10.216 430.913 11.464H439.217ZM453.418 7.648V15.4C453.418 16.04 453.554 16.496 453.826 16.768C454.098 17.024 454.57 17.152 455.242 17.152H456.85V19H454.882C453.666 19 452.754 18.72 452.146 18.16C451.538 17.6 451.234 16.68 451.234 15.4V7.648H449.53V5.848H451.234V2.536H453.418V5.848H456.85V7.648H453.418ZM466.024 5.608C467.016 5.608 467.912 5.824 468.712 6.256C469.512 6.672 470.136 7.304 470.584 8.152C471.048 9 471.28 10.032 471.28 11.248V19H469.12V11.56C469.12 10.248 468.792 9.248 468.136 8.56C467.48 7.856 466.584 7.504 465.448 7.504C464.296 7.504 463.376 7.864 462.688 8.584C462.016 9.304 461.68 10.352 461.68 11.728V19H459.496V1.24H461.68V7.72C462.112 7.048 462.704 6.528 463.456 6.16C464.224 5.792 465.08 5.608 466.024 5.608ZM486.848 11.92C486.848 12.336 486.824 12.776 486.776 13.24H476.264C476.344 14.536 476.784 15.552 477.584 16.288C478.4 17.008 479.384 17.368 480.536 17.368C481.48 17.368 482.264 17.152 482.888 16.72C483.528 16.272 483.976 15.68 484.232 14.944H486.584C486.232 16.208 485.528 17.24 484.472 18.04C483.416 18.824 482.104 19.216 480.536 19.216C479.288 19.216 478.168 18.936 477.176 18.376C476.2 17.816 475.432 17.024 474.872 16C474.312 14.96 474.032 13.76 474.032 12.4C474.032 11.04 474.304 9.848 474.848 8.824C475.392 7.8 476.152 7.016 477.128 6.472C478.12 5.912 479.256 5.632 480.536 5.632C481.784 5.632 482.888 5.904 483.848 6.448C484.808 6.992 485.544 7.744 486.056 8.704C486.584 9.648 486.848 10.72 486.848 11.92ZM484.592 11.464C484.592 10.632 484.408 9.92 484.04 9.328C483.672 8.72 483.168 8.264 482.528 7.96C481.904 7.64 481.208 7.48 480.44 7.48C479.336 7.48 478.392 7.832 477.608 8.536C476.84 9.24 476.4 10.216 476.288 11.464H484.592ZM506.425 2.272V4.048H501.865V19H499.681V4.048H495.097V2.272H506.425ZM521.114 11.92C521.114 12.336 521.09 12.776 521.042 13.24H510.53C510.61 14.536 511.05 15.552 511.85 16.288C512.666 17.008 513.65 17.368 514.802 17.368C515.746 17.368 516.53 17.152 517.154 16.72C517.794 16.272 518.242 15.68 518.498 14.944H520.85C520.498 16.208 519.794 17.24 518.738 18.04C517.682 18.824 516.37 19.216 514.802 19.216C513.554 19.216 512.434 18.936 511.442 18.376C510.466 17.816 509.698 17.024 509.138 16C508.578 14.96 508.298 13.76 508.298 12.4C508.298 11.04 508.57 9.848 509.114 8.824C509.658 7.8 510.418 7.016 511.394 6.472C512.386 5.912 513.522 5.632 514.802 5.632C516.05 5.632 517.154 5.904 518.114 6.448C519.074 6.992 519.81 7.744 520.322 8.704C520.85 9.648 521.114 10.72 521.114 11.92ZM518.858 11.464C518.858 10.632 518.674 9.92 518.306 9.328C517.938 8.72 517.434 8.264 516.794 7.96C516.17 7.64 515.474 7.48 514.706 7.48C513.602 7.48 512.658 7.832 511.874 8.536C511.106 9.24 510.666 10.216 510.554 11.464H518.858ZM528.652 19.216C527.644 19.216 526.74 19.048 525.94 18.712C525.14 18.36 524.508 17.88 524.044 17.272C523.58 16.648 523.324 15.936 523.276 15.136H525.532C525.596 15.792 525.9 16.328 526.444 16.744C527.004 17.16 527.732 17.368 528.628 17.368C529.46 17.368 530.116 17.184 530.596 16.816C531.076 16.448 531.316 15.984 531.316 15.424C531.316 14.848 531.06 14.424 530.548 14.152C530.036 13.864 529.244 13.584 528.172 13.312C527.196 13.056 526.396 12.8 525.772 12.544C525.164 12.272 524.636 11.88 524.188 11.368C523.756 10.84 523.54 10.152 523.54 9.304C523.54 8.632 523.74 8.016 524.14 7.456C524.54 6.896 525.108 6.456 525.844 6.136C526.58 5.8 527.42 5.632 528.364 5.632C529.82 5.632 530.996 6 531.892 6.736C532.788 7.472 533.268 8.48 533.332 9.76H531.148C531.1 9.072 530.82 8.52 530.308 8.104C529.812 7.688 529.14 7.48 528.292 7.48C527.508 7.48 526.884 7.648 526.42 7.984C525.956 8.32 525.724 8.76 525.724 9.304C525.724 9.736 525.86 10.096 526.132 10.384C526.42 10.656 526.772 10.88 527.188 11.056C527.62 11.216 528.212 11.4 528.964 11.608C529.908 11.864 530.676 12.12 531.268 12.376C531.86 12.616 532.364 12.984 532.78 13.48C533.212 13.976 533.436 14.624 533.452 15.424C533.452 16.144 533.252 16.792 532.852 17.368C532.452 17.944 531.884 18.4 531.148 18.736C530.428 19.056 529.596 19.216 528.652 19.216ZM539.2 7.648V15.4C539.2 16.04 539.336 16.496 539.608 16.768C539.88 17.024 540.352 17.152 541.023 17.152H542.632V19H540.664C539.448 19 538.536 18.72 537.928 18.16C537.32 17.6 537.016 16.68 537.016 15.4V7.648H535.312V5.848H537.016V2.536H539.2V5.848H542.632V7.648H539.2ZM554.398 9.28V11.128H544.822V9.28H554.398ZM564.904 5.608C566.504 5.608 567.8 6.096 568.792 7.072C569.784 8.032 570.28 9.424 570.28 11.248V19H568.12V11.56C568.12 10.248 567.792 9.248 567.136 8.56C566.48 7.856 565.584 7.504 564.448 7.504C563.296 7.504 562.376 7.864 561.688 8.584C561.016 9.304 560.68 10.352 560.68 11.728V19H558.496V5.848H560.68V7.72C561.112 7.048 561.696 6.528 562.432 6.16C563.184 5.792 564.008 5.608 564.904 5.608ZM585.848 11.92C585.848 12.336 585.824 12.776 585.776 13.24H575.264C575.344 14.536 575.784 15.552 576.584 16.288C577.4 17.008 578.384 17.368 579.536 17.368C580.48 17.368 581.264 17.152 581.888 16.72C582.528 16.272 582.976 15.68 583.232 14.944H585.584C585.232 16.208 584.528 17.24 583.472 18.04C582.416 18.824 581.104 19.216 579.536 19.216C578.288 19.216 577.168 18.936 576.176 18.376C575.2 17.816 574.432 17.024 573.872 16C573.312 14.96 573.032 13.76 573.032 12.4C573.032 11.04 573.304 9.848 573.848 8.824C574.392 7.8 575.152 7.016 576.128 6.472C577.12 5.912 578.256 5.632 579.536 5.632C580.784 5.632 581.888 5.904 582.848 6.448C583.808 6.992 584.544 7.744 585.056 8.704C585.584 9.648 585.848 10.72 585.848 11.92ZM583.592 11.464C583.592 10.632 583.408 9.92 583.04 9.328C582.672 8.72 582.168 8.264 581.528 7.96C580.904 7.64 580.208 7.48 579.44 7.48C578.336 7.48 577.392 7.832 576.608 8.536C575.84 9.24 575.4 10.216 575.288 11.464H583.592ZM591.395 7.648V15.4C591.395 16.04 591.531 16.496 591.803 16.768C592.075 17.024 592.547 17.152 593.219 17.152H594.827V19H592.859C591.643 19 590.731 18.72 590.123 18.16C589.515 17.6 589.211 16.68 589.211 15.4V7.648H587.507V5.848H589.211V2.536H591.395V5.848H594.827V7.648H591.395ZM615.871 11.92C615.871 12.336 615.847 12.776 615.799 13.24H605.287C605.367 14.536 605.807 15.552 606.607 16.288C607.423 17.008 608.407 17.368 609.559 17.368C610.503 17.368 611.287 17.152 611.911 16.72C612.551 16.272 612.999 15.68 613.255 14.944H615.607C615.255 16.208 614.551 17.24 613.495 18.04C612.439 18.824 611.127 19.216 609.559 19.216C608.311 19.216 607.191 18.936 606.199 18.376C605.223 17.816 604.455 17.024 603.895 16C603.335 14.96 603.055 13.76 603.055 12.4C603.055 11.04 603.327 9.848 603.871 8.824C604.415 7.8 605.175 7.016 606.151 6.472C607.143 5.912 608.279 5.632 609.559 5.632C610.807 5.632 611.911 5.904 612.871 6.448C613.831 6.992 614.567 7.744 615.079 8.704C615.607 9.648 615.871 10.72 615.871 11.92ZM613.615 11.464C613.615 10.632 613.431 9.92 613.063 9.328C612.695 8.72 612.191 8.264 611.551 7.96C610.927 7.64 610.231 7.48 609.463 7.48C608.359 7.48 607.415 7.832 606.631 8.536C605.863 9.24 605.423 10.216 605.311 11.464H613.615ZM623.65 16.984L627.73 5.848H630.058L624.898 19H622.354L617.194 5.848H619.546L623.65 16.984ZM644.207 11.92C644.207 12.336 644.183 12.776 644.135 13.24H633.623C633.703 14.536 634.143 15.552 634.943 16.288C635.759 17.008 636.743 17.368 637.895 17.368C638.839 17.368 639.623 17.152 640.247 16.72C640.887 16.272 641.335 15.68 641.591 14.944H643.943C643.591 16.208 642.887 17.24 641.831 18.04C640.775 18.824 639.463 19.216 637.895 19.216C636.647 19.216 635.527 18.936 634.535 18.376C633.559 17.816 632.791 17.024 632.231 16C631.671 14.96 631.391 13.76 631.391 12.4C631.391 11.04 631.663 9.848 632.207 8.824C632.751 7.8 633.511 7.016 634.487 6.472C635.479 5.912 636.615 5.632 637.895 5.632C639.143 5.632 640.247 5.904 641.207 6.448C642.167 6.992 642.903 7.744 643.415 8.704C643.943 9.648 644.207 10.72 644.207 11.92ZM641.951 11.464C641.951 10.632 641.767 9.92 641.399 9.328C641.031 8.72 640.527 8.264 639.887 7.96C639.263 7.64 638.567 7.48 637.799 7.48C636.695 7.48 635.751 7.832 634.967 8.536C634.199 9.24 633.759 10.216 633.647 11.464H641.951ZM653.498 5.608C655.098 5.608 656.394 6.096 657.386 7.072C658.378 8.032 658.874 9.424 658.874 11.248V19H656.714V11.56C656.714 10.248 656.386 9.248 655.73 8.56C655.074 7.856 654.178 7.504 653.042 7.504C651.89 7.504 650.97 7.864 650.282 8.584C649.61 9.304 649.274 10.352 649.274 11.728V19H647.09V5.848H649.274V7.72C649.706 7.048 650.29 6.528 651.026 6.16C651.778 5.792 652.602 5.608 653.498 5.608ZM665.106 7.648V15.4C665.106 16.04 665.242 16.496 665.514 16.768C665.786 17.024 666.258 17.152 666.93 17.152H668.538V19H666.57C665.354 19 664.442 18.72 663.834 18.16C663.226 17.6 662.922 16.68 662.922 15.4V7.648H661.218V5.848H662.922V2.536H665.106V5.848H668.538V7.648H665.106ZM695.102 5.848L690.998 19H688.742L685.574 8.56L682.406 19H680.15L676.022 5.848H678.254L681.278 16.888L684.542 5.848H686.774L689.966 16.912L692.942 5.848H695.102ZM703.798 5.608C704.79 5.608 705.686 5.824 706.486 6.256C707.286 6.672 707.91 7.304 708.358 8.152C708.822 9 709.054 10.032 709.054 11.248V19H706.894V11.56C706.894 10.248 706.566 9.248 705.91 8.56C705.254 7.856 704.358 7.504 703.222 7.504C702.07 7.504 701.15 7.864 700.462 8.584C699.79 9.304 699.454 10.352 699.454 11.728V19H697.27V1.24H699.454V7.72C699.886 7.048 700.478 6.528 701.23 6.16C701.998 5.792 702.854 5.608 703.798 5.608ZM724.621 11.92C724.621 12.336 724.597 12.776 724.549 13.24H714.037C714.117 14.536 714.557 15.552 715.357 16.288C716.173 17.008 717.157 17.368 718.309 17.368C719.253 17.368 720.037 17.152 720.661 16.72C721.301 16.272 721.749 15.68 722.005 14.944H724.357C724.005 16.208 723.301 17.24 722.245 18.04C721.189 18.824 719.877 19.216 718.309 19.216C717.061 19.216 715.941 18.936 714.949 18.376C713.973 17.816 713.205 17.024 712.645 16C712.085 14.96 711.805 13.76 711.805 12.4C711.805 11.04 712.077 9.848 712.621 8.824C713.165 7.8 713.925 7.016 714.901 6.472C715.893 5.912 717.029 5.632 718.309 5.632C719.557 5.632 720.661 5.904 721.621 6.448C722.581 6.992 723.317 7.744 723.829 8.704C724.357 9.648 724.621 10.72 724.621 11.92ZM722.365 11.464C722.365 10.632 722.181 9.92 721.813 9.328C721.445 8.72 720.941 8.264 720.301 7.96C719.677 7.64 718.981 7.48 718.213 7.48C717.109 7.48 716.165 7.832 715.381 8.536C714.613 9.24 714.173 10.216 714.061 11.464H722.365ZM733.912 5.608C735.512 5.608 736.808 6.096 737.8 7.072C738.792 8.032 739.288 9.424 739.288 11.248V19H737.128V11.56C737.128 10.248 736.8 9.248 736.144 8.56C735.488 7.856 734.592 7.504 733.456 7.504C732.304 7.504 731.384 7.864 730.696 8.584C730.024 9.304 729.688 10.352 729.688 11.728V19H727.504V5.848H729.688V7.72C730.12 7.048 730.704 6.528 731.44 6.16C732.192 5.792 733.016 5.608 733.912 5.608ZM748.438 12.376C748.438 11.032 748.71 9.856 749.254 8.848C749.798 7.824 750.542 7.032 751.486 6.472C752.446 5.912 753.518 5.632 754.702 5.632C755.726 5.632 756.678 5.872 757.558 6.352C758.438 6.816 759.11 7.432 759.574 8.2V1.24H761.782V19H759.574V16.528C759.142 17.312 758.502 17.96 757.654 18.472C756.806 18.968 755.814 19.216 754.678 19.216C753.51 19.216 752.446 18.928 751.486 18.352C750.542 17.776 749.798 16.968 749.254 15.928C748.71 14.888 748.438 13.704 748.438 12.376ZM759.574 12.4C759.574 11.408 759.374 10.544 758.974 9.808C758.574 9.072 758.03 8.512 757.342 8.128C756.67 7.728 755.926 7.528 755.11 7.528C754.294 7.528 753.55 7.72 752.878 8.104C752.206 8.488 751.67 9.048 751.27 9.784C750.87 10.52 750.67 11.384 750.67 12.376C750.67 13.384 750.87 14.264 751.27 15.016C751.67 15.752 752.206 16.32 752.878 16.72C753.55 17.104 754.294 17.296 755.11 17.296C755.926 17.296 756.67 17.104 757.342 16.72C758.03 16.32 758.574 15.752 758.974 15.016C759.374 14.264 759.574 13.392 759.574 12.4ZM777.473 11.92C777.473 12.336 777.449 12.776 777.401 13.24H766.889C766.969 14.536 767.409 15.552 768.209 16.288C769.025 17.008 770.009 17.368 771.161 17.368C772.105 17.368 772.889 17.152 773.513 16.72C774.153 16.272 774.601 15.68 774.857 14.944H777.209C776.857 16.208 776.153 17.24 775.097 18.04C774.041 18.824 772.729 19.216 771.161 19.216C769.913 19.216 768.793 18.936 767.801 18.376C766.825 17.816 766.057 17.024 765.497 16C764.937 14.96 764.657 13.76 764.657 12.4C764.657 11.04 764.929 9.848 765.473 8.824C766.017 7.8 766.777 7.016 767.753 6.472C768.745 5.912 769.881 5.632 771.161 5.632C772.409 5.632 773.513 5.904 774.473 6.448C775.433 6.992 776.169 7.744 776.681 8.704C777.209 9.648 777.473 10.72 777.473 11.92ZM775.217 11.464C775.217 10.632 775.033 9.92 774.665 9.328C774.297 8.72 773.793 8.264 773.153 7.96C772.529 7.64 771.833 7.48 771.065 7.48C769.961 7.48 769.017 7.832 768.233 8.536C767.465 9.24 767.025 10.216 766.913 11.464H775.217ZM792.356 11.92C792.356 12.336 792.332 12.776 792.284 13.24H781.772C781.852 14.536 782.292 15.552 783.092 16.288C783.908 17.008 784.892 17.368 786.044 17.368C786.988 17.368 787.772 17.152 788.396 16.72C789.036 16.272 789.484 15.68 789.74 14.944H792.092C791.74 16.208 791.036 17.24 789.98 18.04C788.924 18.824 787.612 19.216 786.044 19.216C784.796 19.216 783.676 18.936 782.684 18.376C781.708 17.816 780.94 17.024 780.38 16C779.82 14.96 779.54 13.76 779.54 12.4C779.54 11.04 779.812 9.848 780.356 8.824C780.9 7.8 781.66 7.016 782.636 6.472C783.628 5.912 784.764 5.632 786.044 5.632C787.292 5.632 788.396 5.904 789.356 6.448C790.316 6.992 791.052 7.744 791.564 8.704C792.092 9.648 792.356 10.72 792.356 11.92ZM790.1 11.464C790.1 10.632 789.916 9.92 789.548 9.328C789.18 8.72 788.676 8.264 788.036 7.96C787.412 7.64 786.716 7.48 785.948 7.48C784.844 7.48 783.9 7.832 783.116 8.536C782.348 9.24 781.908 10.216 781.796 11.464H790.1ZM811.055 5.608C812.079 5.608 812.991 5.824 813.791 6.256C814.591 6.672 815.223 7.304 815.687 8.152C816.151 9 816.383 10.032 816.383 11.248V19H814.223V11.56C814.223 10.248 813.895 9.248 813.239 8.56C812.599 7.856 811.727 7.504 810.623 7.504C809.487 7.504 808.583 7.872 807.911 8.608C807.239 9.328 806.903 10.376 806.903 11.752V19H804.743V11.56C804.743 10.248 804.415 9.248 803.759 8.56C803.119 7.856 802.247 7.504 801.143 7.504C800.007 7.504 799.103 7.872 798.431 8.608C797.759 9.328 797.423 10.376 797.423 11.752V19H795.239V5.848H797.423V7.744C797.855 7.056 798.431 6.528 799.151 6.16C799.887 5.792 800.695 5.608 801.575 5.608C802.679 5.608 803.655 5.856 804.503 6.352C805.351 6.848 805.983 7.576 806.399 8.536C806.767 7.608 807.375 6.888 808.223 6.376C809.071 5.864 810.015 5.608 811.055 5.608ZM831.965 11.92C831.965 12.336 831.941 12.776 831.893 13.24H821.381C821.461 14.536 821.901 15.552 822.701 16.288C823.517 17.008 824.501 17.368 825.653 17.368C826.597 17.368 827.381 17.152 828.005 16.72C828.645 16.272 829.093 15.68 829.349 14.944H831.701C831.349 16.208 830.645 17.24 829.589 18.04C828.533 18.824 827.221 19.216 825.653 19.216C824.405 19.216 823.285 18.936 822.293 18.376C821.317 17.816 820.549 17.024 819.989 16C819.429 14.96 819.149 13.76 819.149 12.4C819.149 11.04 819.421 9.848 819.965 8.824C820.509 7.8 821.269 7.016 822.245 6.472C823.237 5.912 824.373 5.632 825.653 5.632C826.901 5.632 828.005 5.904 828.965 6.448C829.925 6.992 830.661 7.744 831.173 8.704C831.701 9.648 831.965 10.72 831.965 11.92ZM829.709 11.464C829.709 10.632 829.525 9.92 829.157 9.328C828.789 8.72 828.285 8.264 827.645 7.96C827.021 7.64 826.325 7.48 825.557 7.48C824.453 7.48 823.509 7.832 822.725 8.536C821.957 9.24 821.517 10.216 821.405 11.464H829.709ZM834.032 12.376C834.032 11.032 834.304 9.856 834.848 8.848C835.392 7.824 836.136 7.032 837.08 6.472C838.04 5.912 839.112 5.632 840.296 5.632C841.32 5.632 842.272 5.872 843.152 6.352C844.032 6.816 844.704 7.432 845.168 8.2V1.24H847.376V19H845.168V16.528C844.736 17.312 844.096 17.96 843.248 18.472C842.4 18.968 841.408 19.216 840.272 19.216C839.104 19.216 838.04 18.928 837.08 18.352C836.136 17.776 835.392 16.968 834.848 15.928C834.304 14.888 834.032 13.704 834.032 12.376ZM845.168 12.4C845.168 11.408 844.968 10.544 844.568 9.808C844.168 9.072 843.624 8.512 842.936 8.128C842.264 7.728 841.52 7.528 840.704 7.528C839.888 7.528 839.144 7.72 838.472 8.104C837.8 8.488 837.264 9.048 836.864 9.784C836.464 10.52 836.264 11.384 836.264 12.376C836.264 13.384 836.464 14.264 836.864 15.016C837.264 15.752 837.8 16.32 838.472 16.72C839.144 17.104 839.888 17.296 840.704 17.296C841.52 17.296 842.264 17.104 842.936 16.72C843.624 16.32 844.168 15.752 844.568 15.016C844.968 14.264 845.168 13.392 845.168 12.4ZM863.873 5.608C865.473 5.608 866.769 6.096 867.761 7.072C868.753 8.032 869.249 9.424 869.249 11.248V19H867.089V11.56C867.089 10.248 866.761 9.248 866.105 8.56C865.449 7.856 864.553 7.504 863.417 7.504C862.265 7.504 861.345 7.864 860.657 8.584C859.985 9.304 859.649 10.352 859.649 11.728V19H857.465V5.848H859.649V7.72C860.081 7.048 860.665 6.528 861.401 6.16C862.153 5.792 862.977 5.608 863.873 5.608ZM884.817 11.92C884.817 12.336 884.793 12.776 884.745 13.24H874.233C874.313 14.536 874.753 15.552 875.553 16.288C876.369 17.008 877.353 17.368 878.505 17.368C879.449 17.368 880.233 17.152 880.857 16.72C881.497 16.272 881.945 15.68 882.201 14.944H884.553C884.201 16.208 883.497 17.24 882.441 18.04C881.385 18.824 880.073 19.216 878.505 19.216C877.257 19.216 876.137 18.936 875.145 18.376C874.169 17.816 873.401 17.024 872.841 16C872.281 14.96 872.001 13.76 872.001 12.4C872.001 11.04 872.273 9.848 872.817 8.824C873.361 7.8 874.121 7.016 875.097 6.472C876.089 5.912 877.225 5.632 878.505 5.632C879.753 5.632 880.857 5.904 881.817 6.448C882.777 6.992 883.513 7.744 884.025 8.704C884.553 9.648 884.817 10.72 884.817 11.92ZM882.561 11.464C882.561 10.632 882.377 9.92 882.009 9.328C881.641 8.72 881.137 8.264 880.497 7.96C879.873 7.64 879.177 7.48 878.409 7.48C877.305 7.48 876.361 7.832 875.577 8.536C874.809 9.24 874.369 10.216 874.257 11.464H882.561ZM886.884 12.4C886.884 11.04 887.156 9.856 887.7 8.848C888.244 7.824 888.996 7.032 889.956 6.472C890.932 5.912 892.044 5.632 893.292 5.632C894.908 5.632 896.236 6.024 897.276 6.808C898.332 7.592 899.028 8.68 899.364 10.072H897.012C896.788 9.272 896.348 8.64 895.692 8.176C895.052 7.712 894.252 7.48 893.292 7.48C892.044 7.48 891.036 7.912 890.268 8.776C889.5 9.624 889.116 10.832 889.116 12.4C889.116 13.984 889.5 15.208 890.268 16.072C891.036 16.936 892.044 17.368 893.292 17.368C894.252 17.368 895.052 17.144 895.692 16.696C896.332 16.248 896.772 15.608 897.012 14.776H899.364C899.012 16.12 898.308 17.2 897.252 18.016C896.196 18.816 894.876 19.216 893.292 19.216C892.044 19.216 890.932 18.936 889.956 18.376C888.996 17.816 888.244 17.024 887.7 16C887.156 14.976 886.884 13.776 886.884 12.4ZM914.278 11.92C914.278 12.336 914.254 12.776 914.206 13.24H903.694C903.774 14.536 904.214 15.552 905.014 16.288C905.83 17.008 906.814 17.368 907.966 17.368C908.91 17.368 909.694 17.152 910.318 16.72C910.958 16.272 911.406 15.68 911.662 14.944H914.014C913.662 16.208 912.958 17.24 911.902 18.04C910.846 18.824 909.534 19.216 907.966 19.216C906.718 19.216 905.598 18.936 904.606 18.376C903.63 17.816 902.862 17.024 902.302 16C901.742 14.96 901.462 13.76 901.462 12.4C901.462 11.04 901.734 9.848 902.278 8.824C902.822 7.8 903.582 7.016 904.558 6.472C905.55 5.912 906.686 5.632 907.966 5.632C909.214 5.632 910.318 5.904 911.278 6.448C912.238 6.992 912.974 7.744 913.486 8.704C914.014 9.648 914.278 10.72 914.278 11.92ZM912.022 11.464C912.022 10.632 911.838 9.92 911.47 9.328C911.102 8.72 910.598 8.264 909.958 7.96C909.334 7.64 908.638 7.48 907.87 7.48C906.766 7.48 905.822 7.832 905.038 8.536C904.27 9.24 903.83 10.216 903.718 11.464H912.022ZM921.817 19.216C920.809 19.216 919.905 19.048 919.105 18.712C918.305 18.36 917.673 17.88 917.209 17.272C916.745 16.648 916.489 15.936 916.441 15.136H918.697C918.761 15.792 919.065 16.328 919.609 16.744C920.169 17.16 920.897 17.368 921.793 17.368C922.625 17.368 923.281 17.184 923.761 16.816C924.241 16.448 924.481 15.984 924.481 15.424C924.481 14.848 924.225 14.424 923.713 14.152C923.201 13.864 922.409 13.584 921.337 13.312C920.361 13.056 919.561 12.8 918.937 12.544C918.329 12.272 917.801 11.88 917.353 11.368C916.921 10.84 916.705 10.152 916.705 9.304C916.705 8.632 916.905 8.016 917.305 7.456C917.705 6.896 918.273 6.456 919.009 6.136C919.745 5.8 920.585 5.632 921.529 5.632C922.985 5.632 924.161 6 925.057 6.736C925.953 7.472 926.433 8.48 926.497 9.76H924.313C924.265 9.072 923.985 8.52 923.473 8.104C922.977 7.688 922.305 7.48 921.457 7.48C920.673 7.48 920.049 7.648 919.585 7.984C919.121 8.32 918.889 8.76 918.889 9.304C918.889 9.736 919.025 10.096 919.297 10.384C919.585 10.656 919.937 10.88 920.353 11.056C920.785 11.216 921.377 11.4 922.129 11.608C923.073 11.864 923.841 12.12 924.433 12.376C925.025 12.616 925.529 12.984 925.945 13.48C926.377 13.976 926.601 14.624 926.617 15.424C926.617 16.144 926.417 16.792 926.017 17.368C925.617 17.944 925.049 18.4 924.313 18.736C923.593 19.056 922.761 19.216 921.817 19.216ZM934.356 19.216C933.348 19.216 932.444 19.048 931.644 18.712C930.844 18.36 930.212 17.88 929.748 17.272C929.284 16.648 929.028 15.936 928.98 15.136H931.236C931.3 15.792 931.604 16.328 932.148 16.744C932.708 17.16 933.436 17.368 934.332 17.368C935.164 17.368 935.82 17.184 936.3 16.816C936.78 16.448 937.02 15.984 937.02 15.424C937.02 14.848 936.764 14.424 936.252 14.152C935.74 13.864 934.948 13.584 933.876 13.312C932.9 13.056 932.1 12.8 931.476 12.544C930.868 12.272 930.34 11.88 929.892 11.368C929.46 10.84 929.244 10.152 929.244 9.304C929.244 8.632 929.444 8.016 929.844 7.456C930.244 6.896 930.812 6.456 931.548 6.136C932.284 5.8 933.124 5.632 934.068 5.632C935.524 5.632 936.7 6 937.596 6.736C938.492 7.472 938.972 8.48 939.036 9.76H936.852C936.804 9.072 936.524 8.52 936.012 8.104C935.516 7.688 934.844 7.48 933.996 7.48C933.212 7.48 932.588 7.648 932.124 7.984C931.66 8.32 931.428 8.76 931.428 9.304C931.428 9.736 931.564 10.096 931.836 10.384C932.124 10.656 932.476 10.88 932.892 11.056C933.324 11.216 933.916 11.4 934.668 11.608C935.612 11.864 936.38 12.12 936.972 12.376C937.564 12.616 938.068 12.984 938.484 13.48C938.916 13.976 939.14 14.624 939.156 15.424C939.156 16.144 938.956 16.792 938.556 17.368C938.156 17.944 937.588 18.4 936.852 18.736C936.132 19.056 935.3 19.216 934.356 19.216ZM941.423 12.376C941.423 11.032 941.695 9.856 942.239 8.848C942.783 7.824 943.527 7.032 944.471 6.472C945.431 5.912 946.495 5.632 947.663 5.632C948.815 5.632 949.815 5.88 950.663 6.376C951.511 6.872 952.143 7.496 952.559 8.248V5.848H954.767V19H952.559V16.552C952.127 17.32 951.479 17.96 950.615 18.472C949.767 18.968 948.775 19.216 947.639 19.216C946.471 19.216 945.415 18.928 944.471 18.352C943.527 17.776 942.783 16.968 942.239 15.928C941.695 14.888 941.423 13.704 941.423 12.376ZM952.559 12.4C952.559 11.408 952.359 10.544 951.959 9.808C951.559 9.072 951.015 8.512 950.327 8.128C949.655 7.728 948.911 7.528 948.095 7.528C947.279 7.528 946.535 7.72 945.863 8.104C945.191 8.488 944.655 9.048 944.255 9.784C943.855 10.52 943.655 11.384 943.655 12.376C943.655 13.384 943.855 14.264 944.255 15.016C944.655 15.752 945.191 16.32 945.863 16.72C946.535 17.104 947.279 17.296 948.095 17.296C948.911 17.296 949.655 17.104 950.327 16.72C951.015 16.32 951.559 15.752 951.959 15.016C952.359 14.264 952.559 13.392 952.559 12.4ZM960.641 7.984C961.025 7.232 961.569 6.648 962.273 6.232C962.993 5.816 963.865 5.608 964.889 5.608V7.864H964.313C961.865 7.864 960.641 9.192 960.641 11.848V19H958.457V5.848H960.641V7.984ZM978.739 5.848L970.819 25.192H968.562L971.155 18.856L965.851 5.848H968.275L972.403 16.504L976.483 5.848H978.739ZM988.374 2.92L989.238 4.48L985.902 5.872L989.262 7.24L988.35 8.848L985.446 6.736L985.83 10.36H984.03L984.39 6.736L981.486 8.872L980.55 7.24L983.886 5.848L980.55 4.504L981.438 2.896L984.414 5.032L984.03 1.384H985.854L985.446 5.032L988.374 2.92Z" fill="#FFF176"/>
</svg>
