<svg width="599" height="119" viewBox="0 0 599 119" fill="none" xmlns="http://www.w3.org/2000/svg">
<g filter="url(#filter0_d_172_704)">
<path d="M63.033 68H54.996L45.173 47.649L41.554 68H33.517L39.345 35.006H47.382L57.205 55.451L60.824 35.006H68.861L63.033 68ZM80.8438 68.376C78.5878 68.376 76.5825 67.9217 74.8278 67.013C73.0731 66.1043 71.7101 64.8197 70.7388 63.159C69.7988 61.4983 69.3288 59.5713 69.3288 57.378C69.3288 54.4013 70.0338 51.691 71.4438 49.247C72.8538 46.803 74.7965 44.8917 77.2718 43.513C79.7471 42.103 82.5045 41.398 85.5438 41.398C87.7998 41.398 89.8051 41.868 91.5598 42.808C93.3458 43.7167 94.7245 45.0013 95.6958 46.662C96.6671 48.3227 97.1528 50.2497 97.1528 52.443C97.1528 55.451 96.4321 58.177 94.9908 60.621C93.5808 63.0337 91.6225 64.9293 89.1158 66.308C86.6405 67.6867 83.8831 68.376 80.8438 68.376ZM81.9718 61.467C83.2878 61.467 84.4628 61.0753 85.4968 60.292C86.5621 59.4773 87.3768 58.4433 87.9408 57.19C88.5361 55.9053 88.8338 54.5737 88.8338 53.195C88.8338 51.6283 88.4108 50.422 87.5648 49.576C86.7188 48.73 85.6535 48.307 84.3688 48.307C83.0215 48.307 81.8308 48.7143 80.7968 49.529C79.7941 50.3123 79.0108 51.3463 78.4468 52.631C77.8828 53.9157 77.6008 55.263 77.6008 56.673C77.6008 58.2083 78.0081 59.399 78.8228 60.245C79.6375 61.0597 80.6871 61.467 81.9718 61.467ZM109.689 58.976C109.657 59.1327 109.642 59.3363 109.642 59.587C109.642 60.151 109.798 60.5583 110.112 60.809C110.456 61.0597 111.005 61.185 111.757 61.185H114.624L113.402 68H109.313C104.049 68 101.417 65.791 101.417 61.373C101.417 60.715 101.495 59.8847 101.652 58.882L103.532 48.448H100.336L101.511 41.774H104.707L105.835 35.382H113.872L112.744 41.774H118.008L116.833 48.448H111.569L109.689 58.976ZM129.508 54.84C129.978 52.1453 130.903 49.7797 132.281 47.743C133.66 45.7063 135.321 44.1397 137.263 43.043C139.206 41.9463 141.258 41.398 143.42 41.398C145.269 41.398 146.82 41.774 148.073 42.526C149.327 43.278 150.235 44.265 150.799 45.487L151.457 41.774H159.494L154.841 68H146.804L147.509 64.287C146.507 65.509 145.238 66.496 143.702 67.248C142.167 68 140.475 68.376 138.626 68.376C136.778 68.376 135.133 67.953 133.691 67.107C132.281 66.261 131.185 65.0703 130.401 63.535C129.618 61.9683 129.226 60.1353 129.226 58.036C129.226 57.0333 129.32 55.968 129.508 54.84ZM149.154 54.887C149.248 54.323 149.295 53.806 149.295 53.336C149.295 51.8007 148.841 50.5943 147.932 49.717C147.055 48.8397 145.927 48.401 144.548 48.401C142.95 48.401 141.493 48.9807 140.177 50.14C138.861 51.268 138.031 52.8347 137.686 54.84C137.592 55.404 137.545 55.921 137.545 56.391C137.545 57.9263 137.984 59.1483 138.861 60.057C139.77 60.9343 140.898 61.373 142.245 61.373C143.843 61.373 145.3 60.7933 146.616 59.634C147.932 58.4747 148.778 56.8923 149.154 54.887ZM183.331 46.521C184.553 44.9543 185.947 43.7323 187.514 42.855C189.112 41.9463 190.772 41.492 192.496 41.492L190.992 49.999H188.783C186.777 49.999 185.195 50.4377 184.036 51.315C182.876 52.161 182.109 53.665 181.733 55.827L179.571 68H171.534L176.14 41.774H184.177L183.331 46.521ZM207.993 41.398C211.377 41.398 214.056 42.3223 216.03 44.171C218.035 45.9883 219.038 48.4793 219.038 51.644C219.038 52.678 218.96 53.6023 218.803 54.417C218.678 55.1377 218.49 55.9053 218.239 56.72H200.05C200.019 56.908 200.003 57.2057 200.003 57.613C200.003 58.9917 200.379 60.0413 201.131 60.762C201.883 61.4827 202.886 61.843 204.139 61.843C206.144 61.843 207.68 60.997 208.745 59.305H217.299C216.171 61.9683 214.338 64.146 211.8 65.838C209.262 67.53 206.411 68.376 203.246 68.376C199.862 68.376 197.152 67.436 195.115 65.556C193.11 63.676 192.107 61.1223 192.107 57.895C192.107 56.9237 192.201 55.921 192.389 54.887C192.859 52.161 193.83 49.7797 195.303 47.743C196.776 45.7063 198.609 44.1397 200.802 43.043C202.995 41.9463 205.392 41.398 207.993 41.398ZM210.907 52.631C210.97 52.1923 211.001 51.8947 211.001 51.738C211.001 50.4847 210.609 49.529 209.826 48.871C209.043 48.1817 208.009 47.837 206.724 47.837C205.345 47.837 204.123 48.26 203.058 49.106C202.024 49.9207 201.272 51.0957 200.802 52.631H210.907ZM235.263 41.398C237.112 41.398 238.678 41.774 239.963 42.526C241.248 43.278 242.141 44.265 242.642 45.487L243.3 41.774H251.337L246.731 67.953C246.292 70.3657 245.415 72.5433 244.099 74.486C242.814 76.46 241.075 78.0267 238.882 79.186C236.72 80.3453 234.198 80.925 231.315 80.925C227.43 80.925 224.437 80.0007 222.338 78.152C220.239 76.3347 219.299 73.8593 219.518 70.726H227.461C227.555 71.7287 228.009 72.512 228.824 73.076C229.67 73.6713 230.782 73.969 232.161 73.969C233.822 73.969 235.232 73.4833 236.391 72.512C237.55 71.572 238.318 70.0523 238.694 67.953L239.352 64.24C238.349 65.462 237.08 66.4647 235.545 67.248C234.041 68 232.365 68.376 230.516 68.376C228.667 68.376 227.022 67.953 225.581 67.107C224.171 66.261 223.059 65.0547 222.244 63.488C221.461 61.9213 221.069 60.0883 221.069 57.989C221.069 57.0177 221.163 55.968 221.351 54.84C221.821 52.1453 222.745 49.7797 224.124 47.743C225.503 45.7063 227.163 44.1397 229.106 43.043C231.049 41.9463 233.101 41.398 235.263 41.398ZM240.997 54.887C241.091 54.323 241.138 53.806 241.138 53.336C241.138 51.8007 240.684 50.5943 239.775 49.717C238.898 48.8397 237.77 48.401 236.391 48.401C234.793 48.401 233.336 48.9807 232.02 50.14C230.704 51.268 229.874 52.8347 229.529 54.84C229.435 55.404 229.388 55.921 229.388 56.391C229.388 57.9263 229.827 59.1483 230.704 60.057C231.613 60.9343 232.741 61.373 234.088 61.373C235.686 61.373 237.143 60.7933 238.459 59.634C239.775 58.4747 240.621 56.8923 240.997 54.887ZM261.663 39.048C260.41 39.048 259.407 38.719 258.655 38.061C257.935 37.3717 257.574 36.51 257.574 35.476C257.574 34.066 258.123 32.8597 259.219 31.857C260.316 30.8543 261.648 30.353 263.214 30.353C264.468 30.353 265.455 30.6977 266.175 31.387C266.896 32.045 267.256 32.9067 267.256 33.972C267.256 35.3507 266.708 36.5413 265.611 37.544C264.515 38.5467 263.199 39.048 261.663 39.048ZM265.141 41.774L260.535 68H252.498L257.104 41.774H265.141ZM277.264 68.376C275.196 68.376 273.331 68.047 271.671 67.389C270.041 66.731 268.757 65.8223 267.817 64.663C266.877 63.4723 266.407 62.1093 266.407 60.574C266.407 60.3547 266.438 59.963 266.501 59.399H274.256C274.193 60.3703 274.475 61.1537 275.102 61.749C275.76 62.313 276.684 62.595 277.875 62.595C278.877 62.595 279.708 62.407 280.366 62.031C281.024 61.655 281.353 61.1223 281.353 60.433C281.353 59.775 280.992 59.258 280.272 58.882C279.582 58.4747 278.423 57.989 276.794 57.425C275.102 56.861 273.676 56.3127 272.517 55.78C271.389 55.216 270.417 54.417 269.603 53.383C268.788 52.349 268.381 51.0487 268.381 49.482C268.381 47.9467 268.835 46.568 269.744 45.346C270.652 44.0927 271.921 43.1213 273.551 42.432C275.211 41.7427 277.123 41.398 279.285 41.398C281.447 41.398 283.327 41.7583 284.925 42.479C286.523 43.1683 287.76 44.1397 288.638 45.393C289.515 46.6463 289.954 48.0563 289.954 49.623L289.907 50.328H282.622C282.684 49.388 282.402 48.636 281.776 48.072C281.149 47.508 280.256 47.226 279.097 47.226C278.188 47.226 277.436 47.414 276.841 47.79C276.277 48.166 275.995 48.683 275.995 49.341C275.995 50.0303 276.371 50.61 277.123 51.08C277.906 51.5187 279.112 52.02 280.742 52.584C282.434 53.148 283.828 53.712 284.925 54.276C286.053 54.8087 287.008 55.5763 287.792 56.579C288.606 57.5503 289.014 58.7723 289.014 60.245C289.014 61.937 288.497 63.394 287.463 64.616C286.46 65.838 285.066 66.778 283.28 67.436C281.525 68.0627 279.52 68.376 277.264 68.376ZM303.472 58.976C303.44 59.1327 303.425 59.3363 303.425 59.587C303.425 60.151 303.581 60.5583 303.895 60.809C304.239 61.0597 304.788 61.185 305.54 61.185H308.407L307.185 68H303.096C297.832 68 295.2 65.791 295.2 61.373C295.2 60.715 295.278 59.8847 295.435 58.882L297.315 48.448H294.119L295.294 41.774H298.49L299.618 35.382H307.655L306.527 41.774H311.791L310.616 48.448H305.352L303.472 58.976ZM328.018 41.398C331.402 41.398 334.081 42.3223 336.055 44.171C338.06 45.9883 339.063 48.4793 339.063 51.644C339.063 52.678 338.984 53.6023 338.828 54.417C338.702 55.1377 338.514 55.9053 338.264 56.72H320.075C320.043 56.908 320.028 57.2057 320.028 57.613C320.028 58.9917 320.404 60.0413 321.156 60.762C321.908 61.4827 322.91 61.843 324.164 61.843C326.169 61.843 327.704 60.997 328.77 59.305H337.324C336.196 61.9683 334.363 64.146 331.825 65.838C329.287 67.53 326.435 68.376 323.271 68.376C319.887 68.376 317.176 67.436 315.14 65.556C313.134 63.676 312.132 61.1223 312.132 57.895C312.132 56.9237 312.226 55.921 312.414 54.887C312.884 52.161 313.855 49.7797 315.328 47.743C316.8 45.7063 318.633 44.1397 320.827 43.043C323.02 41.9463 325.417 41.398 328.018 41.398ZM330.932 52.631C330.994 52.1923 331.026 51.8947 331.026 51.738C331.026 50.4847 330.634 49.529 329.851 48.871C329.067 48.1817 328.033 47.837 326.749 47.837C325.37 47.837 324.148 48.26 323.083 49.106C322.049 49.9207 321.297 51.0957 320.827 52.631H330.932ZM352.42 46.521C353.642 44.9543 355.037 43.7323 356.603 42.855C358.201 41.9463 359.862 41.492 361.585 41.492L360.081 49.999H357.872C355.867 49.999 354.285 50.4377 353.125 51.315C351.966 52.161 351.198 53.665 350.822 55.827L348.66 68H340.623L345.229 41.774H353.266L352.42 46.521ZM377.083 41.398C380.467 41.398 383.146 42.3223 385.12 44.171C387.125 45.9883 388.128 48.4793 388.128 51.644C388.128 52.678 388.05 53.6023 387.893 54.417C387.768 55.1377 387.58 55.9053 387.329 56.72H369.14C369.109 56.908 369.093 57.2057 369.093 57.613C369.093 58.9917 369.469 60.0413 370.221 60.762C370.973 61.4827 371.976 61.843 373.229 61.843C375.234 61.843 376.77 60.997 377.835 59.305H386.389C385.261 61.9683 383.428 64.146 380.89 65.838C378.352 67.53 375.501 68.376 372.336 68.376C368.952 68.376 366.242 67.436 364.205 65.556C362.2 63.676 361.197 61.1223 361.197 57.895C361.197 56.9237 361.291 55.921 361.479 54.887C361.949 52.161 362.92 49.7797 364.393 47.743C365.866 45.7063 367.699 44.1397 369.892 43.043C372.085 41.9463 374.482 41.398 377.083 41.398ZM379.997 52.631C380.06 52.1923 380.091 51.8947 380.091 51.738C380.091 50.4847 379.699 49.529 378.916 48.871C378.133 48.1817 377.099 47.837 375.814 47.837C374.435 47.837 373.213 48.26 372.148 49.106C371.114 49.9207 370.362 51.0957 369.892 52.631H379.997ZM390.441 54.84C390.911 52.1453 391.835 49.7797 393.214 47.743C394.593 45.7063 396.253 44.1397 398.196 43.043C400.139 41.9463 402.191 41.398 404.353 41.398C406.076 41.398 407.58 41.7583 408.865 42.479C410.181 43.1997 411.137 44.171 411.732 45.393L413.894 33.22H421.931L415.774 68H407.737L408.395 64.24C407.392 65.4933 406.139 66.496 404.635 67.248C403.131 68 401.455 68.376 399.606 68.376C397.757 68.376 396.112 67.953 394.671 67.107C393.261 66.261 392.149 65.0547 391.334 63.488C390.551 61.9213 390.159 60.0883 390.159 57.989C390.159 57.0177 390.253 55.968 390.441 54.84ZM410.087 54.887C410.181 54.323 410.228 53.806 410.228 53.336C410.228 51.8007 409.774 50.5943 408.865 49.717C407.988 48.8397 406.86 48.401 405.481 48.401C403.883 48.401 402.426 48.9807 401.11 50.14C399.794 51.268 398.964 52.8347 398.619 54.84C398.525 55.404 398.478 55.921 398.478 56.391C398.478 57.9263 398.917 59.1483 399.794 60.057C400.703 60.9343 401.831 61.373 403.178 61.373C404.776 61.373 406.233 60.7933 407.549 59.634C408.865 58.4747 409.711 56.8923 410.087 54.887ZM462.969 41.774L458.363 68H450.326L450.937 64.428C449.903 65.5873 448.634 66.5273 447.13 67.248C445.658 67.9373 444.075 68.282 442.383 68.282C439.751 68.282 437.683 67.5457 436.179 66.073C434.675 64.569 433.923 62.4853 433.923 59.822C433.923 58.8193 434.002 57.9107 434.158 57.096L436.884 41.774H444.874L442.383 56.015C442.289 56.5163 442.242 57.002 442.242 57.472C442.242 58.788 442.603 59.8063 443.323 60.527C444.075 61.2163 445.109 61.561 446.425 61.561C447.929 61.561 449.198 61.1223 450.232 60.245C451.298 59.3363 452.003 58.0517 452.347 56.391L454.932 41.774H462.969ZM475.04 68.376C472.972 68.376 471.108 68.047 469.447 67.389C467.818 66.731 466.533 65.8223 465.593 64.663C464.653 63.4723 464.183 62.1093 464.183 60.574C464.183 60.3547 464.214 59.963 464.277 59.399H472.032C471.969 60.3703 472.251 61.1537 472.878 61.749C473.536 62.313 474.46 62.595 475.651 62.595C476.654 62.595 477.484 62.407 478.142 62.031C478.8 61.655 479.129 61.1223 479.129 60.433C479.129 59.775 478.769 59.258 478.048 58.882C477.359 58.4747 476.199 57.989 474.57 57.425C472.878 56.861 471.452 56.3127 470.293 55.78C469.165 55.216 468.194 54.417 467.379 53.383C466.564 52.349 466.157 51.0487 466.157 49.482C466.157 47.9467 466.611 46.568 467.52 45.346C468.429 44.0927 469.698 43.1213 471.327 42.432C472.988 41.7427 474.899 41.398 477.061 41.398C479.223 41.398 481.103 41.7583 482.701 42.479C484.299 43.1683 485.537 44.1397 486.414 45.393C487.291 46.6463 487.73 48.0563 487.73 49.623L487.683 50.328H480.398C480.461 49.388 480.179 48.636 479.552 48.072C478.925 47.508 478.032 47.226 476.873 47.226C475.964 47.226 475.212 47.414 474.617 47.79C474.053 48.166 473.771 48.683 473.771 49.341C473.771 50.0303 474.147 50.61 474.899 51.08C475.682 51.5187 476.889 52.02 478.518 52.584C480.21 53.148 481.604 53.712 482.701 54.276C483.829 54.8087 484.785 55.5763 485.568 56.579C486.383 57.5503 486.79 58.7723 486.79 60.245C486.79 61.937 486.273 63.394 485.239 64.616C484.236 65.838 482.842 66.778 481.056 67.436C479.301 68.0627 477.296 68.376 475.04 68.376ZM506.7 41.398C510.084 41.398 512.763 42.3223 514.737 44.171C516.742 45.9883 517.745 48.4793 517.745 51.644C517.745 52.678 517.667 53.6023 517.51 54.417C517.385 55.1377 517.197 55.9053 516.946 56.72H498.757C498.726 56.908 498.71 57.2057 498.71 57.613C498.71 58.9917 499.086 60.0413 499.838 60.762C500.59 61.4827 501.593 61.843 502.846 61.843C504.851 61.843 506.387 60.997 507.452 59.305H516.006C514.878 61.9683 513.045 64.146 510.507 65.838C507.969 67.53 505.118 68.376 501.953 68.376C498.569 68.376 495.859 67.436 493.822 65.556C491.817 63.676 490.814 61.1223 490.814 57.895C490.814 56.9237 490.908 55.921 491.096 54.887C491.566 52.161 492.537 49.7797 494.01 47.743C495.483 45.7063 497.316 44.1397 499.509 43.043C501.702 41.9463 504.099 41.398 506.7 41.398ZM509.614 52.631C509.677 52.1923 509.708 51.8947 509.708 51.738C509.708 50.4847 509.316 49.529 508.533 48.871C507.75 48.1817 506.716 47.837 505.431 47.837C504.052 47.837 502.83 48.26 501.765 49.106C500.731 49.9207 499.979 51.0957 499.509 52.631H509.614ZM531.103 46.521C532.325 44.9543 533.719 43.7323 535.286 42.855C536.884 41.9463 538.545 41.492 540.268 41.492L538.764 49.999H536.555C534.55 49.999 532.967 50.4377 531.808 51.315C530.649 52.161 529.881 53.665 529.505 55.827L527.343 68H519.306L523.912 41.774H531.949L531.103 46.521ZM555.249 33.173C558.163 33.173 560.466 33.8623 562.158 35.241C563.881 36.6197 564.743 38.578 564.743 41.116C564.743 41.868 564.68 42.573 564.555 43.231C564.022 46.1763 562.643 48.4793 560.419 50.14C558.194 51.7693 555.499 52.5997 552.335 52.631L551.489 56.156H544.439L545.708 47.414H548.528C550.972 47.414 552.883 47.1163 554.262 46.521C555.672 45.8943 556.502 44.782 556.753 43.184C556.784 43.0273 556.8 42.7923 556.8 42.479C556.8 41.633 556.549 40.975 556.048 40.505C555.546 40.0037 554.841 39.753 553.933 39.753C552.805 39.753 551.865 40.082 551.113 40.74C550.392 41.3667 549.938 42.2283 549.75 43.325H542.183C542.496 41.4137 543.217 39.6903 544.345 38.155C545.473 36.6197 546.961 35.4133 548.81 34.536C550.69 33.6273 552.836 33.173 555.249 33.173ZM545.896 68.376C544.642 68.376 543.64 68.047 542.888 67.389C542.167 66.6997 541.807 65.838 541.807 64.804C541.807 63.3627 542.339 62.1407 543.405 61.138C544.501 60.1353 545.849 59.634 547.447 59.634C548.669 59.634 549.64 59.9787 550.361 60.668C551.081 61.326 551.442 62.1877 551.442 63.253C551.442 64.663 550.893 65.8693 549.797 66.872C548.731 67.8747 547.431 68.376 545.896 68.376Z" fill="white"/>
</g>
<defs>
<filter id="filter0_d_172_704" x="0.115623" y="0.951561" width="598.027" height="117.37" filterUnits="userSpaceOnUse" color-interpolation-filters="sRGB">
<feFlood flood-opacity="0" result="BackgroundImageFix"/>
<feColorMatrix in="SourceAlpha" type="matrix" values="0 0 0 0 0 0 0 0 0 0 0 0 0 0 0 0 0 0 127 0" result="hardAlpha"/>
<feOffset dy="4"/>
<feGaussianBlur stdDeviation="16.7"/>
<feComposite in2="hardAlpha" operator="out"/>
<feColorMatrix type="matrix" values="0 0 0 0 1 0 0 0 0 0.958886 0 0 0 0 0.958886 0 0 0 0.49 0"/>
<feBlend mode="normal" in2="BackgroundImageFix" result="effect1_dropShadow_172_704"/>
<feBlend mode="normal" in="SourceGraphic" in2="effect1_dropShadow_172_704" result="shape"/>
</filter>
</defs>
</svg>
