<svg width="349" height="106" viewBox="0 0 349 106" fill="none" xmlns="http://www.w3.org/2000/svg">
<g filter="url(#filter0_d_172_709)">
<path d="M41.81 35.006V54.746C41.81 56.72 42.2957 58.2397 43.267 59.305C44.2383 60.3703 45.664 60.903 47.544 60.903C49.424 60.903 50.8653 60.3703 51.868 59.305C52.8707 58.2397 53.372 56.72 53.372 54.746V35.006H61.409V54.699C61.409 57.6443 60.7823 60.1353 59.529 62.172C58.2757 64.2087 56.5837 65.744 54.453 66.778C52.3537 67.812 50.0037 68.329 47.403 68.329C44.8023 68.329 42.468 67.8277 40.4 66.825C38.3633 65.791 36.7497 64.2557 35.559 62.219C34.3683 60.151 33.773 57.6443 33.773 54.699V35.006H41.81ZM77.7217 68.376C75.4343 68.376 73.3977 67.9843 71.6117 67.201C69.8257 66.4177 68.4157 65.3523 67.3817 64.005C66.3477 62.6263 65.768 61.091 65.6427 59.399H73.5857C73.6797 60.3077 74.1027 61.044 74.8547 61.608C75.6067 62.172 76.531 62.454 77.6277 62.454C78.6303 62.454 79.398 62.266 79.9307 61.89C80.4947 61.4827 80.7767 60.9657 80.7767 60.339C80.7767 59.587 80.385 59.0387 79.6017 58.694C78.8183 58.318 77.5493 57.9107 75.7947 57.472C73.9147 57.0333 72.348 56.579 71.0947 56.109C69.8413 55.6077 68.7603 54.84 67.8517 53.806C66.943 52.7407 66.4887 51.315 66.4887 49.529C66.4887 48.025 66.896 46.662 67.7107 45.44C68.5567 44.1867 69.7787 43.1997 71.3767 42.479C73.006 41.7583 74.933 41.398 77.1577 41.398C80.4477 41.398 83.0327 42.2127 84.9127 43.842C86.824 45.4713 87.9207 47.6333 88.2027 50.328H80.7767C80.6513 49.4193 80.244 48.6987 79.5547 48.166C78.8967 47.6333 78.0193 47.367 76.9227 47.367C75.9827 47.367 75.262 47.555 74.7607 47.931C74.2593 48.2757 74.0087 48.7613 74.0087 49.388C74.0087 50.14 74.4003 50.704 75.1837 51.08C75.9983 51.456 77.2517 51.832 78.9437 52.208C80.8863 52.7093 82.4687 53.2107 83.6907 53.712C84.9127 54.182 85.978 54.9653 86.8867 56.062C87.8267 57.1273 88.3123 58.5687 88.3437 60.386C88.3437 61.9213 87.905 63.3 87.0277 64.522C86.1817 65.7127 84.944 66.6527 83.3147 67.342C81.7167 68.0313 79.8523 68.376 77.7217 68.376ZM117.983 54.464C117.983 55.216 117.936 55.9993 117.842 56.814H99.6527C99.778 58.4433 100.295 59.6967 101.204 60.574C102.144 61.42 103.287 61.843 104.635 61.843C106.64 61.843 108.034 60.997 108.818 59.305H117.372C116.933 61.0283 116.134 62.5793 114.975 63.958C113.847 65.3367 112.421 66.4177 110.698 67.201C108.974 67.9843 107.047 68.376 104.917 68.376C102.347 68.376 100.06 67.8277 98.0547 66.731C96.0493 65.6343 94.4827 64.0677 93.3547 62.031C92.2267 59.9943 91.6627 57.613 91.6627 54.887C91.6627 52.161 92.211 49.7797 93.3077 47.743C94.4357 45.7063 96.0023 44.1397 98.0077 43.043C100.013 41.9463 102.316 41.398 104.917 41.398C107.455 41.398 109.711 41.9307 111.685 42.996C113.659 44.0613 115.194 45.581 116.291 47.555C117.419 49.529 117.983 51.832 117.983 54.464ZM109.758 52.349C109.758 50.9703 109.288 49.8737 108.348 49.059C107.408 48.2443 106.233 47.837 104.823 47.837C103.475 47.837 102.332 48.2287 101.392 49.012C100.483 49.7953 99.919 50.9077 99.6997 52.349H109.758ZM130.26 46.145C131.2 44.7037 132.375 43.5757 133.785 42.761C135.195 41.915 136.761 41.492 138.485 41.492V49.999H136.276C134.27 49.999 132.766 50.4377 131.764 51.315C130.761 52.161 130.26 53.665 130.26 55.827V68H122.223V41.774H130.26V46.145ZM164.647 35.006C168.125 35.006 171.164 35.6953 173.765 37.074C176.366 38.4527 178.371 40.3953 179.781 42.902C181.222 45.3773 181.943 48.2443 181.943 51.503C181.943 54.7303 181.222 57.5973 179.781 60.104C178.371 62.6107 176.35 64.5533 173.718 65.932C171.117 67.3107 168.094 68 164.647 68H152.286V35.006H164.647ZM164.13 61.044C167.169 61.044 169.535 60.2137 171.227 58.553C172.919 56.8923 173.765 54.5423 173.765 51.503C173.765 48.4637 172.919 46.098 171.227 44.406C169.535 42.714 167.169 41.868 164.13 41.868H160.323V61.044H164.13ZM211.157 54.464C211.157 55.216 211.11 55.9993 211.016 56.814H192.827C192.952 58.4433 193.469 59.6967 194.378 60.574C195.318 61.42 196.461 61.843 197.809 61.843C199.814 61.843 201.208 60.997 201.992 59.305H210.546C210.107 61.0283 209.308 62.5793 208.149 63.958C207.021 65.3367 205.595 66.4177 203.872 67.201C202.148 67.9843 200.221 68.376 198.091 68.376C195.521 68.376 193.234 67.8277 191.229 66.731C189.223 65.6343 187.657 64.0677 186.529 62.031C185.401 59.9943 184.837 57.613 184.837 54.887C184.837 52.161 185.385 49.7797 186.482 47.743C187.61 45.7063 189.176 44.1397 191.182 43.043C193.187 41.9463 195.49 41.398 198.091 41.398C200.629 41.398 202.885 41.9307 204.859 42.996C206.833 44.0613 208.368 45.581 209.465 47.555C210.593 49.529 211.157 51.832 211.157 54.464ZM202.932 52.349C202.932 50.9703 202.462 49.8737 201.522 49.059C200.582 48.2443 199.407 47.837 197.997 47.837C196.649 47.837 195.506 48.2287 194.566 49.012C193.657 49.7953 193.093 50.9077 192.874 52.349H202.932ZM230.013 61.185V68H225.924C223.01 68 220.739 67.295 219.109 65.885C217.48 64.4437 216.665 62.1093 216.665 58.882V48.448H213.469V41.774H216.665V35.382H224.702V41.774H229.966V48.448H224.702V58.976C224.702 59.7593 224.89 60.3233 225.266 60.668C225.642 61.0127 226.269 61.185 227.146 61.185H230.013ZM232.892 54.84C232.892 52.1453 233.394 49.7797 234.396 47.743C235.43 45.7063 236.825 44.1397 238.579 43.043C240.334 41.9463 242.292 41.398 244.454 41.398C246.303 41.398 247.917 41.774 249.295 42.526C250.705 43.278 251.786 44.265 252.538 45.487V41.774H260.575V68H252.538V64.287C251.755 65.509 250.658 66.496 249.248 67.248C247.87 68 246.256 68.376 244.407 68.376C242.277 68.376 240.334 67.8277 238.579 66.731C236.825 65.603 235.43 64.0207 234.396 61.984C233.394 59.916 232.892 57.5347 232.892 54.84ZM252.538 54.887C252.538 52.8817 251.974 51.2993 250.846 50.14C249.75 48.9807 248.402 48.401 246.804 48.401C245.206 48.401 243.843 48.9807 242.715 50.14C241.619 51.268 241.07 52.8347 241.07 54.84C241.07 56.8453 241.619 58.4433 242.715 59.634C243.843 60.7933 245.206 61.373 246.804 61.373C248.402 61.373 249.75 60.7933 250.846 59.634C251.974 58.4747 252.538 56.8923 252.538 54.887ZM270.432 39.048C269.022 39.048 267.862 38.6407 266.954 37.826C266.076 36.98 265.638 35.946 265.638 34.724C265.638 33.4707 266.076 32.4367 266.954 31.622C267.862 30.776 269.022 30.353 270.432 30.353C271.81 30.353 272.938 30.776 273.816 31.622C274.724 32.4367 275.179 33.4707 275.179 34.724C275.179 35.946 274.724 36.98 273.816 37.826C272.938 38.6407 271.81 39.048 270.432 39.048ZM274.427 41.774V68H266.39V41.774H274.427ZM288.288 33.22V68H280.251V33.22H288.288ZM304.781 68.376C302.494 68.376 300.457 67.9843 298.671 67.201C296.885 66.4177 295.475 65.3523 294.441 64.005C293.407 62.6263 292.828 61.091 292.702 59.399H300.645C300.739 60.3077 301.162 61.044 301.914 61.608C302.666 62.172 303.591 62.454 304.687 62.454C305.69 62.454 306.458 62.266 306.99 61.89C307.554 61.4827 307.836 60.9657 307.836 60.339C307.836 59.587 307.445 59.0387 306.661 58.694C305.878 58.318 304.609 57.9107 302.854 57.472C300.974 57.0333 299.408 56.579 298.154 56.109C296.901 55.6077 295.82 54.84 294.911 53.806C294.003 52.7407 293.548 51.315 293.548 49.529C293.548 48.025 293.956 46.662 294.77 45.44C295.616 44.1867 296.838 43.1997 298.436 42.479C300.066 41.7583 301.993 41.398 304.217 41.398C307.507 41.398 310.092 42.2127 311.972 43.842C313.884 45.4713 314.98 47.6333 315.262 50.328H307.836C307.711 49.4193 307.304 48.6987 306.614 48.166C305.956 47.6333 305.079 47.367 303.982 47.367C303.042 47.367 302.322 47.555 301.82 47.931C301.319 48.2757 301.068 48.7613 301.068 49.388C301.068 50.14 301.46 50.704 302.243 51.08C303.058 51.456 304.311 51.832 306.003 52.208C307.946 52.7093 309.528 53.2107 310.75 53.712C311.972 54.182 313.038 54.9653 313.946 56.062C314.886 57.1273 315.372 58.5687 315.403 60.386C315.403 61.9213 314.965 63.3 314.087 64.522C313.241 65.7127 312.004 66.6527 310.374 67.342C308.776 68.0313 306.912 68.376 304.781 68.376Z" fill="white"/>
</g>
<defs>
<filter id="filter0_d_172_709" x="0.373436" y="0.951561" width="348.433" height="104.823" filterUnits="userSpaceOnUse" color-interpolation-filters="sRGB">
<feFlood flood-opacity="0" result="BackgroundImageFix"/>
<feColorMatrix in="SourceAlpha" type="matrix" values="0 0 0 0 0 0 0 0 0 0 0 0 0 0 0 0 0 0 127 0" result="hardAlpha"/>
<feOffset dy="4"/>
<feGaussianBlur stdDeviation="16.7"/>
<feComposite in2="hardAlpha" operator="out"/>
<feColorMatrix type="matrix" values="0 0 0 0 1 0 0 0 0 0.958886 0 0 0 0 0.958886 0 0 0 0.49 0"/>
<feBlend mode="normal" in2="BackgroundImageFix" result="effect1_dropShadow_172_709"/>
<feBlend mode="normal" in="SourceGraphic" in2="effect1_dropShadow_172_709" result="shape"/>
</filter>
</defs>
</svg>
