<svg width="819" height="26" viewBox="0 0 819 26" fill="none" xmlns="http://www.w3.org/2000/svg">
<path d="M8.288 2.92L9.152 4.48L5.816 5.872L9.176 7.24L8.264 8.848L5.36 6.736L5.744 10.36H3.944L4.304 6.736L1.4 8.872L0.464 7.24L3.8 5.848L0.464 4.504L1.352 2.896L4.328 5.032L3.944 1.384H5.768L5.36 5.032L8.288 2.92ZM33.5439 2.272L28.6959 19H26.2479L22.3599 5.536L18.3279 19L15.9039 19.024L11.2239 2.272H13.5519L17.1999 16.456L21.2319 2.272H23.6799L27.5199 16.408L31.1919 2.272H33.5439ZM47.9339 11.92C47.9339 12.336 47.9099 12.776 47.8619 13.24H37.3499C37.4299 14.536 37.8699 15.552 38.6699 16.288C39.4859 17.008 40.4699 17.368 41.6219 17.368C42.5659 17.368 43.3499 17.152 43.9739 16.72C44.6139 16.272 45.0619 15.68 45.3179 14.944H47.6699C47.3179 16.208 46.6139 17.24 45.5579 18.04C44.5019 18.824 43.1899 19.216 41.6219 19.216C40.3739 19.216 39.2539 18.936 38.2619 18.376C37.2859 17.816 36.5179 17.024 35.9579 16C35.3979 14.96 35.1179 13.76 35.1179 12.4C35.1179 11.04 35.3899 9.848 35.9339 8.824C36.4779 7.8 37.2379 7.016 38.2139 6.472C39.2059 5.912 40.3419 5.632 41.6219 5.632C42.8699 5.632 43.9739 5.904 44.9339 6.448C45.8939 6.992 46.6299 7.744 47.1419 8.704C47.6699 9.648 47.9339 10.72 47.9339 11.92ZM45.6779 11.464C45.6779 10.632 45.4939 9.92 45.1259 9.328C44.7579 8.72 44.2539 8.264 43.6139 7.96C42.9899 7.64 42.2939 7.48 41.5259 7.48C40.4219 7.48 39.4779 7.832 38.6939 8.536C37.9259 9.24 37.4859 10.216 37.3739 11.464H45.6779ZM59.3992 7.984C59.7832 7.232 60.3272 6.648 61.0312 6.232C61.7512 5.816 62.6232 5.608 63.6472 5.608V7.864H63.0712C60.6232 7.864 59.3992 9.192 59.3992 11.848V19H57.2152V5.848H59.3992V7.984ZM78.1683 11.92C78.1683 12.336 78.1443 12.776 78.0963 13.24H67.5843C67.6643 14.536 68.1043 15.552 68.9043 16.288C69.7203 17.008 70.7043 17.368 71.8563 17.368C72.8003 17.368 73.5843 17.152 74.2083 16.72C74.8483 16.272 75.2963 15.68 75.5523 14.944H77.9043C77.5523 16.208 76.8483 17.24 75.7923 18.04C74.7363 18.824 73.4243 19.216 71.8563 19.216C70.6083 19.216 69.4883 18.936 68.4963 18.376C67.5203 17.816 66.7523 17.024 66.1923 16C65.6323 14.96 65.3523 13.76 65.3523 12.4C65.3523 11.04 65.6243 9.848 66.1683 8.824C66.7123 7.8 67.4723 7.016 68.4483 6.472C69.4403 5.912 70.5763 5.632 71.8563 5.632C73.1043 5.632 74.2083 5.904 75.1683 6.448C76.1283 6.992 76.8643 7.744 77.3763 8.704C77.9043 9.648 78.1683 10.72 78.1683 11.92ZM75.9123 11.464C75.9123 10.632 75.7283 9.92 75.3603 9.328C74.9923 8.72 74.4883 8.264 73.8483 7.96C73.2243 7.64 72.5283 7.48 71.7603 7.48C70.6563 7.48 69.7123 7.832 68.9283 8.536C68.1603 9.24 67.7203 10.216 67.6083 11.464H75.9123ZM85.7071 19.216C84.6991 19.216 83.7951 19.048 82.9951 18.712C82.1951 18.36 81.5631 17.88 81.0991 17.272C80.6351 16.648 80.3791 15.936 80.3311 15.136H82.5871C82.6511 15.792 82.9551 16.328 83.4991 16.744C84.0591 17.16 84.7871 17.368 85.6831 17.368C86.5151 17.368 87.1711 17.184 87.6511 16.816C88.1311 16.448 88.3711 15.984 88.3711 15.424C88.3711 14.848 88.1151 14.424 87.6031 14.152C87.0911 13.864 86.2991 13.584 85.2271 13.312C84.2511 13.056 83.4511 12.8 82.8271 12.544C82.2191 12.272 81.6911 11.88 81.2431 11.368C80.8111 10.84 80.5951 10.152 80.5951 9.304C80.5951 8.632 80.7951 8.016 81.1951 7.456C81.5951 6.896 82.1631 6.456 82.8991 6.136C83.6351 5.8 84.4751 5.632 85.4191 5.632C86.8751 5.632 88.0511 6 88.9471 6.736C89.8431 7.472 90.3231 8.48 90.3871 9.76H88.2031C88.1551 9.072 87.8751 8.52 87.3631 8.104C86.8671 7.688 86.1951 7.48 85.3471 7.48C84.5631 7.48 83.9391 7.648 83.4751 7.984C83.0111 8.32 82.7791 8.76 82.7791 9.304C82.7791 9.736 82.9151 10.096 83.1871 10.384C83.4751 10.656 83.8271 10.88 84.2431 11.056C84.6751 11.216 85.2671 11.4 86.0191 11.608C86.9631 11.864 87.7311 12.12 88.3231 12.376C88.9151 12.616 89.4191 12.984 89.8351 13.48C90.2671 13.976 90.4911 14.624 90.5071 15.424C90.5071 16.144 90.3071 16.792 89.9071 17.368C89.5071 17.944 88.9391 18.4 88.2031 18.736C87.4831 19.056 86.6511 19.216 85.7071 19.216ZM105.59 11.92C105.59 12.336 105.566 12.776 105.518 13.24H95.0062C95.0862 14.536 95.5262 15.552 96.3262 16.288C97.1422 17.008 98.1262 17.368 99.2782 17.368C100.222 17.368 101.006 17.152 101.63 16.72C102.27 16.272 102.718 15.68 102.974 14.944H105.326C104.974 16.208 104.27 17.24 103.214 18.04C102.158 18.824 100.846 19.216 99.2782 19.216C98.0302 19.216 96.9102 18.936 95.9182 18.376C94.9422 17.816 94.1742 17.024 93.6142 16C93.0542 14.96 92.7742 13.76 92.7742 12.4C92.7742 11.04 93.0462 9.848 93.5902 8.824C94.1342 7.8 94.8942 7.016 95.8702 6.472C96.8622 5.912 97.9982 5.632 99.2782 5.632C100.526 5.632 101.63 5.904 102.59 6.448C103.55 6.992 104.286 7.744 104.798 8.704C105.326 9.648 105.59 10.72 105.59 11.92ZM103.334 11.464C103.334 10.632 103.15 9.92 102.782 9.328C102.414 8.72 101.91 8.264 101.27 7.96C100.646 7.64 99.9502 7.48 99.1822 7.48C98.0782 7.48 97.1342 7.832 96.3502 8.536C95.5822 9.24 95.1422 10.216 95.0302 11.464H103.334ZM110.657 7.984C111.041 7.232 111.585 6.648 112.289 6.232C113.009 5.816 113.881 5.608 114.905 5.608V7.864H114.329C111.881 7.864 110.657 9.192 110.657 11.848V19H108.473V5.848H110.657V7.984ZM122.322 16.984L126.402 5.848H128.73L123.57 19H121.026L115.866 5.848H118.218L122.322 16.984ZM142.879 11.92C142.879 12.336 142.855 12.776 142.807 13.24H132.295C132.375 14.536 132.815 15.552 133.615 16.288C134.431 17.008 135.415 17.368 136.567 17.368C137.511 17.368 138.295 17.152 138.919 16.72C139.559 16.272 140.007 15.68 140.263 14.944H142.615C142.263 16.208 141.559 17.24 140.503 18.04C139.447 18.824 138.135 19.216 136.567 19.216C135.319 19.216 134.199 18.936 133.207 18.376C132.231 17.816 131.463 17.024 130.903 16C130.343 14.96 130.063 13.76 130.063 12.4C130.063 11.04 130.335 9.848 130.879 8.824C131.423 7.8 132.183 7.016 133.159 6.472C134.151 5.912 135.287 5.632 136.567 5.632C137.815 5.632 138.919 5.904 139.879 6.448C140.839 6.992 141.575 7.744 142.087 8.704C142.615 9.648 142.879 10.72 142.879 11.92ZM140.623 11.464C140.623 10.632 140.439 9.92 140.071 9.328C139.703 8.72 139.199 8.264 138.559 7.96C137.935 7.64 137.239 7.48 136.471 7.48C135.367 7.48 134.423 7.832 133.639 8.536C132.871 9.24 132.431 10.216 132.319 11.464H140.623ZM154.825 7.648V15.4C154.825 16.04 154.961 16.496 155.233 16.768C155.505 17.024 155.977 17.152 156.648 17.152H158.257V19H156.289C155.073 19 154.161 18.72 153.553 18.16C152.945 17.6 152.641 16.68 152.641 15.4V7.648H150.937V5.848H152.641V2.536H154.825V5.848H158.257V7.648H154.825ZM167.431 5.608C168.423 5.608 169.319 5.824 170.119 6.256C170.919 6.672 171.543 7.304 171.991 8.152C172.455 9 172.687 10.032 172.687 11.248V19H170.527V11.56C170.527 10.248 170.199 9.248 169.543 8.56C168.887 7.856 167.991 7.504 166.855 7.504C165.703 7.504 164.783 7.864 164.095 8.584C163.423 9.304 163.087 10.352 163.087 11.728V19H160.903V1.24H163.087V7.72C163.519 7.048 164.111 6.528 164.863 6.16C165.631 5.792 166.487 5.608 167.431 5.608ZM188.254 11.92C188.254 12.336 188.23 12.776 188.182 13.24H177.67C177.75 14.536 178.19 15.552 178.99 16.288C179.806 17.008 180.79 17.368 181.942 17.368C182.886 17.368 183.67 17.152 184.294 16.72C184.934 16.272 185.382 15.68 185.638 14.944H187.99C187.638 16.208 186.934 17.24 185.878 18.04C184.822 18.824 183.51 19.216 181.942 19.216C180.694 19.216 179.574 18.936 178.582 18.376C177.606 17.816 176.838 17.024 176.278 16C175.718 14.96 175.438 13.76 175.438 12.4C175.438 11.04 175.71 9.848 176.254 8.824C176.798 7.8 177.558 7.016 178.534 6.472C179.526 5.912 180.662 5.632 181.942 5.632C183.19 5.632 184.294 5.904 185.254 6.448C186.214 6.992 186.95 7.744 187.462 8.704C187.99 9.648 188.254 10.72 188.254 11.92ZM185.998 11.464C185.998 10.632 185.814 9.92 185.446 9.328C185.078 8.72 184.574 8.264 183.934 7.96C183.31 7.64 182.614 7.48 181.846 7.48C180.742 7.48 179.798 7.832 179.014 8.536C178.246 9.24 177.806 10.216 177.694 11.464H185.998ZM199.72 7.984C200.104 7.232 200.648 6.648 201.352 6.232C202.072 5.816 202.944 5.608 203.968 5.608V7.864H203.392C200.944 7.864 199.72 9.192 199.72 11.848V19H197.536V5.848H199.72V7.984ZM207.617 3.712C207.201 3.712 206.849 3.568 206.561 3.28C206.273 2.992 206.129 2.64 206.129 2.224C206.129 1.808 206.273 1.456 206.561 1.168C206.849 0.879999 207.201 0.735999 207.617 0.735999C208.017 0.735999 208.353 0.879999 208.625 1.168C208.913 1.456 209.057 1.808 209.057 2.224C209.057 2.64 208.913 2.992 208.625 3.28C208.353 3.568 208.017 3.712 207.617 3.712ZM208.673 5.848V19H206.489V5.848H208.673ZM217.819 5.632C218.955 5.632 219.947 5.88 220.795 6.376C221.659 6.872 222.299 7.496 222.715 8.248V5.848H224.923V19.288C224.923 20.488 224.667 21.552 224.155 22.48C223.643 23.424 222.907 24.16 221.947 24.688C221.003 25.216 219.899 25.48 218.635 25.48C216.907 25.48 215.467 25.072 214.315 24.256C213.163 23.44 212.483 22.328 212.275 20.92H214.435C214.675 21.72 215.171 22.36 215.923 22.84C216.675 23.336 217.579 23.584 218.635 23.584C219.835 23.584 220.811 23.208 221.563 22.456C222.331 21.704 222.715 20.648 222.715 19.288V16.528C222.283 17.296 221.643 17.936 220.795 18.448C219.947 18.96 218.955 19.216 217.819 19.216C216.651 19.216 215.587 18.928 214.627 18.352C213.683 17.776 212.939 16.968 212.395 15.928C211.851 14.888 211.579 13.704 211.579 12.376C211.579 11.032 211.851 9.856 212.395 8.848C212.939 7.824 213.683 7.032 214.627 6.472C215.587 5.912 216.651 5.632 217.819 5.632ZM222.715 12.4C222.715 11.408 222.515 10.544 222.115 9.808C221.715 9.072 221.171 8.512 220.483 8.128C219.811 7.728 219.067 7.528 218.251 7.528C217.435 7.528 216.691 7.72 216.019 8.104C215.347 8.488 214.811 9.048 214.411 9.784C214.011 10.52 213.811 11.384 213.811 12.376C213.811 13.384 214.011 14.264 214.411 15.016C214.811 15.752 215.347 16.32 216.019 16.72C216.691 17.104 217.435 17.296 218.251 17.296C219.067 17.296 219.811 17.104 220.483 16.72C221.171 16.32 221.715 15.752 222.115 15.016C222.515 14.264 222.715 13.392 222.715 12.4ZM235.142 5.608C236.134 5.608 237.03 5.824 237.83 6.256C238.63 6.672 239.254 7.304 239.702 8.152C240.166 9 240.398 10.032 240.398 11.248V19H238.238V11.56C238.238 10.248 237.91 9.248 237.254 8.56C236.598 7.856 235.702 7.504 234.566 7.504C233.414 7.504 232.494 7.864 231.806 8.584C231.134 9.304 230.798 10.352 230.798 11.728V19H228.614V1.24H230.798V7.72C231.23 7.048 231.822 6.528 232.574 6.16C233.342 5.792 234.198 5.608 235.142 5.608ZM246.629 7.648V15.4C246.629 16.04 246.765 16.496 247.037 16.768C247.309 17.024 247.781 17.152 248.453 17.152H250.061V19H248.093C246.877 19 245.965 18.72 245.357 18.16C244.749 17.6 244.445 16.68 244.445 15.4V7.648H242.741V5.848H244.445V2.536H246.629V5.848H250.061V7.648H246.629ZM257.363 19.216C256.355 19.216 255.451 19.048 254.651 18.712C253.851 18.36 253.219 17.88 252.755 17.272C252.291 16.648 252.035 15.936 251.987 15.136H254.243C254.307 15.792 254.611 16.328 255.155 16.744C255.715 17.16 256.443 17.368 257.339 17.368C258.171 17.368 258.827 17.184 259.307 16.816C259.787 16.448 260.027 15.984 260.027 15.424C260.027 14.848 259.771 14.424 259.259 14.152C258.747 13.864 257.955 13.584 256.883 13.312C255.907 13.056 255.107 12.8 254.483 12.544C253.875 12.272 253.347 11.88 252.899 11.368C252.467 10.84 252.251 10.152 252.251 9.304C252.251 8.632 252.451 8.016 252.851 7.456C253.251 6.896 253.819 6.456 254.555 6.136C255.291 5.8 256.131 5.632 257.075 5.632C258.531 5.632 259.707 6 260.603 6.736C261.499 7.472 261.979 8.48 262.043 9.76H259.859C259.811 9.072 259.531 8.52 259.019 8.104C258.523 7.688 257.851 7.48 257.003 7.48C256.219 7.48 255.595 7.648 255.131 7.984C254.667 8.32 254.435 8.76 254.435 9.304C254.435 9.736 254.571 10.096 254.843 10.384C255.131 10.656 255.483 10.88 255.899 11.056C256.331 11.216 256.923 11.4 257.675 11.608C258.619 11.864 259.387 12.12 259.979 12.376C260.571 12.616 261.075 12.984 261.491 13.48C261.923 13.976 262.147 14.624 262.163 15.424C262.163 16.144 261.963 16.792 261.563 17.368C261.163 17.944 260.595 18.4 259.859 18.736C259.139 19.056 258.307 19.216 257.363 19.216ZM274.309 7.648V15.4C274.309 16.04 274.445 16.496 274.717 16.768C274.989 17.024 275.461 17.152 276.133 17.152H277.741V19H275.773C274.557 19 273.645 18.72 273.037 18.16C272.429 17.6 272.125 16.68 272.125 15.4V7.648H270.421V5.848H272.125V2.536H274.309V5.848H277.741V7.648H274.309ZM286.123 19.216C284.891 19.216 283.771 18.936 282.763 18.376C281.771 17.816 280.987 17.024 280.411 16C279.851 14.96 279.571 13.76 279.571 12.4C279.571 11.056 279.859 9.872 280.435 8.848C281.027 7.808 281.827 7.016 282.835 6.472C283.843 5.912 284.971 5.632 286.219 5.632C287.467 5.632 288.595 5.912 289.603 6.472C290.611 7.016 291.403 7.8 291.979 8.824C292.571 9.848 292.867 11.04 292.867 12.4C292.867 13.76 292.563 14.96 291.955 16C291.363 17.024 290.555 17.816 289.531 18.376C288.507 18.936 287.371 19.216 286.123 19.216ZM286.123 17.296C286.907 17.296 287.643 17.112 288.331 16.744C289.019 16.376 289.571 15.824 289.987 15.088C290.419 14.352 290.635 13.456 290.635 12.4C290.635 11.344 290.427 10.448 290.011 9.712C289.595 8.976 289.051 8.432 288.379 8.08C287.707 7.712 286.979 7.528 286.195 7.528C285.395 7.528 284.659 7.712 283.987 8.08C283.331 8.432 282.803 8.976 282.403 9.712C282.003 10.448 281.803 11.344 281.803 12.4C281.803 13.472 281.995 14.376 282.379 15.112C282.779 15.848 283.307 16.4 283.963 16.768C284.619 17.12 285.339 17.296 286.123 17.296ZM314.137 11.92C314.137 12.336 314.113 12.776 314.065 13.24H303.553C303.633 14.536 304.073 15.552 304.873 16.288C305.689 17.008 306.673 17.368 307.825 17.368C308.769 17.368 309.553 17.152 310.177 16.72C310.817 16.272 311.265 15.68 311.521 14.944H313.873C313.521 16.208 312.817 17.24 311.761 18.04C310.705 18.824 309.393 19.216 307.825 19.216C306.577 19.216 305.457 18.936 304.465 18.376C303.489 17.816 302.721 17.024 302.161 16C301.601 14.96 301.321 13.76 301.321 12.4C301.321 11.04 301.593 9.848 302.137 8.824C302.681 7.8 303.441 7.016 304.417 6.472C305.409 5.912 306.545 5.632 307.825 5.632C309.073 5.632 310.177 5.904 311.137 6.448C312.097 6.992 312.833 7.744 313.345 8.704C313.873 9.648 314.137 10.72 314.137 11.92ZM311.881 11.464C311.881 10.632 311.697 9.92 311.329 9.328C310.961 8.72 310.457 8.264 309.817 7.96C309.193 7.64 308.497 7.48 307.729 7.48C306.625 7.48 305.681 7.832 304.897 8.536C304.129 9.24 303.689 10.216 303.577 11.464H311.881ZM323.428 5.608C325.028 5.608 326.324 6.096 327.316 7.072C328.308 8.032 328.804 9.424 328.804 11.248V19H326.644V11.56C326.644 10.248 326.316 9.248 325.66 8.56C325.004 7.856 324.108 7.504 322.972 7.504C321.82 7.504 320.9 7.864 320.212 8.584C319.54 9.304 319.204 10.352 319.204 11.728V19H317.02V5.848H319.204V7.72C319.636 7.048 320.22 6.528 320.956 6.16C321.708 5.792 322.532 5.608 323.428 5.608ZM331.555 12.376C331.555 11.032 331.827 9.856 332.371 8.848C332.915 7.824 333.659 7.032 334.603 6.472C335.563 5.912 336.635 5.632 337.819 5.632C338.843 5.632 339.795 5.872 340.675 6.352C341.555 6.816 342.227 7.432 342.691 8.2V1.24H344.899V19H342.691V16.528C342.259 17.312 341.619 17.96 340.771 18.472C339.923 18.968 338.931 19.216 337.795 19.216C336.627 19.216 335.563 18.928 334.603 18.352C333.659 17.776 332.915 16.968 332.371 15.928C331.827 14.888 331.555 13.704 331.555 12.376ZM342.691 12.4C342.691 11.408 342.491 10.544 342.091 9.808C341.691 9.072 341.147 8.512 340.459 8.128C339.787 7.728 339.043 7.528 338.227 7.528C337.411 7.528 336.667 7.72 335.995 8.104C335.323 8.488 334.787 9.048 334.387 9.784C333.987 10.52 333.787 11.384 333.787 12.376C333.787 13.384 333.987 14.264 334.387 15.016C334.787 15.752 335.323 16.32 335.995 16.72C336.667 17.104 337.411 17.296 338.227 17.296C339.043 17.296 339.787 17.104 340.459 16.72C341.147 16.32 341.691 15.752 342.091 15.016C342.491 14.264 342.691 13.392 342.691 12.4ZM357.653 7.648V15.4C357.653 16.04 357.789 16.496 358.061 16.768C358.333 17.024 358.805 17.152 359.477 17.152H361.085V19H359.117C357.901 19 356.989 18.72 356.381 18.16C355.773 17.6 355.469 16.68 355.469 15.4V7.648H353.765V5.848H355.469V2.536H357.653V5.848H361.085V7.648H357.653ZM370.259 5.608C371.251 5.608 372.147 5.824 372.947 6.256C373.747 6.672 374.371 7.304 374.819 8.152C375.283 9 375.515 10.032 375.515 11.248V19H373.355V11.56C373.355 10.248 373.027 9.248 372.371 8.56C371.715 7.856 370.819 7.504 369.683 7.504C368.531 7.504 367.611 7.864 366.923 8.584C366.251 9.304 365.915 10.352 365.915 11.728V19H363.731V1.24H365.915V7.72C366.347 7.048 366.939 6.528 367.691 6.16C368.459 5.792 369.315 5.608 370.259 5.608ZM391.082 11.92C391.082 12.336 391.058 12.776 391.01 13.24H380.498C380.578 14.536 381.018 15.552 381.818 16.288C382.634 17.008 383.618 17.368 384.77 17.368C385.714 17.368 386.498 17.152 387.122 16.72C387.762 16.272 388.21 15.68 388.466 14.944H390.818C390.466 16.208 389.762 17.24 388.706 18.04C387.65 18.824 386.338 19.216 384.77 19.216C383.522 19.216 382.402 18.936 381.41 18.376C380.434 17.816 379.666 17.024 379.106 16C378.546 14.96 378.266 13.76 378.266 12.4C378.266 11.04 378.538 9.848 379.082 8.824C379.626 7.8 380.386 7.016 381.362 6.472C382.354 5.912 383.49 5.632 384.77 5.632C386.018 5.632 387.122 5.904 388.082 6.448C389.042 6.992 389.778 7.744 390.29 8.704C390.818 9.648 391.082 10.72 391.082 11.92ZM388.826 11.464C388.826 10.632 388.642 9.92 388.274 9.328C387.906 8.72 387.402 8.264 386.762 7.96C386.138 7.64 385.442 7.48 384.674 7.48C383.57 7.48 382.626 7.832 381.842 8.536C381.074 9.24 380.634 10.216 380.522 11.464H388.826ZM410.66 2.272V4.048H406.1V19H403.916V4.048H399.332V2.272H410.66ZM425.348 11.92C425.348 12.336 425.324 12.776 425.276 13.24H414.764C414.844 14.536 415.284 15.552 416.084 16.288C416.9 17.008 417.884 17.368 419.036 17.368C419.98 17.368 420.764 17.152 421.388 16.72C422.028 16.272 422.476 15.68 422.732 14.944H425.084C424.732 16.208 424.028 17.24 422.972 18.04C421.916 18.824 420.604 19.216 419.036 19.216C417.788 19.216 416.668 18.936 415.676 18.376C414.7 17.816 413.932 17.024 413.372 16C412.812 14.96 412.532 13.76 412.532 12.4C412.532 11.04 412.804 9.848 413.348 8.824C413.892 7.8 414.652 7.016 415.628 6.472C416.62 5.912 417.756 5.632 419.036 5.632C420.284 5.632 421.388 5.904 422.348 6.448C423.308 6.992 424.044 7.744 424.556 8.704C425.084 9.648 425.348 10.72 425.348 11.92ZM423.092 11.464C423.092 10.632 422.908 9.92 422.54 9.328C422.172 8.72 421.668 8.264 421.028 7.96C420.404 7.64 419.708 7.48 418.94 7.48C417.836 7.48 416.892 7.832 416.108 8.536C415.34 9.24 414.9 10.216 414.788 11.464H423.092ZM432.887 19.216C431.879 19.216 430.975 19.048 430.175 18.712C429.375 18.36 428.743 17.88 428.279 17.272C427.815 16.648 427.559 15.936 427.511 15.136H429.767C429.831 15.792 430.135 16.328 430.679 16.744C431.239 17.16 431.967 17.368 432.863 17.368C433.695 17.368 434.351 17.184 434.831 16.816C435.311 16.448 435.551 15.984 435.551 15.424C435.551 14.848 435.295 14.424 434.783 14.152C434.271 13.864 433.479 13.584 432.407 13.312C431.431 13.056 430.631 12.8 430.007 12.544C429.399 12.272 428.871 11.88 428.423 11.368C427.991 10.84 427.775 10.152 427.775 9.304C427.775 8.632 427.975 8.016 428.375 7.456C428.775 6.896 429.343 6.456 430.079 6.136C430.815 5.8 431.655 5.632 432.599 5.632C434.055 5.632 435.231 6 436.127 6.736C437.023 7.472 437.503 8.48 437.567 9.76H435.383C435.335 9.072 435.055 8.52 434.543 8.104C434.047 7.688 433.375 7.48 432.527 7.48C431.743 7.48 431.119 7.648 430.655 7.984C430.191 8.32 429.959 8.76 429.959 9.304C429.959 9.736 430.095 10.096 430.367 10.384C430.655 10.656 431.007 10.88 431.423 11.056C431.855 11.216 432.447 11.4 433.199 11.608C434.143 11.864 434.911 12.12 435.503 12.376C436.095 12.616 436.599 12.984 437.015 13.48C437.447 13.976 437.671 14.624 437.687 15.424C437.687 16.144 437.487 16.792 437.087 17.368C436.687 17.944 436.119 18.4 435.383 18.736C434.663 19.056 433.831 19.216 432.887 19.216ZM443.434 7.648V15.4C443.434 16.04 443.57 16.496 443.842 16.768C444.114 17.024 444.586 17.152 445.258 17.152H446.866V19H444.898C443.682 19 442.77 18.72 442.162 18.16C441.554 17.6 441.25 16.68 441.25 15.4V7.648H439.546V5.848H441.25V2.536H443.434V5.848H446.866V7.648H443.434ZM458.632 9.28V11.128H449.056V9.28H458.632ZM475.883 19H473.699L464.915 5.68V19H462.731V2.248H464.915L473.699 15.544V2.248H475.883V19ZM491.606 11.92C491.606 12.336 491.582 12.776 491.534 13.24H481.022C481.102 14.536 481.542 15.552 482.342 16.288C483.158 17.008 484.142 17.368 485.294 17.368C486.238 17.368 487.022 17.152 487.646 16.72C488.286 16.272 488.734 15.68 488.99 14.944H491.342C490.99 16.208 490.286 17.24 489.23 18.04C488.174 18.824 486.862 19.216 485.294 19.216C484.046 19.216 482.926 18.936 481.934 18.376C480.958 17.816 480.19 17.024 479.63 16C479.07 14.96 478.79 13.76 478.79 12.4C478.79 11.04 479.062 9.848 479.606 8.824C480.15 7.8 480.91 7.016 481.886 6.472C482.878 5.912 484.014 5.632 485.294 5.632C486.542 5.632 487.646 5.904 488.606 6.448C489.566 6.992 490.302 7.744 490.814 8.704C491.342 9.648 491.606 10.72 491.606 11.92ZM489.35 11.464C489.35 10.632 489.166 9.92 488.798 9.328C488.43 8.72 487.926 8.264 487.286 7.96C486.662 7.64 485.966 7.48 485.198 7.48C484.094 7.48 483.15 7.832 482.366 8.536C481.598 9.24 481.158 10.216 481.046 11.464H489.35ZM497.153 7.648V15.4C497.153 16.04 497.289 16.496 497.561 16.768C497.833 17.024 498.305 17.152 498.977 17.152H500.585V19H498.617C497.401 19 496.489 18.72 495.881 18.16C495.273 17.6 494.969 16.68 494.969 15.4V7.648H493.265V5.848H494.969V2.536H497.153V5.848H500.585V7.648H497.153ZM527.149 5.848L523.045 19H520.789L517.621 8.56L514.453 19H512.197L508.069 5.848H510.301L513.325 16.888L516.589 5.848H518.821L522.013 16.912L524.989 5.848H527.149ZM535.845 5.608C536.837 5.608 537.733 5.824 538.533 6.256C539.333 6.672 539.957 7.304 540.405 8.152C540.869 9 541.101 10.032 541.101 11.248V19H538.941V11.56C538.941 10.248 538.613 9.248 537.957 8.56C537.301 7.856 536.405 7.504 535.269 7.504C534.117 7.504 533.197 7.864 532.509 8.584C531.837 9.304 531.501 10.352 531.501 11.728V19H529.317V1.24H531.501V7.72C531.933 7.048 532.525 6.528 533.277 6.16C534.045 5.792 534.901 5.608 535.845 5.608ZM556.668 11.92C556.668 12.336 556.644 12.776 556.596 13.24H546.084C546.164 14.536 546.604 15.552 547.404 16.288C548.22 17.008 549.204 17.368 550.356 17.368C551.3 17.368 552.084 17.152 552.708 16.72C553.348 16.272 553.796 15.68 554.052 14.944H556.404C556.052 16.208 555.348 17.24 554.292 18.04C553.236 18.824 551.924 19.216 550.356 19.216C549.108 19.216 547.988 18.936 546.996 18.376C546.02 17.816 545.252 17.024 544.692 16C544.132 14.96 543.852 13.76 543.852 12.4C543.852 11.04 544.124 9.848 544.668 8.824C545.212 7.8 545.972 7.016 546.948 6.472C547.94 5.912 549.076 5.632 550.356 5.632C551.604 5.632 552.708 5.904 553.668 6.448C554.628 6.992 555.364 7.744 555.876 8.704C556.404 9.648 556.668 10.72 556.668 11.92ZM554.412 11.464C554.412 10.632 554.228 9.92 553.86 9.328C553.492 8.72 552.988 8.264 552.348 7.96C551.724 7.64 551.028 7.48 550.26 7.48C549.156 7.48 548.212 7.832 547.428 8.536C546.66 9.24 546.22 10.216 546.108 11.464H554.412ZM565.959 5.608C567.559 5.608 568.855 6.096 569.847 7.072C570.839 8.032 571.335 9.424 571.335 11.248V19H569.175V11.56C569.175 10.248 568.847 9.248 568.191 8.56C567.535 7.856 566.639 7.504 565.503 7.504C564.351 7.504 563.431 7.864 562.743 8.584C562.071 9.304 561.735 10.352 561.735 11.728V19H559.551V5.848H561.735V7.72C562.167 7.048 562.751 6.528 563.487 6.16C564.239 5.792 565.063 5.608 565.959 5.608ZM598.821 5.848L594.717 19H592.461L589.293 8.56L586.125 19H583.869L579.741 5.848H581.973L584.997 16.888L588.261 5.848H590.493L593.685 16.912L596.661 5.848H598.821ZM612.989 11.92C612.989 12.336 612.965 12.776 612.917 13.24H602.405C602.485 14.536 602.925 15.552 603.725 16.288C604.541 17.008 605.525 17.368 606.677 17.368C607.621 17.368 608.405 17.152 609.029 16.72C609.669 16.272 610.117 15.68 610.373 14.944H612.725C612.373 16.208 611.669 17.24 610.613 18.04C609.557 18.824 608.245 19.216 606.677 19.216C605.429 19.216 604.309 18.936 603.317 18.376C602.341 17.816 601.573 17.024 601.013 16C600.453 14.96 600.173 13.76 600.173 12.4C600.173 11.04 600.445 9.848 600.989 8.824C601.533 7.8 602.293 7.016 603.269 6.472C604.261 5.912 605.397 5.632 606.677 5.632C607.925 5.632 609.029 5.904 609.989 6.448C610.949 6.992 611.685 7.744 612.197 8.704C612.725 9.648 612.989 10.72 612.989 11.92ZM610.733 11.464C610.733 10.632 610.549 9.92 610.181 9.328C609.813 8.72 609.309 8.264 608.669 7.96C608.045 7.64 607.349 7.48 606.581 7.48C605.477 7.48 604.533 7.832 603.749 8.536C602.981 9.24 602.541 10.216 602.429 11.464H610.733ZM624.934 7.648V15.4C624.934 16.04 625.07 16.496 625.342 16.768C625.614 17.024 626.086 17.152 626.758 17.152H628.366V19H626.398C625.182 19 624.27 18.72 623.662 18.16C623.054 17.6 622.75 16.68 622.75 15.4V7.648H621.046V5.848H622.75V2.536H624.934V5.848H628.366V7.648H624.934ZM637.54 5.608C638.532 5.608 639.428 5.824 640.228 6.256C641.028 6.672 641.652 7.304 642.1 8.152C642.564 9 642.796 10.032 642.796 11.248V19H640.636V11.56C640.636 10.248 640.308 9.248 639.652 8.56C638.996 7.856 638.1 7.504 636.964 7.504C635.812 7.504 634.892 7.864 634.204 8.584C633.532 9.304 633.196 10.352 633.196 11.728V19H631.012V1.24H633.196V7.72C633.628 7.048 634.22 6.528 634.972 6.16C635.74 5.792 636.596 5.608 637.54 5.608ZM647.492 3.712C647.076 3.712 646.724 3.568 646.436 3.28C646.148 2.992 646.004 2.64 646.004 2.224C646.004 1.808 646.148 1.456 646.436 1.168C646.724 0.879999 647.076 0.735999 647.492 0.735999C647.892 0.735999 648.228 0.879999 648.5 1.168C648.788 1.456 648.932 1.808 648.932 2.224C648.932 2.64 648.788 2.992 648.5 3.28C648.228 3.568 647.892 3.712 647.492 3.712ZM648.548 5.848V19H646.364V5.848H648.548ZM658.678 5.608C660.278 5.608 661.574 6.096 662.566 7.072C663.558 8.032 664.054 9.424 664.054 11.248V19H661.894V11.56C661.894 10.248 661.566 9.248 660.91 8.56C660.254 7.856 659.358 7.504 658.222 7.504C657.07 7.504 656.15 7.864 655.462 8.584C654.79 9.304 654.454 10.352 654.454 11.728V19H652.27V5.848H654.454V7.72C654.886 7.048 655.47 6.528 656.206 6.16C656.958 5.792 657.782 5.608 658.678 5.608ZM674.965 19L669.805 13.192V19H667.621V1.24H669.805V11.68L674.869 5.848H677.917L671.725 12.4L677.941 19H674.965ZM692.779 5.608C694.379 5.608 695.675 6.096 696.667 7.072C697.659 8.032 698.155 9.424 698.155 11.248V19H695.995V11.56C695.995 10.248 695.667 9.248 695.011 8.56C694.355 7.856 693.459 7.504 692.323 7.504C691.171 7.504 690.251 7.864 689.563 8.584C688.891 9.304 688.555 10.352 688.555 11.728V19H686.371V5.848H688.555V7.72C688.987 7.048 689.571 6.528 690.307 6.16C691.059 5.792 691.883 5.608 692.779 5.608ZM713.723 11.92C713.723 12.336 713.699 12.776 713.651 13.24H703.139C703.219 14.536 703.659 15.552 704.459 16.288C705.275 17.008 706.259 17.368 707.411 17.368C708.355 17.368 709.139 17.152 709.763 16.72C710.403 16.272 710.851 15.68 711.107 14.944H713.459C713.107 16.208 712.403 17.24 711.347 18.04C710.291 18.824 708.979 19.216 707.411 19.216C706.163 19.216 705.043 18.936 704.051 18.376C703.075 17.816 702.307 17.024 701.747 16C701.187 14.96 700.907 13.76 700.907 12.4C700.907 11.04 701.179 9.848 701.723 8.824C702.267 7.8 703.027 7.016 704.003 6.472C704.995 5.912 706.131 5.632 707.411 5.632C708.659 5.632 709.763 5.904 710.723 6.448C711.683 6.992 712.419 7.744 712.931 8.704C713.459 9.648 713.723 10.72 713.723 11.92ZM711.467 11.464C711.467 10.632 711.283 9.92 710.915 9.328C710.547 8.72 710.043 8.264 709.403 7.96C708.779 7.64 708.083 7.48 707.315 7.48C706.211 7.48 705.267 7.832 704.483 8.536C703.715 9.24 703.275 10.216 703.163 11.464H711.467ZM715.79 12.4C715.79 11.04 716.062 9.856 716.606 8.848C717.15 7.824 717.902 7.032 718.862 6.472C719.838 5.912 720.95 5.632 722.198 5.632C723.814 5.632 725.142 6.024 726.182 6.808C727.238 7.592 727.934 8.68 728.27 10.072H725.918C725.694 9.272 725.254 8.64 724.598 8.176C723.958 7.712 723.158 7.48 722.198 7.48C720.95 7.48 719.942 7.912 719.174 8.776C718.406 9.624 718.022 10.832 718.022 12.4C718.022 13.984 718.406 15.208 719.174 16.072C719.942 16.936 720.95 17.368 722.198 17.368C723.158 17.368 723.958 17.144 724.598 16.696C725.238 16.248 725.678 15.608 725.918 14.776H728.27C727.918 16.12 727.214 17.2 726.158 18.016C725.102 18.816 723.782 19.216 722.198 19.216C720.95 19.216 719.838 18.936 718.862 18.376C717.902 17.816 717.15 17.024 716.606 16C716.062 14.976 715.79 13.776 715.79 12.4ZM743.184 11.92C743.184 12.336 743.16 12.776 743.112 13.24H732.6C732.68 14.536 733.12 15.552 733.92 16.288C734.736 17.008 735.72 17.368 736.872 17.368C737.816 17.368 738.6 17.152 739.224 16.72C739.864 16.272 740.312 15.68 740.568 14.944H742.92C742.568 16.208 741.864 17.24 740.808 18.04C739.752 18.824 738.44 19.216 736.872 19.216C735.624 19.216 734.504 18.936 733.512 18.376C732.536 17.816 731.768 17.024 731.208 16C730.648 14.96 730.368 13.76 730.368 12.4C730.368 11.04 730.64 9.848 731.184 8.824C731.728 7.8 732.488 7.016 733.464 6.472C734.456 5.912 735.592 5.632 736.872 5.632C738.12 5.632 739.224 5.904 740.184 6.448C741.144 6.992 741.88 7.744 742.392 8.704C742.92 9.648 743.184 10.72 743.184 11.92ZM740.928 11.464C740.928 10.632 740.744 9.92 740.376 9.328C740.008 8.72 739.504 8.264 738.864 7.96C738.24 7.64 737.544 7.48 736.776 7.48C735.672 7.48 734.728 7.832 733.944 8.536C733.176 9.24 732.736 10.216 732.624 11.464H740.928ZM750.723 19.216C749.715 19.216 748.811 19.048 748.011 18.712C747.211 18.36 746.579 17.88 746.115 17.272C745.651 16.648 745.395 15.936 745.347 15.136H747.603C747.667 15.792 747.971 16.328 748.515 16.744C749.075 17.16 749.803 17.368 750.699 17.368C751.531 17.368 752.187 17.184 752.667 16.816C753.147 16.448 753.387 15.984 753.387 15.424C753.387 14.848 753.131 14.424 752.619 14.152C752.107 13.864 751.315 13.584 750.243 13.312C749.267 13.056 748.467 12.8 747.843 12.544C747.235 12.272 746.707 11.88 746.259 11.368C745.827 10.84 745.611 10.152 745.611 9.304C745.611 8.632 745.811 8.016 746.211 7.456C746.611 6.896 747.179 6.456 747.915 6.136C748.651 5.8 749.491 5.632 750.435 5.632C751.891 5.632 753.067 6 753.963 6.736C754.859 7.472 755.339 8.48 755.403 9.76H753.219C753.171 9.072 752.891 8.52 752.379 8.104C751.883 7.688 751.211 7.48 750.363 7.48C749.579 7.48 748.955 7.648 748.491 7.984C748.027 8.32 747.795 8.76 747.795 9.304C747.795 9.736 747.931 10.096 748.203 10.384C748.491 10.656 748.843 10.88 749.259 11.056C749.691 11.216 750.283 11.4 751.035 11.608C751.979 11.864 752.747 12.12 753.339 12.376C753.931 12.616 754.435 12.984 754.851 13.48C755.283 13.976 755.507 14.624 755.523 15.424C755.523 16.144 755.323 16.792 754.923 17.368C754.523 17.944 753.955 18.4 753.219 18.736C752.499 19.056 751.667 19.216 750.723 19.216ZM763.262 19.216C762.254 19.216 761.35 19.048 760.55 18.712C759.75 18.36 759.118 17.88 758.654 17.272C758.19 16.648 757.934 15.936 757.886 15.136H760.142C760.206 15.792 760.51 16.328 761.054 16.744C761.614 17.16 762.342 17.368 763.238 17.368C764.07 17.368 764.726 17.184 765.206 16.816C765.686 16.448 765.926 15.984 765.926 15.424C765.926 14.848 765.67 14.424 765.158 14.152C764.646 13.864 763.854 13.584 762.782 13.312C761.806 13.056 761.006 12.8 760.382 12.544C759.774 12.272 759.246 11.88 758.798 11.368C758.366 10.84 758.15 10.152 758.15 9.304C758.15 8.632 758.35 8.016 758.75 7.456C759.15 6.896 759.718 6.456 760.454 6.136C761.19 5.8 762.03 5.632 762.974 5.632C764.43 5.632 765.606 6 766.502 6.736C767.398 7.472 767.878 8.48 767.942 9.76H765.758C765.71 9.072 765.43 8.52 764.918 8.104C764.422 7.688 763.75 7.48 762.902 7.48C762.118 7.48 761.494 7.648 761.03 7.984C760.566 8.32 760.334 8.76 760.334 9.304C760.334 9.736 760.47 10.096 760.742 10.384C761.03 10.656 761.382 10.88 761.798 11.056C762.23 11.216 762.822 11.4 763.574 11.608C764.518 11.864 765.286 12.12 765.878 12.376C766.47 12.616 766.974 12.984 767.39 13.48C767.822 13.976 768.046 14.624 768.062 15.424C768.062 16.144 767.862 16.792 767.462 17.368C767.062 17.944 766.494 18.4 765.758 18.736C765.038 19.056 764.206 19.216 763.262 19.216ZM770.329 12.376C770.329 11.032 770.601 9.856 771.145 8.848C771.689 7.824 772.433 7.032 773.377 6.472C774.337 5.912 775.401 5.632 776.569 5.632C777.721 5.632 778.721 5.88 779.569 6.376C780.417 6.872 781.049 7.496 781.465 8.248V5.848H783.673V19H781.465V16.552C781.033 17.32 780.385 17.96 779.521 18.472C778.673 18.968 777.681 19.216 776.545 19.216C775.377 19.216 774.321 18.928 773.377 18.352C772.433 17.776 771.689 16.968 771.145 15.928C770.601 14.888 770.329 13.704 770.329 12.376ZM781.465 12.4C781.465 11.408 781.265 10.544 780.865 9.808C780.465 9.072 779.921 8.512 779.233 8.128C778.561 7.728 777.817 7.528 777.001 7.528C776.185 7.528 775.441 7.72 774.769 8.104C774.097 8.488 773.561 9.048 773.161 9.784C772.761 10.52 772.561 11.384 772.561 12.376C772.561 13.384 772.761 14.264 773.161 15.016C773.561 15.752 774.097 16.32 774.769 16.72C775.441 17.104 776.185 17.296 777.001 17.296C777.817 17.296 778.561 17.104 779.233 16.72C779.921 16.32 780.465 15.752 780.865 15.016C781.265 14.264 781.465 13.392 781.465 12.4ZM789.548 7.984C789.932 7.232 790.476 6.648 791.18 6.232C791.9 5.816 792.772 5.608 793.796 5.608V7.864H793.22C790.772 7.864 789.548 9.192 789.548 11.848V19H787.364V5.848H789.548V7.984ZM807.645 5.848L799.725 25.192H797.469L800.061 18.856L794.757 5.848H797.181L801.309 16.504L805.389 5.848H807.645ZM817.28 2.92L818.144 4.48L814.808 5.872L818.168 7.24L817.256 8.848L814.352 6.736L814.736 10.36H812.936L813.296 6.736L810.392 8.872L809.456 7.24L812.792 5.848L809.456 4.504L810.344 2.896L813.32 5.032L812.936 1.384H814.76L814.352 5.032L817.28 2.92Z" fill="#FFF176"/>
</svg>
