<svg width="287" height="47" viewBox="0 0 287 47" fill="none" xmlns="http://www.w3.org/2000/svg">
<g clip-path="url(#clip0_6616_75958)">
<path d="M8.532 35.7679V47.0003H0V9.23369H8.532V12.1548C9.48282 11.05 10.6747 10.1782 12.0157 9.60674C13.3568 9.03529 14.8112 8.77943 16.2667 8.85888C25.5841 8.85888 30.4451 16.3134 30.3796 24.3927C30.3142 32.4719 25.6198 38.9329 16.1418 38.9329C14.7154 38.9895 13.294 38.7337 11.9769 38.1833C10.6693 37.6334 9.49458 36.8098 8.532 35.7679ZM8.532 24.0476C8.48393 25.8705 9.15997 27.6382 10.4122 28.964C11.6644 30.2897 13.3908 31.0654 15.2136 31.1214C19.5689 31.1214 21.7584 27.6708 21.8 24.1547C21.8417 20.6386 19.6284 17.0155 15.2136 17.0155C14.3118 17.0395 13.4236 17.2411 12.5997 17.6086C11.7759 17.9761 11.0325 18.5023 10.4121 19.1572C9.78892 19.8071 9.30325 20.576 8.98418 21.418C8.66352 22.2567 8.50991 23.15 8.532 24.0476Z" fill="white"/>
<path d="M41.1843 0.642578V38.433H32.4917V0.642578H41.1843Z" fill="white"/>
<path d="M65.0967 12.2675V9.23333H73.6287V38.4328H65.0967V35.5117C64.1459 36.6166 62.954 37.4883 61.613 38.0598C60.2719 38.6312 58.8176 38.8871 57.362 38.8076C48.0149 38.8076 43.1718 31.3531 43.2313 23.2917C43.2908 15.2303 47.9911 8.75144 57.475 8.75144C58.9285 8.7125 60.3714 9.00952 61.6913 9.61938C63.0112 10.2292 64.1725 11.1355 65.0848 12.2675H65.0967ZM65.0967 23.6665C65.1448 21.8436 64.4688 20.0759 63.2165 18.7502C61.9643 17.4244 60.2379 16.6487 58.4151 16.5927C54.0599 16.5927 51.8703 19.9957 51.8406 23.5594C51.8108 27.1231 54.0123 30.6987 58.4151 30.6987C60.2351 30.6442 61.9602 29.8747 63.2166 28.5569C63.8365 27.9056 64.3216 27.1383 64.6443 26.2991C64.9669 25.4599 65.1207 24.5653 65.0967 23.6665Z" fill="white"/>
<path d="M92.4894 18.5799L96.1485 9.2334H105.014V10.5542C100.135 22.675 95.3155 34.8236 90.5557 47H81.6905V45.703L85.4924 36.0769L75.7407 10.6256V9.28099H84.6654L88.3186 18.6274L90.3832 26.0344L92.4894 18.5799Z" fill="white"/>
<path d="M137.44 23.3394C137.44 31.3889 132.68 38.8553 123.309 38.8553C121.845 38.9333 120.382 38.6769 119.031 38.1057C117.683 37.5375 116.484 36.6662 115.527 35.5594V38.4329H106.989V0H115.521V11.8987C116.501 10.8588 117.693 10.041 119.016 9.50016C120.339 8.95935 121.762 8.70813 123.19 8.76342C132.71 8.75152 137.321 15.3434 137.44 23.3394ZM128.902 23.5595C128.902 19.9899 126.671 16.5928 122.357 16.5928C120.548 16.6978 118.846 17.4869 117.597 18.8C116.356 20.1079 115.664 21.8424 115.664 23.6458C115.664 25.4491 116.356 27.1837 117.597 28.4915C118.846 29.8046 120.548 30.5937 122.357 30.6987C126.707 30.6987 128.902 27.0637 128.902 23.5595Z" fill="white"/>
<path d="M161.352 12.2675V9.23333H169.884V38.4328H161.352V35.5117C160.402 36.6166 159.21 37.4883 157.869 38.0598C156.528 38.6312 155.073 38.8871 153.618 38.8076C144.271 38.8076 139.427 31.3531 139.487 23.2917C139.546 15.2303 144.217 8.75144 153.731 8.75144C155.184 8.7125 156.627 9.00952 157.947 9.61938C159.267 10.2292 160.428 11.1355 161.34 12.2675H161.352ZM161.352 23.6665C161.401 21.8476 160.728 20.0834 159.481 18.7583C158.233 17.4333 156.513 16.6549 154.695 16.5927C150.339 16.5927 148.15 19.9957 148.108 23.5594C148.066 27.1231 150.28 30.6987 154.695 30.6987C156.5 30.6334 158.208 29.8647 159.454 28.5569C160.077 27.907 160.566 27.1404 160.892 26.3012C161.217 25.4619 161.374 24.5665 161.352 23.6665Z" fill="white"/>
<path d="M184.491 8.53125C190.798 8.53125 196.296 11.7201 196.343 18.5321H188.138C188.138 16.2654 185.794 16.1048 184.003 16.1048C182.784 16.1048 181.028 16.545 181.028 18.1038C181.028 19.6625 183.307 19.6685 184.563 19.728C190.661 19.8886 196.962 22.4825 196.962 29.4254C196.938 36.7729 190.917 39.2657 184.396 39.2657C177.387 39.2657 172.056 36.1304 171.949 28.6758H180.481C180.481 30.6153 182.605 31.4244 184.551 31.4244C186.782 31.4244 188.311 30.6748 188.311 29.6396C188.311 27.5276 185.044 27.7953 183.64 27.7001C178.089 27.2123 172.336 25.1062 172.336 18.669C172.371 11.5595 177.899 8.53125 184.491 8.53125Z" fill="white"/>
<path d="M229.067 27.1228H207.975C208.493 28.3573 209.37 29.408 210.492 30.1391C211.617 30.8713 212.934 31.2523 214.276 31.2338C215.196 31.2597 216.111 31.0957 216.965 30.7519C217.817 30.4085 218.588 29.8896 219.226 29.2288H228.52C226.235 35.7136 219.982 38.9263 213.889 38.7954C206.458 38.6348 199.05 33.6552 199.05 23.7971C199.05 13.939 206.72 8.78086 214.377 8.82845C222.034 8.87605 229.43 13.8557 229.43 23.7971C229.42 24.9149 229.298 26.029 229.067 27.1228ZM220.041 20.4833C219.649 19.2392 218.867 18.1545 217.81 17.3896C217.022 16.8109 216.107 16.428 215.141 16.2727C214.176 16.1174 213.187 16.194 212.257 16.4963C211.327 16.7985 210.482 17.3177 209.792 18.011C209.103 18.7043 208.588 19.5517 208.29 20.4833H220.041Z" fill="white"/>
<path fill-rule="evenodd" clip-rule="evenodd" d="M287 38.5161H234.927C237.975 34.2195 239.575 29.0643 239.497 23.7973C239.582 18.2608 237.794 12.8579 234.422 8.46582H286.982L287 38.5161ZM262.522 31.0972C260.215 32.6396 257.498 33.456 254.722 33.4413C249.088 33.4413 244.578 29.9252 244.578 23.5475C244.578 17.961 248.189 13.5466 254.508 13.5466C256.02 13.5455 257.515 13.8628 258.896 14.4778C260.276 15.0928 261.512 15.9918 262.522 17.1162L258.816 20.2277C257.668 19.0856 256.115 18.4439 254.496 18.4429C252.116 18.4429 250.01 20.2694 250.01 23.5653C250.01 26.3437 251.706 28.7175 254.71 28.7175C255.719 28.7255 256.716 28.5037 257.626 28.069V26.2842H254.318V22.1196H262.522V31.0972ZM281.824 31.0972C279.518 32.6394 276.803 33.4559 274.029 33.4413C268.395 33.4413 263.879 29.9252 263.879 23.5475C263.879 17.961 267.491 13.5466 273.809 13.5466C275.321 13.5455 276.816 13.8628 278.197 14.4778C279.578 15.0928 280.813 15.9918 281.824 17.1162L278.135 20.2277C276.986 19.0841 275.43 18.4423 273.809 18.4429C271.429 18.4429 269.323 20.2694 269.323 23.5653C269.323 26.3437 271.019 28.7175 274.029 28.7175C275.031 28.7292 276.021 28.5136 276.927 28.0868V26.302H273.619V22.1375H281.824V31.0972Z" fill="white"/>
<path d="M280.759 47.0002H281.806V44.0791H282.752V43.1748H279.777V44.0791H280.729L280.759 47.0002Z" fill="white"/>
<path d="M283.02 47.0002H284.031V45.1024L284.668 46.2923H285.322L285.959 45.1024V47.0002H286.964V43.1927H285.929L284.995 45.0667L284.043 43.1748H283.008L283.02 47.0002Z" fill="white"/>
</g>
<defs>
<clipPath id="clip0_6616_75958">
<rect width="287" height="47" fill="white"/>
</clipPath>
</defs>
</svg>
