<svg width="131" height="92.64px" viewBox="0.5 -0.14 131 92.64px" fill="none" xmlns="http://www.w3.org/2000/svg">
<path d="M131.5 5.63788C111.1 -1.56212 35.6667 -0.362124 0.5 1.13788V88.6406C86.9 85.4406 117.833 89.974 122.5 92.6406L131.5 5.63788Z" 
stroke="#c2c5c8"  
stroke-width="0" 
fill="#F2F4F6"/>
<path d="M20.3033 33.8538C21.4261 31.5594 23.1551 29.6159 25.3033 28.2338C27.5452 26.8247 30.1174 26.0282 32.7633 25.9238C35.8066 25.6763 38.852 26.3748 41.4832 27.9238C44.0256 29.4622 45.9715 31.817 47.0033 34.6038L40.2633 34.9738C39.5977 33.6875 38.5495 32.6394 37.2633 31.9738C35.9361 31.3318 34.4638 31.049 32.9932 31.1538C31.3956 31.2111 29.8451 31.7095 28.5133 32.5938C27.2232 33.4739 26.2132 34.7061 25.6033 36.1438C24.9613 37.7864 24.6782 39.5473 24.773 41.3083C24.8679 43.0694 25.3384 44.7897 26.1532 46.3538C26.9134 47.7233 28.0522 48.8447 29.4332 49.5838C30.8541 50.3161 32.4487 50.6446 34.0433 50.5338C35.5183 50.4814 36.9519 50.0323 38.1932 49.2338C39.3969 48.4259 40.3223 47.2666 40.8433 45.9138L47.5833 45.5538C46.8728 48.444 45.1971 51.0052 42.8333 52.8138C40.5189 54.4684 37.805 55.4759 34.9715 55.7325C32.138 55.9892 29.2873 55.4856 26.7132 54.2738C24.4202 53.153 22.4796 51.4233 21.1033 49.2738C19.6985 46.9679 18.8871 44.3496 18.7423 41.6533C18.5974 38.9571 19.1235 36.2669 20.2733 33.8238L20.3033 33.8538Z" fill="black"/>
<path d="M59.1575 30.5238L58.9875 37.8738L68.8376 38.1038L68.7275 42.7637L58.8774 42.5338L58.6875 50.3038L69.7976 50.5638L69.6875 55.3538L52.6875 54.9438L53.3875 25.5938L70.3875 26.0038L70.2776 30.7938L59.1575 30.5238Z" fill="black"/>
<path d="M91.8889 57.2922L86.5691 46.8422L79.8789 56.0822L73.2891 55.4222L83.929 41.6322L76.0691 26.2422L82.7891 26.9122L88.1091 37.3222L94.759 28.1122L101.359 28.7822L90.749 42.5322L98.6091 57.9622L91.8889 57.2922Z" fill="black"/>
</svg>
