<svg width="103" height="139" viewBox="0 0 103 139" fill="none" xmlns="http://www.w3.org/2000/svg">
<path d="M23.0027 0L103.003 37C89.0048 79 87.8351 122.167 89 138.5L0.502661 134.5C-1.09734 73.3 14.836 19.3333 23.0027 0Z" 
stroke="#c2c5c8"  
stroke-width="4" 
fill="#F2F4F6"/>
<path d="M36.7732 99.3706C38.127 97.2177 40.09 95.5156 42.4131 94.4807C44.8992 93.4583 47.5977 93.0596 50.2732 93.3193C52.9487 93.579 55.5201 94.4892 57.7632 95.9707C59.819 97.4511 61.4 99.4975 62.3132 101.861C63.3058 104.494 63.6488 107.327 63.3132 110.121L62.3132 120.321L33.2031 117.501L34.2031 107.301C34.412 104.49 35.2935 101.77 36.7732 99.3706ZM56.5232 102.501C55.6624 101.536 54.6154 100.755 53.4451 100.205C52.2748 99.655 51.0054 99.3474 49.7131 99.3006C48.4269 99.1005 47.1139 99.1584 45.8503 99.4709C44.5867 99.7834 43.398 100.344 42.3533 101.121C40.4833 102.621 39.3533 104.911 39.0933 107.971L38.6931 112.111L57.9331 113.991L58.3333 109.851C58.6333 106.777 58.0299 104.327 56.5232 102.501Z" fill="black"/>
<path d="M42.4106 80.8791L49.6306 82.1591L51.3508 72.4391L55.9307 73.2491L54.2207 82.9691L61.8508 84.3191L63.7908 73.3191L68.5007 74.1591L65.5007 90.9091L36.6406 85.7891L39.6406 69.0391L44.3408 69.8791L42.4106 80.8791Z" fill="black"/>
<path d="M73.7722 52.4981L62.6521 56.1881L70.7622 64.1881L69.1123 70.6081L57.1123 57.9781L40.7422 63.4981L42.4221 56.9482L53.5022 53.2481L45.4221 45.2481L47.0723 38.8281L59.0723 51.3981L75.4922 45.9581L73.7722 52.4981Z" fill="black"/>
</svg>
