<svg width="434.5px" height="88" viewBox="-5.5 0.5 434.5px 88" fill="none" xmlns="http://www.w3.org/2000/svg">
<path d="M435 0.5H0.5V88.5H435V0.5Z" 
stroke="#c2c5c8"  
stroke-width="0" 
fill="#F2F4F6"/>
<path d="M46.1196 33.5008C45.4876 32.3158 44.5254 31.3397 43.3496 30.6908C42.0867 30.014 40.6722 29.6698 39.2395 29.6908C37.6248 29.6634 36.0324 30.071 34.6294 30.8708C33.2775 31.6637 32.1837 32.8306 31.4795 34.2308C30.7289 35.8191 30.3396 37.554 30.3396 39.3108C30.3396 41.0675 30.7289 42.8024 31.4795 44.3908C32.1998 45.7992 33.3153 46.9669 34.6895 47.7508C36.1495 48.5623 37.7996 48.9696 39.4695 48.9308C41.4559 49.0186 43.4066 48.3825 44.9595 47.1408C46.4531 45.8549 47.4477 44.0852 47.7695 42.1408H37.7095V37.6408H53.5596V42.7708C53.1619 44.8279 52.3 46.7671 51.0396 48.4408C49.7182 50.2016 48.0067 51.6324 46.0396 52.6208C43.927 53.6889 41.5864 54.2277 39.2195 54.1908C36.5467 54.2311 33.9098 53.5727 31.5696 52.2808C29.3219 51.0428 27.4626 49.2044 26.1995 46.9708C24.9198 44.5916 24.25 41.9322 24.25 39.2308C24.25 36.5293 24.9198 33.8699 26.1995 31.4908C27.4588 29.2492 29.3186 27.4033 31.5696 26.1608C34.0813 24.826 36.898 24.1701 39.741 24.2578C42.584 24.3455 45.3548 25.1738 47.7795 26.6608C50.1881 28.2662 51.9575 30.6654 52.7795 33.4408L46.1196 33.5008Z" fill="black"/>
<path d="M75.8806 48.4106H64.2307L62.3008 54.0006H56.1406L66.6606 24.6406H73.4907L84.0007 54.0006H77.7908L75.8806 48.4106ZM74.2908 43.7106L70.0608 31.4506L65.8208 43.7106H74.2908Z" fill="black"/>
<path d="M119.87 24.6797V53.9997H114V34.9297L106.16 53.9997H101.71L93.8301 34.9297V53.9997H88V24.6797H94.6699L103.98 46.4797L113.28 24.6797H119.87Z" fill="black"/>
<path d="M131.539 29.4306V36.7806H141.388V41.4406H131.539V49.2106H142.648V54.0006H125.648V24.6406H142.648V29.4306H131.539Z" fill="black"/>
<path d="M176.29 26.4923C178.56 27.6357 180.442 29.4238 181.7 31.6323C183.008 34.0026 183.667 36.6759 183.61 39.3823C183.67 42.0765 183.011 44.7379 181.7 47.0923C180.434 49.2849 178.553 51.0582 176.29 52.1923C173.773 53.4429 170.99 54.064 168.18 54.0023H158V24.6823H168.23C171.023 24.6338 173.786 25.2544 176.29 26.4923ZM175.09 46.4923C175.968 45.5403 176.643 44.4204 177.076 43.2002C177.51 41.9799 177.691 40.6846 177.61 39.3923C177.686 38.0914 177.502 36.7883 177.07 35.559C176.637 34.3297 175.964 33.1989 175.09 32.2323C173.42 30.5123 171.04 29.6523 167.97 29.6523H163.82V49.0023H168C171 49.0023 173.42 48.1623 175.09 46.4823V46.4923Z" fill="black"/>
<path d="M205.998 48.4106H194.348L192.418 54.0006H186.258L196.778 24.6406H203.608L214.098 54.0006H207.888L205.998 48.4106ZM204.408 43.7106L200.178 31.4506L195.938 43.7106H204.408Z" fill="black"/>
<path d="M222.629 53.2438C221.087 52.6207 219.747 51.5823 218.759 50.2438C217.795 48.8818 217.281 47.2525 217.289 45.5838H223.579C223.593 46.12 223.713 46.648 223.933 47.1372C224.153 47.6265 224.468 48.0672 224.859 48.4338C225.74 49.175 226.87 49.5508 228.019 49.4838C229.181 49.5488 230.327 49.1938 231.249 48.4838C231.629 48.1699 231.932 47.7733 232.134 47.3244C232.337 46.8755 232.434 46.3862 232.419 45.8938C232.448 45.1043 232.164 44.3353 231.629 43.7538C231.066 43.1744 230.383 42.7241 229.629 42.4338C228.548 42.0201 227.447 41.663 226.329 41.3638C224.749 40.9207 223.201 40.366 221.699 39.7038C220.49 39.1419 219.439 38.29 218.639 37.2238C217.729 35.9317 217.279 34.3721 217.359 32.7938C217.326 31.1842 217.779 29.6019 218.659 28.2538C219.562 26.9233 220.829 25.8816 222.309 25.2538C224.011 24.5534 225.839 24.2129 227.679 24.2538C230.309 24.136 232.901 24.9152 235.029 26.4638C235.967 27.1994 236.733 28.1309 237.274 29.1931C237.814 30.2553 238.116 31.4227 238.159 32.6138H231.699C231.678 32.1296 231.553 31.6556 231.332 31.2241C231.111 30.7927 230.8 30.414 230.419 30.1138C229.517 29.4182 228.397 29.064 227.259 29.1138C226.266 29.0612 225.287 29.3743 224.509 29.9938C224.163 30.3199 223.894 30.7187 223.721 31.1614C223.548 31.6041 223.476 32.0797 223.509 32.5538C223.491 32.9233 223.551 33.2924 223.686 33.637C223.82 33.9817 224.026 34.2941 224.289 34.5538C224.843 35.0973 225.499 35.5255 226.219 35.8138C227.282 36.2448 228.367 36.6187 229.469 36.9338C231.058 37.3802 232.612 37.9417 234.119 38.6138C235.342 39.1896 236.406 40.0545 237.219 41.1338C238.137 42.4156 238.595 43.9694 238.519 45.5438C238.528 47.0812 238.109 48.5908 237.309 49.9038C236.451 51.2962 235.212 52.4136 233.739 53.1238C232.004 53.9588 230.094 54.3668 228.169 54.3138C226.269 54.3388 224.383 53.9747 222.629 53.2438Z" fill="black"/>
<path d="M267.852 24.6797V53.9997H262.001V41.5297H249.471V53.9997H243.602V24.6797H249.471V36.7397H262.001V24.6797H267.852Z" fill="black"/>
<path d="M294.303 41.4416C295.352 42.7515 295.917 44.3833 295.903 46.0616C295.931 47.5256 295.528 48.9655 294.743 50.2016C293.925 51.4327 292.768 52.4014 291.413 52.9916C289.786 53.6955 288.025 54.0368 286.253 53.9916H273.633V24.6816H285.713C287.474 24.6512 289.222 24.9919 290.843 25.6816C292.176 26.2339 293.314 27.1703 294.113 28.3716C294.86 29.534 295.249 30.89 295.233 32.2716C295.285 33.8168 294.801 35.3325 293.863 36.5616C292.934 37.7233 291.67 38.5716 290.243 38.9916C291.853 39.278 293.299 40.1509 294.303 41.4416ZM279.503 36.7816H284.873C286.034 36.8403 287.178 36.486 288.103 35.7816C288.485 35.4478 288.786 35.0309 288.981 34.5628C289.177 34.0948 289.263 33.588 289.233 33.0816C289.262 32.5708 289.176 32.0601 288.98 31.5874C288.784 31.1147 288.485 30.6923 288.103 30.3516C287.183 29.6383 286.035 29.283 284.873 29.3516H279.503V36.7816ZM288.753 48.2016C289.154 47.8477 289.47 47.4073 289.676 46.9136C289.882 46.4199 289.973 45.8857 289.943 45.3516C289.978 44.7883 289.882 44.2246 289.664 43.7043C289.445 43.184 289.109 42.7211 288.683 42.3516C287.722 41.5917 286.516 41.2109 285.293 41.2816H279.503V49.1716H285.413C286.606 49.2583 287.792 48.9142 288.753 48.2016Z" fill="black"/>
<path d="M306.642 52.3579C304.376 51.0992 302.492 49.2505 301.192 47.0079C299.867 44.6469 299.172 41.9851 299.172 39.2779C299.172 36.5708 299.867 33.909 301.192 31.5479C302.49 29.3032 304.373 27.4538 306.642 26.1979C308.957 24.9252 311.555 24.2578 314.197 24.2578C316.839 24.2578 319.437 24.9252 321.752 26.1979C324.007 27.458 325.877 29.3072 327.162 31.5479C328.468 33.915 329.153 36.5744 329.153 39.2779C329.153 41.9814 328.468 44.6409 327.162 47.0079C325.869 49.2497 323.993 51.0988 321.732 52.3579C319.419 53.6245 316.824 54.2883 314.187 54.2883C311.55 54.2883 308.955 53.6245 306.642 52.3579ZM318.842 47.8479C320.199 47.0329 321.29 45.8413 321.982 44.4179C322.727 42.8014 323.112 41.0427 323.112 39.2629C323.112 37.4831 322.727 35.7244 321.982 34.1079C321.286 32.7004 320.195 31.526 318.842 30.7279C317.407 29.9602 315.805 29.5586 314.177 29.5586C312.549 29.5586 310.947 29.9602 309.512 30.7279C308.149 31.5219 307.047 32.6966 306.342 34.1079C305.597 35.7244 305.212 37.4831 305.212 39.2629C305.212 41.0427 305.597 42.8014 306.342 44.4179C307.042 45.8454 308.144 47.0374 309.512 47.8479C310.943 48.6287 312.547 49.0378 314.177 49.0378C315.807 49.0378 317.411 48.6287 318.842 47.8479Z" fill="black"/>
<path d="M351.469 48.4106H339.819L337.889 54.0006H331.719L342.249 24.6406H349.079L359.609 54.0006H353.399L351.469 48.4106ZM349.879 43.7106L345.639 31.4506L341.409 43.7106H349.879Z" fill="black"/>
<path d="M378.629 53.9972L372.169 42.5772H369.409V53.9972H363.539V24.6772H374.539C376.536 24.6198 378.519 25.0307 380.329 25.8772C381.816 26.58 383.062 27.7074 383.909 29.1172C384.771 30.6231 385.183 32.3443 385.098 34.0773C385.013 35.8103 384.434 37.4828 383.429 38.8972C382.2 40.5305 380.426 41.6693 378.429 42.1072L385.429 53.9972H378.629ZM369.409 38.1672H374.309C375.606 38.2686 376.89 37.8514 377.879 37.0072C378.282 36.5801 378.594 36.0751 378.796 35.523C378.997 34.971 379.083 34.3837 379.049 33.7972C379.085 33.2225 378.999 32.6468 378.797 32.1076C378.596 31.5683 378.283 31.0775 377.879 30.6672C376.877 29.8494 375.598 29.4516 374.309 29.5572H369.409V38.1672Z" fill="black"/>
<path d="M408.77 26.4931C411.037 27.6409 412.917 29.4279 414.18 31.6331C415.484 34.0043 416.139 36.6776 416.08 39.3831C416.143 42.0764 415.487 44.7378 414.18 47.0931C412.911 49.2836 411.031 51.0561 408.77 52.1931C406.252 53.4426 403.47 54.0636 400.66 54.0031H390.43V24.6831H400.66C403.469 24.6274 406.251 25.2482 408.77 26.4931ZM407.57 46.4931C408.447 45.5411 409.123 44.4212 409.556 43.201C409.989 41.9807 410.171 40.6854 410.09 39.3931C410.166 38.0922 409.982 36.7891 409.55 35.5598C409.117 34.3305 408.444 33.1997 407.57 32.2331C405.9 30.5131 403.52 29.6531 400.45 29.6531H396.3V49.0031H400.45C403.52 49.0031 405.9 48.1631 407.57 46.4831V46.4931Z" fill="black"/>
</svg>
