<svg width="260" height="258" viewBox="0 0 260 258" fill="none" xmlns="http://www.w3.org/2000/svg">
<path d="M98.5 75C40.9 123.8 8.83333 193 0 221.5L79.5 258C85 239.667 106.1 192.8 146.5 152C186.9 111.2 239 88.3333 260 82L227.5 0C208.5 4.66667 156.1 26.2 98.5 75Z" fill="#F2F4F6"/>
<path d="M46.792 203.391L72.9819 216.501L70.3721 221.771L44.1719 208.701L46.792 203.391Z" fill="black"/>
<path d="M87.8086 189.902L84.8586 194.982L60.8586 196.412L78.1985 206.502L75.2485 211.592L49.8984 196.872L52.8386 191.782L76.9185 190.372L59.4985 180.262L62.4385 175.172L87.8086 189.902Z" fill="black"/>
<path d="M81.877 147.148L99.5771 172.848L95.467 178.678L65.3672 170.538L69.0071 165.388L92.647 172.268L78.2771 152.268L81.877 147.148Z" fill="black"/>
<path d="M92.6477 141.638L98.2979 146.328L104.588 138.738L108.168 141.738L101.878 149.338L107.878 154.338L114.978 145.778L118.658 148.838L107.808 161.918L85.2578 143.168L96.1079 130.078L99.7878 133.138L92.6477 141.638Z" fill="black"/>
<path d="M139.137 127.146L135.048 131.356L111.387 126.876L125.778 140.876L121.688 145.096L100.688 124.626L104.778 120.416L128.478 124.926L114.048 110.866L118.137 106.656L139.137 127.146Z" fill="black"/>
<path d="M138.779 88.4375L141.899 92.0075L136.019 97.1475L152.159 115.658L147.729 119.518L131.599 101.018L125.729 106.147L122.609 102.577L138.779 88.4375Z" fill="black"/>
<path d="M164.732 103.222C162.163 103.544 159.555 103.167 157.182 102.132C154.723 101.008 152.593 99.2719 150.995 97.0908C149.397 94.9098 148.384 92.3559 148.052 89.6725C147.773 87.0909 148.198 84.4819 149.282 82.1225C150.398 79.7217 152.099 77.6395 154.229 76.067C156.358 74.4945 158.849 73.482 161.472 73.1225C164.033 72.8078 166.631 73.1913 168.992 74.2325C171.443 75.3708 173.566 77.1114 175.162 79.292C176.759 81.4726 177.777 84.022 178.122 86.7025C178.409 89.2767 177.987 91.8804 176.902 94.2325C175.787 96.6252 174.088 98.6989 171.961 100.263C169.834 101.827 167.348 102.831 164.732 103.182V103.222ZM171.902 92.3525C172.518 90.8916 172.699 89.2837 172.422 87.7225C172.067 85.9799 171.339 84.3348 170.287 82.9003C169.236 81.4659 167.887 80.276 166.332 79.4125C164.939 78.6874 163.364 78.3884 161.802 78.5525C160.182 78.7415 158.644 79.3671 157.352 80.3625C156.014 81.3049 154.953 82.5897 154.282 84.0825C153.646 85.527 153.451 87.1275 153.722 88.6825C154.076 90.4256 154.804 92.0712 155.855 93.5058C156.906 94.9405 158.257 96.13 159.812 96.9925C161.217 97.726 162.805 98.0319 164.382 97.8725C165.999 97.6612 167.537 97.0444 168.852 96.0792C170.166 95.1141 171.216 93.8321 171.902 92.3525Z" fill="black"/>
<path d="M199.961 81.5022L188.501 75.0422L186.141 76.4822L192.041 86.2522L187.041 89.2522L171.891 64.1722L181.291 58.4822C182.96 57.3863 184.866 56.701 186.851 56.4822C188.486 56.3123 190.135 56.6289 191.591 57.3922C192.82 58.0273 193.88 58.9473 194.682 60.0753C195.484 61.2032 196.004 62.5066 196.2 63.8766C196.396 65.2466 196.261 66.6436 195.807 67.9509C195.353 69.2583 194.593 70.4382 193.591 71.3922L205.721 77.9222L199.961 81.5022ZM183.891 72.7322L188.081 70.1922C189.244 69.6074 190.128 68.5865 190.541 67.3522C190.666 66.7767 190.671 66.1818 190.558 65.604C190.444 65.0262 190.214 64.4777 189.881 63.9922C189.613 63.4838 189.242 63.0375 188.791 62.6825C188.339 62.3275 187.818 62.0718 187.261 61.9322C185.981 61.7485 184.68 62.0675 183.631 62.8222L179.441 65.3722L183.891 72.7322Z" fill="black"/>
<path d="M217.378 39.1719L217.079 60.7019L221.638 69.8319L216.388 72.4619L211.829 63.3319L194.398 50.7019L200.319 47.7019L211.938 56.8619L211.529 42.0819L217.378 39.1719Z" fill="black"/>
</svg>
