<svg width="196" height="292" viewBox="0 0 196 292" fill="none" xmlns="http://www.w3.org/2000/svg">
<path d="M125.034 132C92.0341 75.5 88.7008 29.8333 88.5341 3L0.0341203 0C-0.76588 44 12.7008 92.6667 19.5341 111.5C49.1341 202.7 119.534 269.833 151.034 292L195.034 214.5C157.434 182.9 132.701 146.333 125.034 132Z" 
stroke="#c2c5c8"  
stroke-width="4" 
fill="#F2F4F6"/>
<path d="M34.3477 29.4975L35.2075 39.1175L30.5776 39.5375L29.1875 24.0575L58.3376 21.4375L58.8577 27.2975L34.3477 29.4975Z" fill="black"/>
<path d="M39.708 61.4966L37.708 49.9966L31.8882 49.0566L30.8281 42.9766L61.5281 48.2966L62.708 55.0366L35.6182 70.4966L34.5481 64.3766L39.708 61.4966ZM44.0581 59.1166L55.3882 52.8166L42.5981 50.7566L44.0581 59.1166Z" fill="black"/>
<path d="M66.7607 73.7537L49.3207 78.6737C48.5055 78.8387 47.7316 79.1653 47.0446 79.6342C46.3576 80.103 45.7715 80.7047 45.3207 81.4037C44.9527 82.1121 44.7337 82.8883 44.6769 83.6846C44.6202 84.4808 44.7268 85.2803 44.9907 86.0338C45.1576 86.8205 45.4832 87.565 45.9474 88.2217C46.4117 88.8785 47.0047 89.4338 47.6906 89.8537C48.4333 90.2138 49.2405 90.4223 50.0646 90.467C50.8888 90.5116 51.7134 90.3915 52.4907 90.1137L69.9306 85.2037L71.5307 90.9037L54.1308 95.8037C52.0196 96.4742 49.7606 96.5263 47.6208 95.9537C45.7222 95.4103 44.0206 94.3304 42.7206 92.8438C41.3611 91.2681 40.3766 89.4047 39.8408 87.3937C39.2583 85.4245 39.135 83.348 39.4806 81.3237C39.8281 79.3996 40.7322 77.6195 42.0807 76.2037C43.6342 74.6381 45.589 73.5309 47.7306 73.0037L65.1308 68.0938L66.7607 73.7537Z" fill="black"/>
<path d="M54.9634 129.318L52.8035 123.848L66.6135 104.078L47.9333 111.498L45.7734 106.028L73.0334 95.2578L75.1934 100.728L61.3535 120.498L80.0735 113.098L82.2234 118.568L54.9634 129.318Z" fill="black"/>
<path d="M78.2375 126.43C80.7931 126.509 83.2775 127.291 85.4174 128.69C87.6329 130.144 89.4238 132.159 90.6076 134.53C92.0837 137.213 92.6949 140.286 92.3576 143.33C92.0122 146.282 90.6802 149.03 88.5775 151.13L85.4474 145.13C86.3419 143.981 86.8589 142.584 86.9274 141.13C86.9782 139.656 86.6329 138.195 85.9274 136.9C85.2166 135.467 84.1229 134.259 82.7675 133.41C81.4359 132.596 79.8979 132.183 78.3376 132.22C76.5775 132.31 74.8575 132.78 73.2956 133.596C71.7336 134.412 70.3665 135.556 69.2875 136.95C68.3582 138.213 67.8098 139.715 67.7074 141.28C67.6278 142.878 67.9913 144.466 68.7575 145.87C69.4114 147.196 70.4138 148.32 71.6574 149.12C72.8884 149.881 74.3225 150.247 75.7675 150.17L78.8876 156.17C75.9673 156.721 72.9461 156.255 70.3275 154.85C67.6454 153.367 65.4818 151.099 64.1276 148.35C62.8733 146.014 62.2494 143.391 62.3175 140.74C62.3993 138.188 63.1736 135.706 64.5575 133.56C66.0676 131.323 68.1104 129.498 70.5021 128.248C72.8938 126.998 75.5591 126.363 78.2575 126.4L78.2375 126.43Z" fill="black"/>
<path d="M112.071 170.503L87.6414 186.643L84.4111 181.733L94.8113 174.863L87.9111 164.383L77.5112 171.253L74.2812 166.343L98.7112 150.203L101.941 155.113L91.9412 161.753L98.8413 172.233L108.841 165.593L112.071 170.503Z" fill="black"/>
<path d="M117.054 198.627C115.437 198.891 113.778 198.661 112.294 197.967C110.429 197.076 108.814 195.736 107.594 194.067L104.534 190.227L95.7437 197.227L92.0938 192.627L114.984 174.367L121.694 182.817C122.98 184.342 123.901 186.141 124.384 188.077C124.773 189.681 124.668 191.364 124.084 192.907C123.489 194.369 122.536 195.658 121.313 196.656C120.09 197.654 118.635 198.328 117.084 198.617L117.054 198.627ZM114.254 193.047C114.824 193.113 115.402 193.058 115.95 192.886C116.498 192.714 117.003 192.428 117.434 192.047C119.66 190.281 119.784 188.144 117.804 185.637L114.904 181.987L108.244 187.297L111.144 190.947C111.873 192.02 112.986 192.772 114.254 193.047Z" fill="black"/>
<path d="M125.534 222.908L117.534 214.438L112.154 216.888L107.914 212.418L136.404 199.828L141.114 204.828L127.114 232.688L122.834 228.188L125.534 222.908ZM127.844 218.508L133.844 206.988L122.054 212.358L127.844 218.508Z" fill="black"/>
<path d="M163.122 227.87C164.082 230.227 164.326 232.815 163.822 235.31C163.25 237.956 161.991 240.404 160.172 242.41C158.448 244.477 156.205 246.048 153.672 246.96C151.279 247.772 148.7 247.87 146.252 247.24C143.532 246.515 141.027 245.142 138.952 243.24L131.242 236.51L150.532 214.43L158.242 221.17C160.382 222.979 162.056 225.277 163.122 227.87ZM149.122 242.15C150.407 242.009 151.649 241.609 152.775 240.975C153.9 240.341 154.886 239.485 155.672 238.46C156.585 237.528 157.302 236.424 157.783 235.212C158.264 233.999 158.498 232.704 158.472 231.4C158.339 229 157.116 226.786 154.802 224.76L151.672 222.03L138.962 236.62L142.092 239.35C144.386 241.383 146.722 242.316 149.102 242.15H149.122Z" fill="black"/>
</svg>
