<svg width="274" height="243" viewBox="0 -2 274 243" fill="none" xmlns="http://www.w3.org/2000/svg">
<path d="M0 87.5L10 0C162.8 26 248.667 143.5 272.5 199L196 242.5C146 134.1 44.5 94 0 87.5Z" 
stroke="#c2c5c8"  
stroke-width="4" 
fill="#F2F4F6"/>
<path d="M25.4966 55.9709L34.6665 58.9709L33.2266 63.4009L18.4766 58.5809L27.5566 30.7109L33.1365 32.5409L25.4966 55.9709Z" fill="black"/>
<path d="M54.958 66.0469L44.178 61.6169L40.2781 66.0569L34.5781 63.7069L55.438 40.5469L61.7581 43.1469L60.3682 74.3169L54.6279 71.9569L54.958 66.0469ZM55.2681 61.0469L55.998 48.0469L47.438 57.7869L55.2681 61.0469Z" fill="black"/>
<path d="M81.9412 52.4431L73.6114 68.5531C73.1828 69.2596 72.8991 70.0444 72.7772 70.8617C72.6553 71.679 72.6974 72.5123 72.9012 73.3131C73.5312 74.7799 74.6526 75.9816 76.0723 76.7115C77.4921 77.4415 79.1217 77.6542 80.6812 77.3131C81.4518 77.0185 82.1554 76.5719 82.7498 75.9998C83.3442 75.4277 83.8173 74.7419 84.1412 73.9831L92.4813 57.8731L97.7313 60.6031L89.4112 76.6731C88.4564 78.6725 86.9553 80.3609 85.0814 81.5431C83.3877 82.5608 81.4361 83.0678 79.4613 83.0031C77.3838 82.9222 75.3522 82.3681 73.5213 81.3831C71.6868 80.4619 70.089 79.1309 68.8514 77.4931C67.6684 75.9327 66.9726 74.0576 66.8514 72.1031C66.7728 69.8929 67.3018 67.7035 68.3812 65.7731L76.6912 49.7031L81.9412 52.4431Z" fill="black"/>
<path d="M109.744 102.64L104.794 99.4797L104.384 75.3497L93.5938 92.3497L88.5938 89.1897L104.344 64.4297L109.344 67.5897L109.734 91.7497L120.554 74.7497L125.504 77.9097L109.744 102.64Z" fill="black"/>
<path d="M128.132 88.1812C130.489 87.189 133.074 86.8671 135.602 87.2512C138.218 87.6556 140.68 88.742 142.742 90.4012C145.197 92.2257 147.028 94.7651 147.982 97.6712C148.896 100.504 148.826 103.563 147.782 106.351L142.452 102.191C142.79 100.787 142.685 99.3132 142.152 97.9712C141.576 96.6151 140.651 95.4354 139.472 94.5512C138.227 93.5451 136.729 92.9015 135.142 92.6912C133.594 92.5119 132.027 92.7755 130.622 93.4512C129.06 94.2678 127.691 95.4111 126.609 96.8036C125.527 98.196 124.757 99.805 124.352 101.521C124.034 103.058 124.162 104.655 124.722 106.121C125.31 107.606 126.296 108.9 127.572 109.861C128.725 110.793 130.106 111.397 131.572 111.611C133.011 111.786 134.468 111.521 135.752 110.851L141.082 115.001C138.651 116.713 135.71 117.545 132.742 117.361C129.69 117.132 126.782 115.969 124.412 114.031C122.3 112.434 120.645 110.31 119.612 107.871C118.603 105.519 118.257 102.936 118.612 100.401C119.06 97.7382 120.161 95.2278 121.817 93.0951C123.474 90.9624 125.633 89.2739 128.102 88.1812H128.132Z" fill="black"/>
<path d="M176.387 120.498L156.387 141.868L152.108 137.868L160.627 128.768L151.488 120.178L142.968 129.278L138.688 125.278L158.688 103.898L162.968 107.898L154.738 116.688L163.877 125.278L172.108 116.488L176.387 120.498Z" fill="black"/>
<path d="M185.243 150.039C183.647 150.403 181.977 150.278 180.453 149.679C178.539 148.902 176.843 147.669 175.513 146.089L172.223 142.439L163.883 149.989L159.953 145.629L181.663 125.969L188.883 133.969C190.26 135.413 191.287 137.154 191.883 139.059C192.369 140.632 192.369 142.315 191.883 143.889C191.374 145.387 190.498 146.734 189.335 147.807C188.172 148.879 186.758 149.643 185.223 150.029L185.243 150.039ZM182.103 144.649C182.677 144.676 183.25 144.582 183.784 144.371C184.319 144.161 184.802 143.84 185.203 143.429C187.323 141.509 187.323 139.365 185.203 136.999L182.083 133.539L175.763 139.259L178.893 142.719C179.673 143.754 180.824 144.446 182.103 144.649Z" fill="black"/>
<path d="M191.889 175.124L184.819 165.844L179.209 167.704L175.469 162.794L205.139 153.344L209.299 158.784L192.399 184.984L188.639 180.044L191.889 175.124ZM194.659 170.994L201.809 160.174L189.509 164.254L194.659 170.994Z" fill="black"/>
<path d="M227.237 188.594C227.485 191.127 226.981 193.676 225.787 195.924C224.485 198.293 222.581 200.276 220.267 201.674C218.029 203.166 215.432 204.03 212.747 204.174C210.217 204.275 207.714 203.632 205.547 202.324C203.149 200.85 201.14 198.824 199.687 196.414L194.227 187.754L218.967 172.094L224.427 180.764C225.983 183.108 226.947 185.795 227.237 188.594ZM209.727 198.264C210.999 198.496 212.305 198.469 213.566 198.184C214.828 197.899 216.018 197.361 217.067 196.604C218.209 195.966 219.214 195.107 220.021 194.077C220.827 193.047 221.421 191.866 221.767 190.604C222.015 189.321 221.998 188.001 221.718 186.725C221.437 185.45 220.899 184.244 220.136 183.184L217.917 179.674L201.577 190.014L203.797 193.534C205.437 196.18 207.413 197.757 209.727 198.264Z" fill="black"/>
</svg>
