<svg width="330" height="89" viewBox="0 0 330 89" fill="none" xmlns="http://www.w3.org/2000/svg">
<path d="M328 89V0H1.75401L0 89H328Z" fill="#F2F4F6"
stroke="#c2c5c8"  
stroke-width="4" />
<path d="M41.304 64H35.144L21.196 42.924V64H15.036V33.244H21.196L35.144 54.364V33.244H41.304V64ZM66.3555 33.288V38.26H53.5515V46.136H63.3635V51.02H53.5515V64H47.3915V33.288H66.3555ZM91.6235 33.288V38.26H83.4395V64H77.2795V38.26H69.0955V33.288H91.6235ZM125.566 33.288V38.26H112.762V46.136H122.574V51.02H112.762V64H106.602V33.288H125.566ZM136.094 38.26V45.96H146.434V50.844H136.094V58.984H147.754V64H129.934V33.244H147.754V38.26H136.094ZM172.184 58.148H159.952L157.928 64H151.46L162.504 33.244H169.676L180.72 64H174.208L172.184 58.148ZM170.512 53.22L166.068 40.372L161.624 53.22H170.512ZM205.749 33.288V38.26H197.565V64H191.405V38.26H183.221V33.288H205.749ZM216.315 33.288V52.296C216.315 54.3787 216.858 55.9773 217.943 57.092C219.028 58.1773 220.554 58.72 222.519 58.72C224.514 58.72 226.054 58.1773 227.139 57.092C228.224 55.9773 228.767 54.3787 228.767 52.296V33.288H234.971V52.252C234.971 54.8627 234.399 57.0773 233.255 58.896C232.14 60.6853 230.63 62.0347 228.723 62.944C226.846 63.8533 224.748 64.308 222.431 64.308C220.143 64.308 218.06 63.8533 216.183 62.944C214.335 62.0347 212.868 60.6853 211.783 58.896C210.698 57.0773 210.155 54.8627 210.155 52.252V33.288H216.315ZM256.763 64L249.987 52.032H247.083V64H240.923V33.288H252.451C254.827 33.288 256.851 33.7133 258.523 34.564C260.195 35.3853 261.441 36.5147 262.263 37.952C263.113 39.36 263.539 40.944 263.539 42.704C263.539 44.728 262.952 46.5613 261.779 48.204C260.605 49.8173 258.86 50.932 256.543 51.548L263.891 64H256.763ZM247.083 47.412H252.231C253.903 47.412 255.149 47.016 255.971 46.224C256.792 45.4027 257.203 44.2733 257.203 42.836C257.203 41.428 256.792 40.3427 255.971 39.58C255.149 38.788 253.903 38.392 252.231 38.392H247.083V47.412ZM275.27 38.26V45.96H285.61V50.844H275.27V58.984H286.93V64H269.11V33.244H286.93V38.26H275.27ZM303.132 64.308C300.991 64.308 299.055 63.9413 297.324 63.208C295.623 62.4747 294.274 61.4187 293.276 60.04C292.279 58.6613 291.766 57.0333 291.736 55.156H298.336C298.424 56.4173 298.864 57.4147 299.656 58.148C300.478 58.8813 301.592 59.248 303 59.248C304.438 59.248 305.567 58.9107 306.388 58.236C307.21 57.532 307.62 56.6227 307.62 55.508C307.62 54.5987 307.342 53.8507 306.784 53.264C306.227 52.6773 305.523 52.2227 304.672 51.9C303.851 51.548 302.707 51.1667 301.24 50.756C299.246 50.1693 297.618 49.5973 296.356 49.04C295.124 48.4533 294.054 47.588 293.144 46.444C292.264 45.2707 291.824 43.716 291.824 41.78C291.824 39.9613 292.279 38.3773 293.188 37.028C294.098 35.6787 295.374 34.652 297.016 33.948C298.659 33.2147 300.536 32.848 302.648 32.848C305.816 32.848 308.383 33.6253 310.348 35.18C312.343 36.7053 313.443 38.8467 313.648 41.604H306.872C306.814 40.548 306.359 39.6827 305.508 39.008C304.687 38.304 303.587 37.952 302.208 37.952C301.006 37.952 300.038 38.26 299.304 38.876C298.6 39.492 298.248 40.3867 298.248 41.56C298.248 42.3813 298.512 43.0707 299.04 43.628C299.598 44.156 300.272 44.596 301.064 44.948C301.886 45.2707 303.03 45.652 304.496 46.092C306.491 46.6787 308.119 47.2653 309.38 47.852C310.642 48.4387 311.727 49.3187 312.636 50.492C313.546 51.6653 314 53.2053 314 55.112C314 56.7547 313.575 58.28 312.724 59.688C311.874 61.096 310.627 62.2253 308.984 63.076C307.342 63.8973 305.391 64.308 303.132 64.308Z" fill="black"/>
</svg>
