<svg width="305" height="103" viewBox="-1 -0.5 305 103" fill="none" xmlns="http://www.w3.org/2000/svg">
<path d="M306 83.5L277.5 0C245.1 12.4 197.333 14.1667 177.5 13.5H0V101H115C227.4 106.6 289.167 91.6667 306 83.5Z" fill="#F2F4F6"/>
<path d="M46.9988 74.5006H41.1287L27.8389 54.3806V74.5006H21.9688V45.1406H27.8389L41.1287 65.3006V45.1406H46.9988V74.5006Z" fill="black"/>
<path d="M70.8113 45.1797V49.9297H58.6113V57.4997H68.0012V62.1597H58.6511V74.4997H52.7812V45.1797H70.8113Z" fill="black"/>
<path d="M94.8896 45.1797V49.9297H87.0898V74.4997H81.2197V49.9297H73.4297V45.1797H94.8896Z" fill="black"/>
<path d="M141.073 45.1797V74.4997H135.203V55.4297L127.363 74.4997H122.923L115.003 55.4297V74.4997H109.133V45.1797H115.793L125.103 66.9797L134.413 45.1797H141.073Z" fill="black"/>
<path d="M164.812 68.9106H153.162L151.232 74.5006H145.062L155.593 45.1406H162.422L173.002 74.5006H166.792L164.812 68.9106ZM163.222 64.2106L159.002 51.9506L154.772 64.2106H163.222Z" fill="black"/>
<path d="M192.343 74.3226L185.643 63.0425L182.883 63.1025L183.123 74.5226L177.253 74.6426L176.633 45.3326L187.633 45.1025C189.626 45.0009 191.616 45.3673 193.443 46.1725C194.945 46.8469 196.217 47.9452 197.103 49.3326C197.931 50.6997 198.376 52.2642 198.393 53.8625C198.445 55.7417 197.895 57.5884 196.823 59.1326C195.624 60.7811 193.882 61.9534 191.903 62.4425L199.153 74.1825L192.343 74.3226ZM182.783 58.6925L187.693 58.5826C188.335 58.6209 188.978 58.532 189.586 58.3209C190.193 58.1098 190.753 57.7807 191.233 57.3525C191.627 56.9177 191.928 56.4068 192.117 55.8513C192.306 55.2958 192.38 54.7075 192.333 54.1225C192.356 53.5462 192.257 52.9716 192.043 52.4359C191.829 51.9002 191.506 51.4153 191.093 51.0126C190.073 50.2316 188.79 49.8735 187.513 50.0126L182.603 50.1125L182.783 58.6925Z" fill="black"/>
<path d="M222.002 72.1491L210.112 60.2091L211.402 73.2091L205.562 73.7891L202.672 44.6191L208.512 44.0391L209.812 57.1191L219.112 42.9891L226.162 42.2891L215.582 57.9391L229.382 71.4291L222.002 72.1491Z" fill="black"/>
<path d="M236.068 45.3366L237.318 52.5766L247.028 50.8966L247.818 55.4966L238.108 57.1766L239.428 64.8266L250.428 62.9366L251.238 67.6566L234.508 70.5466L229.508 41.6166L246.238 38.7266L246.998 43.4966L236.068 45.3366Z" fill="black"/>
<path d="M269.999 33.1406L271.119 37.7506L263.549 39.5906L269.349 63.4706L263.648 64.8606L257.839 40.9906L250.269 42.8306L249.148 38.2206L269.999 33.1406Z" fill="black"/>
</svg>
