<svg width="313" height="145" viewBox="1 0 313 145" fill="none" xmlns="http://www.w3.org/2000/svg">
<path d="M312.5 144.5L314.5 57C228.5 55 183 59 132.5 45C92.1 33.8 57 10.3333 44.5 0L0 77.5C13.2 89.1 46.8333 106.667 62 114C108.8 136.4 166.167 143.667 189 144.5H312.5Z" 
stroke="#c2c5c8"  
stroke-width="4" 
fill="#F2F4F6"/>
<path d="M56.9484 58.7914C55.3547 59.5501 53.5684 59.8094 51.8252 59.535C49.6346 59.1603 47.5694 58.2582 45.8089 56.9069L41.5683 53.8476L34.4735 63.691L29.3167 60.0255L47.6461 34.4256L57.0877 41.141C58.8707 42.3281 60.3519 43.9123 61.4148 45.7688C62.2916 47.3085 62.6757 49.0789 62.5159 50.8435C62.3207 52.5272 61.7074 54.1364 60.7314 55.5251C59.7553 56.9138 58.4474 58.038 56.9263 58.7961L56.9484 58.7914ZM52.4002 53.8895C53.0107 53.7847 53.5921 53.5519 54.1059 53.2065C54.6197 52.861 55.0543 52.4109 55.3808 51.8857C57.1608 49.3832 56.673 47.1351 53.9174 45.1414L49.8298 42.2558L44.5242 49.7097L48.5897 52.6001C49.6525 53.4907 51.0123 53.9508 52.4002 53.8895Z" fill="black"/>
<path d="M57.9262 71.0865C61.6496 70.4856 64.5999 69.9375 66.958 69.4258C69.1199 68.9654 71.2187 68.2475 73.2093 67.2874C74.9046 66.54 76.3399 65.3078 77.3333 63.7472C78.0548 62.6735 78.3786 61.383 78.2491 60.098C78.1223 59.4924 77.8578 58.9241 77.476 58.4367C77.0942 57.9493 76.6053 57.5558 76.0468 57.2865C75.5007 56.9148 74.8743 56.6767 74.2184 56.5912C73.5624 56.5058 72.8953 56.5754 72.2709 56.7946C70.9082 57.4135 69.7892 58.4653 69.0892 59.7853L63.7996 56.6776C64.5303 55.35 65.5262 54.1857 66.7258 53.2567C67.9254 52.3278 69.3031 51.6539 70.7737 51.2768C73.5682 50.7059 76.4743 51.2574 78.8604 52.8116C80.1453 53.4554 81.2859 54.352 82.2136 55.4474C83.1413 56.5427 83.837 57.814 84.2586 59.1851C84.5729 60.466 84.6184 61.7982 84.3921 63.0981C84.1659 64.398 83.6728 65.6376 82.9439 66.7393C81.7273 68.7746 79.9721 70.4368 77.8711 71.5435C75.8089 72.6982 73.5977 73.565 71.2995 74.1195C69.0956 74.5977 66.2966 75.205 62.8913 75.7829L74.3188 82.5045L71.647 86.9947L52.4781 75.6501L54.8783 71.6098L57.9262 71.0865Z" fill="black"/>
<path d="M104.101 84.5575C102.65 85.567 100.927 86.1171 99.1589 86.136C96.9357 86.1182 94.7501 85.5666 92.7871 84.5281L88.0189 82.2274L82.7135 93.0857L77.0403 90.3372L90.8605 62.0354L101.197 67.1306C103.156 68.0101 104.887 69.3265 106.254 70.9786C107.36 72.3537 108.035 74.0231 108.196 75.779C108.302 77.5273 107.94 79.2728 107.147 80.8371C106.458 82.3104 105.411 83.5893 104.101 84.5575ZM98.7827 80.4669C99.3675 80.2562 99.9024 79.9271 100.354 79.5006C100.805 79.074 101.164 78.5593 101.406 77.9884C102.749 75.2434 101.883 73.131 98.8083 71.6513L94.2937 69.4565L90.2653 77.6915L94.7751 79.8643C95.9831 80.5709 97.4181 80.7867 98.7827 80.4669Z" fill="black"/>
<path d="M156.799 83.0028L147.135 112.91L141.108 110.975L147.433 91.5219L133.103 108.433L128.537 106.962L126.777 84.9166L120.452 104.369L114.383 102.351L124.052 72.4651L130.898 74.6603L133.205 99.9688L150.047 80.8105L156.799 83.0028Z" fill="black"/>
<path d="M175.644 112.767L163.342 110.307L160.119 115.768L153.611 114.489L170.933 85.8411L178.164 87.2625L183.034 120.342L176.477 119.05L175.644 112.767ZM174.96 107.487L173.077 93.703L166.012 105.702L174.96 107.487Z" fill="black"/>
<path d="M205.396 121.712L199.715 108.821L196.764 108.518L195.509 120.706L189.215 120.093L192.418 88.8044L204.209 89.9724C206.35 90.1467 208.423 90.7972 210.276 91.8763C211.793 92.7877 213.006 94.1246 213.764 95.7201C214.474 97.2788 214.744 99.0016 214.545 100.703C214.37 102.708 213.541 104.601 212.184 106.092C210.686 107.696 208.672 108.727 206.493 109.006L212.705 122.426L205.396 121.712ZM197.244 103.813L202.484 104.355C203.86 104.593 205.275 104.286 206.429 103.499C206.911 103.092 207.301 102.589 207.576 102.023C207.851 101.456 208.003 100.838 208.023 100.209C208.119 99.597 208.087 98.9717 207.929 98.3726C207.772 97.7734 207.491 97.2134 207.106 96.7277C206.108 95.7827 204.789 95.2476 203.412 95.2291L198.154 94.7138L197.244 103.813Z" fill="black"/>
<path d="M237.65 123.906L226.284 109.81L226.3 123.815L219.971 123.785L220.235 92.3522L226.564 92.382L226.44 106.487L238.029 92.4706L245.655 92.5182L232.519 108.02L245.762 123.963L237.65 123.906Z" fill="black"/>
<path d="M256.27 96.6798L256.621 104.544L267.218 104.081L267.437 109.068L256.843 109.553L257.186 117.876L269.147 117.348L269.367 122.472L251.174 123.263L249.817 91.8201L268.01 91.0286L268.23 96.1521L256.27 96.6798Z" fill="black"/>
<path d="M298.637 90.1695L298.748 95.2572L290.348 95.4529L290.929 121.769L284.606 121.912L284.025 95.5959L275.646 95.7674L275.534 90.6798L298.637 90.1695Z" fill="black"/>
</svg>
