<svg width="112.97" height="258" viewBox="-1 1 112.97 258" fill="none" xmlns="http://www.w3.org/2000/svg">
<path d="M77 0L0 44.5C34.8 119.3 26.5 199.667 18 230.5L101.5 258C130.7 148.4 97.3333 40.3333 77 0Z" 
stroke="#c2c5c8"  
stroke-width="1" 
fill="#F2F4F6"/>
<g clip-path="url(#clip0_1615_41291)">
<path d="M33.51 56.6948C33.5789 55.0579 34.0884 53.4713 34.9831 52.1071C35.9028 50.7615 37.2179 49.7447 38.741 49.2016L40.8056 55.0008C40.3222 55.1941 39.8816 55.4829 39.5092 55.8504C39.1369 56.218 38.8404 56.657 38.6368 57.1418C38.2531 58.2027 38.282 59.3718 38.7178 60.4118C39.0335 61.5057 39.7302 62.4462 40.6781 63.0585C41.0861 63.3078 41.5449 63.4587 42.0195 63.4995C42.4941 63.5403 42.9717 63.47 43.4152 63.2939C44.1439 63.0523 44.7486 62.5278 45.097 61.8353C45.4432 61.1291 45.6294 60.3534 45.6421 59.5649C45.669 58.4306 45.6344 57.2957 45.5379 56.1653C45.4273 54.5557 45.4273 52.9403 45.5379 51.3307C45.6511 50.0305 46.0773 48.7784 46.779 47.6841C47.6511 46.4105 48.9222 45.4735 50.386 45.0257C51.8354 44.4577 53.4201 44.347 54.9326 44.708C56.4256 45.1009 57.7775 45.9169 58.8298 47.0607C60.0348 48.3921 60.955 49.9621 61.5324 51.6719C62.4997 54.0629 62.6466 56.7143 61.9498 59.2003C61.5894 60.312 60.9938 61.3303 60.2043 62.1838C59.4149 63.0372 58.4509 63.7051 57.38 64.1408L55.2574 58.1769C55.689 57.9953 56.0772 57.7216 56.3954 57.3745C56.7136 57.0275 56.9544 56.6151 57.1016 56.1653C57.4398 55.0971 57.3903 53.9416 56.9623 52.9071C56.687 51.9734 56.0793 51.1768 55.2574 50.672C54.8491 50.4515 54.3967 50.3284 53.9344 50.312C53.4721 50.2957 53.0123 50.3866 52.5899 50.5778C52.2578 50.6871 51.9511 50.8647 51.6897 51.0995C51.4283 51.3343 51.2176 51.6213 51.0704 51.9424C50.7562 52.6334 50.5827 53.3815 50.5602 54.1421C50.5602 54.9538 50.5602 56.083 50.5602 57.5064C50.6774 59.1236 50.6774 60.7473 50.5602 62.3645C50.4391 63.6849 50.0053 64.9561 49.2958 66.07C48.4328 67.3451 47.1695 68.2863 45.7117 68.7402C44.3138 69.2651 42.7981 69.3793 41.3391 69.0696C39.792 68.7429 38.3705 67.971 37.2447 66.8464C35.9188 65.5331 34.9177 63.921 34.3221 62.1411C33.6927 60.3996 33.4163 58.5471 33.51 56.6948Z" fill="black"/>
<path d="M71.6459 87.284L67.2035 88.4603L65.255 81.0612L42.313 87.284L40.8516 81.72L63.7936 75.4973L61.8335 68.0982L66.2756 66.9219L71.6459 87.284Z" fill="black"/>
<path d="M53.3257 114.596L51.4237 103.315L45.7867 102.362L44.7891 96.3984L74.47 101.751L75.6298 108.373L49.3707 123.395L48.3615 117.384L53.3257 114.596ZM57.5475 112.243L68.5432 106.127L56.1673 104.044L57.5475 112.243Z" fill="black"/>
<path d="M50.6797 142.827L62.545 131.487L49.9491 132.393L49.5547 126.64L77.8206 124.617L78.2148 130.369L65.5376 131.275L78.9456 140.792L79.4327 147.732L64.598 136.91L51.19 150.096L50.6797 142.827Z" fill="black"/>
<path d="M79.3509 159.038L51.0156 159.155V153.391L79.3509 153.273V159.038Z" fill="black"/>
<path d="M49.5625 188.87L49.9453 183.118L70.208 171.413L50.8036 170.096L51.1862 164.344L79.4985 166.261L79.1157 172.013L58.8182 183.777L78.2574 185.094L77.8746 190.846L49.5625 188.87Z" fill="black"/>
<path d="M65.1194 216.94C66.3547 216.53 67.4464 215.766 68.2626 214.74C69.1118 213.63 69.667 212.318 69.875 210.929C70.1835 209.357 70.0632 207.73 69.5269 206.223C68.9982 204.781 68.0672 203.527 66.8476 202.612C65.4616 201.617 63.8744 200.947 62.2011 200.652C60.5277 200.357 58.8106 200.444 57.1746 200.907C55.714 201.364 54.4164 202.243 53.4399 203.436C52.4274 204.718 51.7634 206.247 51.5143 207.87C51.1017 209.776 51.382 211.769 52.3032 213.481C53.2852 215.119 54.792 216.365 56.5714 217.01L58.2532 207.27L62.533 208.035L59.8768 223.327L54.9939 222.457C53.1032 221.725 51.4015 220.567 50.018 219.069C48.5647 217.5 47.489 215.612 46.8749 213.552C46.2109 211.329 46.0875 208.976 46.5152 206.694C46.9349 204.111 48.0014 201.681 49.6123 199.636C51.1717 197.678 53.235 196.196 55.5738 195.354C58.0511 194.519 60.6943 194.322 63.2655 194.78C65.8367 195.238 68.2553 196.336 70.304 197.977C72.2333 199.572 73.6839 201.683 74.4912 204.071C75.3225 206.541 75.5063 209.188 75.0247 211.752C74.592 214.708 73.2904 217.463 71.29 219.657C69.3664 221.73 66.7824 223.046 63.9944 223.374L65.1194 216.94Z" fill="black"/>
</g>
<defs>
<clipPath id="clip0_1615_41291">
<rect width="46" height="179" fill="white" transform="translate(33.5 44.5)"/>
</clipPath>
</defs>
</svg>
