<svg width="262.5" height="282" viewBox="0 0 262.5 282" fill="none" xmlns="http://www.w3.org/2000/svg">
<path d="M262.5 28.5L179.5 0C145.5 130.4 45.6667 186 0 197.5L28 282C184 229 250.333 86.5 262.5 28.5Z" 
stroke="#c2c5c8"  
stroke-width="1" 
fill="#F2F4F6"/>
<path d="M46.8813 206.93L48.8813 211.25L41.7815 214.49L51.9714 236.85L46.6313 239.29L36.4414 216.94L29.3516 220.18L27.3516 215.86L46.8813 206.93Z" fill="black"/>
<path d="M68.739 226.662C66.1463 226.677 63.5987 225.985 61.3691 224.662C59.0586 223.256 57.1479 221.279 55.8206 218.922C54.4933 216.565 53.7938 213.907 53.7891 211.202C53.8202 208.606 54.5525 206.066 55.9089 203.852C57.3037 201.61 59.2399 199.754 61.5396 198.456C63.8392 197.157 66.4285 196.458 69.0691 196.422C71.6522 196.408 74.1899 197.1 76.4089 198.422C78.7105 199.844 80.614 201.826 81.9414 204.184C83.2688 206.541 83.9767 209.197 83.999 211.902C83.9736 214.493 83.2479 217.03 81.8989 219.242C80.5039 221.481 78.5689 223.334 76.2712 224.631C73.9736 225.927 71.387 226.626 68.749 226.662H68.739ZM77.1489 216.732C77.9311 215.356 78.2993 213.783 78.209 212.202C78.074 210.425 77.5523 208.698 76.6799 207.143C75.8076 205.589 74.6057 204.244 73.1589 203.202C71.8599 202.317 70.3307 201.83 68.759 201.802C67.1292 201.798 65.5288 202.237 64.1289 203.072C62.6877 203.848 61.4795 204.994 60.6289 206.392C59.8327 207.753 59.4539 209.318 59.5391 210.892C59.6421 212.657 60.1668 214.372 61.0691 215.892C61.9121 217.467 63.1189 218.818 64.5891 219.832C65.8969 220.734 67.4409 221.231 69.0291 221.262C70.6594 221.242 72.2583 220.811 73.6777 220.008C75.0971 219.206 76.2909 218.059 77.1489 216.672V216.732Z" fill="black"/>
<path d="M107.761 204.244L91.5913 199.564L99.0012 210.314L94.1812 213.654L77.5312 189.504L82.3613 186.164L89.8213 196.974L91.1213 180.094L96.9412 176.094L95.2612 194.924L113.871 200.014L107.761 204.244Z" fill="black"/>
<path d="M107.069 173.923L111.689 179.633L119.339 173.423L122.279 177.043L114.619 183.253L119.509 189.253L128.139 182.253L131.139 185.973L117.999 196.713L99.5391 173.913L112.729 163.203L115.729 166.913L107.069 173.923Z" fill="black"/>
<path d="M154.467 164.249L150.227 168.309L126.737 162.979L140.627 177.499L136.387 181.559L116.117 160.349L120.367 156.289L143.877 161.649L129.997 147.099L134.237 143.039L154.467 164.249Z" fill="black"/>
<path d="M176.147 139.241L163.238 137.021L161.488 139.161L170.308 146.391L166.598 150.951L143.938 132.391L150.938 123.871C152.155 122.29 153.723 121.013 155.518 120.141C157.001 119.434 158.66 119.18 160.288 119.411C161.998 119.701 163.589 120.474 164.875 121.637C166.161 122.801 167.088 124.308 167.548 125.981C168.027 127.966 167.786 130.057 166.868 131.881L180.488 133.971L176.147 139.241ZM158.078 136.371L161.177 132.571C162.078 131.631 162.571 130.372 162.548 129.071C162.473 128.488 162.28 127.926 161.981 127.421C161.682 126.915 161.283 126.476 160.808 126.131C160.384 125.739 159.883 125.442 159.337 125.258C158.79 125.073 158.211 125.006 157.637 125.061C156.374 125.32 155.26 126.059 154.528 127.121L151.417 130.921L158.078 136.371Z" fill="black"/>
<path d="M186.554 122.669C184.249 123.851 181.669 124.39 179.084 124.229C176.39 124.016 173.795 123.114 171.55 121.61C169.305 120.106 167.485 118.049 166.264 115.639C165.125 113.304 164.635 110.707 164.844 108.119C165.057 105.481 165.953 102.945 167.444 100.759C168.885 98.5361 170.89 96.735 173.254 95.5386C175.553 94.3645 178.128 93.8358 180.704 94.0086C183.391 94.2434 185.976 95.154 188.218 96.6559C190.459 98.1577 192.284 100.202 193.524 102.599C194.67 104.923 195.164 107.515 194.954 110.099C194.717 112.729 193.823 115.258 192.356 117.454C190.888 119.65 188.893 121.443 186.554 122.669ZM189.554 109.999C189.636 108.418 189.257 106.848 188.464 105.479C187.565 103.932 186.311 102.622 184.804 101.659C183.35 100.632 181.668 99.9766 179.904 99.7486C178.348 99.5439 176.767 99.7976 175.354 100.479C173.899 101.217 172.67 102.333 171.794 103.709C170.858 105.051 170.296 106.618 170.164 108.249C170.066 109.825 170.431 111.396 171.214 112.769C172.105 114.309 173.353 115.612 174.854 116.569C176.314 117.592 177.997 118.254 179.764 118.499C181.339 118.708 182.941 118.454 184.374 117.769C185.859 117.029 187.114 115.898 188.004 114.499C188.932 113.171 189.482 111.615 189.594 109.999H189.554Z" fill="black"/>
<path d="M204.996 93.2239C202.834 94.653 200.325 95.4687 197.736 95.5839C195.034 95.6624 192.356 95.0452 189.961 93.7914C187.565 92.5376 185.532 90.6893 184.056 88.4239C182.68 86.2248 181.917 83.6974 181.846 81.1039C181.799 78.4602 182.414 75.8468 183.637 73.5024C184.86 71.1581 186.651 69.1576 188.846 67.6839C191.01 66.2711 193.515 65.4695 196.096 65.3639C198.795 65.2995 201.466 65.923 203.857 67.1756C206.249 68.4282 208.282 70.2687 209.766 72.5239C211.156 74.7104 211.923 77.2341 211.986 79.8239C212.041 82.466 211.428 85.0791 210.204 87.4213C208.98 89.7636 207.186 91.7593 204.986 93.2239H204.996ZM206.656 80.3039C206.561 78.7241 206.017 77.2043 205.086 75.9239C204.003 74.5145 202.626 73.3572 201.051 72.5319C199.477 71.7066 197.742 71.233 195.966 71.1439C194.395 71.1112 192.848 71.5388 191.516 72.3739C190.146 73.2605 189.04 74.5008 188.316 75.9639C187.532 77.3995 187.145 79.0187 187.196 80.6539C187.259 82.232 187.788 83.756 188.716 85.0339C189.798 86.4445 191.174 87.6021 192.75 88.4259C194.325 89.2498 196.061 89.72 197.836 89.8039C199.423 89.8471 200.988 89.4228 202.336 88.5839C203.693 87.6768 204.8 86.443 205.555 84.9961C206.309 83.5492 206.688 81.9356 206.656 80.3039Z" fill="black"/>
<path d="M203.57 27.75L230.92 38.18L228.83 43.67L211 36.89L226 51.01L224.42 55.17L203.83 55.77L221.62 62.55L219.53 68.05L192.18 57.62L194.55 51.38L218.2 50.38L201.2 33.91L203.57 27.75Z" fill="black"/>
</svg>
