<svg width="221" height="99" viewBox="0 0 221 99" fill="none" xmlns="http://www.w3.org/2000/svg">
<path d="M105 0.501499C63 -1.0985 17.5 10.5015 0 16.5015L32 99.5C61.6 89.9 95.3333 88.1667 108.5 88.5H221L219 0.501499H105Z"
stroke="#c2c5c8"  
stroke-width="1"
fill="#F2F4F6"/>
<path d="M78.969 28.2812L77.0791 58.6613L70.3191 60.1113L60.5991 40.8412L59.3291 62.4613L52.6091 63.9413L38.7891 36.8713L44.939 35.5612L54.719 56.7413L55.7991 33.2313L62.199 31.8713L72.4089 52.8712L72.7791 29.6513L78.969 28.2812Z" fill="black"/>
<path d="M105.502 49.5584L93.9119 50.7384L92.552 56.4884L86.4219 57.1184L93.9319 26.8384L100.722 26.1484L114.162 54.2884L107.992 54.9184L105.502 49.5584ZM103.442 45.0384L97.9919 33.2684L94.9919 45.8984L103.442 45.0384Z" fill="black"/>
<path d="M123.312 49.4994L132.952 49.2294L133.082 53.8794L117.572 54.3294L116.742 25.0294L122.602 24.8594L123.312 49.4994Z" fill="black"/>
<path d="M142.503 49.3397H152.143V53.9997H136.633V24.6797H142.503V49.3397Z" fill="black"/>
<path d="M161.71 29.4306V36.7806H171.56V41.4406H161.71V49.2106H172.82V54.0006H155.82V24.6406H172.82V29.4306H161.71Z" fill="black"/>
<path d="M198.077 24.6797V29.4297H190.277V53.9997H184.417V29.4297H176.617V24.6797H198.077Z" fill="black"/>
</svg>
