<svg width="310" height="98" viewBox="0 0 310 98" fill="none" xmlns="http://www.w3.org/2000/svg">
<path d="M83.607 12.2607V15.4247H78.399V31.8047H74.479V15.4247H69.271V12.2607H83.607ZM93.3552 32.0567C91.8618 32.0567 90.5178 31.73 89.3232 31.0767C88.1285 30.4047 87.1858 29.462 86.4952 28.2487C85.8232 27.0354 85.4872 25.6354 85.4872 24.0487C85.4872 22.462 85.8325 21.062 86.5232 19.8487C87.2325 18.6354 88.1938 17.702 89.4072 17.0487C90.6205 16.3767 91.9738 16.0407 93.4672 16.0407C94.9605 16.0407 96.3138 16.3767 97.5272 17.0487C98.7405 17.702 99.6925 18.6354 100.383 19.8487C101.092 21.062 101.447 22.462 101.447 24.0487C101.447 25.6354 101.083 27.0354 100.355 28.2487C99.6458 29.462 98.6752 30.4047 97.4432 31.0767C96.2298 31.73 94.8672 32.0567 93.3552 32.0567ZM93.3552 28.6407C94.0645 28.6407 94.7272 28.4727 95.3432 28.1367C95.9778 27.782 96.4818 27.2594 96.8552 26.5687C97.2285 25.878 97.4152 25.038 97.4152 24.0487C97.4152 22.574 97.0232 21.4447 96.2392 20.6607C95.4738 19.858 94.5312 19.4567 93.4112 19.4567C92.2912 19.4567 91.3485 19.858 90.5832 20.6607C89.8365 21.4447 89.4632 22.574 89.4632 24.0487C89.4632 25.5234 89.8272 26.662 90.5552 27.4647C91.3018 28.2487 92.2352 28.6407 93.3552 28.6407ZM113.507 31.8047L108.243 25.1967V31.8047H104.323V11.0847H108.243V22.8727L113.451 16.2927H118.547L111.715 24.0767L118.603 31.8047H113.507ZM135.094 23.7127C135.094 24.2727 135.057 24.7767 134.982 25.2247H123.642C123.736 26.3447 124.128 27.222 124.818 27.8567C125.509 28.4914 126.358 28.8087 127.366 28.8087C128.822 28.8087 129.858 28.1834 130.474 26.9327H134.702C134.254 28.426 133.396 29.658 132.126 30.6287C130.857 31.5807 129.298 32.0567 127.45 32.0567C125.957 32.0567 124.613 31.73 123.418 31.0767C122.242 30.4047 121.318 29.462 120.646 28.2487C119.993 27.0354 119.666 25.6354 119.666 24.0487C119.666 22.4434 119.993 21.034 120.646 19.8207C121.3 18.6074 122.214 17.674 123.39 17.0207C124.566 16.3674 125.92 16.0407 127.45 16.0407C128.925 16.0407 130.241 16.358 131.398 16.9927C132.574 17.6274 133.48 18.5327 134.114 19.7087C134.768 20.866 135.094 22.2007 135.094 23.7127ZM131.034 22.5927C131.016 21.5847 130.652 20.782 129.942 20.1847C129.233 19.5687 128.365 19.2607 127.338 19.2607C126.368 19.2607 125.546 19.5594 124.874 20.1567C124.221 20.7354 123.82 21.5474 123.67 22.5927H131.034ZM146.551 16.0687C148.399 16.0687 149.893 16.6567 151.031 17.8327C152.17 18.99 152.739 20.614 152.739 22.7047V31.8047H148.819V23.2367C148.819 22.0047 148.511 21.062 147.895 20.4087C147.279 19.7367 146.439 19.4007 145.375 19.4007C144.293 19.4007 143.434 19.7367 142.799 20.4087C142.183 21.062 141.875 22.0047 141.875 23.2367V31.8047H137.955V16.2927H141.875V18.2247C142.398 17.5527 143.061 17.03 143.863 16.6567C144.685 16.2647 145.581 16.0687 146.551 16.0687ZM163.355 32.0567C161.862 32.0567 160.518 31.73 159.323 31.0767C158.128 30.4047 157.186 29.462 156.495 28.2487C155.823 27.0354 155.487 25.6354 155.487 24.0487C155.487 22.462 155.832 21.062 156.523 19.8487C157.232 18.6354 158.194 17.702 159.407 17.0487C160.62 16.3767 161.974 16.0407 163.467 16.0407C164.96 16.0407 166.314 16.3767 167.527 17.0487C168.74 17.702 169.692 18.6354 170.383 19.8487C171.092 21.062 171.447 22.462 171.447 24.0487C171.447 25.6354 171.083 27.0354 170.355 28.2487C169.646 29.462 168.675 30.4047 167.443 31.0767C166.23 31.73 164.867 32.0567 163.355 32.0567ZM163.355 28.6407C164.064 28.6407 164.727 28.4727 165.343 28.1367C165.978 27.782 166.482 27.2594 166.855 26.5687C167.228 25.878 167.415 25.038 167.415 24.0487C167.415 22.574 167.023 21.4447 166.239 20.6607C165.474 19.858 164.531 19.4567 163.411 19.4567C162.291 19.4567 161.348 19.858 160.583 20.6607C159.836 21.4447 159.463 22.574 159.463 24.0487C159.463 25.5234 159.827 26.662 160.555 27.4647C161.302 28.2487 162.235 28.6407 163.355 28.6407ZM193.587 16.0687C195.491 16.0687 197.021 16.6567 198.179 17.8327C199.355 18.99 199.943 20.614 199.943 22.7047V31.8047H196.023V23.2367C196.023 22.0234 195.715 21.0994 195.099 20.4647C194.483 19.8114 193.643 19.4847 192.579 19.4847C191.515 19.4847 190.665 19.8114 190.031 20.4647C189.415 21.0994 189.107 22.0234 189.107 23.2367V31.8047H185.187V23.2367C185.187 22.0234 184.879 21.0994 184.263 20.4647C183.647 19.8114 182.807 19.4847 181.743 19.4847C180.66 19.4847 179.801 19.8114 179.167 20.4647C178.551 21.0994 178.243 22.0234 178.243 23.2367V31.8047H174.323V16.2927H178.243V18.1687C178.747 17.5154 179.391 17.002 180.175 16.6287C180.977 16.2554 181.855 16.0687 182.807 16.0687C184.02 16.0687 185.103 16.33 186.055 16.8527C187.007 17.3567 187.744 18.0847 188.267 19.0367C188.771 18.1407 189.499 17.422 190.451 16.8807C191.421 16.3394 192.467 16.0687 193.587 16.0687ZM205.65 14.4447C204.96 14.4447 204.381 14.23 203.914 13.8007C203.466 13.3527 203.242 12.802 203.242 12.1487C203.242 11.4954 203.466 10.954 203.914 10.5247C204.381 10.0767 204.96 9.85269 205.65 9.85269C206.341 9.85269 206.91 10.0767 207.358 10.5247C207.825 10.954 208.058 11.4954 208.058 12.1487C208.058 12.802 207.825 13.3527 207.358 13.8007C206.91 14.23 206.341 14.4447 205.65 14.4447ZM207.582 16.2927V31.8047H203.662V16.2927H207.582ZM210.447 24.0487C210.447 22.4434 210.774 21.0434 211.427 19.8487C212.081 18.6354 212.986 17.702 214.143 17.0487C215.301 16.3767 216.626 16.0407 218.119 16.0407C220.042 16.0407 221.629 16.526 222.879 17.4967C224.149 18.4487 224.998 19.7927 225.427 21.5287H221.199C220.975 20.8567 220.593 20.334 220.051 19.9607C219.529 19.5687 218.875 19.3727 218.091 19.3727C216.971 19.3727 216.085 19.7834 215.431 20.6047C214.778 21.4074 214.451 22.5554 214.451 24.0487C214.451 25.5234 214.778 26.6714 215.431 27.4927C216.085 28.2954 216.971 28.6967 218.091 28.6967C219.678 28.6967 220.714 27.9874 221.199 26.5687H225.427C224.998 28.2487 224.149 29.5834 222.879 30.5727C221.61 31.562 220.023 32.0567 218.119 32.0567C216.626 32.0567 215.301 31.73 214.143 31.0767C212.986 30.4047 212.081 29.4714 211.427 28.2767C210.774 27.0634 210.447 25.654 210.447 24.0487ZM234.235 32.0567C232.966 32.0567 231.827 31.8327 230.819 31.3847C229.811 30.918 229.009 30.2927 228.411 29.5087C227.833 28.7247 227.515 27.8567 227.459 26.9047H231.407C231.482 27.502 231.771 27.9967 232.275 28.3887C232.798 28.7807 233.442 28.9767 234.207 28.9767C234.954 28.9767 235.533 28.8274 235.943 28.5287C236.373 28.23 236.587 27.8474 236.587 27.3807C236.587 26.8767 236.326 26.5034 235.803 26.2607C235.299 25.9994 234.487 25.7194 233.367 25.4207C232.21 25.1407 231.258 24.8514 230.511 24.5527C229.783 24.254 229.149 23.7967 228.607 23.1807C228.085 22.5647 227.823 21.734 227.823 20.6887C227.823 19.83 228.066 19.046 228.551 18.3367C229.055 17.6274 229.765 17.0674 230.679 16.6567C231.613 16.246 232.705 16.0407 233.955 16.0407C235.803 16.0407 237.278 16.5074 238.379 17.4407C239.481 18.3554 240.087 19.5967 240.199 21.1647H236.447C236.391 20.5487 236.13 20.0634 235.663 19.7087C235.215 19.3354 234.609 19.1487 233.843 19.1487C233.134 19.1487 232.583 19.2794 232.191 19.5407C231.818 19.802 231.631 20.166 231.631 20.6327C231.631 21.1554 231.893 21.5567 232.415 21.8367C232.938 22.098 233.75 22.3687 234.851 22.6487C235.971 22.9287 236.895 23.218 237.623 23.5167C238.351 23.8154 238.977 24.282 239.499 24.9167C240.041 25.5327 240.321 26.354 240.339 27.3807C240.339 28.2767 240.087 29.0794 239.583 29.7887C239.098 30.498 238.389 31.058 237.455 31.4687C236.541 31.8607 235.467 32.0567 234.235 32.0567Z" fill="white"/>
<line x1="124" y1="46.3047" x2="186" y2="46.3047" stroke="white"/>
<path d="M7.68881 67.3497C8.82881 67.3497 9.81381 67.5647 10.6438 67.9947C11.4838 68.4147 12.1238 69.0197 12.5638 69.8097C13.0138 70.5997 13.2388 71.5297 13.2388 72.5997C13.2388 73.6697 13.0138 74.5997 12.5638 75.3897C12.1238 76.1697 11.4838 76.7697 10.6438 77.1897C9.81381 77.5997 8.82881 77.8047 7.68881 77.8047H4.43381V67.3497H7.68881ZM7.68881 76.6797C9.03881 76.6797 10.0688 76.3247 10.7788 75.6147C11.4888 74.8947 11.8438 73.8897 11.8438 72.5997C11.8438 71.2997 11.4838 70.2847 10.7638 69.5547C10.0538 68.8247 9.02881 68.4597 7.68881 68.4597H5.79881V76.6797H7.68881ZM22.5393 73.3797C22.5393 73.6397 22.5243 73.9147 22.4943 74.2047H15.9243C15.9743 75.0147 16.2493 75.6497 16.7493 76.1097C17.2593 76.5597 17.8743 76.7847 18.5943 76.7847C19.1843 76.7847 19.6743 76.6497 20.0643 76.3797C20.4643 76.0997 20.7443 75.7297 20.9043 75.2697H22.3743C22.1543 76.0597 21.7143 76.7047 21.0543 77.2047C20.3943 77.6947 19.5743 77.9397 18.5943 77.9397C17.8143 77.9397 17.1143 77.7647 16.4943 77.4147C15.8843 77.0647 15.4043 76.5697 15.0543 75.9297C14.7043 75.2797 14.5293 74.5297 14.5293 73.6797C14.5293 72.8297 14.6993 72.0847 15.0393 71.4447C15.3793 70.8047 15.8543 70.3147 16.4643 69.9747C17.0843 69.6247 17.7943 69.4497 18.5943 69.4497C19.3743 69.4497 20.0643 69.6197 20.6643 69.9597C21.2643 70.2997 21.7243 70.7697 22.0443 71.3697C22.3743 71.9597 22.5393 72.6297 22.5393 73.3797ZM21.1293 73.0947C21.1293 72.5747 21.0143 72.1297 20.7843 71.7597C20.5543 71.3797 20.2393 71.0947 19.8393 70.9047C19.4493 70.7047 19.0143 70.6047 18.5343 70.6047C17.8443 70.6047 17.2543 70.8247 16.7643 71.2647C16.2843 71.7047 16.0093 72.3147 15.9393 73.0947H21.1293ZM23.831 73.6797C23.831 72.8297 24.001 72.0897 24.341 71.4597C24.681 70.8197 25.151 70.3247 25.751 69.9747C26.361 69.6247 27.056 69.4497 27.836 69.4497C28.846 69.4497 29.676 69.6947 30.326 70.1847C30.986 70.6747 31.421 71.3547 31.631 72.2247H30.161C30.021 71.7247 29.746 71.3297 29.336 71.0397C28.936 70.7497 28.436 70.6047 27.836 70.6047C27.056 70.6047 26.426 70.8747 25.946 71.4147C25.466 71.9447 25.226 72.6997 25.226 73.6797C25.226 74.6697 25.466 75.4347 25.946 75.9747C26.426 76.5147 27.056 76.7847 27.836 76.7847C28.436 76.7847 28.936 76.6447 29.336 76.3647C29.736 76.0847 30.011 75.6847 30.161 75.1647H31.631C31.411 76.0047 30.971 76.6797 30.311 77.1897C29.651 77.6897 28.826 77.9397 27.836 77.9397C27.056 77.9397 26.361 77.7647 25.751 77.4147C25.151 77.0647 24.681 76.5697 24.341 75.9297C24.001 75.2897 23.831 74.5397 23.831 73.6797ZM40.9524 73.3797C40.9524 73.6397 40.9374 73.9147 40.9074 74.2047H34.3374C34.3874 75.0147 34.6624 75.6497 35.1624 76.1097C35.6724 76.5597 36.2874 76.7847 37.0074 76.7847C37.5974 76.7847 38.0874 76.6497 38.4774 76.3797C38.8774 76.0997 39.1574 75.7297 39.3174 75.2697H40.7874C40.5674 76.0597 40.1274 76.7047 39.4674 77.2047C38.8074 77.6947 37.9874 77.9397 37.0074 77.9397C36.2274 77.9397 35.5274 77.7647 34.9074 77.4147C34.2974 77.0647 33.8174 76.5697 33.4674 75.9297C33.1174 75.2797 32.9424 74.5297 32.9424 73.6797C32.9424 72.8297 33.1124 72.0847 33.4524 71.4447C33.7924 70.8047 34.2674 70.3147 34.8774 69.9747C35.4974 69.6247 36.2074 69.4497 37.0074 69.4497C37.7874 69.4497 38.4774 69.6197 39.0774 69.9597C39.6774 70.2997 40.1374 70.7697 40.4574 71.3697C40.7874 71.9597 40.9524 72.6297 40.9524 73.3797ZM39.5424 73.0947C39.5424 72.5747 39.4274 72.1297 39.1974 71.7597C38.9674 71.3797 38.6524 71.0947 38.2524 70.9047C37.8624 70.7047 37.4274 70.6047 36.9474 70.6047C36.2574 70.6047 35.6674 70.8247 35.1774 71.2647C34.6974 71.7047 34.4224 72.3147 34.3524 73.0947H39.5424ZM46.7591 69.4347C47.7591 69.4347 48.5691 69.7397 49.1891 70.3497C49.8091 70.9497 50.1191 71.8197 50.1191 72.9597V77.8047H48.7691V73.1547C48.7691 72.3347 48.5641 71.7097 48.1541 71.2797C47.7441 70.8397 47.1841 70.6197 46.4741 70.6197C45.7541 70.6197 45.1791 70.8447 44.7491 71.2947C44.3291 71.7447 44.1191 72.3997 44.1191 73.2597V77.8047H42.7541V69.5847H44.1191V70.7547C44.3891 70.3347 44.7541 70.0097 45.2141 69.7797C45.6841 69.5497 46.1991 69.4347 46.7591 69.4347ZM54.0138 70.7097V75.5547C54.0138 75.9547 54.0988 76.2397 54.2688 76.4097C54.4388 76.5697 54.7338 76.6497 55.1538 76.6497H56.1588V77.8047H54.9288C54.1688 77.8047 53.5988 77.6297 53.2188 77.2797C52.8388 76.9297 52.6488 76.3547 52.6488 75.5547V70.7097H51.5838V69.5847H52.6488V67.5147H54.0138V69.5847H56.1588V70.7097H54.0138ZM59.1777 70.9197C59.4177 70.4497 59.7577 70.0847 60.1977 69.8247C60.6477 69.5647 61.1927 69.4347 61.8327 69.4347V70.8447H61.4727C59.9427 70.8447 59.1777 71.6747 59.1777 73.3347V77.8047H57.8127V69.5847H59.1777V70.9197ZM62.8984 73.6647C62.8984 72.8247 63.0684 72.0897 63.4084 71.4597C63.7484 70.8197 64.2134 70.3247 64.8034 69.9747C65.4034 69.6247 66.0684 69.4497 66.7984 69.4497C67.5184 69.4497 68.1434 69.6047 68.6734 69.9147C69.2034 70.2247 69.5984 70.6147 69.8584 71.0847V69.5847H71.2384V77.8047H69.8584V76.2747C69.5884 76.7547 69.1834 77.1547 68.6434 77.4747C68.1134 77.7847 67.4934 77.9397 66.7834 77.9397C66.0534 77.9397 65.3934 77.7597 64.8034 77.3997C64.2134 77.0397 63.7484 76.5347 63.4084 75.8847C63.0684 75.2347 62.8984 74.4947 62.8984 73.6647ZM69.8584 73.6797C69.8584 73.0597 69.7334 72.5197 69.4834 72.0597C69.2334 71.5997 68.8934 71.2497 68.4634 71.0097C68.0434 70.7597 67.5784 70.6347 67.0684 70.6347C66.5584 70.6347 66.0934 70.7547 65.6734 70.9947C65.2534 71.2347 64.9184 71.5847 64.6684 72.0447C64.4184 72.5047 64.2934 73.0447 64.2934 73.6647C64.2934 74.2947 64.4184 74.8447 64.6684 75.3147C64.9184 75.7747 65.2534 76.1297 65.6734 76.3797C66.0934 76.6197 66.5584 76.7397 67.0684 76.7397C67.5784 76.7397 68.0434 76.6197 68.4634 76.3797C68.8934 76.1297 69.2334 75.7747 69.4834 75.3147C69.7334 74.8447 69.8584 74.2997 69.8584 73.6797ZM74.9101 66.7047V77.8047H73.5451V66.7047H74.9101ZM77.9415 68.2497C77.6815 68.2497 77.4615 68.1597 77.2815 67.9797C77.1015 67.7997 77.0115 67.5797 77.0115 67.3197C77.0115 67.0597 77.1015 66.8397 77.2815 66.6597C77.4615 66.4797 77.6815 66.3897 77.9415 66.3897C78.1915 66.3897 78.4015 66.4797 78.5715 66.6597C78.7515 66.8397 78.8415 67.0597 78.8415 67.3197C78.8415 67.5797 78.7515 67.7997 78.5715 67.9797C78.4015 68.1597 78.1915 68.2497 77.9415 68.2497ZM78.6015 69.5847V77.8047H77.2365V69.5847H78.6015ZM81.9479 76.6797H85.9829V77.8047H80.3879V76.6797L84.3779 70.6947H80.4179V69.5847H85.9529V70.6947L81.9479 76.6797ZM95.2541 73.3797C95.2541 73.6397 95.2391 73.9147 95.2091 74.2047H88.6391C88.6891 75.0147 88.9641 75.6497 89.4641 76.1097C89.9741 76.5597 90.5891 76.7847 91.3091 76.7847C91.8991 76.7847 92.3891 76.6497 92.7791 76.3797C93.1791 76.0997 93.4591 75.7297 93.6191 75.2697H95.0891C94.8691 76.0597 94.4291 76.7047 93.7691 77.2047C93.1091 77.6947 92.2891 77.9397 91.3091 77.9397C90.5291 77.9397 89.8291 77.7647 89.2091 77.4147C88.5991 77.0647 88.1191 76.5697 87.7691 75.9297C87.4191 75.2797 87.2441 74.5297 87.2441 73.6797C87.2441 72.8297 87.4141 72.0847 87.7541 71.4447C88.0941 70.8047 88.5691 70.3147 89.1791 69.9747C89.7991 69.6247 90.5091 69.4497 91.3091 69.4497C92.0891 69.4497 92.7791 69.6197 93.3791 69.9597C93.9791 70.2997 94.4391 70.7697 94.7591 71.3697C95.0891 71.9597 95.2541 72.6297 95.2541 73.3797ZM93.8441 73.0947C93.8441 72.5747 93.7291 72.1297 93.4991 71.7597C93.2691 71.3797 92.9541 71.0947 92.5541 70.9047C92.1641 70.7047 91.7291 70.6047 91.2491 70.6047C90.5591 70.6047 89.9691 70.8247 89.4791 71.2647C88.9991 71.7047 88.7241 72.3147 88.6541 73.0947H93.8441ZM96.5459 73.6647C96.5459 72.8247 96.7159 72.0897 97.0559 71.4597C97.3959 70.8197 97.8609 70.3247 98.4509 69.9747C99.0509 69.6247 99.7209 69.4497 100.461 69.4497C101.101 69.4497 101.696 69.5997 102.246 69.8997C102.796 70.1897 103.216 70.5747 103.506 71.0547V66.7047H104.886V77.8047H103.506V76.2597C103.236 76.7497 102.836 77.1547 102.306 77.4747C101.776 77.7847 101.156 77.9397 100.446 77.9397C99.7159 77.9397 99.0509 77.7597 98.4509 77.3997C97.8609 77.0397 97.3959 76.5347 97.0559 75.8847C96.7159 75.2347 96.5459 74.4947 96.5459 73.6647ZM103.506 73.6797C103.506 73.0597 103.381 72.5197 103.131 72.0597C102.881 71.5997 102.541 71.2497 102.111 71.0097C101.691 70.7597 101.226 70.6347 100.716 70.6347C100.206 70.6347 99.7409 70.7547 99.3209 70.9947C98.9009 71.2347 98.5659 71.5847 98.3159 72.0447C98.0659 72.5047 97.9409 73.0447 97.9409 73.6647C97.9409 74.2947 98.0659 74.8447 98.3159 75.3147C98.5659 75.7747 98.9009 76.1297 99.3209 76.3797C99.7409 76.6197 100.206 76.7397 100.716 76.7397C101.226 76.7397 101.691 76.6197 102.111 76.3797C102.541 76.1297 102.881 75.7747 103.131 75.3147C103.381 74.8447 103.506 74.2997 103.506 73.6797ZM117.372 75.4797H112.812L111.972 77.8047H110.532L114.312 67.4097H115.887L119.652 77.8047H118.212L117.372 75.4797ZM116.982 74.3697L115.092 69.0897L113.202 74.3697H116.982ZM128.589 69.5847V77.8047H127.224V76.5897C126.964 77.0097 126.599 77.3397 126.129 77.5797C125.669 77.8097 125.159 77.9247 124.599 77.9247C123.959 77.9247 123.384 77.7947 122.874 77.5347C122.364 77.2647 121.959 76.8647 121.659 76.3347C121.369 75.8047 121.224 75.1597 121.224 74.3997V69.5847H122.574V74.2197C122.574 75.0297 122.779 75.6547 123.189 76.0947C123.599 76.5247 124.159 76.7397 124.869 76.7397C125.599 76.7397 126.174 76.5147 126.594 76.0647C127.014 75.6147 127.224 74.9597 127.224 74.0997V69.5847H128.589ZM132.559 70.7097V75.5547C132.559 75.9547 132.644 76.2397 132.814 76.4097C132.984 76.5697 133.279 76.6497 133.699 76.6497H134.704V77.8047H133.474C132.714 77.8047 132.144 77.6297 131.764 77.2797C131.384 76.9297 131.194 76.3547 131.194 75.5547V70.7097H130.129V69.5847H131.194V67.5147H132.559V69.5847H134.704V70.7097H132.559ZM139.943 77.9397C139.173 77.9397 138.473 77.7647 137.843 77.4147C137.223 77.0647 136.733 76.5697 136.373 75.9297C136.023 75.2797 135.848 74.5297 135.848 73.6797C135.848 72.8397 136.028 72.0997 136.388 71.4597C136.758 70.8097 137.258 70.3147 137.888 69.9747C138.518 69.6247 139.223 69.4497 140.003 69.4497C140.783 69.4497 141.488 69.6247 142.118 69.9747C142.748 70.3147 143.243 70.8047 143.603 71.4447C143.973 72.0847 144.158 72.8297 144.158 73.6797C144.158 74.5297 143.968 75.2797 143.588 75.9297C143.218 76.5697 142.713 77.0647 142.073 77.4147C141.433 77.7647 140.723 77.9397 139.943 77.9397ZM139.943 76.7397C140.433 76.7397 140.893 76.6247 141.323 76.3947C141.753 76.1647 142.098 75.8197 142.358 75.3597C142.628 74.8997 142.763 74.3397 142.763 73.6797C142.763 73.0197 142.633 72.4597 142.373 71.9997C142.113 71.5397 141.773 71.1997 141.353 70.9797C140.933 70.7497 140.478 70.6347 139.988 70.6347C139.488 70.6347 139.028 70.7497 138.608 70.9797C138.198 71.1997 137.868 71.5397 137.618 71.9997C137.368 72.4597 137.243 73.0197 137.243 73.6797C137.243 74.3497 137.363 74.9147 137.603 75.3747C137.853 75.8347 138.183 76.1797 138.593 76.4097C139.003 76.6297 139.453 76.7397 139.943 76.7397ZM149.957 69.4347C150.957 69.4347 151.767 69.7397 152.387 70.3497C153.007 70.9497 153.317 71.8197 153.317 72.9597V77.8047H151.967V73.1547C151.967 72.3347 151.762 71.7097 151.352 71.2797C150.942 70.8397 150.382 70.6197 149.672 70.6197C148.952 70.6197 148.377 70.8447 147.947 71.2947C147.527 71.7447 147.317 72.3997 147.317 73.2597V77.8047H145.952V69.5847H147.317V70.7547C147.587 70.3347 147.952 70.0097 148.412 69.7797C148.882 69.5497 149.397 69.4347 149.957 69.4347ZM159.132 77.9397C158.362 77.9397 157.662 77.7647 157.032 77.4147C156.412 77.0647 155.922 76.5697 155.562 75.9297C155.212 75.2797 155.037 74.5297 155.037 73.6797C155.037 72.8397 155.217 72.0997 155.577 71.4597C155.947 70.8097 156.447 70.3147 157.077 69.9747C157.707 69.6247 158.412 69.4497 159.192 69.4497C159.972 69.4497 160.677 69.6247 161.307 69.9747C161.937 70.3147 162.432 70.8047 162.792 71.4447C163.162 72.0847 163.347 72.8297 163.347 73.6797C163.347 74.5297 163.157 75.2797 162.777 75.9297C162.407 76.5697 161.902 77.0647 161.262 77.4147C160.622 77.7647 159.912 77.9397 159.132 77.9397ZM159.132 76.7397C159.622 76.7397 160.082 76.6247 160.512 76.3947C160.942 76.1647 161.287 75.8197 161.547 75.3597C161.817 74.8997 161.952 74.3397 161.952 73.6797C161.952 73.0197 161.822 72.4597 161.562 71.9997C161.302 71.5397 160.962 71.1997 160.542 70.9797C160.122 70.7497 159.667 70.6347 159.177 70.6347C158.677 70.6347 158.217 70.7497 157.797 70.9797C157.387 71.1997 157.057 71.5397 156.807 71.9997C156.557 72.4597 156.432 73.0197 156.432 73.6797C156.432 74.3497 156.552 74.9147 156.792 75.3747C157.042 75.8347 157.372 76.1797 157.782 76.4097C158.192 76.6297 158.642 76.7397 159.132 76.7397ZM175.027 69.4347C175.667 69.4347 176.237 69.5697 176.737 69.8397C177.237 70.0997 177.632 70.4947 177.922 71.0247C178.212 71.5547 178.357 72.1997 178.357 72.9597V77.8047H177.007V73.1547C177.007 72.3347 176.802 71.7097 176.392 71.2797C175.992 70.8397 175.447 70.6197 174.757 70.6197C174.047 70.6197 173.482 70.8497 173.062 71.3097C172.642 71.7597 172.432 72.4147 172.432 73.2747V77.8047H171.082V73.1547C171.082 72.3347 170.877 71.7097 170.467 71.2797C170.067 70.8397 169.522 70.6197 168.832 70.6197C168.122 70.6197 167.557 70.8497 167.137 71.3097C166.717 71.7597 166.507 72.4147 166.507 73.2747V77.8047H165.142V69.5847H166.507V70.7697C166.777 70.3397 167.137 70.0097 167.587 69.7797C168.047 69.5497 168.552 69.4347 169.102 69.4347C169.792 69.4347 170.402 69.5897 170.932 69.8997C171.462 70.2097 171.857 70.6647 172.117 71.2647C172.347 70.6847 172.727 70.2347 173.257 69.9147C173.787 69.5947 174.377 69.4347 175.027 69.4347ZM184.181 77.9397C183.411 77.9397 182.711 77.7647 182.081 77.4147C181.461 77.0647 180.971 76.5697 180.611 75.9297C180.261 75.2797 180.086 74.5297 180.086 73.6797C180.086 72.8397 180.266 72.0997 180.626 71.4597C180.996 70.8097 181.496 70.3147 182.126 69.9747C182.756 69.6247 183.461 69.4497 184.241 69.4497C185.021 69.4497 185.726 69.6247 186.356 69.9747C186.986 70.3147 187.481 70.8047 187.841 71.4447C188.211 72.0847 188.396 72.8297 188.396 73.6797C188.396 74.5297 188.206 75.2797 187.826 75.9297C187.456 76.5697 186.951 77.0647 186.311 77.4147C185.671 77.7647 184.961 77.9397 184.181 77.9397ZM184.181 76.7397C184.671 76.7397 185.131 76.6247 185.561 76.3947C185.991 76.1647 186.336 75.8197 186.596 75.3597C186.866 74.8997 187.001 74.3397 187.001 73.6797C187.001 73.0197 186.871 72.4597 186.611 71.9997C186.351 71.5397 186.011 71.1997 185.591 70.9797C185.171 70.7497 184.716 70.6347 184.226 70.6347C183.726 70.6347 183.266 70.7497 182.846 70.9797C182.436 71.1997 182.106 71.5397 181.856 71.9997C181.606 72.4597 181.481 73.0197 181.481 73.6797C181.481 74.3497 181.601 74.9147 181.841 75.3747C182.091 75.8347 182.421 76.1797 182.831 76.4097C183.241 76.6297 183.691 76.7397 184.181 76.7397ZM197.481 69.5847V77.8047H196.116V76.5897C195.856 77.0097 195.491 77.3397 195.021 77.5797C194.561 77.8097 194.051 77.9247 193.491 77.9247C192.851 77.9247 192.276 77.7947 191.766 77.5347C191.256 77.2647 190.851 76.8647 190.551 76.3347C190.261 75.8047 190.116 75.1597 190.116 74.3997V69.5847H191.466V74.2197C191.466 75.0297 191.671 75.6547 192.081 76.0947C192.491 76.5247 193.051 76.7397 193.761 76.7397C194.491 76.7397 195.066 76.5147 195.486 76.0647C195.906 75.6147 196.116 74.9597 196.116 74.0997V69.5847H197.481ZM202.695 77.9397C202.065 77.9397 201.5 77.8347 201 77.6247C200.5 77.4047 200.105 77.1047 199.815 76.7247C199.525 76.3347 199.365 75.8897 199.335 75.3897H200.745C200.785 75.7997 200.975 76.1347 201.315 76.3947C201.665 76.6547 202.12 76.7847 202.68 76.7847C203.2 76.7847 203.61 76.6697 203.91 76.4397C204.21 76.2097 204.36 75.9197 204.36 75.5697C204.36 75.2097 204.2 74.9447 203.88 74.7747C203.56 74.5947 203.065 74.4197 202.395 74.2497C201.785 74.0897 201.285 73.9297 200.895 73.7697C200.515 73.5997 200.185 73.3547 199.905 73.0347C199.635 72.7047 199.5 72.2747 199.5 71.7447C199.5 71.3247 199.625 70.9397 199.875 70.5897C200.125 70.2397 200.48 69.9647 200.94 69.7647C201.4 69.5547 201.925 69.4497 202.515 69.4497C203.425 69.4497 204.16 69.6797 204.72 70.1397C205.28 70.5997 205.58 71.2297 205.62 72.0297H204.255C204.225 71.5997 204.05 71.2547 203.73 70.9947C203.42 70.7347 203 70.6047 202.47 70.6047C201.98 70.6047 201.59 70.7097 201.3 70.9197C201.01 71.1297 200.865 71.4047 200.865 71.7447C200.865 72.0147 200.95 72.2397 201.12 72.4197C201.3 72.5897 201.52 72.7297 201.78 72.8397C202.05 72.9397 202.42 73.0547 202.89 73.1847C203.48 73.3447 203.96 73.5047 204.33 73.6647C204.7 73.8147 205.015 74.0447 205.275 74.3547C205.545 74.6647 205.685 75.0697 205.695 75.5697C205.695 76.0197 205.57 76.4247 205.32 76.7847C205.07 77.1447 204.715 77.4297 204.255 77.6397C203.805 77.8397 203.285 77.9397 202.695 77.9397ZM216.361 77.9097C215.391 77.9097 214.506 77.6847 213.706 77.2347C212.906 76.7747 212.271 76.1397 211.801 75.3297C211.341 74.5097 211.111 73.5897 211.111 72.5697C211.111 71.5497 211.341 70.6347 211.801 69.8247C212.271 69.0047 212.906 68.3697 213.706 67.9197C214.506 67.4597 215.391 67.2297 216.361 67.2297C217.341 67.2297 218.231 67.4597 219.031 67.9197C219.831 68.3697 220.461 68.9997 220.921 69.8097C221.381 70.6197 221.611 71.5397 221.611 72.5697C221.611 73.5997 221.381 74.5197 220.921 75.3297C220.461 76.1397 219.831 76.7747 219.031 77.2347C218.231 77.6847 217.341 77.9097 216.361 77.9097ZM216.361 76.7247C217.091 76.7247 217.746 76.5547 218.326 76.2147C218.916 75.8747 219.376 75.3897 219.706 74.7597C220.046 74.1297 220.216 73.3997 220.216 72.5697C220.216 71.7297 220.046 70.9997 219.706 70.3797C219.376 69.7497 218.921 69.2647 218.341 68.9247C217.761 68.5847 217.101 68.4147 216.361 68.4147C215.621 68.4147 214.961 68.5847 214.381 68.9247C213.801 69.2647 213.341 69.7497 213.001 70.3797C212.671 70.9997 212.506 71.7297 212.506 72.5697C212.506 73.3997 212.671 74.1297 213.001 74.7597C213.341 75.3897 213.801 75.8747 214.381 76.2147C214.971 76.5547 215.631 76.7247 216.361 76.7247ZM224.778 70.9197C225.018 70.4497 225.358 70.0847 225.798 69.8247C226.248 69.5647 226.793 69.4347 227.433 69.4347V70.8447H227.073C225.543 70.8447 224.778 71.6747 224.778 73.3347V77.8047H223.413V69.5847H224.778V70.9197ZM232.399 69.4497C233.109 69.4497 233.729 69.6047 234.259 69.9147C234.799 70.2247 235.199 70.6147 235.459 71.0847V69.5847H236.839V77.9847C236.839 78.7347 236.679 79.3997 236.359 79.9797C236.039 80.5697 235.579 81.0297 234.979 81.3597C234.389 81.6897 233.699 81.8547 232.909 81.8547C231.829 81.8547 230.929 81.5997 230.209 81.0897C229.489 80.5797 229.064 79.8847 228.934 79.0047H230.284C230.434 79.5047 230.744 79.9047 231.214 80.2047C231.684 80.5147 232.249 80.6697 232.909 80.6697C233.659 80.6697 234.269 80.4347 234.739 79.9647C235.219 79.4947 235.459 78.8347 235.459 77.9847V76.2597C235.189 76.7397 234.789 77.1397 234.259 77.4597C233.729 77.7797 233.109 77.9397 232.399 77.9397C231.669 77.9397 231.004 77.7597 230.404 77.3997C229.814 77.0397 229.349 76.5347 229.009 75.8847C228.669 75.2347 228.499 74.4947 228.499 73.6647C228.499 72.8247 228.669 72.0897 229.009 71.4597C229.349 70.8197 229.814 70.3247 230.404 69.9747C231.004 69.6247 231.669 69.4497 232.399 69.4497ZM235.459 73.6797C235.459 73.0597 235.334 72.5197 235.084 72.0597C234.834 71.5997 234.494 71.2497 234.064 71.0097C233.644 70.7597 233.179 70.6347 232.669 70.6347C232.159 70.6347 231.694 70.7547 231.274 70.9947C230.854 71.2347 230.519 71.5847 230.269 72.0447C230.019 72.5047 229.894 73.0447 229.894 73.6647C229.894 74.2947 230.019 74.8447 230.269 75.3147C230.519 75.7747 230.854 76.1297 231.274 76.3797C231.694 76.6197 232.159 76.7397 232.669 76.7397C233.179 76.7397 233.644 76.6197 234.064 76.3797C234.494 76.1297 234.834 75.7747 235.084 75.3147C235.334 74.8447 235.459 74.2997 235.459 73.6797ZM238.636 73.6647C238.636 72.8247 238.806 72.0897 239.146 71.4597C239.486 70.8197 239.951 70.3247 240.541 69.9747C241.141 69.6247 241.806 69.4497 242.536 69.4497C243.256 69.4497 243.881 69.6047 244.411 69.9147C244.941 70.2247 245.336 70.6147 245.596 71.0847V69.5847H246.976V77.8047H245.596V76.2747C245.326 76.7547 244.921 77.1547 244.381 77.4747C243.851 77.7847 243.231 77.9397 242.521 77.9397C241.791 77.9397 241.131 77.7597 240.541 77.3997C239.951 77.0397 239.486 76.5347 239.146 75.8847C238.806 75.2347 238.636 74.4947 238.636 73.6647ZM245.596 73.6797C245.596 73.0597 245.471 72.5197 245.221 72.0597C244.971 71.5997 244.631 71.2497 244.201 71.0097C243.781 70.7597 243.316 70.6347 242.806 70.6347C242.296 70.6347 241.831 70.7547 241.411 70.9947C240.991 71.2347 240.656 71.5847 240.406 72.0447C240.156 72.5047 240.031 73.0447 240.031 73.6647C240.031 74.2947 240.156 74.8447 240.406 75.3147C240.656 75.7747 240.991 76.1297 241.411 76.3797C241.831 76.6197 242.296 76.7397 242.806 76.7397C243.316 76.7397 243.781 76.6197 244.201 76.3797C244.631 76.1297 244.971 75.7747 245.221 75.3147C245.471 74.8447 245.596 74.2997 245.596 73.6797ZM253.287 69.4347C254.287 69.4347 255.097 69.7397 255.717 70.3497C256.337 70.9497 256.647 71.8197 256.647 72.9597V77.8047H255.297V73.1547C255.297 72.3347 255.092 71.7097 254.682 71.2797C254.272 70.8397 253.712 70.6197 253.002 70.6197C252.282 70.6197 251.707 70.8447 251.277 71.2947C250.857 71.7447 250.647 72.3997 250.647 73.2597V77.8047H249.282V69.5847H250.647V70.7547C250.917 70.3347 251.282 70.0097 251.742 69.7797C252.212 69.5497 252.727 69.4347 253.287 69.4347ZM259.582 68.2497C259.322 68.2497 259.102 68.1597 258.922 67.9797C258.742 67.7997 258.652 67.5797 258.652 67.3197C258.652 67.0597 258.742 66.8397 258.922 66.6597C259.102 66.4797 259.322 66.3897 259.582 66.3897C259.832 66.3897 260.042 66.4797 260.212 66.6597C260.392 66.8397 260.482 67.0597 260.482 67.3197C260.482 67.5797 260.392 67.7997 260.212 67.9797C260.042 68.1597 259.832 68.2497 259.582 68.2497ZM260.242 69.5847V77.8047H258.877V69.5847H260.242ZM263.589 76.6797H267.624V77.8047H262.029V76.6797L266.019 70.6947H262.059V69.5847H267.594V70.6947L263.589 76.6797ZM268.885 73.6647C268.885 72.8247 269.055 72.0897 269.395 71.4597C269.735 70.8197 270.2 70.3247 270.79 69.9747C271.39 69.6247 272.055 69.4497 272.785 69.4497C273.505 69.4497 274.13 69.6047 274.66 69.9147C275.19 70.2247 275.585 70.6147 275.845 71.0847V69.5847H277.225V77.8047H275.845V76.2747C275.575 76.7547 275.17 77.1547 274.63 77.4747C274.1 77.7847 273.48 77.9397 272.77 77.9397C272.04 77.9397 271.38 77.7597 270.79 77.3997C270.2 77.0397 269.735 76.5347 269.395 75.8847C269.055 75.2347 268.885 74.4947 268.885 73.6647ZM275.845 73.6797C275.845 73.0597 275.72 72.5197 275.47 72.0597C275.22 71.5997 274.88 71.2497 274.45 71.0097C274.03 70.7597 273.565 70.6347 273.055 70.6347C272.545 70.6347 272.08 70.7547 271.66 70.9947C271.24 71.2347 270.905 71.5847 270.655 72.0447C270.405 72.5047 270.28 73.0447 270.28 73.6647C270.28 74.2947 270.405 74.8447 270.655 75.3147C270.905 75.7747 271.24 76.1297 271.66 76.3797C272.08 76.6197 272.545 76.7397 273.055 76.7397C273.565 76.7397 274.03 76.6197 274.45 76.3797C274.88 76.1297 275.22 75.7747 275.47 75.3147C275.72 74.8447 275.845 74.2997 275.845 73.6797ZM281.196 70.7097V75.5547C281.196 75.9547 281.281 76.2397 281.451 76.4097C281.621 76.5697 281.916 76.6497 282.336 76.6497H283.341V77.8047H282.111C281.351 77.8047 280.781 77.6297 280.401 77.2797C280.021 76.9297 279.831 76.3547 279.831 75.5547V70.7097H278.766V69.5847H279.831V67.5147H281.196V69.5847H283.341V70.7097H281.196ZM285.7 68.2497C285.44 68.2497 285.22 68.1597 285.04 67.9797C284.86 67.7997 284.77 67.5797 284.77 67.3197C284.77 67.0597 284.86 66.8397 285.04 66.6597C285.22 66.4797 285.44 66.3897 285.7 66.3897C285.95 66.3897 286.16 66.4797 286.33 66.6597C286.51 66.8397 286.6 67.0597 286.6 67.3197C286.6 67.5797 286.51 67.7997 286.33 67.9797C286.16 68.1597 285.95 68.2497 285.7 68.2497ZM286.36 69.5847V77.8047H284.995V69.5847H286.36ZM292.272 77.9397C291.502 77.9397 290.802 77.7647 290.172 77.4147C289.552 77.0647 289.062 76.5697 288.702 75.9297C288.352 75.2797 288.177 74.5297 288.177 73.6797C288.177 72.8397 288.357 72.0997 288.717 71.4597C289.087 70.8097 289.587 70.3147 290.217 69.9747C290.847 69.6247 291.552 69.4497 292.332 69.4497C293.112 69.4497 293.817 69.6247 294.447 69.9747C295.077 70.3147 295.572 70.8047 295.932 71.4447C296.302 72.0847 296.487 72.8297 296.487 73.6797C296.487 74.5297 296.297 75.2797 295.917 75.9297C295.547 76.5697 295.042 77.0647 294.402 77.4147C293.762 77.7647 293.052 77.9397 292.272 77.9397ZM292.272 76.7397C292.762 76.7397 293.222 76.6247 293.652 76.3947C294.082 76.1647 294.427 75.8197 294.687 75.3597C294.957 74.8997 295.092 74.3397 295.092 73.6797C295.092 73.0197 294.962 72.4597 294.702 71.9997C294.442 71.5397 294.102 71.1997 293.682 70.9797C293.262 70.7497 292.807 70.6347 292.317 70.6347C291.817 70.6347 291.357 70.7497 290.937 70.9797C290.527 71.1997 290.197 71.5397 289.947 71.9997C289.697 72.4597 289.572 73.0197 289.572 73.6797C289.572 74.3497 289.692 74.9147 289.932 75.3747C290.182 75.8347 290.512 76.1797 290.922 76.4097C291.332 76.6297 291.782 76.7397 292.272 76.7397ZM302.286 69.4347C303.286 69.4347 304.096 69.7397 304.716 70.3497C305.336 70.9497 305.646 71.8197 305.646 72.9597V77.8047H304.296V73.1547C304.296 72.3347 304.091 71.7097 303.681 71.2797C303.271 70.8397 302.711 70.6197 302.001 70.6197C301.281 70.6197 300.706 70.8447 300.276 71.2947C299.856 71.7447 299.646 72.3997 299.646 73.2597V77.8047H298.281V69.5847H299.646V70.7547C299.916 70.3347 300.281 70.0097 300.741 69.7797C301.211 69.5497 301.726 69.4347 302.286 69.4347Z" fill="white"/>
</svg>
