<svg width="126" height="47" viewBox="0 0 126 47" fill="none" xmlns="http://www.w3.org/2000/svg">
<path d="M18.9047 18.3087C18.9047 19.354 18.6527 20.334 18.1487 21.2487C17.6634 22.1634 16.8887 22.9007 15.8247 23.4607C14.7794 24.0207 13.454 24.3007 11.8487 24.3007H8.5727V31.8047H4.6527V12.2607H11.8487C13.3607 12.2607 14.6487 12.522 15.7127 13.0447C16.7767 13.5674 17.57 14.286 18.0927 15.2007C18.634 16.1154 18.9047 17.1514 18.9047 18.3087ZM11.6807 21.1367C12.7634 21.1367 13.566 20.894 14.0887 20.4087C14.6114 19.9047 14.8727 19.2047 14.8727 18.3087C14.8727 16.4047 13.8087 15.4527 11.6807 15.4527H8.5727V21.1367H11.6807ZM20.6799 23.9927C20.6799 22.4247 20.9879 21.034 21.6039 19.8207C22.2385 18.6074 23.0879 17.674 24.1519 17.0207C25.2345 16.3674 26.4385 16.0407 27.7639 16.0407C28.9212 16.0407 29.9292 16.274 30.7879 16.7407C31.6652 17.2074 32.3652 17.7954 32.8879 18.5047V16.2927H36.8359V31.8047H32.8879V29.5367C32.3839 30.2647 31.6839 30.8714 30.7879 31.3567C29.9105 31.8234 28.8932 32.0567 27.7359 32.0567C26.4292 32.0567 25.2345 31.7207 24.1519 31.0487C23.0879 30.3767 22.2385 29.434 21.6039 28.2207C20.9879 26.9887 20.6799 25.5794 20.6799 23.9927ZM32.8879 24.0487C32.8879 23.0967 32.7012 22.2847 32.3279 21.6127C31.9545 20.922 31.4505 20.3994 30.8159 20.0447C30.1812 19.6714 29.4999 19.4847 28.7719 19.4847C28.0439 19.4847 27.3719 19.662 26.7559 20.0167C26.1399 20.3714 25.6359 20.894 25.2439 21.5847C24.8705 22.2567 24.6839 23.0594 24.6839 23.9927C24.6839 24.926 24.8705 25.7474 25.2439 26.4567C25.6359 27.1474 26.1399 27.6794 26.7559 28.0527C27.3905 28.426 28.0625 28.6127 28.7719 28.6127C29.4999 28.6127 30.1812 28.4354 30.8159 28.0807C31.4505 27.7074 31.9545 27.1847 32.3279 26.5127C32.7012 25.822 32.8879 25.0007 32.8879 24.0487ZM44.5844 18.7007C45.0884 17.8794 45.7418 17.2354 46.5444 16.7687C47.3658 16.302 48.2991 16.0687 49.3444 16.0687V20.1847H48.3084C47.0764 20.1847 46.1431 20.474 45.5084 21.0527C44.8924 21.6314 44.5844 22.6394 44.5844 24.0767V31.8047H40.6644V16.2927H44.5844V18.7007ZM56.5487 19.5127V27.0167C56.5487 27.5394 56.6701 27.922 56.9127 28.1647C57.1741 28.3887 57.6034 28.5007 58.2007 28.5007H60.0207V31.8047H57.5567C54.2527 31.8047 52.6007 30.1994 52.6007 26.9887V19.5127H50.7527V16.2927H52.6007V12.4567H56.5487V16.2927H60.0207V19.5127H56.5487ZM71.4362 16.0687C73.2842 16.0687 74.7775 16.6567 75.9162 17.8327C77.0549 18.99 77.6242 20.614 77.6242 22.7047V31.8047H73.7042V23.2367C73.7042 22.0047 73.3962 21.062 72.7802 20.4087C72.1642 19.7367 71.3242 19.4007 70.2602 19.4007C69.1775 19.4007 68.3189 19.7367 67.6842 20.4087C67.0682 21.062 66.7602 22.0047 66.7602 23.2367V31.8047H62.8402V16.2927H66.7602V18.2247C67.2829 17.5527 67.9455 17.03 68.7482 16.6567C69.5695 16.2647 70.4655 16.0687 71.4362 16.0687ZM95.7719 23.7127C95.7719 24.2727 95.7346 24.7767 95.6599 25.2247H84.3199C84.4133 26.3447 84.8053 27.222 85.4959 27.8567C86.1866 28.4914 87.0359 28.8087 88.0439 28.8087C89.4999 28.8087 90.5359 28.1834 91.1519 26.9327H95.3799C94.9319 28.426 94.0733 29.658 92.8039 30.6287C91.5346 31.5807 89.9759 32.0567 88.1279 32.0567C86.6346 32.0567 85.2906 31.73 84.0959 31.0767C82.9199 30.4047 81.9959 29.462 81.3239 28.2487C80.6706 27.0354 80.3439 25.6354 80.3439 24.0487C80.3439 22.4434 80.6706 21.034 81.3239 19.8207C81.9773 18.6074 82.8919 17.674 84.0679 17.0207C85.2439 16.3674 86.5973 16.0407 88.1279 16.0407C89.6026 16.0407 90.9186 16.358 92.0759 16.9927C93.2519 17.6274 94.1573 18.5327 94.7919 19.7087C95.4453 20.866 95.7719 22.2007 95.7719 23.7127ZM91.7119 22.5927C91.6933 21.5847 91.3293 20.782 90.6199 20.1847C89.9106 19.5687 89.0426 19.2607 88.0159 19.2607C87.0453 19.2607 86.2239 19.5594 85.5519 20.1567C84.8986 20.7354 84.4973 21.5474 84.3479 22.5927H91.7119ZM102.553 18.7007C103.057 17.8794 103.711 17.2354 104.513 16.7687C105.335 16.302 106.268 16.0687 107.313 16.0687V20.1847H106.277C105.045 20.1847 104.112 20.474 103.477 21.0527C102.861 21.6314 102.553 22.6394 102.553 24.0767V31.8047H98.6332V16.2927H102.553V18.7007ZM115.889 32.0567C114.62 32.0567 113.481 31.8327 112.473 31.3847C111.465 30.918 110.663 30.2927 110.065 29.5087C109.487 28.7247 109.169 27.8567 109.113 26.9047H113.061C113.136 27.502 113.425 27.9967 113.929 28.3887C114.452 28.7807 115.096 28.9767 115.861 28.9767C116.608 28.9767 117.187 28.8274 117.597 28.5287C118.027 28.23 118.241 27.8474 118.241 27.3807C118.241 26.8767 117.98 26.5034 117.457 26.2607C116.953 25.9994 116.141 25.7194 115.021 25.4207C113.864 25.1407 112.912 24.8514 112.165 24.5527C111.437 24.254 110.803 23.7967 110.261 23.1807C109.739 22.5647 109.477 21.734 109.477 20.6887C109.477 19.83 109.72 19.046 110.205 18.3367C110.709 17.6274 111.419 17.0674 112.333 16.6567C113.267 16.246 114.359 16.0407 115.609 16.0407C117.457 16.0407 118.932 16.5074 120.033 17.4407C121.135 18.3554 121.741 19.5967 121.853 21.1647H118.101C118.045 20.5487 117.784 20.0634 117.317 19.7087C116.869 19.3354 116.263 19.1487 115.497 19.1487C114.788 19.1487 114.237 19.2794 113.845 19.5407C113.472 19.802 113.285 20.166 113.285 20.6327C113.285 21.1554 113.547 21.5567 114.069 21.8367C114.592 22.098 115.404 22.3687 116.505 22.6487C117.625 22.9287 118.549 23.218 119.277 23.5167C120.005 23.8154 120.631 24.282 121.153 24.9167C121.695 25.5327 121.975 26.354 121.993 27.3807C121.993 28.2767 121.741 29.0794 121.237 29.7887C120.752 30.498 120.043 31.058 119.109 31.4687C118.195 31.8607 117.121 32.0567 115.889 32.0567Z" fill="white"/>
<line x1="32" y1="46.3047" x2="94" y2="46.3047" stroke="white"/>
</svg>
