<svg width="30" height="30" viewBox="0 0 30 30" fill="none" xmlns="http://www.w3.org/2000/svg">
<g clip-path="url(#clip0_1397_32880)">
<path d="M25.084 4.44778C23.248 3.61979 21.28 3.00779 19.222 2.65979C19.2037 2.65627 19.1847 2.65854 19.1677 2.66628C19.1507 2.67402 19.1366 2.68685 19.1272 2.70299C18.8752 3.14579 18.5944 3.72298 18.3976 4.17898C16.2149 3.85287 13.9959 3.85287 11.8132 4.17898C11.594 3.67362 11.3469 3.18086 11.0728 2.70299C11.0636 2.68665 11.0495 2.67353 11.0326 2.66538C11.0156 2.65723 10.9966 2.65445 10.978 2.65739C8.92126 3.00539 6.95327 3.61739 5.11608 4.44658C5.10027 4.45321 5.08687 4.46452 5.07768 4.47898C1.3433 9.96895 0.319704 15.3233 0.822501 20.6105C0.8239 20.6234 0.82792 20.636 0.834315 20.6473C0.84071 20.6587 0.849347 20.6686 0.859701 20.6765C3.03936 22.2634 5.47048 23.4723 8.05126 24.2525C8.06925 24.258 8.0885 24.258 8.10648 24.2524C8.12446 24.2469 8.14035 24.236 8.15206 24.2213C8.70741 23.4786 9.19954 22.6906 9.62326 21.8657C9.62914 21.8544 9.63253 21.842 9.63319 21.8293C9.63386 21.8166 9.63179 21.8039 9.62713 21.7921C9.62246 21.7802 9.61531 21.7695 9.60615 21.7607C9.597 21.7519 9.58605 21.7451 9.57406 21.7409C8.79887 21.449 8.04777 21.0967 7.32767 20.6873C7.31473 20.6799 7.30383 20.6694 7.29594 20.6568C7.28805 20.6441 7.28342 20.6298 7.28247 20.6149C7.28152 20.6 7.28427 20.5851 7.29048 20.5716C7.2967 20.5581 7.30618 20.5463 7.31807 20.5373C7.46927 20.4257 7.62047 20.3093 7.76447 20.1929C7.77743 20.1824 7.79304 20.1758 7.80957 20.1737C7.82609 20.1715 7.84288 20.174 7.85807 20.1809C12.5704 22.2977 17.674 22.2977 22.3312 20.1809C22.3464 20.1736 22.3634 20.1708 22.3801 20.1727C22.3969 20.1746 22.4128 20.1812 22.426 20.1917C22.57 20.3093 22.72 20.4257 22.8724 20.5373C22.8844 20.5461 22.894 20.5577 22.9004 20.5711C22.9069 20.5846 22.9098 20.5994 22.9091 20.6142C22.9084 20.6291 22.904 20.6435 22.8964 20.6563C22.8887 20.669 22.878 20.6797 22.8652 20.6873C22.1476 21.1001 21.4012 21.4493 20.6176 21.7397C20.6056 21.7441 20.5946 21.7509 20.5854 21.7599C20.5763 21.7688 20.5691 21.7796 20.5645 21.7916C20.5598 21.8035 20.5578 21.8163 20.5584 21.829C20.5591 21.8418 20.5625 21.8543 20.5684 21.8657C21.0004 22.6901 21.4948 23.4749 22.0384 24.2201C22.0497 24.2354 22.0654 24.2468 22.0835 24.2528C22.1015 24.2588 22.121 24.2591 22.1392 24.2537C24.7244 23.4757 27.1595 22.2662 29.3416 20.6765C29.3522 20.6691 29.3611 20.6594 29.3678 20.6482C29.3744 20.6371 29.3785 20.6246 29.38 20.6117C29.98 14.4989 28.3744 9.18776 25.1212 4.48138C25.1132 4.46609 25.1 4.45416 25.084 4.44778ZM10.3277 17.3909C8.90926 17.3909 7.73927 16.1081 7.73927 14.5349C7.73927 12.9605 8.88646 11.6789 10.3277 11.6789C11.7796 11.6789 12.9388 12.9713 12.916 14.5349C12.916 16.1093 11.7688 17.3909 10.3277 17.3909ZM19.8976 17.3909C18.478 17.3909 17.3092 16.1081 17.3092 14.5349C17.3092 12.9605 18.4552 11.6789 19.8976 11.6789C21.3496 11.6789 22.5088 12.9713 22.486 14.5349C22.486 16.1093 21.3508 17.3909 19.8976 17.3909Z" fill="white"/>
</g>
<defs>
<clipPath id="clip0_1397_32880">
<rect width="28.7999" height="28.7999" fill="white" transform="translate(0.703125 0.257812)"/>
</clipPath>
</defs>
</svg>
