<svg width="30" height="30" viewBox="0 0 30 30" fill="none" xmlns="http://www.w3.org/2000/svg">
<path fill-rule="evenodd" clip-rule="evenodd" d="M9.46109 1.54014C10.8687 1.47534 11.3175 1.46094 14.9031 1.46094C18.4886 1.46094 18.9374 1.47654 20.3438 1.54014C21.7502 1.60374 22.7102 1.82814 23.5502 2.15333C24.4298 2.48573 25.2278 3.00533 25.8878 3.67733C26.5598 4.33612 27.0782 5.13292 27.4094 6.01371C27.7358 6.85371 27.959 7.81371 28.0238 9.2177C28.0886 10.6277 28.103 11.0765 28.103 14.6609C28.103 18.2465 28.0874 18.6952 28.0238 20.1028C27.9602 21.5068 27.7358 22.4668 27.4094 23.3068C27.0782 24.1877 26.5589 24.9859 25.8878 25.6456C25.2278 26.3176 24.4298 26.836 23.5502 27.1672C22.7102 27.4936 21.7502 27.7168 20.3462 27.7816C18.9374 27.8464 18.4886 27.8608 14.9031 27.8608C11.3175 27.8608 10.8687 27.8452 9.46109 27.7816C8.05709 27.718 7.0971 27.4936 6.2571 27.1672C5.37621 26.836 4.57809 26.3167 3.91831 25.6456C3.24677 24.9864 2.7271 24.1887 2.39552 23.308C2.07032 22.468 1.84712 21.508 1.78232 20.104C1.71752 18.694 1.70312 18.2453 1.70312 14.6609C1.70312 11.0753 1.71872 10.6265 1.78232 9.2201C1.84592 7.8137 2.07032 6.85371 2.39552 6.01371C2.72759 5.13302 3.24766 4.3353 3.91951 3.67613C4.57836 3.00473 5.37567 2.48506 6.2559 2.15333C7.0959 1.82814 8.05589 1.60494 9.45989 1.54014H9.46109ZM20.237 3.91612C18.845 3.85253 18.4274 3.83933 14.9031 3.83933C11.3787 3.83933 10.9611 3.85253 9.56908 3.91612C8.28149 3.97492 7.5831 4.18972 7.1175 4.37092C6.5019 4.61092 6.0615 4.89532 5.59951 5.35732C5.16156 5.78338 4.82453 6.30205 4.61311 6.87531C4.43191 7.34091 4.21711 8.0393 4.15831 9.3269C4.09471 10.7189 4.08151 11.1365 4.08151 14.6609C4.08151 18.1853 4.09471 18.6028 4.15831 19.9948C4.21711 21.2824 4.43191 21.9808 4.61311 22.4464C4.82431 23.0188 5.16151 23.5384 5.59951 23.9644C6.0255 24.4024 6.5451 24.7396 7.1175 24.9508C7.5831 25.132 8.28149 25.3468 9.56908 25.4056C10.9611 25.4692 11.3775 25.4824 14.9031 25.4824C18.4286 25.4824 18.845 25.4692 20.237 25.4056C21.5246 25.3468 22.223 25.132 22.6886 24.9508C23.3042 24.7108 23.7446 24.4264 24.2066 23.9644C24.6446 23.5384 24.9818 23.0188 25.193 22.4464C25.3742 21.9808 25.589 21.2824 25.6478 19.9948C25.7114 18.6028 25.7246 18.1853 25.7246 14.6609C25.7246 11.1365 25.7114 10.7189 25.6478 9.3269C25.589 8.0393 25.3742 7.34091 25.193 6.87531C24.953 6.25971 24.6686 5.81932 24.2066 5.35732C23.7805 4.91941 23.2619 4.58237 22.6886 4.37092C22.223 4.18972 21.5246 3.97492 20.237 3.91612ZM13.2171 18.73C14.1587 19.122 15.2071 19.1749 16.1834 18.8797C17.1596 18.5845 18.0031 17.9596 18.5698 17.1115C19.1364 16.2635 19.3911 15.2451 19.2903 14.2302C19.1895 13.2153 18.7394 12.2668 18.017 11.5469C17.5565 11.0867 16.9997 10.7343 16.3866 10.5151C15.7736 10.2959 15.1196 10.2153 14.4717 10.2792C13.8237 10.3431 13.198 10.5499 12.6396 10.8846C12.0812 11.2194 11.604 11.6738 11.2422 12.2151C10.8805 12.7564 10.6433 13.3712 10.5477 14.0152C10.4521 14.6592 10.5005 15.3164 10.6893 15.9395C10.8782 16.5625 11.2029 17.136 11.6399 17.6185C12.077 18.1011 12.6157 18.4807 13.2171 18.73ZM10.1055 9.86329C10.7355 9.23327 11.4835 8.7335 12.3066 8.39254C13.1298 8.05157 14.0121 7.87607 14.9031 7.87607C15.794 7.87607 16.6763 8.05157 17.4995 8.39254C18.3227 8.7335 19.0706 9.23327 19.7006 9.86329C20.3307 10.4933 20.8304 11.2413 21.1714 12.0644C21.5124 12.8876 21.6879 13.7699 21.6879 14.6609C21.6879 15.5519 21.5124 16.4341 21.1714 17.2573C20.8304 18.0805 20.3307 18.8284 19.7006 19.4584C18.4282 20.7308 16.7025 21.4457 14.9031 21.4457C13.1036 21.4457 11.3779 20.7308 10.1055 19.4584C8.83309 18.186 8.11826 16.4603 8.11826 14.6609C8.11826 12.8614 8.83309 11.1357 10.1055 9.86329ZM23.1926 8.8865C23.3487 8.73922 23.4737 8.56212 23.5602 8.36567C23.6466 8.16922 23.6928 7.95743 23.6959 7.74282C23.699 7.52822 23.6591 7.31516 23.5784 7.11628C23.4977 6.9174 23.3779 6.73672 23.2262 6.58496C23.0744 6.43319 22.8937 6.31342 22.6948 6.23273C22.496 6.15205 22.2829 6.11208 22.0683 6.11521C21.8537 6.11834 21.6419 6.1645 21.4455 6.25095C21.249 6.3374 21.0719 6.46239 20.9246 6.61851C20.6382 6.92214 20.4814 7.32545 20.4875 7.74282C20.4936 8.16019 20.6621 8.55876 20.9572 8.85391C21.2524 9.14907 21.6509 9.31757 22.0683 9.32366C22.4857 9.32974 22.889 9.17293 23.1926 8.8865Z" fill="white"/>
</svg>
