<svg width="28" height="28" viewBox="0 0 28 28" fill="none" xmlns="http://www.w3.org/2000/svg">
<g clip-path="url(#clip0_1397_32886)">
<path d="M13.8047 0.15625C11.1347 0.15625 8.52457 0.948018 6.30451 2.43142C4.08444 3.91482 2.35415 6.02322 1.33237 8.49002C0.310584 10.9568 0.0431755 13.6712 0.564076 16.29C1.08498 18.9087 2.37078 21.3142 4.25879 23.2022C6.1468 25.0902 8.55226 26.376 11.171 26.8969C13.7897 27.4178 16.5041 27.1504 18.9709 26.1286C21.4377 25.1068 23.5462 23.3765 25.0296 21.1564C26.513 18.9364 27.3047 16.3263 27.3047 13.6562C27.3047 10.0758 25.8824 6.64205 23.3506 4.11031C20.8189 1.57857 17.3851 0.15625 13.8047 0.15625ZM10.4636 19.648H7.94854V11.5049H10.4698L10.4636 19.648ZM9.18142 10.4384C8.88318 10.4421 8.59059 10.357 8.34082 10.194C8.09105 10.031 7.89539 9.79736 7.77871 9.52287C7.66202 9.24837 7.62954 8.94536 7.68547 8.65239C7.74141 8.35941 7.8832 8.08968 8.0928 7.87747C8.30239 7.66527 8.57033 7.52017 8.86259 7.46062C9.15485 7.40106 9.45828 7.42975 9.7342 7.54303C10.0101 7.65631 10.2461 7.84907 10.4122 8.09681C10.5783 8.34454 10.667 8.63606 10.6671 8.93433C10.6687 9.33055 10.5133 9.71129 10.2348 9.99319C9.9564 10.2751 9.57763 10.4352 9.18142 10.4384ZM19.8951 19.648H17.3863V15.3699C17.3863 14.1987 16.9424 13.5206 16.0177 13.5206C15.093 13.5206 14.4828 14.2049 14.4828 15.3699V19.648H12.0602V11.5049H14.4828V12.6021C14.7408 12.1825 15.1041 11.8377 15.5367 11.6019C15.9693 11.3662 16.456 11.2477 16.9485 11.2583C18.6746 11.2583 19.9136 12.3124 19.9136 14.4884L19.8951 19.648Z" fill="white"/>
</g>
<defs>
<clipPath id="clip0_1397_32886">
<rect width="27" height="27" fill="white" transform="translate(0.304688 0.15625)"/>
</clipPath>
</defs>
</svg>
