<svg width="178" height="51" viewBox="0 0 178 51" fill="none" xmlns="http://www.w3.org/2000/svg">
<path d="M41.3762 11.4196C41.3762 12.4061 41.036 13.2281 40.3557 13.8858C39.6867 14.5321 38.6605 14.8553 37.2771 14.8553H34.998V19.8047H33.4503V7.94988H37.2771C38.6151 7.94988 39.63 8.27304 40.3216 8.91935C41.0246 9.56567 41.3762 10.3991 41.3762 11.4196ZM37.2771 13.5796C38.1389 13.5796 38.7739 13.3925 39.1821 13.0184C39.5903 12.6442 39.7944 12.1113 39.7944 11.4196C39.7944 9.95686 38.9553 9.2255 37.2771 9.2255H34.998V13.5796H37.2771ZM44.8476 7.94988V19.8047H43.2998V7.94988H44.8476ZM52.3328 13.8858L55.9726 19.8047H54.2208L51.3804 15.1784L48.676 19.8047H46.9582L50.581 13.8858L46.9412 7.94988H48.676L51.5334 12.5932L54.2548 7.94988H55.9896L52.3328 13.8858ZM65.9751 11.4196C65.9751 12.4061 65.635 13.2281 64.9546 13.8858C64.2856 14.5321 63.2595 14.8553 61.8761 14.8553H59.597V19.8047H58.0492V7.94988H61.8761C63.2141 7.94988 64.2289 8.27304 64.9206 8.91935C65.6236 9.56567 65.9751 10.3991 65.9751 11.4196ZM61.8761 13.5796C62.7379 13.5796 63.3728 13.3925 63.781 13.0184C64.1892 12.6442 64.3933 12.1113 64.3933 11.4196C64.3933 9.95686 63.5543 9.2255 61.8761 9.2255H59.597V13.5796H61.8761ZM69.4465 9.2085V13.1714H73.7667V14.4471H69.4465V18.5291H74.2769V19.8047H67.8988V7.93287H74.2769V9.2085H69.4465ZM78.1666 18.5461H82.3167V19.8047H76.6189V7.94988H78.1666V18.5461ZM93.9375 7.83082C95.0827 7.83082 96.1032 8.09161 96.999 8.6132C97.8948 9.12345 98.5864 9.8378 99.074 10.7563C99.5729 11.6634 99.8224 12.7009 99.8224 13.8688C99.8224 15.0367 99.5729 16.0799 99.074 16.9983C98.5864 17.9054 97.8948 18.6198 96.999 19.1414C96.1032 19.6516 95.0827 19.9067 93.9375 19.9067C92.7809 19.9067 91.7547 19.6516 90.859 19.1414C89.9632 18.6198 89.2659 17.9054 88.7669 16.9983C88.268 16.0799 88.0186 15.0367 88.0186 13.8688C88.0186 12.7009 88.268 11.6634 88.7669 10.7563C89.2659 9.8378 89.9632 9.12345 90.859 8.6132C91.7547 8.09161 92.7809 7.83082 93.9375 7.83082ZM93.9375 8.51115C92.883 8.51115 91.9645 8.73793 91.1821 9.19149C90.3997 9.6337 89.7988 10.2573 89.3792 11.0624C88.9597 11.8675 88.7499 12.8029 88.7499 13.8688C88.7499 14.9233 88.9597 15.8588 89.3792 16.6752C89.7988 17.4802 90.3997 18.1095 91.1821 18.5631C91.9645 19.0166 92.883 19.2434 93.9375 19.2434C94.9807 19.2434 95.8878 19.0166 96.6588 18.5631C97.4412 18.1095 98.0422 17.4802 98.4617 16.6752C98.8812 15.8588 99.091 14.9233 99.091 13.8688C99.091 12.8029 98.8812 11.8675 98.4617 11.0624C98.0422 10.2573 97.4412 9.6337 96.6588 9.19149C95.8878 8.73793 94.9807 8.51115 93.9375 8.51115ZM93.9035 9.92285C93.2231 9.92285 92.5995 10.0816 92.0325 10.3991C91.4769 10.7166 91.0347 11.1758 90.7059 11.7768C90.3771 12.3664 90.2127 13.058 90.2127 13.8518C90.2127 14.6455 90.3771 15.3428 90.7059 15.9438C91.0347 16.5334 91.4769 16.9926 92.0325 17.3215C92.5995 17.639 93.2231 17.7977 93.9035 17.7977C94.7539 17.7977 95.4909 17.5709 96.1145 17.1174C96.7382 16.6525 97.1634 16.0345 97.3902 15.2635H95.9615C95.6213 16.2046 94.9353 16.6752 93.9035 16.6752C93.2231 16.6752 92.6675 16.4314 92.2366 15.9438C91.8058 15.4562 91.5903 14.7646 91.5903 13.8688C91.5903 12.9617 91.8058 12.2643 92.2366 11.7768C92.6675 11.2892 93.2231 11.0454 93.9035 11.0454C94.4024 11.0454 94.8333 11.1701 95.1961 11.4196C95.5589 11.6577 95.8141 12.0035 95.9615 12.4571H97.3902C97.1747 11.652 96.7552 11.0284 96.1316 10.5862C95.5079 10.144 94.7652 9.92285 93.9035 9.92285ZM106.058 18.5631C107.498 17.4065 108.626 16.4597 109.442 15.7227C110.259 14.9743 110.945 14.1976 111.5 13.3925C112.067 12.5761 112.351 11.7768 112.351 10.9944C112.351 10.2573 112.169 9.67906 111.806 9.25952C111.455 8.82864 110.882 8.6132 110.088 8.6132C109.317 8.6132 108.716 8.85699 108.286 9.34456C107.866 9.8208 107.639 10.4614 107.605 11.2665H106.109C106.154 9.99655 106.539 9.01573 107.265 8.32406C107.991 7.63239 108.926 7.28655 110.071 7.28655C111.239 7.28655 112.164 7.60971 112.844 8.25603C113.536 8.90235 113.881 9.79245 113.881 10.9263C113.881 11.8675 113.598 12.7859 113.031 13.6817C112.475 14.5661 111.84 15.3485 111.126 16.0288C110.412 16.6978 109.499 17.4802 108.388 18.376H114.239V19.6686H106.058V18.5631ZM116.028 13.5286C116.028 11.5783 116.345 10.0589 116.98 8.97038C117.615 7.87051 118.726 7.32057 120.314 7.32057C121.89 7.32057 122.995 7.87051 123.63 8.97038C124.265 10.0589 124.583 11.5783 124.583 13.5286C124.583 15.5129 124.265 17.055 123.63 18.1549C122.995 19.2548 121.89 19.8047 120.314 19.8047C118.726 19.8047 117.615 19.2548 116.98 18.1549C116.345 17.055 116.028 15.5129 116.028 13.5286ZM123.052 13.5286C123.052 12.5421 122.984 11.7087 122.848 11.0284C122.723 10.3367 122.457 9.78111 122.049 9.36157C121.652 8.94203 121.074 8.73226 120.314 8.73226C119.543 8.73226 118.953 8.94203 118.545 9.36157C118.148 9.78111 117.882 10.3367 117.746 11.0284C117.621 11.7087 117.558 12.5421 117.558 13.5286C117.558 14.5491 117.621 15.4052 117.746 16.0969C117.882 16.7885 118.148 17.3441 118.545 17.7637C118.953 18.1832 119.543 18.393 120.314 18.393C121.074 18.393 121.652 18.1832 122.049 17.7637C122.457 17.3441 122.723 16.7885 122.848 16.0969C122.984 15.4052 123.052 14.5491 123.052 13.5286ZM126.521 18.5631C127.961 17.4065 129.089 16.4597 129.905 15.7227C130.722 14.9743 131.408 14.1976 131.963 13.3925C132.53 12.5761 132.814 11.7768 132.814 10.9944C132.814 10.2573 132.632 9.67906 132.269 9.25952C131.918 8.82864 131.345 8.6132 130.552 8.6132C129.781 8.6132 129.18 8.85699 128.749 9.34456C128.329 9.8208 128.102 10.4614 128.068 11.2665H126.572C126.617 9.99655 127.003 9.01573 127.728 8.32406C128.454 7.63239 129.389 7.28655 130.535 7.28655C131.703 7.28655 132.627 7.60971 133.307 8.25603C133.999 8.90235 134.344 9.79245 134.344 10.9263C134.344 11.8675 134.061 12.7859 133.494 13.6817C132.938 14.5661 132.303 15.3485 131.589 16.0288C130.875 16.6978 129.962 17.4802 128.851 18.376H134.702V19.6686H126.521V18.5631ZM136.457 10.6032C136.536 9.56 136.939 8.7436 137.664 8.15398C138.39 7.56436 139.331 7.26955 140.488 7.26955C141.259 7.26955 141.922 7.41128 142.478 7.69475C143.045 7.96689 143.47 8.34107 143.753 8.8173C144.048 9.29354 144.196 9.83213 144.196 10.4331C144.196 11.1361 143.992 11.7427 143.583 12.253C143.186 12.7632 142.665 13.0921 142.019 13.2395V13.3245C142.756 13.5059 143.34 13.8631 143.77 14.396C144.201 14.929 144.417 15.6263 144.417 16.4881C144.417 17.1344 144.269 17.7183 143.975 18.2399C143.68 18.7502 143.238 19.1527 142.648 19.4475C142.058 19.7423 141.35 19.8897 140.522 19.8897C139.32 19.8897 138.333 19.5779 137.562 18.9543C136.791 18.3193 136.36 17.4235 136.27 16.267H137.766C137.846 16.9473 138.124 17.5029 138.6 17.9338C139.076 18.3646 139.711 18.5801 140.505 18.5801C141.299 18.5801 141.9 18.376 142.308 17.9678C142.727 17.5482 142.937 17.0097 142.937 16.352C142.937 15.5016 142.654 14.8893 142.087 14.5151C141.52 14.1409 140.664 13.9538 139.518 13.9538H139.127V12.6612H139.535C140.579 12.6498 141.367 12.4798 141.9 12.1509C142.432 11.8108 142.699 11.2892 142.699 10.5862C142.699 9.98521 142.5 9.50331 142.104 9.14046C141.718 8.77762 141.162 8.5962 140.437 8.5962C139.734 8.5962 139.167 8.77762 138.736 9.14046C138.305 9.50331 138.05 9.99088 137.971 10.6032H136.457Z" fill="white"/>
<path d="M5.09305 40.2839C5.63102 40.3809 6.08079 40.6455 6.44238 41.0776C6.81278 41.5098 6.99798 42.0169 6.99798 42.5989C6.99798 43.0752 6.88334 43.5029 6.65404 43.8821C6.43356 44.2525 6.09843 44.548 5.64866 44.7684C5.2077 44.9801 4.66973 45.0859 4.03475 45.0859H1.08475V35.7994H3.98184C4.90785 35.7994 5.60456 36.0155 6.07198 36.4476C6.54821 36.8709 6.78633 37.4221 6.78633 38.1012C6.78633 38.6921 6.62758 39.1727 6.31009 39.5431C5.9926 39.9047 5.58692 40.1516 5.09305 40.2839ZM1.68005 40.0193H4.0083C4.70501 40.0193 5.23857 39.8562 5.60897 39.5299C5.98819 39.1948 6.1778 38.7362 6.1778 38.1541C6.1778 37.5897 5.9926 37.1443 5.6222 36.818C5.2518 36.4917 4.69178 36.3285 3.94215 36.3285H1.68005V40.0193ZM3.99507 44.57C4.7447 44.57 5.33117 44.3936 5.75449 44.0409C6.18662 43.6793 6.40269 43.1854 6.40269 42.5593C6.40269 41.9419 6.18221 41.4525 5.74126 41.0909C5.30912 40.7205 4.71383 40.5353 3.95538 40.5353H1.68005V44.57H3.99507ZM14.3545 37.9028L10.1742 48.4593H9.5657L10.9018 45.0859L7.88565 37.9028H8.53386L11.2325 44.4245L13.746 37.9028H14.3545ZM25.0385 38.4187C25.0385 39.2389 24.7828 39.8782 24.2713 40.3368C23.7598 40.7866 23.0013 41.0115 21.9959 41.0115H20.0116V45.0859H19.4163V35.7994H21.9959C23.0189 35.7994 23.7818 36.0375 24.2845 36.5137C24.7872 36.9812 25.0385 37.6161 25.0385 38.4187ZM21.9959 40.4823C23.6275 40.4823 24.4432 39.7945 24.4432 38.4187C24.4432 37.7396 24.2492 37.2237 23.8612 36.8709C23.4731 36.5093 22.8514 36.3285 21.9959 36.3285H20.0116V40.4823H21.9959ZM26.9421 36.3021C26.801 36.3021 26.6819 36.258 26.5849 36.1698C26.4879 36.0728 26.4394 35.9449 26.4394 35.7862C26.4394 35.6362 26.4879 35.5128 26.5849 35.4158C26.6819 35.3187 26.801 35.2702 26.9421 35.2702C27.0832 35.2702 27.2023 35.3187 27.2993 35.4158C27.3963 35.5128 27.4448 35.6362 27.4448 35.7862C27.4448 35.9449 27.3963 36.0728 27.2993 36.1698C27.2023 36.258 27.0832 36.3021 26.9421 36.3021ZM27.2331 37.9028V45.0859H26.6379V37.9028H27.2331ZM33.212 45.0859L31.188 41.9243L29.2037 45.0859H28.5687L30.8838 41.4613L28.5952 37.9028H29.2699L31.2674 40.9983L33.2252 37.9028H33.847L31.5584 41.4745L33.8867 45.0859H33.212ZM35.8111 39.7945C36.014 39.2124 36.38 38.7362 36.9091 38.3658C37.4471 37.9954 38.0953 37.8102 38.8537 37.8102C39.524 37.8102 40.1193 37.9601 40.6396 38.2599C41.1688 38.5598 41.5788 38.9875 41.8699 39.5431C42.1697 40.0987 42.3197 40.7469 42.3197 41.4877C42.3197 42.2285 42.1697 42.8812 41.8699 43.4456C41.5788 44.0012 41.1688 44.4333 40.6396 44.742C40.1193 45.0418 39.524 45.1918 38.8537 45.1918C38.1041 45.1918 37.4603 45.0066 36.9223 44.6362C36.3932 44.2569 36.0228 43.7807 35.8111 43.2075V48.4725H35.2158V37.9028H35.8111V39.7945ZM41.7111 41.4877C41.7111 40.8351 41.5877 40.2707 41.3407 39.7945C41.0938 39.3182 40.7454 38.9566 40.2957 38.7097C39.8547 38.4539 39.3432 38.3261 38.7611 38.3261C38.2055 38.3261 37.7028 38.4584 37.2531 38.7229C36.8033 38.9787 36.4505 39.3491 36.1948 39.8341C35.939 40.3104 35.8111 40.8616 35.8111 41.4877C35.8111 42.1227 35.939 42.6827 36.1948 43.1678C36.4505 43.644 36.8033 44.0144 37.2531 44.279C37.7028 44.5347 38.2055 44.6626 38.7611 44.6626C39.3432 44.6626 39.8547 44.5347 40.2957 44.279C40.7454 44.0232 41.0938 43.6572 41.3407 43.181C41.5877 42.7048 41.7111 42.1403 41.7111 41.4877ZM50.5856 41.0115C50.5856 41.329 50.5768 41.5671 50.5592 41.7258H44.3549C44.3726 42.3696 44.5137 42.912 44.7782 43.353C45.0428 43.7939 45.3912 44.1247 45.8233 44.3451C46.2554 44.5656 46.7273 44.6758 47.2388 44.6758C47.9443 44.6758 48.5352 44.5039 49.0114 44.1599C49.4877 43.8072 49.7875 43.3309 49.911 42.7312H50.5327C50.3916 43.4632 50.03 44.0585 49.448 44.5171C48.8659 44.9669 48.1295 45.1918 47.2388 45.1918C46.5685 45.1918 45.9688 45.0418 45.4397 44.742C44.9105 44.4421 44.496 44.0144 44.1962 43.4588C43.8963 42.8944 43.7464 42.2374 43.7464 41.4877C43.7464 40.7381 43.8919 40.0855 44.1829 39.5299C44.4828 38.9743 44.8973 38.551 45.4264 38.2599C45.9556 37.9601 46.5597 37.8102 47.2388 37.8102C47.9267 37.8102 48.522 37.9601 49.0246 38.2599C49.5362 38.551 49.9242 38.9434 50.1888 39.4373C50.4533 39.9223 50.5856 40.4471 50.5856 41.0115ZM49.9903 41.2364C50.0168 40.6014 49.9022 40.0634 49.6464 39.6225C49.3995 39.1815 49.0599 38.8552 48.6278 38.6436C48.1956 38.4231 47.7282 38.3128 47.2255 38.3128C46.7229 38.3128 46.2554 38.4231 45.8233 38.6436C45.4 38.8552 45.0516 39.1815 44.7782 39.6225C44.5137 40.0634 44.3726 40.6014 44.3549 41.2364H49.9903ZM52.98 35.2967V45.0859H52.3847V35.2967H52.98ZM64.0285 35.7994V36.3021H61.3827V45.0859H60.7874V36.3021H58.1417V35.7994H64.0285ZM66.0408 39.3844C66.2172 38.8552 66.5302 38.4539 66.98 38.1806C67.4298 37.8983 68.003 37.7572 68.6998 37.7572V38.379H68.5013C67.7958 38.379 67.2093 38.5818 66.7419 38.9875C66.2745 39.3844 66.0408 40.037 66.0408 40.9454V45.0859H65.4455V37.9028H66.0408V39.3844ZM69.7 41.4877C69.7 40.7469 69.8455 40.0987 70.1365 39.5431C70.4364 38.9875 70.8465 38.5598 71.3668 38.2599C71.8959 37.9601 72.4956 37.8102 73.1659 37.8102C73.9243 37.8102 74.5681 37.9954 75.0973 38.3658C75.6264 38.7362 75.9968 39.208 76.2085 39.7812V37.9028H76.8038V45.0859H76.2085V43.1942C75.9968 43.7763 75.622 44.2569 75.0841 44.6362C74.5549 45.0066 73.9155 45.1918 73.1659 45.1918C72.4956 45.1918 71.8959 45.0418 71.3668 44.742C70.8465 44.4333 70.4364 44.0012 70.1365 43.4456C69.8455 42.8812 69.7 42.2285 69.7 41.4877ZM76.2085 41.4877C76.2085 40.8616 76.0762 40.3104 75.8116 39.8341C75.5559 39.3491 75.2031 38.9787 74.7533 38.7229C74.3036 38.4584 73.8009 38.3261 73.2453 38.3261C72.6632 38.3261 72.1517 38.4539 71.7107 38.7097C71.2698 38.9566 70.9258 39.3182 70.6789 39.7945C70.432 40.2707 70.3085 40.8351 70.3085 41.4877C70.3085 42.1403 70.432 42.7048 70.6789 43.181C70.9258 43.6572 71.2698 44.0232 71.7107 44.279C72.1605 44.5347 72.672 44.6626 73.2453 44.6626C73.8009 44.6626 74.3036 44.5347 74.7533 44.279C75.2119 44.0144 75.5691 43.644 75.8249 43.1678C76.0806 42.6827 76.2085 42.1227 76.2085 41.4877ZM78.6009 41.4877C78.6009 40.7469 78.7464 40.0987 79.0375 39.5431C79.3373 38.9875 79.7474 38.5598 80.2677 38.2599C80.7969 37.9601 81.3966 37.8102 82.0668 37.8102C82.7988 37.8102 83.4338 37.9954 83.9718 38.3658C84.5097 38.7273 84.889 39.1992 85.1094 39.7812V35.2967H85.7047V45.0859H85.1094V43.181C84.8978 43.7719 84.5274 44.2569 83.9982 44.6362C83.4691 45.0066 82.8253 45.1918 82.0668 45.1918C81.3966 45.1918 80.7969 45.0418 80.2677 44.742C79.7474 44.4333 79.3373 44.0012 79.0375 43.4456C78.7464 42.8812 78.6009 42.2285 78.6009 41.4877ZM85.1094 41.4877C85.1094 40.8616 84.9772 40.3104 84.7126 39.8341C84.4568 39.3491 84.1041 38.9787 83.6543 38.7229C83.2045 38.4584 82.7018 38.3261 82.1462 38.3261C81.5642 38.3261 81.0526 38.4539 80.6117 38.7097C80.1707 38.9566 79.8268 39.3182 79.5798 39.7945C79.3329 40.2707 79.2094 40.8351 79.2094 41.4877C79.2094 42.1403 79.3329 42.7048 79.5798 43.181C79.8268 43.6572 80.1707 44.0232 80.6117 44.279C81.0615 44.5347 81.573 44.6626 82.1462 44.6626C82.7018 44.6626 83.2045 44.5347 83.6543 44.279C84.1129 44.0144 84.4701 43.644 84.7258 43.1678C84.9816 42.6827 85.1094 42.1227 85.1094 41.4877ZM88.1765 36.3021C88.0354 36.3021 87.9164 36.258 87.8194 36.1698C87.7224 36.0728 87.6739 35.9449 87.6739 35.7862C87.6739 35.6362 87.7224 35.5128 87.8194 35.4158C87.9164 35.3187 88.0354 35.2702 88.1765 35.2702C88.3176 35.2702 88.4367 35.3187 88.5337 35.4158C88.6307 35.5128 88.6792 35.6362 88.6792 35.7862C88.6792 35.9449 88.6307 36.0728 88.5337 36.1698C88.4367 36.258 88.3176 36.3021 88.1765 36.3021ZM88.4676 37.9028V45.0859H87.8723V37.9028H88.4676ZM93.8908 37.7572C94.7463 37.7572 95.443 38.0218 95.981 38.551C96.5189 39.0713 96.7879 39.8474 96.7879 40.8792V45.0859H96.2059V40.9189C96.2059 40.0634 95.9898 39.4108 95.5576 38.961C95.1255 38.5025 94.539 38.2732 93.7982 38.2732C93.0221 38.2732 92.4004 38.5201 91.933 39.014C91.4744 39.5078 91.2451 40.2398 91.2451 41.2099V45.0859H90.6498V37.9028H91.2451V39.4241C91.4479 38.8861 91.7831 38.476 92.2505 38.1938C92.7267 37.9028 93.2735 37.7572 93.8908 37.7572ZM101.987 37.8102C102.746 37.8102 103.39 37.9954 103.919 38.3658C104.448 38.7273 104.818 39.1948 105.03 39.768V37.9028H105.625V45.3108C105.625 45.9723 105.48 46.5499 105.189 47.0438C104.898 47.5465 104.505 47.9301 104.011 48.1947C103.518 48.4681 102.966 48.6048 102.358 48.6048C101.458 48.6048 100.713 48.3887 100.122 47.9566C99.5313 47.5244 99.1432 46.9424 98.958 46.2104H99.5533C99.7297 46.7836 100.06 47.2378 100.545 47.5729C101.031 47.9169 101.635 48.0889 102.358 48.0889C102.861 48.0889 103.315 47.9742 103.72 47.7449C104.126 47.5244 104.444 47.2025 104.673 46.7792C104.911 46.3647 105.03 45.8753 105.03 45.3108V43.2075C104.818 43.7807 104.444 44.2569 103.906 44.6362C103.376 45.0066 102.737 45.1918 101.987 45.1918C101.317 45.1918 100.717 45.0418 100.188 44.742C99.668 44.4333 99.2579 44.0012 98.958 43.4456C98.667 42.8812 98.5215 42.2285 98.5215 41.4877C98.5215 40.7469 98.667 40.0987 98.958 39.5431C99.2579 38.9875 99.668 38.5598 100.188 38.2599C100.717 37.9601 101.317 37.8102 101.987 37.8102ZM105.03 41.4877C105.03 40.8616 104.898 40.3104 104.633 39.8341C104.377 39.3491 104.025 38.9787 103.575 38.7229C103.125 38.4584 102.622 38.3261 102.067 38.3261C101.485 38.3261 100.973 38.4539 100.532 38.7097C100.091 38.9566 99.7474 39.3182 99.5004 39.7945C99.2535 40.2707 99.13 40.8351 99.13 41.4877C99.13 42.1403 99.2535 42.7048 99.5004 43.181C99.7474 43.6572 100.091 44.0232 100.532 44.279C100.982 44.5347 101.494 44.6626 102.067 44.6626C102.622 44.6626 103.125 44.5347 103.575 44.279C104.033 44.0144 104.391 43.644 104.646 43.1678C104.902 42.6827 105.03 42.1227 105.03 41.4877ZM114.212 45.1785C113.612 45.1785 113.087 45.0727 112.638 44.861C112.188 44.6494 111.835 44.3628 111.579 44.0012C111.332 43.6396 111.191 43.2383 111.156 42.7974H111.778C111.848 43.2824 112.073 43.7146 112.452 44.0938C112.84 44.473 113.427 44.6626 114.212 44.6626C114.67 44.6626 115.067 44.5788 115.402 44.4113C115.746 44.2437 116.011 44.0144 116.196 43.7234C116.381 43.4323 116.474 43.1105 116.474 42.7577C116.474 42.3079 116.364 41.9507 116.143 41.6862C115.932 41.4216 115.663 41.2232 115.336 41.0909C115.019 40.9586 114.587 40.8175 114.04 40.6676C113.44 40.5088 112.955 40.3501 112.585 40.1913C112.223 40.0326 111.914 39.79 111.659 39.4637C111.412 39.1286 111.288 38.6744 111.288 38.1012C111.288 37.6602 111.403 37.259 111.632 36.8974C111.87 36.527 112.205 36.2359 112.638 36.0243C113.07 35.8126 113.568 35.7068 114.132 35.7068C114.953 35.7068 115.614 35.9096 116.117 36.3153C116.619 36.721 116.919 37.2193 117.016 37.8102H116.381C116.328 37.572 116.209 37.3295 116.024 37.0826C115.848 36.8356 115.592 36.6328 115.257 36.4741C114.931 36.3065 114.538 36.2227 114.079 36.2227C113.462 36.2227 112.942 36.3947 112.518 36.7386C112.095 37.0738 111.884 37.5235 111.884 38.088C111.884 38.5377 111.994 38.8993 112.214 39.1727C112.435 39.4373 112.704 39.6401 113.021 39.7812C113.347 39.9135 113.784 40.0502 114.331 40.1913C114.939 40.3589 115.42 40.522 115.773 40.6808C116.134 40.8307 116.439 41.0732 116.686 41.4084C116.941 41.7347 117.069 42.18 117.069 42.7445C117.069 43.159 116.959 43.5514 116.738 43.9218C116.518 44.2922 116.192 44.5965 115.76 44.8346C115.336 45.0639 114.82 45.1785 114.212 45.1785ZM118.759 45.1256C118.609 45.1256 118.485 45.0771 118.388 44.9801C118.291 44.8831 118.243 44.7596 118.243 44.6097C118.243 44.4598 118.291 44.3363 118.388 44.2393C118.485 44.1423 118.609 44.0938 118.759 44.0938C118.9 44.0938 119.019 44.1423 119.116 44.2393C119.213 44.3363 119.261 44.4598 119.261 44.6097C119.261 44.7596 119.213 44.8831 119.116 44.9801C119.019 45.0771 118.9 45.1256 118.759 45.1256ZM126.093 42.7048H121.688L120.801 45.0859H120.153L123.566 36.011H124.228L127.627 45.0859H126.979L126.093 42.7048ZM125.908 42.2021L123.897 36.7915L121.873 42.2021H125.908ZM129.029 45.1256C128.879 45.1256 128.756 45.0771 128.659 44.9801C128.562 44.8831 128.513 44.7596 128.513 44.6097C128.513 44.4598 128.562 44.3363 128.659 44.2393C128.756 44.1423 128.879 44.0938 129.029 44.0938C129.17 44.0938 129.289 44.1423 129.386 44.2393C129.483 44.3363 129.532 44.4598 129.532 44.6097C129.532 44.7596 129.483 44.8831 129.386 44.9801C129.289 45.0771 129.17 45.1256 129.029 45.1256ZM134.461 41.4877C134.461 40.7469 134.607 40.0987 134.898 39.5431C135.198 38.9875 135.608 38.5598 136.128 38.2599C136.657 37.9601 137.257 37.8102 137.927 37.8102C138.659 37.8102 139.294 37.9954 139.832 38.3658C140.37 38.7273 140.749 39.1992 140.97 39.7812V35.2967H141.565V45.0859H140.97V43.181C140.758 43.7719 140.388 44.2569 139.859 44.6362C139.329 45.0066 138.686 45.1918 137.927 45.1918C137.257 45.1918 136.657 45.0418 136.128 44.742C135.608 44.4333 135.198 44.0012 134.898 43.4456C134.607 42.8812 134.461 42.2285 134.461 41.4877ZM140.97 41.4877C140.97 40.8616 140.837 40.3104 140.573 39.8341C140.317 39.3491 139.964 38.9787 139.515 38.7229C139.065 38.4584 138.562 38.3261 138.006 38.3261C137.424 38.3261 136.913 38.4539 136.472 38.7097C136.031 38.9566 135.687 39.3182 135.44 39.7945C135.193 40.2707 135.07 40.8351 135.07 41.4877C135.07 42.1403 135.193 42.7048 135.44 43.181C135.687 43.6572 136.031 44.0232 136.472 44.279C136.922 44.5347 137.433 44.6626 138.006 44.6626C138.562 44.6626 139.065 44.5347 139.515 44.279C139.973 44.0144 140.33 43.644 140.586 43.1678C140.842 42.6827 140.97 42.1227 140.97 41.4877ZM150.201 41.0115C150.201 41.329 150.193 41.5671 150.175 41.7258H143.971C143.988 42.3696 144.129 42.912 144.394 43.353C144.659 43.7939 145.007 44.1247 145.439 44.3451C145.871 44.5656 146.343 44.6758 146.855 44.6758C147.56 44.6758 148.151 44.5039 148.627 44.1599C149.103 43.8072 149.403 43.3309 149.527 42.7312H150.148C150.007 43.4632 149.646 44.0585 149.064 44.5171C148.482 44.9669 147.745 45.1918 146.855 45.1918C146.184 45.1918 145.585 45.0418 145.055 44.742C144.526 44.4421 144.112 44.0144 143.812 43.4588C143.512 42.8944 143.362 42.2374 143.362 41.4877C143.362 40.7381 143.508 40.0855 143.799 39.5299C144.099 38.9743 144.513 38.551 145.042 38.2599C145.571 37.9601 146.175 37.8102 146.855 37.8102C147.542 37.8102 148.138 37.9601 148.64 38.2599C149.152 38.551 149.54 38.9434 149.805 39.4373C150.069 39.9223 150.201 40.4471 150.201 41.0115ZM149.606 41.2364C149.633 40.6014 149.518 40.0634 149.262 39.6225C149.015 39.1815 148.676 38.8552 148.244 38.6436C147.811 38.4231 147.344 38.3128 146.841 38.3128C146.339 38.3128 145.871 38.4231 145.439 38.6436C145.016 38.8552 144.667 39.1815 144.394 39.6225C144.129 40.0634 143.988 40.6014 143.971 41.2364H149.606ZM155.364 40.4559C155.364 39.5387 155.553 38.7229 155.932 38.0086C156.32 37.2854 156.85 36.721 157.52 36.3153C158.199 35.9096 158.957 35.7068 159.795 35.7068C160.853 35.7068 161.744 35.9537 162.467 36.4476C163.191 36.9415 163.72 37.6338 164.055 38.5245H163.367C163.102 37.819 162.661 37.2634 162.044 36.8577C161.436 36.4432 160.686 36.2359 159.795 36.2359C159.081 36.2359 158.433 36.4079 157.851 36.7519C157.269 37.087 156.81 37.5764 156.475 38.2202C156.14 38.8552 155.972 39.6004 155.972 40.4559C155.972 41.3025 156.14 42.0433 156.475 42.6783C156.81 43.3045 157.269 43.7895 157.851 44.1335C158.433 44.4774 159.081 44.6494 159.795 44.6494C160.686 44.6494 161.436 44.4466 162.044 44.0409C162.661 43.6264 163.102 43.0664 163.367 42.3608H164.055C163.72 43.2516 163.191 43.9439 162.467 44.4377C161.744 44.9316 160.853 45.1785 159.795 45.1785C158.957 45.1785 158.199 44.9801 157.52 44.5832C156.85 44.1776 156.32 43.6176 155.932 42.9032C155.553 42.18 155.364 41.3643 155.364 40.4559ZM165.821 45.1256C165.671 45.1256 165.548 45.0771 165.451 44.9801C165.354 44.8831 165.305 44.7596 165.305 44.6097C165.305 44.4598 165.354 44.3363 165.451 44.2393C165.548 44.1423 165.671 44.0938 165.821 44.0938C165.962 44.0938 166.081 44.1423 166.178 44.2393C166.275 44.3363 166.324 44.4598 166.324 44.6097C166.324 44.7596 166.275 44.8831 166.178 44.9801C166.081 45.0771 165.962 45.1256 165.821 45.1256ZM174.902 35.7994L171.356 45.0859H170.695L167.163 35.7994H167.811L171.026 44.3848L174.267 35.7994H174.902ZM176.247 45.1256C176.097 45.1256 175.973 45.0771 175.876 44.9801C175.779 44.8831 175.731 44.7596 175.731 44.6097C175.731 44.4598 175.779 44.3363 175.876 44.2393C175.973 44.1423 176.097 44.0938 176.247 44.0938C176.388 44.0938 176.507 44.1423 176.604 44.2393C176.701 44.3363 176.749 44.4598 176.749 44.6097C176.749 44.7596 176.701 44.8831 176.604 44.9801C176.507 45.0771 176.388 45.1256 176.247 45.1256Z" fill="white"/>
</svg>
