<svg width="28" height="28" viewBox="0 0 28 28" fill="none" xmlns="http://www.w3.org/2000/svg">
<g clip-path="url(#clip0_1397_32888)">
<path d="M13.7999 0.15625C11.1282 0.156254 8.51659 0.948813 6.29548 2.43365C4.07438 3.91848 2.34368 6.02884 1.32239 8.49765C0.301104 10.9665 0.0351216 13.6827 0.558146 16.3027C1.08117 18.9228 2.36967 21.3287 4.26059 23.2162C6.1515 25.1037 8.5598 26.3877 11.1808 26.906C13.8017 27.4242 16.5176 27.1533 18.9845 26.1274C21.4514 25.1016 23.5586 23.3671 25.0394 21.1433C26.5201 18.9194 27.3079 16.3063 27.303 13.6346C27.2965 10.0577 25.871 6.62945 23.3393 4.10247C20.8077 1.57549 17.3769 0.156244 13.7999 0.15625ZM18.4862 9.98565L18.3998 10.424C18.0046 12.4121 17.3378 15.7462 16.8871 17.5121C16.8559 17.6779 16.7704 17.8285 16.6441 17.9403C16.5177 18.0521 16.3577 18.1187 16.1894 18.1295C15.9845 18.1211 15.7877 18.0476 15.6276 17.9196C15.0842 17.5244 14.1025 16.7959 13.2875 16.1846L12.2379 15.4005L12.102 17.37C12.0956 17.4224 12.0742 17.4717 12.0403 17.5121C12.0212 17.537 11.997 17.5576 11.9693 17.5725C11.9416 17.5874 11.9111 17.5963 11.8797 17.5985H11.8242C11.7249 17.609 11.6249 17.5861 11.54 17.5336C11.455 17.4811 11.39 17.4018 11.3549 17.3083C11.1265 16.6106 10.6325 14.9806 10.4905 14.5114C10.0645 14.3879 8.70618 13.9866 8.02084 13.6964C7.90984 13.6427 7.82227 13.5503 7.77453 13.4367C7.72678 13.323 7.7222 13.1958 7.76157 13.079C7.80403 12.9857 7.86544 12.9024 7.942 12.8344C8.01856 12.7663 8.10854 12.715 8.20609 12.6838C10.8425 11.6033 17.2699 9.14595 17.3378 9.12126C17.4779 9.06814 17.6264 9.04094 17.7762 9.04099C17.9046 9.03695 18.0313 9.07042 18.141 9.13731C18.2506 9.2042 18.3384 9.30162 18.3936 9.41763C18.4889 9.59067 18.5217 9.79129 18.4862 9.98565Z" fill="white"/>
<path d="M16.4153 10.6905C16.2482 10.7624 16.0888 10.8514 15.9399 10.956L10.9141 14.2283C10.9141 14.2283 11.3524 15.704 11.6549 16.6548L11.7723 14.9013C11.7756 14.8649 11.7873 14.8297 11.8066 14.7986C11.8259 14.7676 11.8522 14.7414 11.8834 14.7223L15.8905 11.4067C16.134 11.1984 16.3669 10.9779 16.5882 10.7461C16.6314 10.7214 16.5882 10.6535 16.4153 10.6905Z" fill="white"/>
</g>
<defs>
<clipPath id="clip0_1397_32888">
<rect width="27" height="27" fill="white" transform="translate(0.304688 0.15625)"/>
</clipPath>
</defs>
</svg>
