<svg width="28" height="28" viewBox="0 0 28 28" fill="none" xmlns="http://www.w3.org/2000/svg">
<g clip-path="url(#clip0_1397_32891)">
<path d="M13.8061 0.156251C11.1352 0.15503 8.52389 0.945922 6.30251 2.42892C4.08112 3.91191 2.34944 6.02039 1.32648 8.48765C0.303513 10.9549 0.035278 13.6701 0.5556 16.2899C1.07592 18.9096 2.36148 21.3162 4.24967 23.2053C6.13787 25.0943 8.54386 26.381 11.1634 26.9025C13.7829 27.424 16.4982 27.157 18.9659 26.1352C21.4336 25.1133 23.5429 23.3826 25.0269 21.1619C26.511 18.9412 27.303 16.3303 27.303 13.6593C27.303 10.0792 25.8813 6.64553 23.3503 4.11338C20.8193 1.58124 17.3863 0.157888 13.8061 0.156251ZM9.73731 18.9507C8.68584 18.9504 7.65829 18.6369 6.78577 18.0501C5.91326 17.4634 5.23534 16.6299 4.83853 15.6562C4.44173 14.6825 4.344 13.6126 4.55786 12.5831C4.77172 11.5536 5.28746 10.6112 6.03924 9.8761C6.79103 9.14098 7.74474 8.64649 8.77876 8.45577C9.81279 8.26504 10.8802 8.38672 11.8448 8.80525C12.8094 9.22379 13.6274 9.92022 14.1944 10.8057C14.7615 11.6911 15.0519 12.7254 15.0286 13.7766C15.0271 14.4656 14.8884 15.1474 14.6205 15.7821C14.3526 16.4169 13.9608 16.9919 13.4682 17.4735C12.9756 17.9552 12.392 18.3339 11.7514 18.5876C11.1108 18.8412 10.4261 18.9646 9.73731 18.9507ZM20.0854 16.9872C19.902 17.3767 19.6558 17.7334 19.3568 18.0431C19.194 18.2405 18.987 18.3969 18.7525 18.4994C18.5181 18.602 18.2627 18.648 18.0072 18.6335C17.7517 18.6191 17.5032 18.5447 17.2818 18.4164C17.0604 18.2881 16.8722 18.1094 16.7327 17.8949C16.2897 17.3296 15.9606 16.6838 15.7634 15.9932C15.2893 14.3231 15.3367 12.548 15.8992 10.9056C16.1318 10.186 16.5592 9.54483 17.1341 9.05333C17.2608 8.92168 17.4128 8.81696 17.5809 8.74543C17.7491 8.67389 17.9299 8.63701 18.1126 8.63701C18.2954 8.63701 18.4762 8.67389 18.6444 8.74543C18.8125 8.81696 18.9646 8.92168 19.0913 9.05333C19.4425 9.36141 19.7389 9.72674 19.968 10.1338C20.4565 11.2091 20.7195 12.3731 20.7408 13.5539C20.762 14.7348 20.5411 15.9075 20.0915 16.9996L20.0854 16.9872ZM22.8143 16.9872C22.7094 17.4071 22.6847 17.9443 22.1043 18.0801C20.8262 16.4501 20.8695 10.7142 22.2093 9.20153C22.3698 9.38675 22.5859 9.54727 22.6476 9.75102C22.8241 10.2573 22.9463 10.781 23.012 11.3131C23.2625 13.1961 23.1956 15.1078 22.8143 16.9687V16.9872Z" fill="white"/>
</g>
<defs>
<clipPath id="clip0_1397_32891">
<rect width="27" height="27" fill="white" transform="translate(0.304688 0.15625)"/>
</clipPath>
</defs>
</svg>
