<svg width="28" height="27" viewBox="0 0 28 27" fill="none" xmlns="http://www.w3.org/2000/svg">
<g clip-path="url(#clip0_1397_32882)">
<path d="M0.5 13.6553C0.499838 15.3634 0.836157 17.0548 1.48976 18.633C2.14335 20.2111 3.10142 21.6451 4.30925 22.8529C5.51708 24.0607 6.95102 25.0188 8.52915 25.6724C10.1073 26.326 11.7987 26.6623 13.5068 26.6621H14.4932C16.2013 26.6623 17.8927 26.326 19.4708 25.6724C21.049 25.0188 22.4829 24.0607 23.6907 22.8529C24.8986 21.6451 25.8566 20.2111 26.5102 18.633C27.1638 17.0548 27.5002 15.3634 27.5 13.6553C27.5002 11.9472 27.1638 10.2557 26.5102 8.67759C25.8566 7.09946 24.8986 5.66552 23.6907 4.45769C22.4829 3.24986 21.049 2.29179 19.4708 1.63819C17.8927 0.984595 16.2013 0.648276 14.4932 0.648438H13.5068C11.7987 0.648276 10.1073 0.984595 8.52915 1.63819C6.95102 2.29179 5.51708 3.24986 4.30925 4.45769C3.10142 5.66552 2.14335 7.09946 1.48976 8.67759C0.836157 10.2557 0.499838 11.9472 0.5 13.6553ZM21.8386 20.9588C21.6784 20.9588 21.5181 20.9404 21.3578 20.9391C20.2088 20.9391 19.0597 20.9391 17.9058 20.9391C17.824 20.9459 17.742 20.9301 17.6685 20.8936C17.5951 20.8571 17.533 20.8012 17.489 20.732C16.5212 19.4215 15.5423 18.1183 14.5671 16.8127C14.2293 16.359 13.8903 15.9069 13.55 15.4565C13.5007 15.3912 13.4427 15.3332 13.3799 15.263C13.3361 15.2882 13.2949 15.3175 13.2566 15.3505C12.8164 15.819 12.3788 16.2899 11.9386 16.7584C11.5762 17.1431 11.2112 17.5241 10.8488 17.9087C10.1633 18.6402 9.47863 19.3721 8.7948 20.1045C8.5963 20.3178 8.38918 20.5236 8.20548 20.748C8.15362 20.8138 8.0872 20.8666 8.01147 20.9023C7.93574 20.938 7.85276 20.9557 7.76904 20.9539C7.49411 20.9539 7.21918 20.9539 6.94548 20.9539C6.93192 20.9539 6.91836 20.9428 6.88384 20.9268C6.89919 20.8831 6.92033 20.8416 6.94671 20.8035C7.19328 20.5384 7.43986 20.2771 7.68644 20.0157C8.20507 19.4634 8.72411 18.9114 9.24356 18.3599C9.66274 17.9124 10.0758 17.4612 10.4949 17.0149C10.9881 16.4835 11.4936 15.9583 11.9904 15.4269C12.2469 15.1532 12.4959 14.8734 12.7462 14.5947C12.7711 14.5612 12.7933 14.5257 12.8127 14.4887C10.829 11.8171 8.82685 9.16268 6.82589 6.46268C6.93192 6.46268 6.99726 6.44912 7.06383 6.44912C8.37315 6.44912 9.6837 6.44912 10.993 6.44912C11.0641 6.44474 11.1351 6.45946 11.1987 6.49176C11.2622 6.52406 11.3159 6.57276 11.3542 6.63282C11.8901 7.35939 12.4297 8.0831 12.973 8.80392C13.5401 9.56419 14.1081 10.3241 14.6768 11.0835C14.8186 11.2734 14.9579 11.4657 15.1022 11.6531C15.1527 11.7184 15.2144 11.7764 15.276 11.843C15.3199 11.8198 15.3612 11.7921 15.3993 11.7604C15.7667 11.3708 16.1329 10.9795 16.4978 10.5867L16.7444 10.3191C17.3386 9.68173 17.9329 9.04186 18.5284 8.4057C18.8686 8.03583 19.2138 7.68323 19.5553 7.322C19.7908 7.07542 20.0251 6.81899 20.2606 6.56748C20.2814 6.53517 20.3096 6.50819 20.3428 6.48871C20.376 6.46923 20.4132 6.45778 20.4516 6.45528H21.5612C21.2703 6.77213 21.0188 7.04953 20.7636 7.3183C20.3505 7.75967 19.9326 8.19611 19.5208 8.63871C18.9882 9.20953 18.4618 9.78652 17.9304 10.3573C17.399 10.9282 16.8714 11.4842 16.3437 12.0488C16.1773 12.2276 16.0158 12.4113 15.8394 12.6049C15.871 12.665 15.9055 12.7234 15.943 12.7799C16.529 13.5665 17.1147 14.3515 17.6999 15.1347C18.0845 15.6501 18.4643 16.1679 18.8501 16.6808C19.2126 17.1641 19.5825 17.6424 19.9437 18.1269C20.4837 18.8494 21.0175 19.5768 21.5551 20.3017C21.6784 20.462 21.8016 20.6173 21.9151 20.7776C21.9453 20.8277 21.9725 20.8796 21.9964 20.933C21.9446 20.946 21.8919 20.9546 21.8386 20.9588Z" fill="white"/>
</g>
<defs>
<clipPath id="clip0_1397_32882">
<rect width="27" height="26.0137" fill="white" transform="translate(0.5 0.648438)"/>
</clipPath>
</defs>
</svg>
