<svg width="390" height="193" viewBox="0 0 390 193" fill="none" xmlns="http://www.w3.org/2000/svg">
<g clip-path="url(#clip0_1393_30760)" filter="url(#filter0_d_1393_30760)">
<rect x="-133" y="24.2344" width="657" height="169" fill="url(#paint0_linear_1393_30760)"/>
<path d="M318.789 114.238H343.059C343.977 114.238 344.841 114.382 345.504 115.111C346 115.626 346.272 116.316 346.262 117.031C346.255 125.756 346.255 134.48 346.262 143.205C346.262 144.8 345.112 145.955 343.501 145.969C341.958 145.984 340.415 145.985 338.871 145.969C338.697 145.962 338.524 145.994 338.364 146.061C338.203 146.128 338.059 146.23 337.942 146.359C335.575 148.705 333.199 151.042 330.815 153.37C330.68 153.502 330.569 153.783 330.33 153.658C330.151 153.566 330.241 153.315 330.244 153.137C330.285 151.037 330.333 148.937 330.388 146.835C330.409 145.972 330.417 145.972 329.58 145.972C317.798 145.972 306.017 145.972 294.237 145.972C292.977 145.972 292.011 145.521 291.464 144.336C291.296 143.932 291.218 143.496 291.237 143.058C291.237 134.458 291.237 125.859 291.237 117.26C291.237 115.351 292.337 114.239 294.272 114.239C296.502 114.228 298.73 114.239 300.965 114.239L318.789 114.238ZM337.547 140.514C337.547 141.071 337.57 141.468 337.547 141.86C337.524 142.253 337.646 142.401 338.067 142.395C339.631 142.372 341.194 142.372 342.757 142.395C343.189 142.403 343.322 142.276 343.321 141.836C343.309 135.008 343.309 128.179 343.321 121.351C343.321 120.862 343.156 120.759 342.71 120.766C341.208 120.789 339.707 120.796 338.207 120.766C337.698 120.756 337.535 120.885 337.54 121.414C337.564 124.537 337.561 127.66 337.548 130.782C337.548 132.464 337.32 134.106 336.434 135.587C335.44 137.244 333.566 138.032 331.392 137.706C329.781 137.467 328.494 136.2 328.045 134.398C327.893 133.706 327.825 132.999 327.844 132.291C327.844 128.647 327.835 125.004 327.854 121.361C327.854 120.894 327.73 120.757 327.26 120.766C325.738 120.795 324.215 120.799 322.694 120.766C322.176 120.754 322.081 120.946 322.083 121.413C322.098 125.618 322.083 129.823 322.094 134.03C322.094 136.03 322.525 137.923 323.718 139.57C325.971 142.696 329.144 143.409 332.748 142.877C334.534 142.618 336.102 141.84 337.547 140.514ZM293.325 131.615C293.285 133.968 293.836 136.16 295.195 138.103C298.06 142.21 302.847 143.824 307.648 142.72C311.557 141.822 314.282 139.475 315.586 135.6C315.769 135.055 315.653 134.854 315.085 134.729C313.744 134.441 312.412 134.089 311.091 133.722C310.585 133.578 310.399 133.69 310.198 134.187C309.855 135.04 309.315 135.799 308.622 136.404C307.93 137.009 307.104 137.442 306.212 137.667C305.321 137.892 304.389 137.903 303.492 137.7C302.596 137.496 301.76 137.084 301.053 136.496C299.056 134.855 298.632 132.651 299.018 130.226C299.449 127.567 301.566 125.65 304.273 125.433C307.254 125.194 309.151 126.421 310.081 129.239C310.209 129.626 310.353 129.671 310.698 129.569C312.217 129.127 313.737 128.686 315.267 128.283C315.739 128.159 315.73 127.948 315.595 127.573C315.18 126.392 314.57 125.29 313.792 124.311C310.747 120.527 305.537 119.145 300.713 120.835C297.096 122.093 293.182 125.773 293.325 131.615Z" fill="white"/>
<path d="M281.453 130.316C281.453 131.691 281.426 133.065 281.453 134.438C281.513 136.812 282.976 137.99 285.336 137.626C286.161 137.502 286.96 137.243 287.702 136.86C288.057 136.676 288.224 136.689 288.359 137.109C288.767 138.374 289.199 139.632 289.653 140.882C289.797 141.294 289.754 141.495 289.34 141.701C286.36 143.176 283.299 143.556 280.156 142.319C277.382 141.227 276.112 138.997 275.762 136.151C275.571 134.595 275.657 133.031 275.649 131.471C275.638 129.66 275.634 127.848 275.649 126.038C275.649 125.606 275.542 125.463 275.093 125.47C273.927 125.5 272.759 125.47 271.592 125.488C271.177 125.497 271.003 125.412 271.016 124.949C271.048 123.722 271.042 122.493 271.016 121.265C271.016 120.885 271.11 120.763 271.504 120.771C272.69 120.797 273.881 120.755 275.068 120.793C275.555 120.809 275.654 120.64 275.643 120.19C275.62 118.4 275.643 116.609 275.623 114.819C275.623 114.343 275.766 114.225 276.221 114.235C277.764 114.264 279.307 114.259 280.849 114.235C281.28 114.235 281.424 114.34 281.416 114.787C281.391 116.536 281.431 118.285 281.391 120.034C281.378 120.609 281.49 120.812 282.123 120.797C284.062 120.748 286.006 120.797 287.939 120.768C288.385 120.768 288.5 120.896 288.49 121.328C288.461 122.514 288.449 123.702 288.49 124.887C288.51 125.415 288.313 125.493 287.85 125.488C285.911 125.465 283.967 125.5 282.034 125.464C281.493 125.454 281.378 125.628 281.39 126.131C281.423 127.525 281.401 128.92 281.401 130.315L281.453 130.316Z" fill="white"/>
<g opacity="0.89">
<path d="M80.2555 119.49C81.3155 118.298 82.5106 117.849 83.8811 117.874C86.326 117.92 88.0906 119.51 88.3063 122.044C88.5651 125.079 88.3537 128.128 88.4141 131.169C88.4242 131.691 88.1092 131.647 87.7727 131.645C86.6078 131.645 85.4429 131.618 84.278 131.655C83.7488 131.673 83.6409 131.476 83.6467 130.991C83.6697 128.842 83.6582 126.695 83.6553 124.547C83.6761 124.159 83.6353 123.771 83.5345 123.396C83.3188 122.73 82.896 122.329 82.1899 122.27C81.4837 122.211 80.9099 122.499 80.5705 123.152C80.3159 123.641 80.2699 124.171 80.2714 124.715C80.2714 126.773 80.2584 128.832 80.2843 130.89C80.2915 131.433 80.2038 131.69 79.5652 131.66C78.4334 131.605 77.2959 131.628 76.1612 131.651C75.7297 131.661 75.5312 131.578 75.5312 131.076C75.5485 124.99 75.5485 118.902 75.5312 112.811C75.5312 112.312 75.7125 112.22 76.1568 112.236C77.2915 112.262 78.4277 112.272 79.5609 112.236C80.1031 112.216 80.28 112.354 80.2656 112.922C80.234 115.031 80.2555 117.149 80.2555 119.49Z" fill="white"/>
<path d="M69.3882 119.357C69.0747 118.115 69.765 118.154 70.5071 118.18C71.4318 118.213 72.3594 118.205 73.2856 118.18C73.7501 118.167 73.9744 118.24 73.9716 118.799C73.9476 122.89 73.9476 126.979 73.9716 131.068C73.9716 131.567 73.8047 131.669 73.3603 131.658C72.345 131.635 71.3254 131.602 70.3129 131.666C69.5938 131.714 69.1624 131.559 69.289 130.712C66.5852 132.39 64.1519 132.388 62.0263 130.749C59.7037 128.958 58.7416 125.563 59.7095 122.572C60.8399 119.08 64.2253 117.125 67.3791 118.131C68.0953 118.358 68.6907 118.779 69.3882 119.357ZM66.7521 127.699C67.1184 127.701 67.4814 127.628 67.819 127.486C68.1567 127.344 68.462 127.135 68.7166 126.872C68.9712 126.608 69.1697 126.296 69.3002 125.954C69.4307 125.611 69.4905 125.246 69.4759 124.88C69.4634 124.155 69.1648 123.464 68.6452 122.958C68.1255 122.452 67.427 122.172 66.7017 122.179C66.3353 122.176 65.972 122.247 65.6332 122.387C65.2944 122.526 64.9869 122.732 64.7289 122.992C64.4708 123.253 64.2674 123.562 64.1305 123.902C63.9937 124.242 63.9261 124.606 63.9319 124.972C63.9434 126.531 65.1629 127.709 66.7521 127.691V127.699Z" fill="white"/>
<path d="M44 118.187C45.6179 118.187 47.1121 118.213 48.6021 118.172C49.1227 118.158 49.2492 118.437 49.3959 118.818C50.312 121.171 51.2367 123.529 52.1571 125.882C52.4707 125.882 52.4189 125.595 52.4879 125.428C53.358 123.245 54.2482 121.067 55.0766 118.867C55.2837 118.315 55.554 118.158 56.112 118.174C57.4855 118.213 58.8603 118.187 60.2237 118.187C60.392 118.474 60.1748 118.666 60.0928 118.864C57.7544 124.529 55.3959 130.185 53.0689 135.854C52.836 136.422 52.5886 136.688 51.9184 136.658C50.5507 136.596 49.1788 136.64 47.6932 136.64C48.3044 135.177 48.8437 133.795 49.4606 132.455C49.7022 131.935 49.6548 131.54 49.4419 131.044C47.6299 126.807 45.8466 122.56 44 118.187Z" fill="white"/>
<path d="M111.752 131.996C107.625 131.996 104.562 128.976 104.57 124.922C104.579 120.868 107.691 117.849 111.796 117.875C115.857 117.901 118.933 120.931 118.949 124.922C118.965 128.952 115.864 131.995 111.752 131.996ZM109.088 124.913C109.069 126.442 110.175 127.62 111.666 127.659C112.025 127.673 112.383 127.614 112.718 127.486C113.054 127.359 113.36 127.164 113.618 126.915C113.877 126.666 114.082 126.368 114.223 126.037C114.363 125.707 114.435 125.351 114.435 124.993C114.446 124.642 114.388 124.292 114.264 123.964C114.139 123.636 113.95 123.336 113.708 123.081C113.466 122.827 113.176 122.623 112.855 122.482C112.533 122.341 112.187 122.266 111.836 122.26C110.277 122.211 109.105 123.343 109.088 124.913Z" fill="white"/>
<path d="M96.5419 131.996C92.4259 131.979 89.3727 128.937 89.3986 124.88C89.4245 120.889 92.5122 117.878 96.5893 117.875C100.691 117.875 103.78 120.922 103.78 124.964C103.78 129.005 100.672 132.013 96.5419 131.996ZM96.5821 122.248C96.2307 122.243 95.8818 122.308 95.5557 122.439C95.2297 122.57 94.9331 122.765 94.6834 123.012C94.4337 123.259 94.2359 123.554 94.1016 123.879C93.9673 124.203 93.8993 124.552 93.9014 124.903C93.8896 125.262 93.9504 125.619 94.0802 125.954C94.2101 126.289 94.4062 126.593 94.6569 126.85C94.9076 127.107 95.2076 127.311 95.5389 127.449C95.8703 127.587 96.2261 127.656 96.585 127.653C96.944 127.656 97.2998 127.586 97.6311 127.448C97.9623 127.309 98.2621 127.105 98.5123 126.848C98.7626 126.591 98.9581 126.285 99.0871 125.95C99.2161 125.615 99.2759 125.258 99.2628 124.899C99.2658 124.547 99.1982 124.199 99.0642 123.874C98.9301 123.549 98.7323 123.254 98.4824 123.007C98.2324 122.76 97.9355 122.566 97.6091 122.435C97.2827 122.305 96.9335 122.241 96.5821 122.248Z" fill="white"/>
<path d="M131.915 112.245C130.264 116.24 128.666 120.106 127.07 123.973C126.965 124.229 126.867 124.442 126.517 124.439C124.792 124.426 123.08 124.439 121.242 124.439C122.06 122.466 122.831 120.609 123.599 118.75C124.403 116.801 125.205 114.852 126.005 112.901C126.149 112.541 126.256 112.222 126.789 112.235C128.459 112.271 130.128 112.245 131.915 112.245Z" fill="white"/>
<path d="M100.15 137.313C100.096 136.776 100.281 136.634 100.747 136.62C102.889 136.553 102.889 136.536 102.889 138.659C102.889 140.297 102.873 141.936 102.899 143.574C102.906 144.089 102.799 144.357 102.216 144.301C101.74 144.258 101.261 144.258 100.785 144.301C100.31 144.342 100.087 144.164 100.139 143.654C98.3196 144.867 96.5651 144.719 95.3498 143.3C94.0138 141.739 94.0555 139.059 95.4476 137.537C96.6729 136.195 98.4404 136.075 100.15 137.313ZM98.6993 141.994C98.9006 141.994 99.0999 141.954 99.2855 141.876C99.4711 141.798 99.6394 141.684 99.7804 141.54C99.9215 141.396 100.033 141.226 100.107 141.039C100.182 140.852 100.219 140.652 100.215 140.451C100.214 140.249 100.173 140.05 100.095 139.864C100.017 139.679 99.9031 139.51 99.7598 139.369C99.6164 139.227 99.4465 139.116 99.2598 139.04C99.0732 138.964 98.8734 138.926 98.6719 138.928C98.4634 138.926 98.2568 138.967 98.0642 139.047C97.8717 139.127 97.6972 139.245 97.5511 139.394C97.405 139.542 97.2903 139.719 97.2138 139.913C97.1373 140.107 97.1006 140.314 97.1058 140.523C97.123 140.929 97.3003 141.311 97.5989 141.587C97.8975 141.863 98.2931 142.009 98.6993 141.994Z" fill="white"/>
<path d="M106.796 137.483C107.824 136.405 108.83 136.211 109.936 136.62C111.042 137.028 111.487 137.927 111.538 138.994C111.613 140.599 111.761 142.239 111.519 143.809C111.359 144.846 110.187 144.082 109.497 144.274C109.119 144.378 108.739 144.34 108.762 143.723C108.804 142.591 108.771 141.458 108.775 140.326C108.775 139.648 108.666 138.985 107.83 138.99C107.018 138.99 106.849 139.656 106.838 140.324C106.819 141.426 106.811 142.529 106.838 143.632C106.852 144.131 106.703 144.291 106.186 144.304C104.067 144.357 104.067 144.376 104.067 142.246C104.067 140.606 104.087 138.967 104.055 137.329C104.045 136.781 104.213 136.577 104.764 136.624C105.243 136.664 105.724 136.664 106.202 136.624C106.685 136.581 106.913 136.758 106.796 137.483Z" fill="white"/>
<path d="M88.8625 137.462C89.8879 136.406 90.896 136.206 92.0005 136.628C93.0777 137.041 93.5336 137.941 93.5825 139.022C93.6415 140.604 93.7781 142.205 93.5825 143.76C93.4387 144.867 92.327 144.103 91.6726 144.267C91.3332 144.354 90.7997 144.479 90.8213 143.751C90.8529 142.648 90.8213 141.542 90.8313 140.443C90.8313 139.752 90.7954 139.068 89.9008 138.982C89.2637 138.92 88.8941 139.491 88.8941 140.486C88.8941 141.532 88.874 142.577 88.8941 143.622C88.9056 144.096 88.8035 144.297 88.2599 144.31C86.12 144.365 86.1214 144.388 86.1214 142.261C86.1214 140.619 86.1401 138.976 86.1099 137.335C86.0984 136.785 86.2738 136.583 86.829 136.629C87.3075 136.671 87.7886 136.671 88.2671 136.629C88.7489 136.578 88.9545 136.777 88.8625 137.462Z" fill="white"/>
<path d="M124.067 141.183C123.381 141.183 122.694 141.183 122.008 141.183C121.842 141.183 121.632 141.125 121.547 141.345C121.463 141.565 121.622 141.684 121.727 141.82C122.159 142.376 122.973 142.478 123.676 142.074C124.107 141.83 126.029 142.182 126.28 142.576C126.483 142.893 126.145 143.054 125.993 143.228C124.9 144.487 122.652 144.879 120.936 144.128C119.387 143.451 118.539 141.844 118.762 140.008C119.034 137.763 120.83 136.294 123.122 136.44C125.239 136.575 126.718 138.252 126.735 140.466C126.735 141.006 126.6 141.223 126.036 141.185C125.387 141.149 124.729 141.183 124.067 141.183ZM122.731 139.601C122.82 139.616 122.91 139.616 122.999 139.601C123.316 139.48 123.91 139.91 123.933 139.337C123.952 138.892 123.446 138.618 122.957 138.582C122.749 138.56 122.539 138.573 122.336 138.623C121.949 138.732 121.519 138.958 121.562 139.372C121.608 139.826 122.094 139.516 122.373 139.601C122.494 139.614 122.615 139.612 122.735 139.595L122.731 139.601Z" fill="white"/>
<path d="M76.5363 141.559C76.5363 140.993 76.5363 140.428 76.5363 139.861C76.5363 139.363 76.6672 138.797 75.8345 138.889C75.6102 138.913 75.5469 138.712 75.5469 138.519C75.5469 138.012 75.5469 137.505 75.5469 136.999C75.5469 136.804 75.626 136.612 75.8475 136.647C76.6068 136.763 76.5219 136.215 76.5938 135.759C76.9189 133.703 78.5641 132.583 80.6206 132.977C81.1111 133.07 81.3843 133.238 81.311 133.783C81.2786 134.05 81.2786 134.319 81.311 134.586C81.3714 135.145 81.298 135.516 80.5804 135.34C80.4187 135.301 80.2498 135.304 80.0899 135.35C79.9301 135.396 79.7849 135.482 79.6686 135.601C79.4442 135.82 79.286 136.089 79.3551 136.399C79.4414 136.791 79.7937 136.571 80.0253 136.632C80.4035 136.73 81.0075 136.372 81.1384 136.858C81.2951 137.433 81.216 138.101 81.1499 138.718C81.1168 139.014 80.7544 138.896 80.5329 138.905C79.3306 138.954 79.3306 138.949 79.3306 140.16C79.3306 141.322 79.3062 142.486 79.3421 143.646C79.3594 144.168 79.1739 144.291 78.6792 144.302C76.5219 144.355 76.5219 144.371 76.5219 142.276C76.5349 142.037 76.5349 141.798 76.5363 141.559Z" fill="white"/>
<path d="M118.237 141.589C118.237 142.152 118.171 142.611 118.25 143.042C118.438 144.067 117.85 144.336 117.019 144.459C115.346 144.699 113.711 143.994 112.904 142.67C112.06 141.282 112.139 139.313 113.091 138.019C114.043 136.724 115.788 136.172 117.418 136.543C118.068 136.687 118.323 136.974 118.248 137.646C118.189 138.165 118.237 138.697 118.237 139.299C117.165 138.889 116.162 138.63 115.406 139.651C115.217 139.89 115.116 140.187 115.121 140.492C115.127 140.796 115.238 141.09 115.435 141.322C116.195 142.267 117.16 142.054 118.237 141.589Z" fill="white"/>
<path d="M84.9387 140.525C84.9387 141.568 84.9157 142.611 84.9488 143.652C84.966 144.167 84.782 144.296 84.2844 144.306C82.1761 144.354 82.1761 144.371 82.1761 142.239C82.1761 140.601 82.1976 138.963 82.1645 137.327C82.153 136.77 82.3443 136.631 82.8836 136.624C84.9416 136.595 84.9416 136.576 84.9416 138.65L84.9387 140.525Z" fill="white"/>
<path d="M83.5497 135.931C83.3488 135.937 83.149 135.902 82.9619 135.828C82.7749 135.755 82.6045 135.645 82.4608 135.504C82.317 135.364 82.2029 135.196 82.1251 135.011C82.0474 134.826 82.0075 134.627 82.008 134.426C82.0021 134.02 82.1564 133.628 82.4374 133.335C82.7184 133.042 83.1035 132.871 83.5094 132.86C83.7176 132.856 83.9245 132.894 84.1179 132.971C84.3113 133.049 84.4875 133.163 84.6361 133.309C84.7848 133.455 84.903 133.629 84.9838 133.821C85.0647 134.013 85.1066 134.219 85.1072 134.427C85.1 134.833 84.9319 135.22 84.6398 135.502C84.3478 135.784 83.9556 135.938 83.5497 135.931Z" fill="white"/>
<path d="M122.73 125.625C123.134 125.619 123.535 125.694 123.909 125.845C124.284 125.997 124.625 126.221 124.911 126.506C125.198 126.791 125.425 127.13 125.578 127.503C125.732 127.877 125.809 128.277 125.806 128.681C125.811 129.108 125.73 129.531 125.569 129.926C125.407 130.32 125.169 130.679 124.867 130.98C124.566 131.282 124.207 131.52 123.812 131.681C123.417 131.842 122.994 131.922 122.567 131.917C121.751 131.904 120.974 131.569 120.405 130.984C119.836 130.399 119.522 129.612 119.531 128.796C119.53 128.377 119.613 127.962 119.773 127.575C119.934 127.188 120.17 126.837 120.468 126.542C120.765 126.247 121.119 126.014 121.507 125.857C121.895 125.699 122.311 125.621 122.73 125.625Z" fill="white"/>
</g>
<path d="M188.453 139.878V127.458C188.995 127.401 189.529 127.441 190.061 127.434C190.186 127.434 190.234 127.506 190.241 127.619C190.235 127.672 190.241 127.724 190.258 127.774C190.275 127.824 190.303 127.869 190.339 127.907C190.492 127.965 190.58 127.819 190.691 127.763C192.583 126.693 195.043 127.217 195.868 129.608C196.41 131.145 196.405 132.821 195.855 134.354C195.656 134.961 195.294 135.502 194.808 135.918C193.636 136.893 192.335 136.881 190.981 136.365C190.815 136.302 190.656 136.221 190.494 136.148C190.481 136.148 190.458 136.162 190.385 136.194V139.861C189.742 139.907 189.097 139.913 188.453 139.878ZM190.366 132.003C190.366 132.519 190.39 133.038 190.359 133.555C190.348 133.723 190.377 133.891 190.441 134.046C190.506 134.201 190.606 134.34 190.733 134.451C191.352 135.073 192.382 135.127 193.021 134.859C193.553 134.638 193.863 134.198 194.049 133.674C194.355 132.811 194.371 131.922 194.245 131.025C194.192 130.65 194.071 130.289 193.888 129.958C193.221 128.746 191.367 128.695 190.573 129.732C190.432 129.899 190.356 130.112 190.362 130.33C190.377 130.884 190.366 131.442 190.366 132.003Z" fill="white"/>
<path d="M210.544 139.885H208.648V127.488C209.159 127.376 209.695 127.445 210.23 127.448C210.545 127.448 210.354 127.777 210.492 127.924C210.535 127.924 210.607 127.933 210.645 127.902C211.22 127.446 211.903 127.283 212.6 127.248C213.761 127.189 214.758 127.574 215.477 128.542C215.977 129.243 216.282 130.063 216.361 130.92C216.505 132.141 216.453 133.34 215.977 134.496C215.821 134.863 215.619 135.207 215.375 135.522C214.382 136.829 212.533 136.968 211.18 136.385C211.001 136.308 210.85 136.157 210.591 136.167C210.508 136.776 210.565 137.385 210.555 137.991C210.545 138.596 210.544 139.218 210.544 139.885ZM210.544 131.956C210.544 132.532 210.544 133.107 210.544 133.682C210.534 133.881 210.594 134.078 210.714 134.237C211.474 135.258 213.498 135.399 214.136 133.884C214.297 133.498 214.402 133.092 214.448 132.677C214.569 131.887 214.497 131.079 214.24 130.323C213.653 128.726 211.758 128.689 210.901 129.558C210.781 129.662 210.686 129.791 210.624 129.937C210.561 130.083 210.532 130.241 210.54 130.399C210.565 130.92 210.544 131.434 210.544 131.956Z" fill="white"/>
<path d="M199.541 130.286C198.985 130.286 198.465 130.277 197.946 130.286C197.703 130.286 197.64 130.188 197.644 129.965C197.66 129.422 197.878 128.904 198.257 128.514C199.207 127.472 200.436 127.17 201.792 127.267C202.333 127.292 202.86 127.443 203.332 127.707C204.274 128.263 204.741 129.102 204.77 130.174C204.795 131.324 204.782 132.486 204.77 133.643C204.77 134.48 204.77 135.315 205.068 136.118C205.095 136.256 205.105 136.398 205.097 136.539C204.488 136.571 203.894 136.551 203.302 136.552C203.252 136.551 203.203 136.533 203.164 136.501C203.125 136.47 203.097 136.426 203.086 136.377C203.042 136.247 202.993 136.118 202.942 135.991C202.712 135.928 202.604 136.112 202.462 136.195C201.989 136.481 201.458 136.654 200.908 136.702C200.358 136.75 199.804 136.672 199.289 136.473C198.199 136.086 197.545 135.279 197.456 134.113C197.365 132.911 197.86 131.982 198.93 131.389C199.718 130.958 200.588 130.834 201.473 130.805C201.904 130.791 202.347 130.805 202.776 130.805C202.932 129.681 202.514 129.066 201.53 128.915C200.515 128.757 199.695 129.301 199.541 130.286ZM202.849 132.374C202.209 132.374 201.632 132.35 201.057 132.383C200.698 132.403 200.348 132.501 200.032 132.67C199.813 132.772 199.633 132.941 199.517 133.152C199.402 133.364 199.357 133.607 199.389 133.845C199.415 134.085 199.515 134.31 199.675 134.49C199.834 134.67 200.046 134.797 200.28 134.852C201.175 135.091 201.924 134.803 202.581 134.195C202.678 134.108 202.753 134.001 202.801 133.881C202.849 133.761 202.869 133.631 202.859 133.502C202.832 133.155 202.846 132.797 202.846 132.374H202.849Z" fill="white"/>
<path d="M230.735 132.617H225.144C224.938 132.617 224.856 132.71 224.894 132.918C225.073 133.808 225.483 134.545 226.389 134.856C227.252 135.152 228.085 135.06 228.816 134.462C229.047 134.272 229.266 134.068 229.535 133.829C229.822 134.049 230.162 134.314 230.508 134.573C230.671 134.695 230.672 134.812 230.561 134.976C230.252 135.457 229.836 135.86 229.344 136.152C228.852 136.444 228.299 136.618 227.728 136.66C227.172 136.725 226.608 136.697 226.06 136.579C224.651 136.25 223.678 135.398 223.234 134.074C222.683 132.433 222.735 130.779 223.607 129.219C224.106 128.342 224.925 127.691 225.892 127.404C226.86 127.117 227.901 127.214 228.798 127.677C229.839 128.219 230.334 129.151 230.596 130.234C230.781 130.998 230.761 131.77 230.735 132.617ZM228.794 130.891C228.667 129.523 227.92 128.909 226.9 128.927C225.856 128.942 225.086 129.798 224.993 130.891H228.794Z" fill="white"/>
<path d="M157.412 132.623C157.451 133.721 157.996 134.574 158.893 134.863C160.148 135.267 161.164 134.863 161.962 133.776C162.326 134.054 162.667 134.318 163.015 134.574C163.173 134.692 163.196 134.801 163.08 134.974C162.768 135.453 162.351 135.854 161.861 136.147C161.371 136.44 160.82 136.617 160.251 136.665C159.695 136.739 159.13 136.714 158.583 136.592C156.814 136.145 155.803 134.978 155.511 133.24C155.315 132.08 155.347 130.897 155.829 129.775C156.29 128.701 157.028 127.891 158.147 127.497C160.007 126.841 162.3 127.438 163.022 129.922C163.135 130.345 163.207 130.779 163.235 131.216C163.275 131.648 163.245 132.089 163.245 132.562C162.782 132.689 162.306 132.608 161.837 132.621C161.337 132.636 160.831 132.621 160.336 132.621H157.412V132.623ZM161.314 130.897C161.041 129.512 160.409 128.871 159.411 128.919C158.413 128.968 157.629 129.759 157.5 130.897H161.314Z" fill="white"/>
<path d="M186.999 131.981C187.016 133.063 186.792 134.078 186.181 134.984C185.437 136.086 184.38 136.625 183.054 136.686C181.81 136.743 180.727 136.398 179.863 135.482C179.297 134.885 178.918 134.135 178.773 133.325C178.546 132.111 178.569 130.914 179.039 129.748C179.381 128.901 180.001 128.195 180.798 127.748C181.594 127.301 182.52 127.139 183.421 127.289C185.387 127.635 186.753 129.065 186.95 131.085C186.979 131.385 186.983 131.684 186.999 131.981ZM185.055 132.001C185.084 131.522 185.03 131.041 184.894 130.581C184.587 129.583 183.719 128.863 182.795 128.925C181.825 128.99 181.154 129.38 180.782 130.576C180.504 131.456 180.49 132.397 180.742 133.284C180.907 133.89 181.206 134.445 181.79 134.756C182.838 135.314 184.213 135.003 184.776 133.69C184.994 133.157 185.089 132.581 185.055 132.006V132.001Z" fill="white"/>
<path d="M247.44 130.426H245.609C245.544 130.416 245.524 130.388 245.524 130.341C245.51 128.885 243.624 128.644 242.769 129.251C242.645 129.327 242.545 129.436 242.478 129.566C242.411 129.695 242.381 129.84 242.391 129.986C242.401 130.131 242.449 130.271 242.533 130.39C242.616 130.51 242.729 130.605 242.862 130.664C243.381 130.928 243.962 131.011 244.52 131.155C245.14 131.305 245.738 131.532 246.301 131.832C248.027 132.79 247.85 135.163 246.311 136.088C245.714 136.457 245.031 136.662 244.329 136.684C243.522 136.709 242.727 136.669 241.988 136.308C240.882 135.765 240.206 134.918 240.148 133.654C240.153 133.586 240.164 133.518 240.182 133.452H242.028C242.058 133.551 242.091 133.643 242.114 133.739C242.309 134.55 242.799 134.966 243.63 134.99C244.086 135.003 244.551 135.052 244.982 134.822C245.319 134.641 245.572 134.422 245.57 133.999C245.569 133.577 245.359 133.335 245.011 133.155C244.436 132.858 243.797 132.776 243.183 132.612C242.602 132.469 242.045 132.243 241.529 131.94C240.074 131.048 240.282 129.208 241.098 128.358C241.986 127.427 243.111 127.18 244.328 127.266C245.133 127.297 245.903 127.602 246.512 128.129C247.181 128.732 247.483 129.475 247.44 130.426Z" fill="white"/>
<path d="M231.706 133.44H233.522C233.598 133.481 233.609 133.558 233.62 133.638C233.745 134.452 234.292 134.954 235.117 134.981C235.474 134.993 235.836 135.032 236.191 134.928C236.781 134.757 237.083 134.464 237.108 134.034C237.132 133.604 236.892 133.283 236.309 133.04C235.793 132.824 235.238 132.742 234.7 132.601C234.158 132.467 233.635 132.263 233.145 131.993C231.633 131.13 231.733 129.33 232.587 128.398C233.171 127.757 233.975 127.358 234.838 127.282C235.845 127.167 236.797 127.289 237.655 127.84C238.569 128.425 239.03 129.261 238.933 130.401H237.074C236.99 130.349 237.017 130.243 237.01 130.146C236.961 129.55 236.578 129.222 236.059 129.03C235.598 128.859 235.113 128.918 234.648 129.048C234.512 129.084 234.384 129.148 234.274 129.236C234.164 129.325 234.074 129.436 234.01 129.561C233.784 130.005 233.926 130.424 234.391 130.653C234.896 130.903 235.447 131.012 235.989 131.14C236.494 131.254 236.986 131.419 237.457 131.633C238.35 132.046 238.969 132.673 239.039 133.709C239.109 134.819 238.608 135.619 237.671 136.181C236.463 136.9 234.054 136.917 232.782 135.853C232.052 135.233 231.621 134.468 231.706 133.44Z" fill="white"/>
<path d="M171.783 136.54H170.027C169.867 136.421 170.004 136.211 169.823 136.077C169.089 136.614 168.241 136.7 167.336 136.688C166.22 136.674 164.952 136.033 164.628 134.433C164.548 134.063 164.505 133.686 164.5 133.307C164.5 131.474 164.5 129.639 164.5 127.805V127.474C165.141 127.398 165.751 127.443 166.344 127.444C166.488 127.609 166.427 127.775 166.427 127.927C166.427 129.561 166.427 131.196 166.427 132.831C166.43 133.129 166.45 133.427 166.489 133.723C166.591 134.508 166.984 134.891 167.769 134.978C168.25 135.037 168.736 134.932 169.151 134.682C169.614 134.402 169.899 134.023 169.887 133.415C169.856 131.642 169.876 129.867 169.876 128.094V127.471H171.783V136.54Z" fill="white"/>
<path d="M175.549 136.553H173.664V127.431C174.209 127.431 174.744 127.447 175.278 127.431C175.6 127.418 175.469 127.719 175.634 127.854C176.058 127.53 176.559 127.324 177.088 127.257C177.266 127.233 177.446 127.228 177.625 127.243C178.227 127.316 178.285 127.386 178.285 127.988C178.285 128.365 178.285 128.744 178.285 129.122C178.279 129.143 178.269 129.163 178.257 129.181C178.135 129.295 178.002 129.209 177.872 129.181C177.307 129.091 176.752 129.102 176.247 129.407C176.026 129.523 175.843 129.699 175.719 129.915C175.595 130.132 175.535 130.379 175.547 130.628C175.568 132.38 175.554 134.133 175.554 135.884L175.549 136.553Z" fill="white"/>
<path d="M222.54 129.242C222.139 129.206 221.808 129.121 221.467 129.141C221.065 129.146 220.675 129.275 220.348 129.509C220.175 129.627 220.034 129.785 219.938 129.971C219.842 130.156 219.793 130.363 219.797 130.572C219.813 132.344 219.797 134.116 219.797 135.893V136.509C219.472 136.611 219.153 136.553 218.841 136.563C218.529 136.573 218.244 136.563 217.906 136.563V127.441C218.45 127.441 218.985 127.458 219.518 127.441C219.841 127.427 219.714 127.729 219.875 127.873C220.3 127.548 220.804 127.341 221.335 127.273C221.513 127.249 221.692 127.244 221.871 127.257C222.475 127.33 222.531 127.401 222.533 128.001C222.54 128.379 222.54 128.776 222.54 129.242Z" fill="white"/>
<path d="M103.106 62.3868C103.106 63.4321 102.854 64.4121 102.35 65.3268C101.865 66.2415 101.09 66.9788 100.026 67.5388C98.9805 68.0988 97.6552 68.3788 96.0499 68.3788H92.7739V75.8828H88.8539V56.3388H96.0499C97.5619 56.3388 98.8499 56.6001 99.9139 57.1228C100.978 57.6455 101.771 58.3641 102.294 59.2788C102.835 60.1935 103.106 61.2295 103.106 62.3868ZM95.8819 65.2148C96.9645 65.2148 97.7672 64.9721 98.2899 64.4868C98.8125 63.9828 99.0739 63.2828 99.0739 62.3868C99.0739 60.4828 98.0099 59.5308 95.8819 59.5308H92.7739V65.2148H95.8819ZM109.809 62.7788C110.313 61.9575 110.966 61.3135 111.769 60.8468C112.59 60.3801 113.524 60.1468 114.569 60.1468V64.2628H113.533C112.301 64.2628 111.368 64.5521 110.733 65.1308C110.117 65.7095 109.809 66.7175 109.809 68.1548V75.8828H105.889V60.3708H109.809V62.7788ZM131.629 67.7908C131.629 68.3508 131.592 68.8548 131.517 69.3028H120.177C120.271 70.4228 120.663 71.3001 121.353 71.9348C122.044 72.5695 122.893 72.8868 123.901 72.8868C125.357 72.8868 126.393 72.2615 127.009 71.0108H131.237C130.789 72.5041 129.931 73.7361 128.661 74.7068C127.392 75.6588 125.833 76.1348 123.985 76.1348C122.492 76.1348 121.148 75.8081 119.953 75.1548C118.777 74.4828 117.853 73.5401 117.181 72.3268C116.528 71.1135 116.201 69.7135 116.201 68.1268C116.201 66.5215 116.528 65.1121 117.181 63.8988C117.835 62.6855 118.749 61.7521 119.925 61.0988C121.101 60.4455 122.455 60.1188 123.985 60.1188C125.46 60.1188 126.776 60.4361 127.933 61.0708C129.109 61.7055 130.015 62.6108 130.649 63.7868C131.303 64.9441 131.629 66.2788 131.629 67.7908ZM127.569 66.6708C127.551 65.6628 127.187 64.8601 126.477 64.2628C125.768 63.6468 124.9 63.3388 123.873 63.3388C122.903 63.3388 122.081 63.6375 121.409 64.2348C120.756 64.8135 120.355 65.6255 120.205 66.6708H127.569ZM140.427 76.1348C139.157 76.1348 138.019 75.9108 137.011 75.4628C136.003 74.9961 135.2 74.3708 134.603 73.5868C134.024 72.8028 133.707 71.9348 133.651 70.9828H137.599C137.673 71.5801 137.963 72.0748 138.467 72.4668C138.989 72.8588 139.633 73.0548 140.399 73.0548C141.145 73.0548 141.724 72.9055 142.135 72.6068C142.564 72.3081 142.779 71.9255 142.779 71.4588C142.779 70.9548 142.517 70.5815 141.995 70.3388C141.491 70.0775 140.679 69.7975 139.559 69.4988C138.401 69.2188 137.449 68.9295 136.703 68.6308C135.975 68.3321 135.34 67.8748 134.799 67.2588C134.276 66.6428 134.015 65.8121 134.015 64.7668C134.015 63.9081 134.257 63.1241 134.743 62.4148C135.247 61.7055 135.956 61.1455 136.871 60.7348C137.804 60.3241 138.896 60.1188 140.147 60.1188C141.995 60.1188 143.469 60.5855 144.571 61.5188C145.672 62.4335 146.279 63.6748 146.391 65.2428H142.639C142.583 64.6268 142.321 64.1415 141.855 63.7868C141.407 63.4135 140.8 63.2268 140.035 63.2268C139.325 63.2268 138.775 63.3575 138.383 63.6188C138.009 63.8801 137.823 64.2441 137.823 64.7108C137.823 65.2335 138.084 65.6348 138.607 65.9148C139.129 66.1761 139.941 66.4468 141.043 66.7268C142.163 67.0068 143.087 67.2961 143.815 67.5948C144.543 67.8935 145.168 68.3601 145.691 68.9948C146.232 69.6108 146.512 70.4321 146.531 71.4588C146.531 72.3548 146.279 73.1575 145.775 73.8668C145.289 74.5761 144.58 75.1361 143.647 75.5468C142.732 75.9388 141.659 76.1348 140.427 76.1348ZM155.684 76.1348C154.415 76.1348 153.276 75.9108 152.268 75.4628C151.26 74.9961 150.458 74.3708 149.86 73.5868C149.282 72.8028 148.964 71.9348 148.908 70.9828H152.856C152.931 71.5801 153.22 72.0748 153.724 72.4668C154.247 72.8588 154.891 73.0548 155.656 73.0548C156.403 73.0548 156.982 72.9055 157.392 72.6068C157.822 72.3081 158.036 71.9255 158.036 71.4588C158.036 70.9548 157.775 70.5815 157.252 70.3388C156.748 70.0775 155.936 69.7975 154.816 69.4988C153.659 69.2188 152.707 68.9295 151.96 68.6308C151.232 68.3321 150.598 67.8748 150.056 67.2588C149.534 66.6428 149.272 65.8121 149.272 64.7668C149.272 63.9081 149.515 63.1241 150 62.4148C150.504 61.7055 151.214 61.1455 152.128 60.7348C153.062 60.3241 154.154 60.1188 155.404 60.1188C157.252 60.1188 158.727 60.5855 159.828 61.5188C160.93 62.4335 161.536 63.6748 161.648 65.2428H157.896C157.84 64.6268 157.579 64.1415 157.112 63.7868C156.664 63.4135 156.058 63.2268 155.292 63.2268C154.583 63.2268 154.032 63.3575 153.64 63.6188C153.267 63.8801 153.08 64.2441 153.08 64.7108C153.08 65.2335 153.342 65.6348 153.864 65.9148C154.387 66.1761 155.199 66.4468 156.3 66.7268C157.42 67.0068 158.344 67.2961 159.072 67.5948C159.8 67.8935 160.426 68.3601 160.948 68.9948C161.49 69.6108 161.77 70.4321 161.788 71.4588C161.788 72.3548 161.536 73.1575 161.032 73.8668C160.547 74.5761 159.838 75.1361 158.904 75.5468C157.99 75.9388 156.916 76.1348 155.684 76.1348ZM181.758 75.8828L177.446 68.2668H175.598V75.8828H171.678V56.3388H179.014C180.526 56.3388 181.814 56.6095 182.878 57.1508C183.942 57.6735 184.735 58.3921 185.258 59.3068C185.799 60.2028 186.07 61.2108 186.07 62.3308C186.07 63.6188 185.697 64.7855 184.95 65.8308C184.203 66.8575 183.093 67.5668 181.618 67.9588L186.294 75.8828H181.758ZM175.598 65.3268H178.874C179.938 65.3268 180.731 65.0748 181.254 64.5708C181.777 64.0481 182.038 63.3295 182.038 62.4148C182.038 61.5188 181.777 60.8281 181.254 60.3428C180.731 59.8388 179.938 59.5868 178.874 59.5868H175.598V65.3268ZM204.036 67.7908C204.036 68.3508 203.998 68.8548 203.924 69.3028H192.584C192.677 70.4228 193.069 71.3001 193.76 71.9348C194.45 72.5695 195.3 72.8868 196.308 72.8868C197.764 72.8868 198.8 72.2615 199.416 71.0108H203.644C203.196 72.5041 202.337 73.7361 201.068 74.7068C199.798 75.6588 198.24 76.1348 196.392 76.1348C194.898 76.1348 193.554 75.8081 192.36 75.1548C191.184 74.4828 190.26 73.5401 189.588 72.3268C188.934 71.1135 188.608 69.7135 188.608 68.1268C188.608 66.5215 188.934 65.1121 189.588 63.8988C190.241 62.6855 191.156 61.7521 192.332 61.0988C193.508 60.4455 194.861 60.1188 196.392 60.1188C197.866 60.1188 199.182 60.4361 200.34 61.0708C201.516 61.7055 202.421 62.6108 203.056 63.7868C203.709 64.9441 204.036 66.2788 204.036 67.7908ZM199.976 66.6708C199.957 65.6628 199.593 64.8601 198.884 64.2628C198.174 63.6468 197.306 63.3388 196.28 63.3388C195.309 63.3388 194.488 63.6375 193.816 64.2348C193.162 64.8135 192.761 65.6255 192.612 66.6708H199.976ZM210.817 55.1628V75.8828H206.897V55.1628H210.817ZM229.11 67.7908C229.11 68.3508 229.072 68.8548 228.998 69.3028H217.658C217.751 70.4228 218.143 71.3001 218.834 71.9348C219.524 72.5695 220.374 72.8868 221.382 72.8868C222.838 72.8868 223.874 72.2615 224.49 71.0108H228.718C228.27 72.5041 227.411 73.7361 226.142 74.7068C224.872 75.6588 223.314 76.1348 221.466 76.1348C219.972 76.1348 218.628 75.8081 217.434 75.1548C216.258 74.4828 215.334 73.5401 214.662 72.3268C214.008 71.1135 213.682 69.7135 213.682 68.1268C213.682 66.5215 214.008 65.1121 214.662 63.8988C215.315 62.6855 216.23 61.7521 217.406 61.0988C218.582 60.4455 219.935 60.1188 221.466 60.1188C222.94 60.1188 224.256 60.4361 225.414 61.0708C226.59 61.7055 227.495 62.6108 228.13 63.7868C228.783 64.9441 229.11 66.2788 229.11 67.7908ZM225.05 66.6708C225.031 65.6628 224.667 64.8601 223.958 64.2628C223.248 63.6468 222.38 63.3388 221.354 63.3388C220.383 63.3388 219.562 63.6375 218.89 64.2348C218.236 64.8135 217.835 65.6255 217.686 66.6708H225.05ZM230.963 68.0708C230.963 66.5028 231.271 65.1121 231.887 63.8988C232.522 62.6855 233.371 61.7521 234.435 61.0988C235.518 60.4455 236.722 60.1188 238.047 60.1188C239.204 60.1188 240.212 60.3521 241.071 60.8188C241.948 61.2855 242.648 61.8735 243.171 62.5828V60.3708H247.119V75.8828H243.171V73.6148C242.667 74.3428 241.967 74.9495 241.071 75.4348C240.194 75.9015 239.176 76.1348 238.019 76.1348C236.712 76.1348 235.518 75.7988 234.435 75.1268C233.371 74.4548 232.522 73.5121 231.887 72.2988C231.271 71.0668 230.963 69.6575 230.963 68.0708ZM243.171 68.1268C243.171 67.1748 242.984 66.3628 242.611 65.6908C242.238 65.0001 241.734 64.4775 241.099 64.1228C240.464 63.7495 239.783 63.5628 239.055 63.5628C238.327 63.5628 237.655 63.7401 237.039 64.0948C236.423 64.4495 235.919 64.9721 235.527 65.6628C235.154 66.3348 234.967 67.1375 234.967 68.0708C234.967 69.0041 235.154 69.8255 235.527 70.5348C235.919 71.2255 236.423 71.7575 237.039 72.1308C237.674 72.5041 238.346 72.6908 239.055 72.6908C239.783 72.6908 240.464 72.5135 241.099 72.1588C241.734 71.7855 242.238 71.2628 242.611 70.5908C242.984 69.9001 243.171 69.0788 243.171 68.1268ZM256.884 76.1348C255.614 76.1348 254.476 75.9108 253.468 75.4628C252.46 74.9961 251.657 74.3708 251.06 73.5868C250.481 72.8028 250.164 71.9348 250.108 70.9828H254.056C254.13 71.5801 254.42 72.0748 254.924 72.4668C255.446 72.8588 256.09 73.0548 256.856 73.0548C257.602 73.0548 258.181 72.9055 258.592 72.6068C259.021 72.3081 259.236 71.9255 259.236 71.4588C259.236 70.9548 258.974 70.5815 258.452 70.3388C257.948 70.0775 257.136 69.7975 256.016 69.4988C254.858 69.2188 253.906 68.9295 253.16 68.6308C252.432 68.3321 251.797 67.8748 251.256 67.2588C250.733 66.6428 250.472 65.8121 250.472 64.7668C250.472 63.9081 250.714 63.1241 251.2 62.4148C251.704 61.7055 252.413 61.1455 253.328 60.7348C254.261 60.3241 255.353 60.1188 256.604 60.1188C258.452 60.1188 259.926 60.5855 261.028 61.5188C262.129 62.4335 262.736 63.6748 262.848 65.2428H259.096C259.04 64.6268 258.778 64.1415 258.312 63.7868C257.864 63.4135 257.257 63.2268 256.492 63.2268C255.782 63.2268 255.232 63.3575 254.84 63.6188C254.466 63.8801 254.28 64.2441 254.28 64.7108C254.28 65.2335 254.541 65.6348 255.064 65.9148C255.586 66.1761 256.398 66.4468 257.5 66.7268C258.62 67.0068 259.544 67.2961 260.272 67.5948C261 67.8935 261.625 68.3601 262.148 68.9948C262.689 69.6108 262.969 70.4321 262.988 71.4588C262.988 72.3548 262.736 73.1575 262.232 73.8668C261.746 74.5761 261.037 75.1361 260.104 75.5468C259.189 75.9388 258.116 76.1348 256.884 76.1348ZM280.625 67.7908C280.625 68.3508 280.588 68.8548 280.513 69.3028H269.173C269.267 70.4228 269.659 71.3001 270.349 71.9348C271.04 72.5695 271.889 72.8868 272.897 72.8868C274.353 72.8868 275.389 72.2615 276.005 71.0108H280.233C279.785 72.5041 278.927 73.7361 277.657 74.7068C276.388 75.6588 274.829 76.1348 272.981 76.1348C271.488 76.1348 270.144 75.8081 268.949 75.1548C267.773 74.4828 266.849 73.5401 266.177 72.3268C265.524 71.1135 265.197 69.7135 265.197 68.1268C265.197 66.5215 265.524 65.1121 266.177 63.8988C266.831 62.6855 267.745 61.7521 268.921 61.0988C270.097 60.4455 271.451 60.1188 272.981 60.1188C274.456 60.1188 275.772 60.4361 276.929 61.0708C278.105 61.7055 279.011 62.6108 279.645 63.7868C280.299 64.9441 280.625 66.2788 280.625 67.7908ZM276.565 66.6708C276.547 65.6628 276.183 64.8601 275.473 64.2628C274.764 63.6468 273.896 63.3388 272.869 63.3388C271.899 63.3388 271.077 63.6375 270.405 64.2348C269.752 64.8135 269.351 65.6255 269.201 66.6708H276.565Z" fill="white"/>
<path d="M86.9219 78.6828H281.549V80.0828H86.9219V78.6828Z" fill="white"/>
<circle cx="143.655" cy="131.976" r="2.74114" fill="#D9D9D9"/>
<circle cx="259.272" cy="131.976" r="2.74114" fill="#D9D9D9"/>
</g>
<defs>
<filter id="filter0_d_1393_30760" x="-134.371" y="0.835938" width="659.585" height="195.304" filterUnits="userSpaceOnUse" color-interpolation-filters="sRGB">
<feFlood flood-opacity="0" result="BackgroundImageFix"/>
<feColorMatrix in="SourceAlpha" type="matrix" values="0 0 0 0 0 0 0 0 0 0 0 0 0 0 0 0 0 0 127 0" result="hardAlpha"/>
<feOffset dy="1.37057"/>
<feGaussianBlur stdDeviation="0.685285"/>
<feComposite in2="hardAlpha" operator="out"/>
<feColorMatrix type="matrix" values="0 0 0 0 0 0 0 0 0 0 0 0 0 0 0 0 0 0 0.25 0"/>
<feBlend mode="normal" in2="BackgroundImageFix" result="effect1_dropShadow_1393_30760"/>
<feBlend mode="normal" in="SourceGraphic" in2="effect1_dropShadow_1393_30760" result="shape"/>
</filter>
<linearGradient id="paint0_linear_1393_30760" x1="-542.346" y1="24.265" x2="790.995" y2="24.265" gradientUnits="userSpaceOnUse">
<stop stop-color="#0DCB80"/>
<stop offset="0.12" stop-color="#09B471"/>
<stop offset="0.42" stop-color="#057E4F"/>
<stop offset="0.68" stop-color="#053E52"/>
<stop offset="0.88" stop-color="#022835"/>
<stop offset="1" stop-color="#01222D"/>
</linearGradient>
<clipPath id="clip0_1393_30760">
<rect width="656.845" height="192.565" fill="white" transform="translate(-133 0.835938)"/>
</clipPath>
</defs>
</svg>
